<?xml version="1.0" encoding="utf-8" standalone="no"?>
<!DOCTYPE svg PUBLIC "-//W3C//DTD SVG 1.1//EN"
  "http://www.w3.org/Graphics/SVG/1.1/DTD/svg11.dtd">
<!-- Created with matplotlib (http://matplotlib.org/) -->
<svg height="329pt" version="1.1" viewBox="0 0 425 329" width="425pt" xmlns="http://www.w3.org/2000/svg" xmlns:xlink="http://www.w3.org/1999/xlink">
 <defs>
  <style type="text/css">
*{stroke-linecap:butt;stroke-linejoin:round;}
  </style>
 </defs>
 <g id="figure_1">
  <g id="patch_1">
   <path d="M 0 329.857625 
L 425.125625 329.857625 
L 425.125625 0 
L 0 0 
z
" style="fill:#ffffff;"/>
  </g>
  <g id="axes_1">
   <g id="patch_2">
    <path d="M 52.854063 288.430125 
L 409.974063 288.430125 
L 409.974063 22.318125 
L 52.854063 22.318125 
z
" style="fill:#ffffff;"/>
   </g>
   <g id="matplotlib.axis_1">
    <g id="xtick_1">
     <g id="line2d_1">
      <defs>
       <path d="M 0 0 
L 0 3.5 
" id="mc7989ffada" style="stroke:#000000;stroke-width:0.8;"/>
      </defs>
      <g>
       <use style="stroke:#000000;stroke-width:0.8;" x="52.854063" xlink:href="#mc7989ffada" y="288.430125"/>
      </g>
     </g>
     <g id="text_1">
      <!-- 0.0 -->
      <defs>
       <path d="M 31.78125 66.40625 
Q 24.171875 66.40625 20.328125 58.90625 
Q 16.5 51.421875 16.5 36.375 
Q 16.5 21.390625 20.328125 13.890625 
Q 24.171875 6.390625 31.78125 6.390625 
Q 39.453125 6.390625 43.28125 13.890625 
Q 47.125 21.390625 47.125 36.375 
Q 47.125 51.421875 43.28125 58.90625 
Q 39.453125 66.40625 31.78125 66.40625 
M 31.78125 74.21875 
Q 44.046875 74.21875 50.515625 64.515625 
Q 56.984375 54.828125 56.984375 36.375 
Q 56.984375 17.96875 50.515625 8.265625 
Q 44.046875 -1.421875 31.78125 -1.421875 
Q 19.53125 -1.421875 13.0625 8.265625 
Q 6.59375 17.96875 6.59375 36.375 
Q 6.59375 54.828125 13.0625 64.515625 
Q 19.53125 74.21875 31.78125 74.21875 
" id="DejaVuSans-30"/>
       <path d="M 10.6875 12.40625 
L 21 12.40625 
L 21 0 
L 10.6875 0 
z
" id="DejaVuSans-2e"/>
      </defs>
      <g transform="translate(44.9025 303.028562)scale(0.1 -0.1)">
       <use xlink:href="#DejaVuSans-30"/>
       <use x="63.623047" xlink:href="#DejaVuSans-2e"/>
       <use x="95.410156" xlink:href="#DejaVuSans-30"/>
      </g>
     </g>
    </g>
    <g id="xtick_2">
     <g id="line2d_2">
      <g>
       <use style="stroke:#000000;stroke-width:0.8;" x="103.871205" xlink:href="#mc7989ffada" y="288.430125"/>
      </g>
     </g>
     <g id="text_2">
      <!-- 0.5 -->
      <defs>
       <path d="M 10.796875 72.90625 
L 49.515625 72.90625 
L 49.515625 64.59375 
L 19.828125 64.59375 
L 19.828125 46.734375 
Q 21.96875 47.46875 24.109375 47.828125 
Q 26.265625 48.1875 28.421875 48.1875 
Q 40.625 48.1875 47.75 41.5 
Q 54.890625 34.8125 54.890625 23.390625 
Q 54.890625 11.625 47.5625 5.09375 
Q 40.234375 -1.421875 26.90625 -1.421875 
Q 22.3125 -1.421875 17.546875 -0.640625 
Q 12.796875 0.140625 7.71875 1.703125 
L 7.71875 11.625 
Q 12.109375 9.234375 16.796875 8.0625 
Q 21.484375 6.890625 26.703125 6.890625 
Q 35.15625 6.890625 40.078125 11.328125 
Q 45.015625 15.765625 45.015625 23.390625 
Q 45.015625 31 40.078125 35.4375 
Q 35.15625 39.890625 26.703125 39.890625 
Q 22.75 39.890625 18.8125 39.015625 
Q 14.890625 38.140625 10.796875 36.28125 
z
" id="DejaVuSans-35"/>
      </defs>
      <g transform="translate(95.919643 303.028562)scale(0.1 -0.1)">
       <use xlink:href="#DejaVuSans-30"/>
       <use x="63.623047" xlink:href="#DejaVuSans-2e"/>
       <use x="95.410156" xlink:href="#DejaVuSans-35"/>
      </g>
     </g>
    </g>
    <g id="xtick_3">
     <g id="line2d_3">
      <g>
       <use style="stroke:#000000;stroke-width:0.8;" x="154.888348" xlink:href="#mc7989ffada" y="288.430125"/>
      </g>
     </g>
     <g id="text_3">
      <!-- 1.0 -->
      <defs>
       <path d="M 12.40625 8.296875 
L 28.515625 8.296875 
L 28.515625 63.921875 
L 10.984375 60.40625 
L 10.984375 69.390625 
L 28.421875 72.90625 
L 38.28125 72.90625 
L 38.28125 8.296875 
L 54.390625 8.296875 
L 54.390625 0 
L 12.40625 0 
z
" id="DejaVuSans-31"/>
      </defs>
      <g transform="translate(146.936786 303.028562)scale(0.1 -0.1)">
       <use xlink:href="#DejaVuSans-31"/>
       <use x="63.623047" xlink:href="#DejaVuSans-2e"/>
       <use x="95.410156" xlink:href="#DejaVuSans-30"/>
      </g>
     </g>
    </g>
    <g id="xtick_4">
     <g id="line2d_4">
      <g>
       <use style="stroke:#000000;stroke-width:0.8;" x="205.905491" xlink:href="#mc7989ffada" y="288.430125"/>
      </g>
     </g>
     <g id="text_4">
      <!-- 1.5 -->
      <g transform="translate(197.953929 303.028562)scale(0.1 -0.1)">
       <use xlink:href="#DejaVuSans-31"/>
       <use x="63.623047" xlink:href="#DejaVuSans-2e"/>
       <use x="95.410156" xlink:href="#DejaVuSans-35"/>
      </g>
     </g>
    </g>
    <g id="xtick_5">
     <g id="line2d_5">
      <g>
       <use style="stroke:#000000;stroke-width:0.8;" x="256.922634" xlink:href="#mc7989ffada" y="288.430125"/>
      </g>
     </g>
     <g id="text_5">
      <!-- 2.0 -->
      <defs>
       <path d="M 19.1875 8.296875 
L 53.609375 8.296875 
L 53.609375 0 
L 7.328125 0 
L 7.328125 8.296875 
Q 12.9375 14.109375 22.625 23.890625 
Q 32.328125 33.6875 34.8125 36.53125 
Q 39.546875 41.84375 41.421875 45.53125 
Q 43.3125 49.21875 43.3125 52.78125 
Q 43.3125 58.59375 39.234375 62.25 
Q 35.15625 65.921875 28.609375 65.921875 
Q 23.96875 65.921875 18.8125 64.3125 
Q 13.671875 62.703125 7.8125 59.421875 
L 7.8125 69.390625 
Q 13.765625 71.78125 18.9375 73 
Q 24.125 74.21875 28.421875 74.21875 
Q 39.75 74.21875 46.484375 68.546875 
Q 53.21875 62.890625 53.21875 53.421875 
Q 53.21875 48.921875 51.53125 44.890625 
Q 49.859375 40.875 45.40625 35.40625 
Q 44.1875 33.984375 37.640625 27.21875 
Q 31.109375 20.453125 19.1875 8.296875 
" id="DejaVuSans-32"/>
      </defs>
      <g transform="translate(248.971071 303.028562)scale(0.1 -0.1)">
       <use xlink:href="#DejaVuSans-32"/>
       <use x="63.623047" xlink:href="#DejaVuSans-2e"/>
       <use x="95.410156" xlink:href="#DejaVuSans-30"/>
      </g>
     </g>
    </g>
    <g id="xtick_6">
     <g id="line2d_6">
      <g>
       <use style="stroke:#000000;stroke-width:0.8;" x="307.939777" xlink:href="#mc7989ffada" y="288.430125"/>
      </g>
     </g>
     <g id="text_6">
      <!-- 2.5 -->
      <g transform="translate(299.988214 303.028562)scale(0.1 -0.1)">
       <use xlink:href="#DejaVuSans-32"/>
       <use x="63.623047" xlink:href="#DejaVuSans-2e"/>
       <use x="95.410156" xlink:href="#DejaVuSans-35"/>
      </g>
     </g>
    </g>
    <g id="xtick_7">
     <g id="line2d_7">
      <g>
       <use style="stroke:#000000;stroke-width:0.8;" x="358.95692" xlink:href="#mc7989ffada" y="288.430125"/>
      </g>
     </g>
     <g id="text_7">
      <!-- 3.0 -->
      <defs>
       <path d="M 40.578125 39.3125 
Q 47.65625 37.796875 51.625 33 
Q 55.609375 28.21875 55.609375 21.1875 
Q 55.609375 10.40625 48.1875 4.484375 
Q 40.765625 -1.421875 27.09375 -1.421875 
Q 22.515625 -1.421875 17.65625 -0.515625 
Q 12.796875 0.390625 7.625 2.203125 
L 7.625 11.71875 
Q 11.71875 9.328125 16.59375 8.109375 
Q 21.484375 6.890625 26.8125 6.890625 
Q 36.078125 6.890625 40.9375 10.546875 
Q 45.796875 14.203125 45.796875 21.1875 
Q 45.796875 27.640625 41.28125 31.265625 
Q 36.765625 34.90625 28.71875 34.90625 
L 20.21875 34.90625 
L 20.21875 43.015625 
L 29.109375 43.015625 
Q 36.375 43.015625 40.234375 45.921875 
Q 44.09375 48.828125 44.09375 54.296875 
Q 44.09375 59.90625 40.109375 62.90625 
Q 36.140625 65.921875 28.71875 65.921875 
Q 24.65625 65.921875 20.015625 65.03125 
Q 15.375 64.15625 9.8125 62.3125 
L 9.8125 71.09375 
Q 15.4375 72.65625 20.34375 73.4375 
Q 25.25 74.21875 29.59375 74.21875 
Q 40.828125 74.21875 47.359375 69.109375 
Q 53.90625 64.015625 53.90625 55.328125 
Q 53.90625 49.265625 50.4375 45.09375 
Q 46.96875 40.921875 40.578125 39.3125 
" id="DejaVuSans-33"/>
      </defs>
      <g transform="translate(351.005357 303.028562)scale(0.1 -0.1)">
       <use xlink:href="#DejaVuSans-33"/>
       <use x="63.623047" xlink:href="#DejaVuSans-2e"/>
       <use x="95.410156" xlink:href="#DejaVuSans-30"/>
      </g>
     </g>
    </g>
    <g id="xtick_8">
     <g id="line2d_8">
      <g>
       <use style="stroke:#000000;stroke-width:0.8;" x="409.974063" xlink:href="#mc7989ffada" y="288.430125"/>
      </g>
     </g>
     <g id="text_8">
      <!-- 3.5 -->
      <g transform="translate(402.0225 303.028562)scale(0.1 -0.1)">
       <use xlink:href="#DejaVuSans-33"/>
       <use x="63.623047" xlink:href="#DejaVuSans-2e"/>
       <use x="95.410156" xlink:href="#DejaVuSans-35"/>
      </g>
     </g>
    </g>
    <g id="text_9">
     <!-- Input power -->
     <defs>
      <path d="M 9.8125 72.90625 
L 19.671875 72.90625 
L 19.671875 0 
L 9.8125 0 
z
" id="DejaVuSans-49"/>
      <path d="M 54.890625 33.015625 
L 54.890625 0 
L 45.90625 0 
L 45.90625 32.71875 
Q 45.90625 40.484375 42.875 44.328125 
Q 39.84375 48.1875 33.796875 48.1875 
Q 26.515625 48.1875 22.3125 43.546875 
Q 18.109375 38.921875 18.109375 30.90625 
L 18.109375 0 
L 9.078125 0 
L 9.078125 54.6875 
L 18.109375 54.6875 
L 18.109375 46.1875 
Q 21.34375 51.125 25.703125 53.5625 
Q 30.078125 56 35.796875 56 
Q 45.21875 56 50.046875 50.171875 
Q 54.890625 44.34375 54.890625 33.015625 
" id="DejaVuSans-6e"/>
      <path d="M 18.109375 8.203125 
L 18.109375 -20.796875 
L 9.078125 -20.796875 
L 9.078125 54.6875 
L 18.109375 54.6875 
L 18.109375 46.390625 
Q 20.953125 51.265625 25.265625 53.625 
Q 29.59375 56 35.59375 56 
Q 45.5625 56 51.78125 48.09375 
Q 58.015625 40.1875 58.015625 27.296875 
Q 58.015625 14.40625 51.78125 6.484375 
Q 45.5625 -1.421875 35.59375 -1.421875 
Q 29.59375 -1.421875 25.265625 0.953125 
Q 20.953125 3.328125 18.109375 8.203125 
M 48.6875 27.296875 
Q 48.6875 37.203125 44.609375 42.84375 
Q 40.53125 48.484375 33.40625 48.484375 
Q 26.265625 48.484375 22.1875 42.84375 
Q 18.109375 37.203125 18.109375 27.296875 
Q 18.109375 17.390625 22.1875 11.75 
Q 26.265625 6.109375 33.40625 6.109375 
Q 40.53125 6.109375 44.609375 11.75 
Q 48.6875 17.390625 48.6875 27.296875 
" id="DejaVuSans-70"/>
      <path d="M 8.5 21.578125 
L 8.5 54.6875 
L 17.484375 54.6875 
L 17.484375 21.921875 
Q 17.484375 14.15625 20.5 10.265625 
Q 23.53125 6.390625 29.59375 6.390625 
Q 36.859375 6.390625 41.078125 11.03125 
Q 45.3125 15.671875 45.3125 23.6875 
L 45.3125 54.6875 
L 54.296875 54.6875 
L 54.296875 0 
L 45.3125 0 
L 45.3125 8.40625 
Q 42.046875 3.421875 37.71875 1 
Q 33.40625 -1.421875 27.6875 -1.421875 
Q 18.265625 -1.421875 13.375 4.4375 
Q 8.5 10.296875 8.5 21.578125 
M 31.109375 56 
z
" id="DejaVuSans-75"/>
      <path d="M 18.3125 70.21875 
L 18.3125 54.6875 
L 36.8125 54.6875 
L 36.8125 47.703125 
L 18.3125 47.703125 
L 18.3125 18.015625 
Q 18.3125 11.328125 20.140625 9.421875 
Q 21.96875 7.515625 27.59375 7.515625 
L 36.8125 7.515625 
L 36.8125 0 
L 27.59375 0 
Q 17.1875 0 13.234375 3.875 
Q 9.28125 7.765625 9.28125 18.015625 
L 9.28125 47.703125 
L 2.6875 47.703125 
L 2.6875 54.6875 
L 9.28125 54.6875 
L 9.28125 70.21875 
z
" id="DejaVuSans-74"/>
      <path id="DejaVuSans-20"/>
      <path d="M 30.609375 48.390625 
Q 23.390625 48.390625 19.1875 42.75 
Q 14.984375 37.109375 14.984375 27.296875 
Q 14.984375 17.484375 19.15625 11.84375 
Q 23.34375 6.203125 30.609375 6.203125 
Q 37.796875 6.203125 41.984375 11.859375 
Q 46.1875 17.53125 46.1875 27.296875 
Q 46.1875 37.015625 41.984375 42.703125 
Q 37.796875 48.390625 30.609375 48.390625 
M 30.609375 56 
Q 42.328125 56 49.015625 48.375 
Q 55.71875 40.765625 55.71875 27.296875 
Q 55.71875 13.875 49.015625 6.21875 
Q 42.328125 -1.421875 30.609375 -1.421875 
Q 18.84375 -1.421875 12.171875 6.21875 
Q 5.515625 13.875 5.515625 27.296875 
Q 5.515625 40.765625 12.171875 48.375 
Q 18.84375 56 30.609375 56 
" id="DejaVuSans-6f"/>
      <path d="M 4.203125 54.6875 
L 13.1875 54.6875 
L 24.421875 12.015625 
L 35.59375 54.6875 
L 46.1875 54.6875 
L 57.421875 12.015625 
L 68.609375 54.6875 
L 77.59375 54.6875 
L 63.28125 0 
L 52.6875 0 
L 40.921875 44.828125 
L 29.109375 0 
L 18.5 0 
z
" id="DejaVuSans-77"/>
      <path d="M 56.203125 29.59375 
L 56.203125 25.203125 
L 14.890625 25.203125 
Q 15.484375 15.921875 20.484375 11.0625 
Q 25.484375 6.203125 34.421875 6.203125 
Q 39.59375 6.203125 44.453125 7.46875 
Q 49.3125 8.734375 54.109375 11.28125 
L 54.109375 2.78125 
Q 49.265625 0.734375 44.1875 -0.34375 
Q 39.109375 -1.421875 33.890625 -1.421875 
Q 20.796875 -1.421875 13.15625 6.1875 
Q 5.515625 13.8125 5.515625 26.8125 
Q 5.515625 40.234375 12.765625 48.109375 
Q 20.015625 56 32.328125 56 
Q 43.359375 56 49.78125 48.890625 
Q 56.203125 41.796875 56.203125 29.59375 
M 47.21875 32.234375 
Q 47.125 39.59375 43.09375 43.984375 
Q 39.0625 48.390625 32.421875 48.390625 
Q 24.90625 48.390625 20.390625 44.140625 
Q 15.875 39.890625 15.1875 32.171875 
z
" id="DejaVuSans-65"/>
      <path d="M 41.109375 46.296875 
Q 39.59375 47.171875 37.8125 47.578125 
Q 36.03125 48 33.890625 48 
Q 26.265625 48 22.1875 43.046875 
Q 18.109375 38.09375 18.109375 28.8125 
L 18.109375 0 
L 9.078125 0 
L 9.078125 54.6875 
L 18.109375 54.6875 
L 18.109375 46.1875 
Q 20.953125 51.171875 25.484375 53.578125 
Q 30.03125 56 36.53125 56 
Q 37.453125 56 38.578125 55.875 
Q 39.703125 55.765625 41.0625 55.515625 
z
" id="DejaVuSans-72"/>
     </defs>
     <g transform="translate(189.427188 319.746062)scale(0.14 -0.14)">
      <use xlink:href="#DejaVuSans-49"/>
      <use x="29.492188" xlink:href="#DejaVuSans-6e"/>
      <use x="92.871094" xlink:href="#DejaVuSans-70"/>
      <use x="156.347656" xlink:href="#DejaVuSans-75"/>
      <use x="219.726562" xlink:href="#DejaVuSans-74"/>
      <use x="258.935547" xlink:href="#DejaVuSans-20"/>
      <use x="290.722656" xlink:href="#DejaVuSans-70"/>
      <use x="354.199219" xlink:href="#DejaVuSans-6f"/>
      <use x="415.380859" xlink:href="#DejaVuSans-77"/>
      <use x="497.167969" xlink:href="#DejaVuSans-65"/>
      <use x="558.691406" xlink:href="#DejaVuSans-72"/>
     </g>
    </g>
   </g>
   <g id="matplotlib.axis_2">
    <g id="ytick_1">
     <g id="line2d_9">
      <defs>
       <path d="M 0 0 
L -3.5 0 
" id="ma7dfe4ef40" style="stroke:#000000;stroke-width:0.8;"/>
      </defs>
      <g>
       <use style="stroke:#000000;stroke-width:0.8;" x="52.854063" xlink:href="#ma7dfe4ef40" y="274.43441"/>
      </g>
     </g>
     <g id="text_10">
      <!-- −20 -->
      <defs>
       <path d="M 10.59375 35.5 
L 73.1875 35.5 
L 73.1875 27.203125 
L 10.59375 27.203125 
z
" id="DejaVuSans-2212"/>
      </defs>
      <g transform="translate(24.749375 278.233629)scale(0.1 -0.1)">
       <use xlink:href="#DejaVuSans-2212"/>
       <use x="83.789062" xlink:href="#DejaVuSans-32"/>
       <use x="147.412109" xlink:href="#DejaVuSans-30"/>
      </g>
     </g>
    </g>
    <g id="ytick_2">
     <g id="line2d_10">
      <g>
       <use style="stroke:#000000;stroke-width:0.8;" x="52.854063" xlink:href="#ma7dfe4ef40" y="241.892108"/>
      </g>
     </g>
     <g id="text_11">
      <!-- −15 -->
      <g transform="translate(24.749375 245.691327)scale(0.1 -0.1)">
       <use xlink:href="#DejaVuSans-2212"/>
       <use x="83.789062" xlink:href="#DejaVuSans-31"/>
       <use x="147.412109" xlink:href="#DejaVuSans-35"/>
      </g>
     </g>
    </g>
    <g id="ytick_3">
     <g id="line2d_11">
      <g>
       <use style="stroke:#000000;stroke-width:0.8;" x="52.854063" xlink:href="#ma7dfe4ef40" y="209.349806"/>
      </g>
     </g>
     <g id="text_12">
      <!-- −10 -->
      <g transform="translate(24.749375 213.149024)scale(0.1 -0.1)">
       <use xlink:href="#DejaVuSans-2212"/>
       <use x="83.789062" xlink:href="#DejaVuSans-31"/>
       <use x="147.412109" xlink:href="#DejaVuSans-30"/>
      </g>
     </g>
    </g>
    <g id="ytick_4">
     <g id="line2d_12">
      <g>
       <use style="stroke:#000000;stroke-width:0.8;" x="52.854063" xlink:href="#ma7dfe4ef40" y="176.807503"/>
      </g>
     </g>
     <g id="text_13">
      <!-- −5 -->
      <g transform="translate(31.111875 180.606722)scale(0.1 -0.1)">
       <use xlink:href="#DejaVuSans-2212"/>
       <use x="83.789062" xlink:href="#DejaVuSans-35"/>
      </g>
     </g>
    </g>
    <g id="ytick_5">
     <g id="line2d_13">
      <g>
       <use style="stroke:#000000;stroke-width:0.8;" x="52.854063" xlink:href="#ma7dfe4ef40" y="144.265201"/>
      </g>
     </g>
     <g id="text_14">
      <!-- 0 -->
      <g transform="translate(39.491563 148.06442)scale(0.1 -0.1)">
       <use xlink:href="#DejaVuSans-30"/>
      </g>
     </g>
    </g>
    <g id="ytick_6">
     <g id="line2d_14">
      <g>
       <use style="stroke:#000000;stroke-width:0.8;" x="52.854063" xlink:href="#ma7dfe4ef40" y="111.722899"/>
      </g>
     </g>
     <g id="text_15">
      <!-- 5 -->
      <g transform="translate(39.491563 115.522117)scale(0.1 -0.1)">
       <use xlink:href="#DejaVuSans-35"/>
      </g>
     </g>
    </g>
    <g id="ytick_7">
     <g id="line2d_15">
      <g>
       <use style="stroke:#000000;stroke-width:0.8;" x="52.854063" xlink:href="#ma7dfe4ef40" y="79.180596"/>
      </g>
     </g>
     <g id="text_16">
      <!-- 10 -->
      <g transform="translate(33.129063 82.979815)scale(0.1 -0.1)">
       <use xlink:href="#DejaVuSans-31"/>
       <use x="63.623047" xlink:href="#DejaVuSans-30"/>
      </g>
     </g>
    </g>
    <g id="ytick_8">
     <g id="line2d_16">
      <g>
       <use style="stroke:#000000;stroke-width:0.8;" x="52.854063" xlink:href="#ma7dfe4ef40" y="46.638294"/>
      </g>
     </g>
     <g id="text_17">
      <!-- 15 -->
      <g transform="translate(33.129063 50.437513)scale(0.1 -0.1)">
       <use xlink:href="#DejaVuSans-31"/>
       <use x="63.623047" xlink:href="#DejaVuSans-35"/>
      </g>
     </g>
    </g>
    <g id="text_18">
     <!-- dB -->
     <defs>
      <path d="M 45.40625 46.390625 
L 45.40625 75.984375 
L 54.390625 75.984375 
L 54.390625 0 
L 45.40625 0 
L 45.40625 8.203125 
Q 42.578125 3.328125 38.25 0.953125 
Q 33.9375 -1.421875 27.875 -1.421875 
Q 17.96875 -1.421875 11.734375 6.484375 
Q 5.515625 14.40625 5.515625 27.296875 
Q 5.515625 40.1875 11.734375 48.09375 
Q 17.96875 56 27.875 56 
Q 33.9375 56 38.25 53.625 
Q 42.578125 51.265625 45.40625 46.390625 
M 14.796875 27.296875 
Q 14.796875 17.390625 18.875 11.75 
Q 22.953125 6.109375 30.078125 6.109375 
Q 37.203125 6.109375 41.296875 11.75 
Q 45.40625 17.390625 45.40625 27.296875 
Q 45.40625 37.203125 41.296875 42.84375 
Q 37.203125 48.484375 30.078125 48.484375 
Q 22.953125 48.484375 18.875 42.84375 
Q 14.796875 37.203125 14.796875 27.296875 
" id="DejaVuSans-64"/>
      <path d="M 19.671875 34.8125 
L 19.671875 8.109375 
L 35.5 8.109375 
Q 43.453125 8.109375 47.28125 11.40625 
Q 51.125 14.703125 51.125 21.484375 
Q 51.125 28.328125 47.28125 31.5625 
Q 43.453125 34.8125 35.5 34.8125 
z
M 19.671875 64.796875 
L 19.671875 42.828125 
L 34.28125 42.828125 
Q 41.5 42.828125 45.03125 45.53125 
Q 48.578125 48.25 48.578125 53.8125 
Q 48.578125 59.328125 45.03125 62.0625 
Q 41.5 64.796875 34.28125 64.796875 
z
M 9.8125 72.90625 
L 35.015625 72.90625 
Q 46.296875 72.90625 52.390625 68.21875 
Q 58.5 63.53125 58.5 54.890625 
Q 58.5 48.1875 55.375 44.234375 
Q 52.25 40.28125 46.1875 39.3125 
Q 53.46875 37.75 57.5 32.78125 
Q 61.53125 27.828125 61.53125 20.40625 
Q 61.53125 10.640625 54.890625 5.3125 
Q 48.25 0 35.984375 0 
L 9.8125 0 
z
" id="DejaVuSans-42"/>
     </defs>
     <g transform="translate(17.837813 164.620688)rotate(-90)scale(0.14 -0.14)">
      <use xlink:href="#DejaVuSans-64"/>
      <use x="63.476562" xlink:href="#DejaVuSans-42"/>
     </g>
    </g>
   </g>
   <g id="line2d_17">
    <path clip-path="url(#p27d0116a53)" d="M 53.874405 276.30391 
L 78.61772 276.213459 
L 79.638063 276.183373 
L 89.586405 276.093307 
L 90.606748 276.063348 
L 98.004234 275.973662 
L 99.024577 275.94383 
L 104.636462 275.854523 
L 105.656805 275.824816 
L 110.75852 275.735883 
L 111.778863 275.706301 
L 115.860234 275.617739 
L 116.880577 275.58828 
L 120.706862 275.500087 
L 121.727205 275.47075 
L 125.298405 275.382922 
L 126.573834 275.324522 
L 130.40012 275.237147 
L 131.675548 275.179046 
L 135.246748 275.092119 
L 136.522177 275.034315 
L 139.838291 274.947831 
L 141.11372 274.890321 
L 143.919663 274.804276 
L 145.195091 274.747058 
L 148.001034 274.661447 
L 149.276463 274.604516 
L 151.82732 274.519335 
L 153.102748 274.46269 
L 155.39852 274.377935 
L 156.673948 274.321572 
L 158.96972 274.237238 
L 160.500234 274.153155 
L 163.051091 274.069322 
L 165.091777 273.957929 
L 167.89772 273.846973 
L 169.68332 273.764042 
L 172.234177 273.653843 
L 174.274863 273.544073 
L 176.82572 273.434727 
L 179.121491 273.298636 
L 181.672348 273.190234 
L 183.96812 273.055313 
L 186.263891 272.947838 
L 188.814748 272.787388 
L 191.11052 272.680925 
L 193.661377 272.521979 
L 195.702063 272.416509 
L 198.508005 272.232878 
L 200.548691 272.12848 
L 203.354634 271.946705 
L 205.140234 271.843356 
L 208.201262 271.637785 
L 209.986863 271.535558 
L 213.558063 271.281595 
L 215.343662 271.180645 
L 219.68012 270.855026 
L 221.210634 270.755586 
L 225.802177 270.410274 
L 227.332691 270.312384 
L 233.709834 269.803947 
L 234.985263 269.70813 
L 246.209034 268.767415 
L 269.67692 266.544109 
L 271.46252 266.352331 
L 275.798977 265.888945 
L 278.094748 265.618655 
L 281.665948 265.228208 
L 284.471891 264.883374 
L 287.277834 264.562623 
L 290.849034 264.107828 
L 293.144805 263.834537 
L 298.756691 263.086871 
L 300.542291 262.860742 
L 321.969491 259.602494 
L 328.856805 258.359118 
L 330.642405 258.024983 
L 337.784805 256.590955 
L 351.81452 253.18164 
L 360.74252 250.27158 
L 365.844234 248.008177 
L 367.88492 246.844987 
L 369.67052 245.5441 
L 370.690862 244.554668 
L 371.45612 243.503914 
L 371.711205 242.969606 
L 371.966291 153.092326 
L 377.323091 153.013252 
L 380.129034 152.777349 
L 381.404462 152.474533 
L 381.914634 152.195501 
L 382.679891 151.463392 
L 382.934977 150.205718 
L 387.271434 150.374326 
L 401.556234 151.27043 
L 409.974063 151.809352 
L 409.974063 151.809352 
" style="fill:none;stroke:#ffc0cb;stroke-linecap:square;stroke-width:1.5;"/>
   </g>
   <g id="line2d_18">
    <path clip-path="url(#p27d0116a53)" d="M 53.874405 276.243578 
L 81.423663 276.153319 
L 82.444005 276.123297 
L 92.137263 276.033421 
L 93.157605 276.003526 
L 100.04492 275.91403 
L 101.065263 275.884261 
L 106.677148 275.795141 
L 107.697491 275.765496 
L 112.54412 275.676749 
L 113.564463 275.647229 
L 117.90092 275.558852 
L 118.921263 275.529454 
L 122.747548 275.441444 
L 124.022977 275.382922 
L 128.104348 275.295367 
L 129.379777 275.237147 
L 133.206063 275.15004 
L 134.481491 275.092119 
L 137.797605 275.005458 
L 139.073034 274.947831 
L 142.389148 274.861611 
L 143.664577 274.804276 
L 146.47052 274.718492 
L 147.745948 274.661447 
L 150.296805 274.576094 
L 151.572234 274.519335 
L 154.123091 274.43441 
L 155.39852 274.377935 
L 157.694291 274.293433 
L 158.96972 274.237238 
L 161.265491 274.153155 
L 162.796005 274.069322 
L 165.091777 273.985736 
L 166.877377 273.902397 
L 169.428234 273.791659 
L 171.46892 273.681352 
L 174.274863 273.571475 
L 176.315548 273.462023 
L 178.61132 273.352994 
L 180.652005 273.244383 
L 182.947777 273.136188 
L 185.243548 273.001525 
L 187.53932 272.894253 
L 189.835091 272.760735 
L 191.875777 272.654372 
L 194.171548 272.521979 
L 196.212234 272.416509 
L 199.018177 272.232878 
L 201.058863 272.12848 
L 203.864805 271.946705 
L 205.650405 271.843356 
L 208.711434 271.637785 
L 210.497034 271.535558 
L 213.813148 271.306888 
L 215.343662 271.205849 
L 218.914862 270.954818 
L 220.445377 270.855026 
L 224.526748 270.557749 
L 226.057263 270.459347 
L 231.669148 270.02073 
L 233.199663 269.924177 
L 242.637834 269.139953 
L 243.913263 269.046357 
L 274.523548 266.140759 
L 276.564234 265.909844 
L 280.645605 265.474178 
L 283.196462 265.167048 
L 286.257491 264.822955 
L 289.063434 264.483 
L 291.614291 264.186399 
L 295.440577 263.698876 
L 297.481263 263.448648 
L 304.623663 262.487836 
L 324.010177 259.569063 
L 328.856805 258.729665 
L 345.182291 255.51417 
L 354.110291 253.38225 
L 360.232348 251.663905 
L 364.568805 250.27158 
L 370.945948 247.77608 
L 374.517148 245.964227 
L 376.302748 244.850855 
L 377.833262 243.693809 
L 379.108691 242.445212 
L 379.873948 241.43353 
L 380.38412 240.473807 
L 380.639205 239.685798 
L 380.894291 157.846231 
L 404.362177 159.670683 
L 406.402862 159.78107 
L 406.657948 160.100979 
L 409.974063 160.286704 
L 409.974063 160.286704 
" style="fill:none;stroke:#ffc0cb;stroke-linecap:square;stroke-width:1.5;"/>
   </g>
   <g id="line2d_19">
    <path clip-path="url(#p27d0116a53)" d="M 53.874405 276.243578 
L 71.220234 276.153319 
L 72.240577 276.123297 
L 81.168577 276.033421 
L 82.18892 276.003526 
L 88.821148 275.91403 
L 89.841491 275.884261 
L 95.198291 275.795141 
L 96.218634 275.765496 
L 101.065263 275.676749 
L 102.085605 275.647229 
L 106.166977 275.558852 
L 107.18732 275.529454 
L 110.75852 275.441444 
L 111.778863 275.412168 
L 115.350063 275.324522 
L 116.625491 275.266242 
L 120.451777 275.179046 
L 121.727205 275.121065 
L 125.04332 275.034315 
L 126.318748 274.97663 
L 129.379777 274.890321 
L 130.655205 274.832929 
L 133.716234 274.747058 
L 134.991663 274.689955 
L 137.54252 274.604516 
L 138.817948 274.547701 
L 141.368805 274.46269 
L 142.644234 274.406158 
L 144.940005 274.321572 
L 146.215434 274.265322 
L 148.511205 274.181155 
L 150.04172 274.097239 
L 152.337491 274.01357 
L 154.123091 273.930149 
L 156.673948 273.819302 
L 158.714634 273.708889 
L 161.520577 273.598905 
L 163.561262 273.489347 
L 166.11212 273.380212 
L 168.407891 273.244383 
L 170.703663 273.136188 
L 172.744348 273.028406 
L 174.785034 272.921033 
L 177.080805 272.787388 
L 179.376577 272.680925 
L 181.927434 272.521979 
L 183.96812 272.416509 
L 186.774063 272.232878 
L 188.814748 272.12848 
L 191.875777 271.920832 
L 193.916462 271.817578 
L 197.232577 271.586625 
L 199.018177 271.484582 
L 202.589377 271.231075 
L 204.119891 271.130305 
L 207.691091 270.879941 
L 209.221605 270.780413 
L 213.813148 270.4348 
L 215.343662 270.336824 
L 221.46572 269.851978 
L 222.741148 269.755998 
L 232.689491 268.929797 
L 233.96492 268.836893 
L 257.942977 266.565498 
L 259.728577 266.373575 
L 264.32012 265.888945 
L 266.615891 265.618655 
L 270.187091 265.228208 
L 272.737948 264.923725 
L 275.543891 264.602518 
L 278.860005 264.186399 
L 281.155777 263.912351 
L 285.74732 263.314822 
L 287.53292 263.086871 
L 315.082177 258.8923 
L 332.683091 255.413039 
L 340.335663 253.57078 
L 347.222977 251.638656 
L 351.304348 250.319712 
L 357.681491 247.820143 
L 361.252691 246.015892 
L 363.803548 244.35892 
L 365.334063 243.071935 
L 366.354405 241.948276 
L 367.119663 240.76433 
L 367.374748 240.211496 
L 367.629834 239.381552 
L 367.88492 153.039843 
L 377.323091 153.190997 
L 382.934977 153.074564 
L 384.720577 152.874924 
L 384.975662 150.329102 
L 409.974063 151.705818 
L 409.974063 151.705818 
" style="fill:none;stroke:#ffc0cb;stroke-linecap:square;stroke-width:1.5;"/>
   </g>
   <g id="line2d_20">
    <path clip-path="url(#p27d0116a53)" d="M 53.874405 276.30391 
L 73.26092 276.213459 
L 74.281263 276.183373 
L 83.719434 276.093307 
L 84.739777 276.063348 
L 91.627091 275.973662 
L 92.647434 275.94383 
L 98.25932 275.854523 
L 99.279663 275.824816 
L 104.126291 275.735883 
L 105.146634 275.706301 
L 109.483091 275.617739 
L 110.503434 275.58828 
L 114.32972 275.500087 
L 115.605148 275.441444 
L 119.68652 275.353707 
L 120.961948 275.295367 
L 124.788234 275.208081 
L 126.063663 275.15004 
L 129.379777 275.063202 
L 130.655205 275.005458 
L 133.97132 274.919062 
L 135.246748 274.861611 
L 138.052691 274.775652 
L 139.32812 274.718492 
L 141.878977 274.632967 
L 143.154405 274.576094 
L 145.705263 274.490999 
L 146.980691 274.43441 
L 149.276463 274.34974 
L 150.551891 274.293433 
L 152.847663 274.209183 
L 154.378177 274.125183 
L 156.673948 274.041432 
L 158.459548 273.957929 
L 161.010405 273.846973 
L 163.051091 273.736452 
L 165.857034 273.62636 
L 167.89772 273.516696 
L 170.448577 273.407456 
L 172.744348 273.271497 
L 175.295205 273.163198 
L 177.590977 273.028406 
L 179.886748 272.921033 
L 182.437605 272.760735 
L 184.733377 272.654372 
L 187.53932 272.469195 
L 189.580005 272.363921 
L 192.130863 272.206742 
L 193.916462 272.10244 
L 196.722405 271.920832 
L 198.508005 271.817578 
L 201.569034 271.612194 
L 203.354634 271.510058 
L 206.925834 271.256323 
L 208.711434 271.155464 
L 212.792805 270.855026 
L 214.32332 270.755586 
L 218.914862 270.410274 
L 220.445377 270.312384 
L 227.077605 269.779963 
L 228.353034 269.684227 
L 239.576805 268.744294 
L 263.044691 266.522736 
L 264.830291 266.331102 
L 269.166748 265.868062 
L 271.46252 265.59797 
L 275.03372 265.207806 
L 277.584577 264.903542 
L 280.135434 264.602518 
L 283.196462 264.225766 
L 285.492234 263.951338 
L 290.593948 263.276703 
L 292.379548 263.049057 
L 317.633034 259.203909 
L 335.74412 255.601142 
L 338.039891 255.054785 
L 342.121263 254.033942 
L 348.24332 252.27674 
L 352.069605 251.00232 
L 354.620463 250.032138 
L 357.936577 248.534642 
L 360.232348 247.209436 
L 361.507777 246.275643 
L 362.52812 245.280877 
L 363.038291 244.564491 
L 363.293377 244.03887 
L 363.548462 152.782697 
L 374.006977 153.067616 
L 379.108691 153.00786 
L 380.894291 152.817486 
L 381.659548 152.543777 
L 381.914634 152.355739 
L 382.16972 152.02017 
L 382.424805 151.29833 
L 382.679891 150.197349 
L 390.587548 150.586687 
L 409.974063 151.765829 
L 409.974063 151.765829 
" style="fill:none;stroke:#ffc0cb;stroke-linecap:square;stroke-width:1.5;"/>
   </g>
   <g id="line2d_21">
    <path clip-path="url(#p27d0116a53)" d="M 53.874405 276.334125 
L 75.556691 276.243578 
L 76.577034 276.213459 
L 86.780462 276.123297 
L 87.800805 276.093307 
L 94.943205 276.003526 
L 95.963548 275.973662 
L 101.83052 275.884261 
L 102.850863 275.854523 
L 107.697491 275.765496 
L 108.717834 275.735883 
L 113.054291 275.647229 
L 114.074634 275.617739 
L 117.90092 275.529454 
L 118.921263 275.500087 
L 122.492463 275.412168 
L 123.767891 275.353707 
L 127.594177 275.266242 
L 128.869605 275.208081 
L 132.440805 275.121065 
L 133.716234 275.063202 
L 137.032348 274.97663 
L 138.307777 274.919062 
L 141.11372 274.832929 
L 142.389148 274.775652 
L 145.195091 274.689955 
L 146.47052 274.632967 
L 149.021377 274.547701 
L 150.296805 274.490999 
L 152.592577 274.406158 
L 153.868005 274.34974 
L 156.163777 274.265322 
L 157.694291 274.181155 
L 159.990063 274.097239 
L 161.775663 274.01357 
L 163.816348 273.930149 
L 165.601948 273.846973 
L 168.152805 273.736452 
L 170.193491 273.62636 
L 172.744348 273.516696 
L 174.785034 273.407456 
L 177.080805 273.298636 
L 179.121491 273.190234 
L 181.417262 273.082246 
L 183.713034 272.947838 
L 185.75372 272.84077 
L 188.049491 272.707503 
L 190.090177 272.60134 
L 192.641034 272.442839 
L 194.68172 272.337664 
L 197.487662 272.154543 
L 199.528348 272.050433 
L 202.589377 271.843356 
L 204.374977 271.740384 
L 207.691091 271.510058 
L 209.476691 271.408291 
L 213.302977 271.130305 
L 215.088577 271.029893 
L 219.68012 270.681235 
L 221.210634 270.582403 
L 226.312348 270.190495 
L 227.842862 270.093361 
L 236.005605 269.422614 
L 237.281034 269.328079 
L 272.737948 265.951688 
L 275.03372 265.680801 
L 278.60492 265.2895 
L 281.155777 264.98436 
L 283.96172 264.662467 
L 287.277834 264.245471 
L 289.573605 263.970852 
L 294.165148 263.372099 
L 295.950748 263.143686 
L 322.224577 259.138021 
L 340.335663 255.528646 
L 346.45772 254.033942 
L 354.110291 251.866711 
L 361.762862 249.082625 
L 365.334063 247.371729 
L 367.629834 245.984882 
L 369.415434 244.554668 
L 370.180691 243.751028 
L 370.945948 242.600595 
L 371.201034 242.01104 
L 371.45612 153.252307 
L 379.873948 153.404214 
L 384.210405 153.297793 
L 384.975662 153.21116 
L 385.230748 152.987072 
L 385.485834 151.775413 
L 385.74092 151.790164 
L 385.996005 162.843752 
L 405.892691 164.267033 
L 409.974063 164.527481 
L 409.974063 164.527481 
" style="fill:none;stroke:#ffc0cb;stroke-linecap:square;stroke-width:1.5;"/>
   </g>
   <g id="line2d_22">
    <path clip-path="url(#p27d0116a53)" d="M 53.874405 276.153319 
L 72.750748 276.063348 
L 73.771091 276.033421 
L 83.209263 275.94383 
L 84.229605 275.91403 
L 91.11692 275.824816 
L 92.137263 275.795141 
L 97.749148 275.706301 
L 98.769491 275.676749 
L 103.361034 275.58828 
L 104.381377 275.558852 
L 108.717834 275.47075 
L 109.738177 275.441444 
L 113.564463 275.353707 
L 114.839891 275.295367 
L 118.921263 275.208081 
L 120.196691 275.15004 
L 124.022977 275.063202 
L 125.298405 275.005458 
L 128.869605 274.919062 
L 130.145034 274.861611 
L 133.206063 274.775652 
L 134.481491 274.718492 
L 137.287434 274.632967 
L 138.562863 274.576094 
L 141.368805 274.490999 
L 142.644234 274.43441 
L 144.940005 274.34974 
L 146.215434 274.293433 
L 148.511205 274.209183 
L 149.786634 274.153155 
L 152.082405 274.069322 
L 153.868005 273.985736 
L 156.673948 273.874671 
L 158.714634 273.764042 
L 161.520577 273.653843 
L 163.561262 273.544073 
L 166.367205 273.434727 
L 168.407891 273.325802 
L 170.703663 273.217296 
L 172.744348 273.109204 
L 175.04012 273.001525 
L 177.335891 272.867499 
L 179.631663 272.760735 
L 182.18252 272.60134 
L 184.478291 272.495574 
L 187.284234 272.311431 
L 189.32492 272.206742 
L 191.875777 272.050433 
L 193.661377 271.946705 
L 196.46732 271.766092 
L 198.25292 271.6634 
L 201.313948 271.459129 
L 203.099548 271.357544 
L 206.670748 271.105169 
L 208.456348 271.004846 
L 212.53772 270.705997 
L 214.068234 270.607078 
L 218.914862 270.239187 
L 220.445377 270.141887 
L 226.82252 269.636481 
L 228.097948 269.541229 
L 238.811548 268.651997 
L 240.086977 268.560001 
L 262.53452 266.437405 
L 264.32012 266.246347 
L 268.911662 265.763875 
L 270.952348 265.536006 
L 274.523548 265.146691 
L 277.074405 264.84308 
L 280.135434 264.502885 
L 283.196462 264.12745 
L 285.492234 263.85397 
L 289.828691 263.295756 
L 291.869377 263.049057 
L 302.327891 261.612435 
L 313.041491 260.006781 
L 316.10252 259.50232 
L 318.908462 259.039476 
L 326.305948 257.726037 
L 334.978862 256.025321 
L 349.263663 252.614324 
L 352.834862 251.588227 
L 356.916234 250.27158 
L 359.977262 249.151876 
L 362.273034 248.208645 
L 365.078977 246.866295 
L 367.119663 245.666419 
L 368.650177 244.544848 
L 369.67052 243.570232 
L 370.435777 242.53651 
L 370.690862 242.028998 
L 370.945948 240.988526 
L 371.201034 156.624457 
L 391.607891 158.054481 
L 391.862977 158.02963 
L 392.118062 158.376745 
L 407.678291 159.403346 
L 409.974063 159.542278 
L 409.974063 159.542278 
" style="fill:none;stroke:#ffc0cb;stroke-linecap:square;stroke-width:1.5;"/>
   </g>
   <g id="line2d_23">
    <path clip-path="url(#p27d0116a53)" d="M 53.874405 276.243578 
L 80.913491 276.153319 
L 81.933834 276.123297 
L 91.882177 276.033421 
L 92.90252 276.003526 
L 100.300005 275.91403 
L 101.320348 275.884261 
L 106.932234 275.795141 
L 107.952577 275.765496 
L 113.054291 275.676749 
L 114.074634 275.647229 
L 118.411091 275.558852 
L 119.68652 275.500087 
L 124.278063 275.412168 
L 125.553491 275.353707 
L 129.634863 275.266242 
L 130.910291 275.208081 
L 134.736577 275.121065 
L 136.012005 275.063202 
L 139.32812 274.97663 
L 140.603548 274.919062 
L 143.919663 274.832929 
L 145.195091 274.775652 
L 148.001034 274.689955 
L 149.276463 274.632967 
L 151.82732 274.547701 
L 153.102748 274.490999 
L 155.653605 274.406158 
L 156.929034 274.34974 
L 159.224805 274.265322 
L 160.75532 274.181155 
L 163.306177 274.097239 
L 165.091777 274.01357 
L 167.132463 273.930149 
L 168.918062 273.846973 
L 171.46892 273.736452 
L 173.509605 273.62636 
L 176.315548 273.516696 
L 178.356234 273.407456 
L 180.652005 273.298636 
L 182.692691 273.190234 
L 184.988462 273.082246 
L 187.284234 272.947838 
L 189.580005 272.84077 
L 192.130863 272.680925 
L 194.426634 272.574862 
L 196.977491 272.416509 
L 199.018177 272.311431 
L 201.82412 272.12848 
L 203.60972 272.024465 
L 206.415663 271.843356 
L 208.201262 271.740384 
L 211.262291 271.535558 
L 213.047891 271.433698 
L 216.619091 271.180645 
L 218.404691 271.080054 
L 222.741148 270.755586 
L 224.271662 270.656494 
L 228.863205 270.312384 
L 230.39372 270.214831 
L 237.025948 269.684227 
L 238.301377 269.588815 
L 249.780234 268.62897 
L 271.717605 266.544109 
L 273.503205 266.352331 
L 277.839662 265.888945 
L 279.880348 265.66007 
L 283.196462 265.2895 
L 285.74732 264.98436 
L 288.553263 264.662467 
L 291.614291 264.284921 
L 293.910062 264.00992 
L 298.24652 263.448648 
L 300.03212 263.219619 
L 310.235548 261.810667 
L 319.67372 260.365338 
L 322.734748 259.854495 
L 325.540691 259.385896 
L 345.692462 255.355413 
L 348.753491 254.602747 
L 351.304348 253.937963 
L 357.17132 252.250938 
L 364.31372 249.629686 
L 367.374748 248.119372 
L 369.160348 247.005194 
L 370.435777 245.953906 
L 371.201034 245.100071 
L 371.711205 244.203292 
L 371.966291 156.923216 
L 390.842634 158.257783 
L 394.924005 158.372089 
L 395.434177 158.329751 
L 395.689262 150.979671 
L 395.944348 164.59181 
L 409.974063 165.584339 
L 409.974063 165.584339 
" style="fill:none;stroke:#ffc0cb;stroke-linecap:square;stroke-width:1.5;"/>
   </g>
   <g id="line2d_24">
    <path clip-path="url(#p27d0116a53)" d="M 53.874405 276.213459 
L 77.852463 276.123297 
L 78.872805 276.093307 
L 88.566063 276.003526 
L 89.586405 275.973662 
L 96.47372 275.884261 
L 97.494063 275.854523 
L 103.105948 275.765496 
L 104.126291 275.735883 
L 108.97292 275.647229 
L 109.993263 275.617739 
L 114.074634 275.529454 
L 115.094977 275.500087 
L 118.921263 275.412168 
L 119.941605 275.382922 
L 123.512805 275.295367 
L 124.788234 275.237147 
L 128.61452 275.15004 
L 129.889948 275.092119 
L 133.206063 275.005458 
L 134.481491 274.947831 
L 137.797605 274.861611 
L 139.073034 274.804276 
L 141.878977 274.718492 
L 143.154405 274.661447 
L 145.960348 274.576094 
L 147.235777 274.519335 
L 149.786634 274.43441 
L 151.317148 274.34974 
L 154.123091 274.265322 
L 155.653605 274.181155 
L 158.204463 274.097239 
L 159.990063 274.01357 
L 161.775663 273.930149 
L 164.581605 273.819302 
L 166.622291 273.708889 
L 169.428234 273.598905 
L 171.46892 273.489347 
L 173.764691 273.380212 
L 175.805377 273.271497 
L 178.101148 273.163198 
L 180.141834 273.055313 
L 182.437605 272.947838 
L 184.988462 272.787388 
L 187.284234 272.680925 
L 189.835091 272.521979 
L 191.875777 272.416509 
L 194.426634 272.259038 
L 196.46732 272.154543 
L 199.528348 271.946705 
L 201.313948 271.843356 
L 204.119891 271.6634 
L 205.905491 271.56108 
L 209.476691 271.306888 
L 211.262291 271.205849 
L 215.343662 270.904878 
L 216.874177 270.805262 
L 220.955548 270.508505 
L 222.486063 270.410274 
L 228.353034 269.948284 
L 229.628463 269.851978 
L 237.53612 269.210354 
L 238.811548 269.116525 
L 269.932005 266.161845 
L 271.972691 265.930759 
L 276.054062 265.494772 
L 278.60492 265.18742 
L 281.665948 264.84308 
L 284.471891 264.502885 
L 286.767663 264.225766 
L 290.593948 263.73757 
L 292.634634 263.487001 
L 299.777034 262.524906 
L 318.143205 259.753425 
L 322.734748 258.957617 
L 325.03052 258.551841 
L 338.294977 255.937036 
L 348.753491 253.422544 
L 354.110291 251.904899 
L 358.446748 250.500943 
L 364.568805 248.074842 
L 367.88492 246.369741 
L 370.180691 244.850855 
L 371.45612 243.751028 
L 372.476462 242.573112 
L 372.986634 241.725253 
L 373.24172 241.101295 
L 373.496805 157.538965 
L 409.974063 160.409534 
L 409.974063 160.409534 
" style="fill:none;stroke:#ffc0cb;stroke-linecap:square;stroke-width:1.5;"/>
   </g>
   <g id="line2d_25">
    <path clip-path="url(#p27d0116a53)" d="M 53.874405 276.213459 
L 79.382977 276.123297 
L 80.40332 276.093307 
L 90.351663 276.003526 
L 91.372005 275.973662 
L 98.25932 275.884261 
L 99.279663 275.854523 
L 105.146634 275.765496 
L 106.166977 275.735883 
L 111.013605 275.647229 
L 112.033948 275.617739 
L 116.11532 275.529454 
L 117.135662 275.500087 
L 120.961948 275.412168 
L 121.982291 275.382922 
L 125.553491 275.295367 
L 126.82892 275.237147 
L 130.655205 275.15004 
L 131.930634 275.092119 
L 135.501834 275.005458 
L 136.777263 274.947831 
L 139.838291 274.861611 
L 141.11372 274.804276 
L 144.174748 274.718492 
L 145.450177 274.661447 
L 148.001034 274.576094 
L 149.276463 274.519335 
L 151.82732 274.43441 
L 153.102748 274.377935 
L 155.39852 274.293433 
L 156.673948 274.237238 
L 158.96972 274.153155 
L 160.500234 274.069322 
L 163.051091 273.985736 
L 165.091777 273.874671 
L 167.89772 273.764042 
L 169.938405 273.653843 
L 172.744348 273.544073 
L 174.785034 273.434727 
L 177.080805 273.325802 
L 179.121491 273.217296 
L 181.417262 273.109204 
L 183.713034 272.974669 
L 186.008805 272.867499 
L 188.304577 272.734106 
L 190.345263 272.627844 
L 192.641034 272.495574 
L 194.68172 272.390203 
L 197.487662 272.206742 
L 199.528348 272.10244 
L 202.334291 271.920832 
L 204.119891 271.817578 
L 207.18092 271.612194 
L 208.96652 271.510058 
L 212.53772 271.256323 
L 214.32332 271.155464 
L 218.404691 270.855026 
L 219.935205 270.755586 
L 224.526748 270.410274 
L 226.057263 270.312384 
L 232.17932 269.827952 
L 233.454748 269.732054 
L 243.658177 268.883307 
L 244.933605 268.790556 
L 267.636234 266.629763 
L 269.67692 266.394836 
L 274.523548 265.888945 
L 276.81932 265.618655 
L 280.135434 265.248624 
L 282.941377 264.903542 
L 285.492234 264.602518 
L 288.808348 264.186399 
L 290.849034 263.931838 
L 296.46092 263.181627 
L 297.991434 262.97358 
L 316.357605 260.159891 
L 321.714405 259.187422 
L 323.500005 258.859698 
L 331.152577 257.291169 
L 341.866177 254.602747 
L 349.008577 252.160816 
L 352.579777 250.428311 
L 354.110291 249.395599 
L 355.130634 248.433068 
L 355.640805 247.655262 
L 355.895891 246.696274 
L 356.150977 152.679729 
L 374.006977 153.583262 
L 385.485834 153.953159 
L 391.09772 153.939225 
L 393.648577 153.749611 
L 394.413834 153.550266 
L 394.66892 150.78748 
L 396.709605 150.919158 
L 396.964691 153.232114 
L 403.086748 153.172397 
L 403.852005 153.119765 
L 404.107091 152.971683 
L 404.362177 153.475384 
L 409.974063 153.837517 
L 409.974063 153.837517 
" style="fill:none;stroke:#ffc0cb;stroke-linecap:square;stroke-width:1.5;"/>
   </g>
   <g id="line2d_26">
    <path clip-path="url(#p27d0116a53)" d="M 53.874405 276.273728 
L 85.249948 276.183373 
L 86.270291 276.153319 
L 95.453377 276.063348 
L 96.47372 276.033421 
L 103.361034 275.94383 
L 104.381377 275.91403 
L 109.738177 275.824816 
L 110.75852 275.795141 
L 115.605148 275.706301 
L 116.625491 275.676749 
L 120.706862 275.58828 
L 121.727205 275.558852 
L 125.553491 275.47075 
L 126.82892 275.412168 
L 130.910291 275.324522 
L 132.18572 275.266242 
L 136.012005 275.179046 
L 137.287434 275.121065 
L 140.603548 275.034315 
L 141.878977 274.97663 
L 144.940005 274.890321 
L 146.215434 274.832929 
L 149.021377 274.747058 
L 150.296805 274.689955 
L 153.102748 274.604516 
L 154.378177 274.547701 
L 156.673948 274.46269 
L 157.949377 274.406158 
L 160.245148 274.321572 
L 161.520577 274.265322 
L 163.816348 274.181155 
L 165.346863 274.097239 
L 167.642634 274.01357 
L 169.428234 273.930149 
L 171.979091 273.819302 
L 174.019777 273.708889 
L 176.82572 273.598905 
L 178.866405 273.489347 
L 181.162177 273.380212 
L 183.202863 273.271497 
L 185.498634 273.163198 
L 187.794405 273.028406 
L 190.090177 272.921033 
L 192.641034 272.760735 
L 194.936805 272.654372 
L 197.487662 272.495574 
L 199.528348 272.390203 
L 202.334291 272.206742 
L 204.374977 272.10244 
L 207.436005 271.894983 
L 209.221605 271.791823 
L 212.53772 271.56108 
L 214.32332 271.459129 
L 217.89452 271.205849 
L 219.425034 271.105169 
L 223.25132 270.830133 
L 224.781834 270.73078 
L 229.628463 270.361287 
L 231.158977 270.263565 
L 238.301377 269.684227 
L 239.576805 269.588815 
L 256.667548 268.104457 
L 267.636234 267.040204 
L 269.421834 266.845041 
L 274.778634 266.288693 
L 276.81932 266.056571 
L 280.39052 265.66007 
L 282.686291 265.39195 
L 285.492234 265.065409 
L 288.298177 264.722543 
L 290.593948 264.443273 
L 294.420234 263.951338 
L 296.46092 263.698876 
L 304.368577 262.599192 
L 306.154177 262.358472 
L 316.612691 260.745913 
L 319.928805 260.176955 
L 322.734748 259.703025 
L 339.570405 256.276969 
L 345.182291 254.856128 
L 350.794177 253.19497 
L 354.110291 252.045367 
L 358.191662 250.307671 
L 360.487434 249.025045 
L 362.017948 247.875317 
L 362.783205 247.091011 
L 363.293377 246.33834 
L 363.548462 245.70731 
L 363.803548 153.186733 
L 377.323091 153.733802 
L 385.230748 153.859337 
L 389.31212 153.727875 
L 390.587548 153.545556 
L 390.842634 153.446034 
L 391.09772 150.653224 
L 392.118062 150.713525 
L 392.373148 153.383912 
L 404.362177 153.175884 
L 405.127434 153.080355 
L 405.38252 153.821261 
L 409.974063 154.10809 
L 409.974063 154.10809 
" style="fill:none;stroke:#ffc0cb;stroke-linecap:square;stroke-width:1.5;"/>
   </g>
   <g id="line2d_27">
    <path clip-path="url(#p27d0116a53)" d="M 53.874405 276.252619 
L 78.107548 276.144309 
L 86.780462 276.048381 
L 107.442405 275.700388 
L 116.625491 275.491283 
L 136.012005 274.942075 
L 140.858634 274.772792 
L 145.705263 274.610204 
L 149.531548 274.46269 
L 189.580005 272.580155 
L 192.641034 272.395462 
L 195.446977 272.235493 
L 220.700463 270.572539 
L 233.199663 269.617405 
L 257.942977 267.430205 
L 263.044691 266.918611 
L 272.737948 265.903573 
L 294.165148 263.33581 
L 304.368577 261.926644 
L 311.766062 260.817408 
L 331.152577 257.394619 
L 339.060234 255.702948 
L 347.478062 253.576185 
L 351.559434 252.350404 
L 354.875548 251.164409 
L 355.895891 250.627282 
L 356.150977 210.839256 
L 361.762862 210.546991 
L 363.293377 210.37823 
L 363.803548 184.867772 
L 367.629834 184.832487 
L 367.88492 177.559192 
L 370.945948 177.516082 
L 371.45612 167.50932 
L 371.711205 167.509256 
L 371.966291 160.133071 
L 373.24172 160.163909 
L 373.496805 157.373899 
L 380.129034 157.51366 
L 380.639205 157.501468 
L 380.894291 154.974033 
L 382.16972 154.847199 
L 383.190063 154.469469 
L 384.720577 154.497872 
L 384.975662 154.223078 
L 385.74092 154.106528 
L 385.996005 155.129114 
L 390.842634 155.33414 
L 391.09772 155.033216 
L 392.118062 155.109361 
L 392.373148 155.420033 
L 394.413834 155.483605 
L 394.66892 155.185919 
L 395.434177 155.222006 
L 395.689262 154.49292 
L 395.944348 155.757197 
L 396.709605 155.802353 
L 396.964691 156.080823 
L 406.402862 156.657741 
L 407.678291 156.765743 
L 409.974063 156.909772 
L 409.974063 156.909772 
" style="fill:none;stroke:#000000;stroke-linecap:square;stroke-width:1.5;"/>
   </g>
   <g id="line2d_28">
    <path clip-path="url(#p27d0116a53)" d="M 53.874405 276.30391 
L 84.229605 276.213459 
L 85.249948 276.183373 
L 97.749148 276.093307 
L 98.769491 276.063348 
L 107.952577 275.973662 
L 108.97292 275.94383 
L 116.11532 275.854523 
L 117.135662 275.824816 
L 123.512805 275.735883 
L 124.533148 275.706301 
L 129.889948 275.617739 
L 130.910291 275.58828 
L 136.012005 275.500087 
L 137.032348 275.47075 
L 141.368805 275.382922 
L 142.389148 275.353707 
L 146.47052 275.266242 
L 147.490862 275.237147 
L 151.317148 275.15004 
L 152.592577 275.092119 
L 156.929034 275.005458 
L 158.204463 274.947831 
L 162.285834 274.861611 
L 163.561262 274.804276 
L 167.132463 274.718492 
L 168.407891 274.661447 
L 171.979091 274.576094 
L 173.25452 274.519335 
L 176.570634 274.43441 
L 177.846063 274.377935 
L 180.907091 274.293433 
L 182.18252 274.237238 
L 184.988462 274.153155 
L 186.263891 274.097239 
L 188.814748 274.01357 
L 190.345263 273.957929 
L 193.406291 273.846973 
L 195.191891 273.764042 
L 198.763091 273.653843 
L 200.548691 273.571475 
L 203.60972 273.462023 
L 205.39532 273.380212 
L 208.201262 273.271497 
L 209.986863 273.190234 
L 212.792805 273.082246 
L 214.833491 272.974669 
L 217.639434 272.867499 
L 219.68012 272.760735 
L 222.230977 272.654372 
L 224.271662 272.548408 
L 226.82252 272.442839 
L 228.863205 272.337664 
L 231.158977 272.232878 
L 233.454748 272.10244 
L 235.75052 271.998521 
L 238.046291 271.869158 
L 240.342063 271.766092 
L 242.637834 271.637785 
L 244.67852 271.535558 
L 247.229377 271.382906 
L 249.270062 271.281595 
L 251.82092 271.130305 
L 253.861605 271.029893 
L 256.667548 270.855026 
L 258.708234 270.755586 
L 261.769263 270.557749 
L 263.554863 270.459347 
L 266.870977 270.239187 
L 268.656577 270.141887 
L 271.972691 269.924177 
L 273.503205 269.827952 
L 277.074405 269.588815 
L 278.60492 269.493723 
L 282.686291 269.210354 
L 284.216805 269.116525 
L 289.063434 268.767415 
L 290.593948 268.675043 
L 297.481263 268.149682 
L 298.756691 268.059304 
L 310.490634 267.127377 
L 312.021148 267.018452 
L 335.489034 264.923725 
L 337.274634 264.742597 
L 342.376348 264.245471 
L 344.417034 264.029475 
L 347.988234 263.660235 
L 350.284005 263.410348 
L 353.345034 263.086871 
L 356.150977 262.767053 
L 358.95692 262.450815 
L 362.52812 262.028517 
L 365.078977 261.738422 
L 371.966291 260.868087 
L 373.751891 260.64161 
L 392.118062 258.040805 
L 396.709605 257.291169 
L 399.005377 256.908468 
L 409.974063 254.89858 
L 409.974063 254.89858 
" style="fill:none;stroke:#add8e6;stroke-linecap:square;stroke-width:1.5;"/>
   </g>
   <g id="line2d_29">
    <path clip-path="url(#p27d0116a53)" d="M 53.874405 276.243578 
L 88.055891 276.153319 
L 89.076234 276.123297 
L 100.810177 276.033421 
L 101.83052 276.003526 
L 110.503434 275.91403 
L 111.523777 275.884261 
L 118.666177 275.795141 
L 119.68652 275.765496 
L 125.808577 275.676749 
L 126.82892 275.647229 
L 132.18572 275.558852 
L 133.206063 275.529454 
L 138.052691 275.441444 
L 139.073034 275.412168 
L 143.664577 275.324522 
L 144.68492 275.295367 
L 148.511205 275.208081 
L 149.531548 275.179046 
L 153.357834 275.092119 
L 154.378177 275.063202 
L 157.949377 274.97663 
L 159.224805 274.919062 
L 163.306177 274.832929 
L 164.581605 274.775652 
L 168.152805 274.689955 
L 169.428234 274.632967 
L 172.999434 274.547701 
L 174.274863 274.490999 
L 177.590977 274.406158 
L 178.866405 274.34974 
L 181.927434 274.265322 
L 183.202863 274.209183 
L 186.008805 274.125183 
L 187.284234 274.069322 
L 190.090177 273.985736 
L 191.875777 273.902397 
L 195.446977 273.791659 
L 197.232577 273.708889 
L 200.548691 273.598905 
L 202.334291 273.516696 
L 205.39532 273.407456 
L 207.436005 273.298636 
L 210.497034 273.190234 
L 212.282634 273.109204 
L 215.088577 273.001525 
L 217.129263 272.894253 
L 219.935205 272.787388 
L 221.975891 272.680925 
L 224.526748 272.574862 
L 226.567434 272.469195 
L 229.118291 272.363921 
L 231.414062 272.232878 
L 233.96492 272.12848 
L 236.260691 271.998521 
L 238.556463 271.894983 
L 240.852234 271.766092 
L 243.148005 271.6634 
L 245.698863 271.510058 
L 247.739548 271.408291 
L 250.290405 271.256323 
L 252.331091 271.155464 
L 254.881948 271.004846 
L 256.922634 270.904878 
L 259.983662 270.705997 
L 262.024348 270.607078 
L 265.340463 270.38577 
L 267.126062 270.287964 
L 270.187091 270.093361 
L 271.972691 269.99656 
L 275.798977 269.732054 
L 277.584577 269.636481 
L 281.921034 269.328079 
L 283.451548 269.23386 
L 288.043091 268.906542 
L 289.573605 268.813715 
L 295.440577 268.376901 
L 296.971091 268.285794 
L 306.154177 267.567322 
L 307.684691 267.456692 
L 345.437377 264.088219 
L 347.478062 263.873417 
L 351.304348 263.487001 
L 353.855205 263.200617 
L 356.916234 262.879517 
L 359.722177 262.562025 
L 362.52812 262.248059 
L 366.09932 261.828757 
L 368.395091 261.558613 
L 374.006977 260.868087 
L 376.047663 260.624264 
L 397.729948 257.569958 
L 403.086748 256.696397 
L 405.38252 256.321612 
L 409.974063 255.4997 
L 409.974063 255.4997 
" style="fill:none;stroke:#add8e6;stroke-linecap:square;stroke-width:1.5;"/>
   </g>
   <g id="line2d_30">
    <path clip-path="url(#p27d0116a53)" d="M 53.874405 276.243578 
L 75.301605 276.153319 
L 76.321948 276.123297 
L 87.290634 276.033421 
L 88.310977 276.003526 
L 96.728805 275.91403 
L 97.749148 275.884261 
L 104.636462 275.795141 
L 105.656805 275.765496 
L 111.778863 275.676749 
L 112.799205 275.647229 
L 117.90092 275.558852 
L 118.921263 275.529454 
L 123.767891 275.441444 
L 124.788234 275.412168 
L 129.124691 275.324522 
L 130.145034 275.295367 
L 134.226405 275.208081 
L 135.501834 275.15004 
L 139.838291 275.063202 
L 140.858634 275.034315 
L 144.429834 274.947831 
L 145.705263 274.890321 
L 149.531548 274.804276 
L 150.806977 274.747058 
L 154.378177 274.661447 
L 155.653605 274.604516 
L 159.224805 274.519335 
L 160.500234 274.46269 
L 163.561262 274.377935 
L 164.836691 274.321572 
L 167.89772 274.237238 
L 169.173148 274.181155 
L 171.979091 274.097239 
L 173.764691 274.01357 
L 176.82572 273.930149 
L 178.61132 273.846973 
L 181.927434 273.736452 
L 183.713034 273.653843 
L 187.029148 273.544073 
L 188.814748 273.462023 
L 191.875777 273.352994 
L 193.916462 273.244383 
L 196.977491 273.136188 
L 199.018177 273.028406 
L 201.82412 272.921033 
L 203.60972 272.84077 
L 206.160577 272.734106 
L 208.201262 272.627844 
L 210.75212 272.521979 
L 212.792805 272.416509 
L 215.088577 272.311431 
L 217.129263 272.206742 
L 219.425034 272.10244 
L 221.720805 271.972601 
L 224.016577 271.869158 
L 226.312348 271.740384 
L 228.353034 271.637785 
L 230.648805 271.510058 
L 232.689491 271.408291 
L 235.240348 271.256323 
L 237.281034 271.155464 
L 239.831891 271.004846 
L 241.617491 270.904878 
L 244.168348 270.755586 
L 245.953948 270.656494 
L 249.014977 270.459347 
L 250.800577 270.361287 
L 253.861605 270.16618 
L 255.647205 270.06913 
L 259.218405 269.827952 
L 260.74892 269.732054 
L 264.32012 269.493723 
L 265.850634 269.398951 
L 270.187091 269.093116 
L 271.717605 268.999675 
L 277.074405 268.605961 
L 278.60492 268.514114 
L 286.257491 267.924275 
L 287.53292 267.834613 
L 301.562634 266.715678 
L 320.694063 265.0046 
L 322.479662 264.822955 
L 327.836462 264.304666 
L 329.877148 264.088219 
L 333.95852 263.679549 
L 336.254291 263.429492 
L 339.31532 263.105796 
L 341.866177 262.823229 
L 344.927205 262.487836 
L 348.498405 262.064989 
L 351.049262 261.774521 
L 356.150977 261.149342 
L 358.191662 260.903091 
L 383.700234 257.291169 
L 405.637605 253.221648 
L 408.698634 252.523039 
L 409.974063 252.22516 
L 409.974063 252.22516 
" style="fill:none;stroke:#add8e6;stroke-linecap:square;stroke-width:1.5;"/>
   </g>
   <g id="line2d_31">
    <path clip-path="url(#p27d0116a53)" d="M 53.874405 276.30391 
L 77.852463 276.213459 
L 78.872805 276.183373 
L 90.606748 276.093307 
L 91.627091 276.063348 
L 100.300005 275.973662 
L 101.320348 275.94383 
L 108.462748 275.854523 
L 109.483091 275.824816 
L 115.605148 275.735883 
L 116.625491 275.706301 
L 121.982291 275.617739 
L 123.002634 275.58828 
L 127.849263 275.500087 
L 128.869605 275.47075 
L 133.206063 275.382922 
L 134.226405 275.353707 
L 138.307777 275.266242 
L 139.32812 275.237147 
L 143.154405 275.15004 
L 144.429834 275.092119 
L 148.766291 275.005458 
L 150.04172 274.947831 
L 153.868005 274.861611 
L 155.143434 274.804276 
L 158.96972 274.718492 
L 160.245148 274.661447 
L 163.561262 274.576094 
L 164.836691 274.519335 
L 168.152805 274.43441 
L 169.428234 274.377935 
L 172.489263 274.293433 
L 173.764691 274.237238 
L 176.570634 274.153155 
L 177.846063 274.097239 
L 180.652005 274.01357 
L 182.437605 273.930149 
L 185.75372 273.819302 
L 187.53932 273.736452 
L 190.855434 273.62636 
L 192.641034 273.544073 
L 195.702063 273.434727 
L 197.487662 273.352994 
L 200.293605 273.244383 
L 202.079205 273.163198 
L 204.885148 273.055313 
L 206.925834 272.947838 
L 209.731777 272.84077 
L 211.772463 272.734106 
L 214.32332 272.627844 
L 216.364005 272.521979 
L 218.914862 272.416509 
L 221.210634 272.285223 
L 223.761491 272.180631 
L 226.057263 272.050433 
L 228.353034 271.946705 
L 230.648805 271.817578 
L 232.944577 271.714699 
L 235.495434 271.56108 
L 237.53612 271.459129 
L 239.831891 271.332205 
L 241.872577 271.231075 
L 244.67852 271.054963 
L 246.719205 270.954818 
L 249.525148 270.780413 
L 251.310748 270.681235 
L 254.116691 270.508505 
L 255.902291 270.410274 
L 259.218405 270.190495 
L 261.004005 270.093361 
L 264.575205 269.851978 
L 266.360805 269.755998 
L 270.442177 269.47 
L 271.972691 269.375307 
L 276.309148 269.069727 
L 277.839662 268.976363 
L 283.196462 268.582972 
L 284.471891 268.491199 
L 290.849034 268.014222 
L 292.124462 267.924275 
L 305.899091 266.82344 
L 327.836462 264.86322 
L 329.622062 264.682478 
L 334.468691 264.206076 
L 336.509377 263.990379 
L 340.335663 263.602372 
L 342.88652 263.314822 
L 345.947548 262.99243 
L 348.753491 262.673674 
L 351.559434 262.358472 
L 355.130634 261.937542 
L 357.426405 261.666361 
L 363.293377 260.938139 
L 365.078977 260.711102 
L 384.975662 257.898726 
L 390.077377 257.060927 
L 392.373148 256.68131 
L 403.086748 254.672903 
L 409.974063 253.18164 
L 409.974063 253.18164 
" style="fill:none;stroke:#add8e6;stroke-linecap:square;stroke-width:1.5;"/>
   </g>
   <g id="line2d_32">
    <path clip-path="url(#p27d0116a53)" d="M 53.874405 276.334125 
L 80.658405 276.243578 
L 81.678748 276.213459 
L 94.177948 276.123297 
L 95.198291 276.093307 
L 104.381377 276.003526 
L 105.40172 275.973662 
L 112.799205 275.884261 
L 113.819548 275.854523 
L 119.941605 275.765496 
L 120.961948 275.735883 
L 126.318748 275.647229 
L 127.339091 275.617739 
L 132.440805 275.529454 
L 133.461148 275.500087 
L 137.797605 275.412168 
L 138.817948 275.382922 
L 142.89932 275.295367 
L 143.919663 275.266242 
L 147.745948 275.179046 
L 148.766291 275.15004 
L 152.337491 275.063202 
L 153.61292 275.005458 
L 157.694291 274.919062 
L 158.96972 274.861611 
L 162.796005 274.775652 
L 164.071434 274.718492 
L 167.642634 274.632967 
L 168.918062 274.576094 
L 172.234177 274.490999 
L 173.509605 274.43441 
L 176.570634 274.34974 
L 177.846063 274.293433 
L 180.652005 274.209183 
L 181.927434 274.153155 
L 184.733377 274.069322 
L 186.518977 273.985736 
L 190.090177 273.874671 
L 191.875777 273.791659 
L 195.191891 273.681352 
L 196.977491 273.598905 
L 200.03852 273.489347 
L 201.82412 273.407456 
L 204.630063 273.298636 
L 206.415663 273.217296 
L 209.221605 273.109204 
L 211.262291 273.001525 
L 214.068234 272.894253 
L 216.10892 272.787388 
L 218.914862 272.680925 
L 220.955548 272.574862 
L 223.25132 272.469195 
L 225.292005 272.363921 
L 227.842862 272.259038 
L 230.138634 272.12848 
L 232.434405 272.024465 
L 234.730177 271.894983 
L 237.025948 271.791823 
L 239.576805 271.637785 
L 241.872577 271.535558 
L 244.423434 271.382906 
L 246.46412 271.281595 
L 249.270062 271.105169 
L 251.310748 271.004846 
L 254.116691 270.830133 
L 256.157377 270.73078 
L 259.218405 270.533116 
L 261.004005 270.4348 
L 264.32012 270.214831 
L 266.10572 270.117614 
L 269.67692 269.876023 
L 271.46252 269.779963 
L 275.543891 269.493723 
L 277.074405 269.398951 
L 281.410863 269.093116 
L 282.941377 268.999675 
L 288.553263 268.582972 
L 290.083777 268.491199 
L 297.991434 267.879409 
L 299.266863 267.789889 
L 343.906862 263.776317 
L 346.202634 263.525406 
L 349.263663 263.200617 
L 352.069605 262.879517 
L 355.130634 262.543459 
L 358.446748 262.156376 
L 360.997605 261.864972 
L 366.354405 261.20239 
L 368.395091 260.955679 
L 391.607891 257.663502 
L 397.985034 256.605994 
L 408.95372 254.560737 
L 409.974063 254.351617 
L 409.974063 254.351617 
" style="fill:none;stroke:#add8e6;stroke-linecap:square;stroke-width:1.5;"/>
   </g>
   <g id="line2d_33">
    <path clip-path="url(#p27d0116a53)" d="M 53.874405 276.153319 
L 77.087205 276.063348 
L 78.107548 276.033421 
L 89.841491 275.94383 
L 90.861834 275.91403 
L 99.534748 275.824816 
L 100.555091 275.795141 
L 107.697491 275.706301 
L 108.717834 275.676749 
L 114.839891 275.58828 
L 115.860234 275.558852 
L 121.217034 275.47075 
L 122.237377 275.441444 
L 127.084005 275.353707 
L 128.104348 275.324522 
L 132.440805 275.237147 
L 133.461148 275.208081 
L 137.54252 275.121065 
L 138.817948 275.063202 
L 143.409491 274.97663 
L 144.68492 274.919062 
L 148.766291 274.832929 
L 149.786634 274.804276 
L 153.102748 274.718492 
L 154.378177 274.661447 
L 157.949377 274.576094 
L 159.224805 274.519335 
L 162.796005 274.43441 
L 164.071434 274.377935 
L 167.132463 274.293433 
L 168.407891 274.237238 
L 171.46892 274.153155 
L 172.744348 274.097239 
L 175.550291 274.01357 
L 177.080805 273.957929 
L 180.39692 273.846973 
L 182.18252 273.764042 
L 185.75372 273.653843 
L 187.53932 273.571475 
L 190.600348 273.462023 
L 192.385948 273.380212 
L 195.446977 273.271497 
L 197.232577 273.190234 
L 200.03852 273.082246 
L 201.82412 273.001525 
L 204.630063 272.894253 
L 206.670748 272.787388 
L 209.476691 272.680925 
L 211.517377 272.574862 
L 214.068234 272.469195 
L 216.10892 272.363921 
L 218.659777 272.259038 
L 220.955548 272.12848 
L 223.506405 272.024465 
L 225.802177 271.894983 
L 228.097948 271.791823 
L 230.39372 271.6634 
L 232.434405 271.56108 
L 234.730177 271.433698 
L 236.770862 271.332205 
L 239.32172 271.180645 
L 241.362405 271.080054 
L 243.913263 270.929837 
L 245.953948 270.830133 
L 248.759891 270.656494 
L 250.545491 270.557749 
L 253.351434 270.38577 
L 255.137034 270.287964 
L 258.198062 270.093361 
L 259.983662 269.99656 
L 263.554863 269.755998 
L 265.085377 269.660344 
L 268.656577 269.422614 
L 270.187091 269.328079 
L 274.268462 269.046357 
L 275.798977 268.95307 
L 280.645605 268.605961 
L 282.17612 268.514114 
L 288.808348 268.014222 
L 290.083777 267.924275 
L 299.777034 267.171064 
L 301.307548 267.061972 
L 332.683091 264.284921 
L 334.723777 264.068624 
L 339.31532 263.621646 
L 341.611091 263.372099 
L 344.927205 263.030169 
L 347.478062 262.748353 
L 350.794177 262.395373 
L 354.110291 262.010298 
L 356.661148 261.720389 
L 360.997605 261.20239 
L 363.293377 260.938139 
L 393.393491 256.696397 
L 409.974063 253.679079 
L 409.974063 253.679079 
" style="fill:none;stroke:#add8e6;stroke-linecap:square;stroke-width:1.5;"/>
   </g>
   <g id="line2d_34">
    <path clip-path="url(#p27d0116a53)" d="M 53.874405 276.243578 
L 87.035548 276.153319 
L 88.055891 276.123297 
L 100.810177 276.033421 
L 101.83052 276.003526 
L 110.75852 275.91403 
L 111.778863 275.884261 
L 119.176348 275.795141 
L 120.196691 275.765496 
L 126.318748 275.676749 
L 127.339091 275.647229 
L 132.695891 275.558852 
L 133.716234 275.529454 
L 138.817948 275.441444 
L 139.838291 275.412168 
L 144.174748 275.324522 
L 145.195091 275.295367 
L 149.276463 275.208081 
L 150.296805 275.179046 
L 154.123091 275.092119 
L 155.39852 275.034315 
L 159.734977 274.947831 
L 161.010405 274.890321 
L 165.091777 274.804276 
L 166.367205 274.747058 
L 169.938405 274.661447 
L 171.213834 274.604516 
L 174.785034 274.519335 
L 176.060462 274.46269 
L 179.376577 274.377935 
L 180.652005 274.321572 
L 183.713034 274.237238 
L 184.988462 274.181155 
L 187.794405 274.097239 
L 189.580005 274.01357 
L 192.641034 273.930149 
L 194.426634 273.846973 
L 197.742748 273.736452 
L 199.528348 273.653843 
L 202.844462 273.544073 
L 204.630063 273.462023 
L 207.691091 273.352994 
L 209.476691 273.271497 
L 212.282634 273.163198 
L 214.068234 273.082246 
L 216.874177 272.974669 
L 218.914862 272.867499 
L 221.720805 272.760735 
L 223.761491 272.654372 
L 226.312348 272.548408 
L 228.353034 272.442839 
L 230.648805 272.337664 
L 232.689491 272.232878 
L 234.985263 272.12848 
L 237.025948 272.024465 
L 239.32172 271.920832 
L 241.617491 271.791823 
L 243.658177 271.689038 
L 245.953948 271.56108 
L 247.994634 271.459129 
L 250.290405 271.332205 
L 252.331091 271.231075 
L 255.137034 271.054963 
L 257.17772 270.954818 
L 259.983662 270.780413 
L 262.024348 270.681235 
L 265.085377 270.483915 
L 266.870977 270.38577 
L 270.187091 270.16618 
L 271.972691 270.06913 
L 275.543891 269.827952 
L 277.329491 269.732054 
L 281.410863 269.446297 
L 282.941377 269.351683 
L 287.022748 269.069727 
L 288.553263 268.976363 
L 293.910062 268.582972 
L 295.440577 268.491199 
L 303.093148 267.901833 
L 304.368577 267.812242 
L 318.398291 266.694175 
L 337.274634 265.0046 
L 339.060234 264.822955 
L 344.417034 264.304666 
L 346.45772 264.088219 
L 350.539091 263.679549 
L 352.834862 263.429492 
L 355.895891 263.105796 
L 358.701834 262.785766 
L 361.762862 262.450815 
L 365.334063 262.028517 
L 367.629834 261.756466 
L 372.986634 261.096393 
L 375.02732 260.850601 
L 396.45452 257.804401 
L 402.321491 256.832545 
L 404.362177 256.485905 
L 409.974063 255.456337 
L 409.974063 255.456337 
" style="fill:none;stroke:#add8e6;stroke-linecap:square;stroke-width:1.5;"/>
   </g>
   <g id="line2d_35">
    <path clip-path="url(#p27d0116a53)" d="M 53.874405 276.213459 
L 83.464348 276.123297 
L 84.484691 276.093307 
L 96.47372 276.003526 
L 97.494063 275.973662 
L 106.166977 275.884261 
L 107.18732 275.854523 
L 114.32972 275.765496 
L 115.350063 275.735883 
L 121.47212 275.647229 
L 122.492463 275.617739 
L 127.849263 275.529454 
L 128.869605 275.500087 
L 133.716234 275.412168 
L 134.736577 275.382922 
L 139.073034 275.295367 
L 140.093377 275.266242 
L 144.174748 275.179046 
L 145.450177 275.121065 
L 150.04172 275.034315 
L 151.317148 274.97663 
L 155.39852 274.890321 
L 156.418863 274.861611 
L 159.734977 274.775652 
L 161.010405 274.718492 
L 164.581605 274.632967 
L 165.857034 274.576094 
L 169.428234 274.490999 
L 170.703663 274.43441 
L 173.764691 274.34974 
L 175.04012 274.293433 
L 178.101148 274.209183 
L 179.376577 274.153155 
L 182.18252 274.069322 
L 183.713034 274.01357 
L 186.263891 273.930149 
L 188.049491 273.846973 
L 191.620691 273.736452 
L 193.406291 273.653843 
L 196.46732 273.544073 
L 198.25292 273.462023 
L 201.313948 273.352994 
L 203.099548 273.271497 
L 205.905491 273.163198 
L 207.691091 273.082246 
L 210.497034 272.974669 
L 212.53772 272.867499 
L 215.343662 272.760735 
L 217.384348 272.654372 
L 219.935205 272.548408 
L 221.975891 272.442839 
L 224.271662 272.337664 
L 226.312348 272.232878 
L 228.60812 272.12848 
L 230.648805 272.024465 
L 232.944577 271.920832 
L 235.495434 271.766092 
L 237.791205 271.6634 
L 240.086977 271.535558 
L 242.127662 271.433698 
L 244.67852 271.281595 
L 246.719205 271.180645 
L 249.270062 271.029893 
L 251.310748 270.929837 
L 254.371777 270.73078 
L 256.412463 270.631776 
L 259.728577 270.410274 
L 261.514177 270.312384 
L 264.575205 270.117614 
L 266.360805 270.02073 
L 270.187091 269.755998 
L 271.972691 269.660344 
L 276.309148 269.351683 
L 277.839662 269.257385 
L 282.17612 268.95307 
L 283.706634 268.86009 
L 289.573605 268.422565 
L 291.10412 268.331311 
L 300.287205 267.611695 
L 301.81772 267.500892 
L 339.570405 264.12745 
L 341.611091 263.912351 
L 345.182291 263.544628 
L 347.478062 263.295756 
L 350.539091 262.97358 
L 353.60012 262.617794 
L 356.661148 262.284815 
L 360.74252 261.792588 
L 363.038291 261.522788 
L 369.67052 260.693713 
L 371.45612 260.468624 
L 389.567205 257.914477 
L 393.648577 257.260361 
L 396.199434 256.847713 
L 409.974063 254.323851 
L 409.974063 254.323851 
" style="fill:none;stroke:#add8e6;stroke-linecap:square;stroke-width:1.5;"/>
   </g>
   <g id="line2d_36">
    <path clip-path="url(#p27d0116a53)" d="M 53.874405 276.213459 
L 85.249948 276.123297 
L 86.270291 276.093307 
L 98.514405 276.003526 
L 99.534748 275.973662 
L 108.462748 275.884261 
L 109.483091 275.854523 
L 116.625491 275.765496 
L 117.645834 275.735883 
L 123.767891 275.647229 
L 124.788234 275.617739 
L 130.145034 275.529454 
L 131.165377 275.500087 
L 136.012005 275.412168 
L 137.032348 275.382922 
L 141.623891 275.295367 
L 142.644234 275.266242 
L 146.725605 275.179046 
L 148.001034 275.121065 
L 152.592577 275.034315 
L 153.868005 274.97663 
L 158.204463 274.890321 
L 159.479891 274.832929 
L 163.306177 274.747058 
L 164.581605 274.689955 
L 168.152805 274.604516 
L 169.428234 274.547701 
L 172.999434 274.46269 
L 174.274863 274.406158 
L 177.335891 274.321572 
L 178.61132 274.265322 
L 181.672348 274.181155 
L 182.947777 274.125183 
L 185.75372 274.041432 
L 187.53932 273.957929 
L 191.11052 273.846973 
L 192.89612 273.764042 
L 196.46732 273.653843 
L 198.25292 273.571475 
L 201.313948 273.462023 
L 203.099548 273.380212 
L 206.160577 273.271497 
L 208.201262 273.163198 
L 211.262291 273.055313 
L 213.302977 272.947838 
L 216.10892 272.84077 
L 218.149605 272.734106 
L 220.955548 272.627844 
L 222.996234 272.521979 
L 225.547091 272.416509 
L 227.587777 272.311431 
L 229.883548 272.206742 
L 232.17932 272.076425 
L 234.730177 271.972601 
L 237.025948 271.843356 
L 239.066634 271.740384 
L 241.362405 271.612194 
L 243.403091 271.510058 
L 245.698863 271.382906 
L 247.739548 271.281595 
L 250.290405 271.130305 
L 252.331091 271.029893 
L 255.137034 270.855026 
L 256.922634 270.755586 
L 259.728577 270.582403 
L 261.514177 270.483915 
L 264.575205 270.287964 
L 266.360805 270.190495 
L 269.67692 269.972412 
L 271.46252 269.876023 
L 275.543891 269.588815 
L 277.329491 269.493723 
L 281.921034 269.1634 
L 283.451548 269.069727 
L 288.553263 268.698108 
L 290.083777 268.605961 
L 297.481263 268.036754 
L 298.756691 267.946735 
L 312.53132 266.845041 
L 332.17292 265.085707 
L 333.95852 264.903542 
L 339.060234 264.403602 
L 341.10092 264.186399 
L 344.67212 263.815117 
L 346.967891 263.563863 
L 349.773834 263.257662 
L 352.579777 262.935918 
L 355.640805 262.599192 
L 359.722177 262.101508 
L 362.017948 261.828757 
L 370.690862 260.711102 
L 382.934977 258.941274 
L 386.506177 258.359118 
L 389.31212 257.898726 
L 403.086748 255.240511 
L 408.95372 253.815038 
L 409.974063 253.54377 
L 409.974063 253.54377 
" style="fill:none;stroke:#add8e6;stroke-linecap:square;stroke-width:1.5;"/>
   </g>
   <g id="line2d_37">
    <path clip-path="url(#p27d0116a53)" d="M 53.874405 276.273728 
L 92.647434 276.183373 
L 93.667777 276.153319 
L 104.891548 276.063348 
L 105.911891 276.033421 
L 114.32972 275.94383 
L 115.350063 275.91403 
L 122.492463 275.824816 
L 123.512805 275.795141 
L 129.379777 275.706301 
L 130.40012 275.676749 
L 135.75692 275.58828 
L 136.777263 275.558852 
L 141.623891 275.47075 
L 142.644234 275.441444 
L 146.980691 275.353707 
L 148.001034 275.324522 
L 152.082405 275.237147 
L 153.357834 275.179046 
L 157.949377 275.092119 
L 159.224805 275.034315 
L 163.306177 274.947831 
L 164.581605 274.890321 
L 168.407891 274.804276 
L 169.68332 274.747058 
L 173.25452 274.661447 
L 174.529948 274.604516 
L 178.101148 274.519335 
L 179.376577 274.46269 
L 182.437605 274.377935 
L 183.713034 274.321572 
L 186.774063 274.237238 
L 188.049491 274.181155 
L 190.855434 274.097239 
L 192.641034 274.01357 
L 195.446977 273.930149 
L 197.232577 273.846973 
L 200.548691 273.736452 
L 202.334291 273.653843 
L 205.650405 273.544073 
L 207.436005 273.462023 
L 210.241948 273.352994 
L 212.027548 273.271497 
L 214.833491 273.163198 
L 216.619091 273.082246 
L 219.169948 272.974669 
L 221.210634 272.867499 
L 224.016577 272.760735 
L 226.057263 272.654372 
L 228.60812 272.548408 
L 230.648805 272.442839 
L 232.944577 272.337664 
L 234.985263 272.232878 
L 237.281034 272.12848 
L 239.576805 271.998521 
L 241.872577 271.894983 
L 244.168348 271.766092 
L 246.209034 271.6634 
L 248.504805 271.535558 
L 250.545491 271.433698 
L 253.096348 271.281595 
L 255.137034 271.180645 
L 257.942977 271.004846 
L 259.983662 270.904878 
L 263.044691 270.705997 
L 265.085377 270.607078 
L 268.401491 270.38577 
L 270.187091 270.287964 
L 273.503205 270.06913 
L 275.288805 269.972412 
L 279.370177 269.684227 
L 280.900691 269.588815 
L 284.726977 269.328079 
L 286.257491 269.23386 
L 291.359205 268.86009 
L 292.88972 268.767415 
L 299.521948 268.263063 
L 300.797377 268.172322 
L 311.766062 267.302534 
L 313.296577 267.192934 
L 338.294977 264.943922 
L 340.080577 264.762665 
L 344.67212 264.304666 
L 346.967891 264.049043 
L 350.539091 263.679549 
L 353.089948 263.391217 
L 355.895891 263.086871 
L 358.95692 262.729665 
L 361.762862 262.413841 
L 366.354405 261.846859 
L 368.395091 261.594483 
L 394.66892 257.788711 
L 409.463891 254.955282 
L 409.974063 254.841992 
L 409.974063 254.841992 
" style="fill:none;stroke:#add8e6;stroke-linecap:square;stroke-width:1.5;"/>
   </g>
   <g id="line2d_38">
    <path clip-path="url(#p27d0116a53)" d="M 53.874405 276.252619 
L 83.719434 276.144309 
L 131.675548 275.47075 
L 171.213834 274.454203 
L 180.39692 274.153155 
L 188.559663 273.866359 
L 245.443777 271.286652 
L 250.290405 271.009854 
L 254.116691 270.792835 
L 278.094748 269.283286 
L 316.357605 266.350207 
L 327.581377 265.338629 
L 334.723777 264.654466 
L 357.936577 262.182017 
L 365.078977 261.319448 
L 380.38412 259.289793 
L 396.199434 256.820417 
L 409.974063 254.182667 
L 409.974063 254.182667 
" style="fill:none;stroke:#000000;stroke-linecap:square;stroke-width:1.5;"/>
   </g>
   <g id="line2d_39">
    <path clip-path="url(#p27d0116a53)" d="M 53.874405 144.265484 
L 96.47372 144.154615 
L 138.562863 143.811241 
L 175.295205 143.300735 
L 211.262291 142.574214 
L 242.382748 141.716474 
L 269.932005 140.71472 
L 291.869377 139.682528 
L 309.470291 138.628292 
L 322.989834 137.611073 
L 333.95852 136.582846 
L 343.141605 135.505993 
L 350.284005 134.455076 
L 355.895891 133.421412 
L 360.232348 132.42143 
L 363.803548 131.380085 
L 366.354405 130.431134 
L 368.395091 129.449179 
L 369.925605 128.456051 
L 370.945948 127.514602 
L 371.45612 126.824839 
L 371.711205 126.324187 
L 371.966291 36.482355 
L 377.833262 37.148269 
L 380.38412 37.244098 
L 381.404462 37.124689 
L 381.914634 36.916879 
L 382.679891 36.292372 
L 382.934977 35.07102 
L 387.016348 35.816472 
L 394.924005 37.521336 
L 405.127434 39.936139 
L 409.974063 41.175596 
L 409.974063 41.175596 
" style="fill:none;stroke:#90ee90;stroke-linecap:square;stroke-width:1.5;"/>
   </g>
   <g id="line2d_40">
    <path clip-path="url(#p27d0116a53)" d="M 53.874405 144.265484 
L 96.983891 144.155742 
L 139.073034 143.813188 
L 176.060462 143.299916 
L 212.282634 142.569156 
L 243.913263 141.699174 
L 272.227777 140.672372 
L 292.88972 139.714754 
L 310.74572 138.679976 
L 325.795777 137.586067 
L 337.52972 136.520237 
L 347.222977 135.423592 
L 354.875548 134.345016 
L 360.997605 133.273116 
L 365.844234 132.219149 
L 369.925605 131.107971 
L 372.986634 130.056605 
L 375.282405 129.062583 
L 377.068005 128.080164 
L 378.343434 127.177189 
L 379.363777 126.218602 
L 380.129034 125.180016 
L 380.38412 124.679709 
L 380.639205 123.933765 
L 380.894291 42.123753 
L 395.434177 45.371188 
L 406.402862 47.907 
L 406.657948 48.271466 
L 409.974063 49.045312 
L 409.974063 49.045312 
" style="fill:none;stroke:#90ee90;stroke-linecap:square;stroke-width:1.5;"/>
   </g>
   <g id="line2d_41">
    <path clip-path="url(#p27d0116a53)" d="M 53.874405 144.264636 
L 98.769491 144.105105 
L 139.583205 143.725422 
L 181.672348 143.066232 
L 213.558063 142.346694 
L 245.188691 141.385998 
L 271.207434 140.339296 
L 291.10412 139.308855 
L 307.17452 138.257698 
L 320.694063 137.141452 
L 330.897491 136.083274 
L 339.060234 135.030237 
L 345.692462 133.966879 
L 351.049262 132.896668 
L 355.38572 131.811964 
L 358.701834 130.771209 
L 361.252691 129.766572 
L 363.293377 128.747567 
L 364.823891 127.761343 
L 366.09932 126.653481 
L 366.864577 125.712642 
L 367.374748 124.773022 
L 367.629834 123.977582 
L 367.88492 37.67447 
L 380.129034 39.581416 
L 383.95532 40.012477 
L 384.720577 40.014662 
L 384.975662 37.510365 
L 394.66892 39.739361 
L 405.127434 42.364285 
L 409.974063 43.741665 
L 409.974063 43.741665 
" style="fill:none;stroke:#90ee90;stroke-linecap:square;stroke-width:1.5;"/>
   </g>
   <g id="line2d_42">
    <path clip-path="url(#p27d0116a53)" d="M 53.874405 144.264918 
L 101.320348 144.102014 
L 142.134062 143.72154 
L 177.846063 143.183785 
L 212.027548 142.453332 
L 241.362405 141.612061 
L 267.636234 140.628596 
L 288.298177 139.634738 
L 305.38892 138.591961 
L 318.908462 137.54949 
L 329.366977 136.53808 
L 338.039891 135.485474 
L 344.927205 134.428718 
L 350.284005 133.384265 
L 354.365377 132.367013 
L 357.426405 131.38331 
L 359.722177 130.414333 
L 361.252691 129.547919 
L 362.273034 128.755241 
L 363.038291 127.854192 
L 363.293377 127.36233 
L 363.548462 36.135787 
L 376.81292 38.215549 
L 380.129034 38.561061 
L 381.149377 38.537347 
L 381.659548 38.403449 
L 381.914634 38.254119 
L 382.16972 37.95739 
L 382.424805 37.274297 
L 382.679891 36.212472 
L 389.057034 37.532403 
L 397.729948 39.549868 
L 405.637605 41.61392 
L 409.974063 42.854485 
L 409.974063 42.854485 
" style="fill:none;stroke:#90ee90;stroke-linecap:square;stroke-width:1.5;"/>
   </g>
   <g id="line2d_43">
    <path clip-path="url(#p27d0116a53)" d="M 53.874405 144.265201 
L 94.68812 144.15546 
L 136.777263 143.81291 
L 173.764691 143.29855 
L 209.476691 142.576877 
L 240.597148 141.719315 
L 265.340463 140.832883 
L 286.512577 139.872322 
L 304.623663 138.834897 
L 319.418634 137.765171 
L 330.897491 136.72428 
L 340.335663 135.654422 
L 347.733148 134.606508 
L 353.855205 133.519035 
L 358.446748 132.495144 
L 362.273034 131.417917 
L 365.078977 130.410004 
L 367.119663 129.474459 
L 368.650177 128.569863 
L 369.925605 127.547126 
L 370.690862 126.656058 
L 371.201034 125.680695 
L 371.45612 36.957872 
L 381.914634 38.523619 
L 384.975662 38.793994 
L 385.230748 38.607579 
L 385.485834 37.434012 
L 385.74092 37.486973 
L 385.996005 48.578434 
L 399.770634 51.827755 
L 409.974063 54.44358 
L 409.974063 54.44358 
" style="fill:none;stroke:#90ee90;stroke-linecap:square;stroke-width:1.5;"/>
   </g>
   <g id="line2d_44">
    <path clip-path="url(#p27d0116a53)" d="M 53.874405 144.264918 
L 101.065263 144.101732 
L 141.878977 143.722371 
L 184.988462 143.049169 
L 217.384348 142.320823 
L 250.290405 141.325306 
L 274.268462 140.377699 
L 294.165148 139.385098 
L 310.74572 138.347427 
L 324.775434 137.241147 
L 335.74412 136.148951 
L 344.161948 135.097801 
L 351.049262 134.01955 
L 356.406062 132.963673 
L 360.487434 131.950942 
L 363.803548 130.905327 
L 366.09932 129.978573 
L 367.88492 129.047566 
L 369.160348 128.161433 
L 369.925605 127.440779 
L 370.435777 126.772577 
L 370.690862 126.294086 
L 370.945948 125.29045 
L 371.201034 40.960097 
L 384.975662 43.915341 
L 391.607891 45.333796 
L 391.862977 45.349872 
L 392.118062 45.738176 
L 405.127434 48.880943 
L 409.974063 50.134516 
L 409.974063 50.134516 
" style="fill:none;stroke:#90ee90;stroke-linecap:square;stroke-width:1.5;"/>
   </g>
   <g id="line2d_45">
    <path clip-path="url(#p27d0116a53)" d="M 53.874405 144.265484 
L 97.749148 144.155178 
L 139.838291 143.812632 
L 177.080805 143.295545 
L 207.691091 142.694546 
L 240.852234 141.818941 
L 266.870977 140.915364 
L 289.063434 139.931668 
L 307.684691 138.883222 
L 322.734748 137.80855 
L 334.213605 136.776931 
L 343.651777 135.711798 
L 351.049262 134.659581 
L 356.916234 133.603812 
L 361.252691 132.615247 
L 364.568805 131.656291 
L 367.119663 130.706925 
L 368.905262 129.837911 
L 370.180691 129.008161 
L 370.945948 128.327893 
L 371.45612 127.686403 
L 371.711205 127.209791 
L 371.966291 39.957796 
L 395.434177 44.628069 
L 395.689262 37.318357 
L 395.944348 50.970594 
L 407.933377 53.870399 
L 409.974063 54.392907 
L 409.974063 54.392907 
" style="fill:none;stroke:#90ee90;stroke-linecap:square;stroke-width:1.5;"/>
   </g>
   <g id="line2d_46">
    <path clip-path="url(#p27d0116a53)" d="M 53.874405 144.265201 
L 95.198291 144.154334 
L 137.032348 143.812354 
L 173.509605 143.304833 
L 209.221605 142.583268 
L 240.086977 141.733009 
L 268.146405 140.712726 
L 288.298177 139.774734 
L 305.899091 138.749655 
L 320.438977 137.688017 
L 332.428005 136.589524 
L 342.121263 135.472424 
L 349.773834 134.362931 
L 355.640805 133.297458 
L 360.487434 132.191291 
L 364.058634 131.164283 
L 366.864577 130.146685 
L 369.160348 129.073976 
L 370.690862 128.137459 
L 371.711205 127.321945 
L 372.476462 126.501996 
L 372.986634 125.720267 
L 373.24172 125.130274 
L 373.496805 41.600013 
L 387.52652 44.724285 
L 399.260463 47.558448 
L 409.974063 50.353581 
L 409.974063 50.353581 
" style="fill:none;stroke:#90ee90;stroke-linecap:square;stroke-width:1.5;"/>
   </g>
   <g id="line2d_47">
    <path clip-path="url(#p27d0116a53)" d="M 53.874405 144.265484 
L 96.47372 144.154615 
L 138.307777 143.813467 
L 175.295205 143.299369 
L 211.007205 142.57661 
L 241.362405 141.736886 
L 267.89132 140.765872 
L 288.043091 139.808755 
L 304.368577 138.818341 
L 317.122862 137.833079 
L 327.071205 136.858594 
L 334.978862 135.873705 
L 341.10092 134.898026 
L 345.692462 133.956671 
L 349.263663 133.00141 
L 351.81452 132.090606 
L 353.60012 131.216253 
L 354.620463 130.518073 
L 355.38572 129.737647 
L 355.640805 129.33311 
L 355.895891 128.399719 
L 356.150977 34.414125 
L 377.323091 38.204019 
L 391.09772 40.617407 
L 393.648577 40.884836 
L 394.413834 40.826551 
L 394.66892 38.110954 
L 396.709605 38.630112 
L 396.964691 40.992705 
L 403.852005 42.3218 
L 404.107091 42.231745 
L 404.362177 42.793824 
L 409.974063 44.556258 
L 409.974063 44.556258 
" style="fill:none;stroke:#90ee90;stroke-linecap:square;stroke-width:1.5;"/>
   </g>
   <g id="line2d_48">
    <path clip-path="url(#p27d0116a53)" d="M 53.874405 144.265484 
L 90.096577 144.195188 
L 132.18572 143.898717 
L 170.193491 143.414332 
L 207.436005 142.703371 
L 239.32172 141.858111 
L 264.575205 140.977698 
L 285.74732 140.033938 
L 303.60332 139.02071 
L 317.88812 137.990432 
L 329.111891 136.964716 
L 338.039891 135.93195 
L 344.927205 134.922388 
L 350.284005 133.926067 
L 354.365377 132.957231 
L 357.426405 132.022521 
L 359.722177 131.105309 
L 361.252691 130.292172 
L 362.273034 129.560348 
L 363.038291 128.766837 
L 363.293377 128.379731 
L 363.548462 127.773643 
L 363.803548 35.2886 
L 386.251091 38.979343 
L 389.822291 39.361423 
L 390.842634 39.292611 
L 391.09772 36.540908 
L 392.118062 36.767009 
L 392.373148 39.479354 
L 405.127434 41.482022 
L 405.38252 42.27427 
L 409.974063 43.531531 
L 409.974063 43.531531 
" style="fill:none;stroke:#90ee90;stroke-linecap:square;stroke-width:1.5;"/>
   </g>
   <g id="line2d_49">
    <path clip-path="url(#p27d0116a53)" d="M 53.874405 144.265229 
L 96.728805 144.145551 
L 137.797605 143.803871 
L 176.570634 143.253924 
L 211.772463 142.526331 
L 242.382748 141.6677 
L 268.401491 140.712876 
L 289.573605 139.716895 
L 306.664348 138.699469 
L 320.438977 137.667732 
L 331.662748 136.60933 
L 340.335663 135.578759 
L 347.222977 134.542832 
L 352.069605 133.611295 
L 355.130634 132.829671 
L 355.895891 132.486963 
L 356.150977 92.611681 
L 362.017948 93.003721 
L 363.293377 93.015792 
L 363.803548 67.592379 
L 367.629834 68.04406 
L 367.88492 61.113143 
L 370.945948 61.475043 
L 371.45612 51.532769 
L 371.711205 51.566638 
L 371.966291 44.022927 
L 373.24172 44.224 
L 373.496805 41.465128 
L 380.639205 42.586548 
L 380.894291 40.022896 
L 382.16972 40.081804 
L 383.190063 39.855621 
L 384.720577 40.112378 
L 384.975662 39.890517 
L 385.74092 39.888807 
L 385.996005 40.953132 
L 390.842634 41.913721 
L 391.09772 41.645673 
L 392.118062 41.887057 
L 392.373148 42.247185 
L 394.413834 42.649309 
L 394.66892 42.395725 
L 395.434177 42.561368 
L 395.689262 41.848306 
L 395.944348 43.203172 
L 396.709605 43.380749 
L 396.964691 43.702295 
L 405.127434 45.632108 
L 405.637605 45.848678 
L 409.974063 47.052293 
L 409.974063 47.052293 
" style="fill:none;stroke:#000000;stroke-linecap:square;stroke-width:1.5;"/>
   </g>
   <g id="patch_3">
    <path d="M 52.854063 288.430125 
L 52.854063 22.318125 
" style="fill:none;stroke:#000000;stroke-linecap:square;stroke-linejoin:miter;stroke-width:0.8;"/>
   </g>
   <g id="patch_4">
    <path d="M 409.974063 288.430125 
L 409.974063 22.318125 
" style="fill:none;stroke:#000000;stroke-linecap:square;stroke-linejoin:miter;stroke-width:0.8;"/>
   </g>
   <g id="patch_5">
    <path d="M 52.854063 288.430125 
L 409.974063 288.430125 
" style="fill:none;stroke:#000000;stroke-linecap:square;stroke-linejoin:miter;stroke-width:0.8;"/>
   </g>
   <g id="patch_6">
    <path d="M 52.854063 22.318125 
L 409.974063 22.318125 
" style="fill:none;stroke:#000000;stroke-linecap:square;stroke-linejoin:miter;stroke-width:0.8;"/>
   </g>
   <g id="text_19">
    <!-- Average of 10 realization (Unit dB) -->
    <defs>
     <path d="M 34.1875 63.1875 
L 20.796875 26.90625 
L 47.609375 26.90625 
z
M 28.609375 72.90625 
L 39.796875 72.90625 
L 67.578125 0 
L 57.328125 0 
L 50.6875 18.703125 
L 17.828125 18.703125 
L 11.1875 0 
L 0.78125 0 
z
" id="DejaVuSans-41"/>
     <path d="M 2.984375 54.6875 
L 12.5 54.6875 
L 29.59375 8.796875 
L 46.6875 54.6875 
L 56.203125 54.6875 
L 35.6875 0 
L 23.484375 0 
z
" id="DejaVuSans-76"/>
     <path d="M 34.28125 27.484375 
Q 23.390625 27.484375 19.1875 25 
Q 14.984375 22.515625 14.984375 16.5 
Q 14.984375 11.71875 18.140625 8.90625 
Q 21.296875 6.109375 26.703125 6.109375 
Q 34.1875 6.109375 38.703125 11.40625 
Q 43.21875 16.703125 43.21875 25.484375 
L 43.21875 27.484375 
z
M 52.203125 31.203125 
L 52.203125 0 
L 43.21875 0 
L 43.21875 8.296875 
Q 40.140625 3.328125 35.546875 0.953125 
Q 30.953125 -1.421875 24.3125 -1.421875 
Q 15.921875 -1.421875 10.953125 3.296875 
Q 6 8.015625 6 15.921875 
Q 6 25.140625 12.171875 29.828125 
Q 18.359375 34.515625 30.609375 34.515625 
L 43.21875 34.515625 
L 43.21875 35.40625 
Q 43.21875 41.609375 39.140625 45 
Q 35.0625 48.390625 27.6875 48.390625 
Q 23 48.390625 18.546875 47.265625 
Q 14.109375 46.140625 10.015625 43.890625 
L 10.015625 52.203125 
Q 14.9375 54.109375 19.578125 55.046875 
Q 24.21875 56 28.609375 56 
Q 40.484375 56 46.34375 49.84375 
Q 52.203125 43.703125 52.203125 31.203125 
" id="DejaVuSans-61"/>
     <path d="M 45.40625 27.984375 
Q 45.40625 37.75 41.375 43.109375 
Q 37.359375 48.484375 30.078125 48.484375 
Q 22.859375 48.484375 18.828125 43.109375 
Q 14.796875 37.75 14.796875 27.984375 
Q 14.796875 18.265625 18.828125 12.890625 
Q 22.859375 7.515625 30.078125 7.515625 
Q 37.359375 7.515625 41.375 12.890625 
Q 45.40625 18.265625 45.40625 27.984375 
M 54.390625 6.78125 
Q 54.390625 -7.171875 48.1875 -13.984375 
Q 42 -20.796875 29.203125 -20.796875 
Q 24.46875 -20.796875 20.265625 -20.09375 
Q 16.0625 -19.390625 12.109375 -17.921875 
L 12.109375 -9.1875 
Q 16.0625 -11.328125 19.921875 -12.34375 
Q 23.78125 -13.375 27.78125 -13.375 
Q 36.625 -13.375 41.015625 -8.765625 
Q 45.40625 -4.15625 45.40625 5.171875 
L 45.40625 9.625 
Q 42.625 4.78125 38.28125 2.390625 
Q 33.9375 0 27.875 0 
Q 17.828125 0 11.671875 7.65625 
Q 5.515625 15.328125 5.515625 27.984375 
Q 5.515625 40.671875 11.671875 48.328125 
Q 17.828125 56 27.875 56 
Q 33.9375 56 38.28125 53.609375 
Q 42.625 51.21875 45.40625 46.390625 
L 45.40625 54.6875 
L 54.390625 54.6875 
z
" id="DejaVuSans-67"/>
     <path d="M 37.109375 75.984375 
L 37.109375 68.5 
L 28.515625 68.5 
Q 23.6875 68.5 21.796875 66.546875 
Q 19.921875 64.59375 19.921875 59.515625 
L 19.921875 54.6875 
L 34.71875 54.6875 
L 34.71875 47.703125 
L 19.921875 47.703125 
L 19.921875 0 
L 10.890625 0 
L 10.890625 47.703125 
L 2.296875 47.703125 
L 2.296875 54.6875 
L 10.890625 54.6875 
L 10.890625 58.5 
Q 10.890625 67.625 15.140625 71.796875 
Q 19.390625 75.984375 28.609375 75.984375 
z
" id="DejaVuSans-66"/>
     <path d="M 9.421875 75.984375 
L 18.40625 75.984375 
L 18.40625 0 
L 9.421875 0 
z
" id="DejaVuSans-6c"/>
     <path d="M 9.421875 54.6875 
L 18.40625 54.6875 
L 18.40625 0 
L 9.421875 0 
z
M 9.421875 75.984375 
L 18.40625 75.984375 
L 18.40625 64.59375 
L 9.421875 64.59375 
z
" id="DejaVuSans-69"/>
     <path d="M 5.515625 54.6875 
L 48.1875 54.6875 
L 48.1875 46.484375 
L 14.40625 7.171875 
L 48.1875 7.171875 
L 48.1875 0 
L 4.296875 0 
L 4.296875 8.203125 
L 38.09375 47.515625 
L 5.515625 47.515625 
z
" id="DejaVuSans-7a"/>
     <path d="M 31 75.875 
Q 24.46875 64.65625 21.28125 53.65625 
Q 18.109375 42.671875 18.109375 31.390625 
Q 18.109375 20.125 21.3125 9.0625 
Q 24.515625 -2 31 -13.1875 
L 23.1875 -13.1875 
Q 15.875 -1.703125 12.234375 9.375 
Q 8.59375 20.453125 8.59375 31.390625 
Q 8.59375 42.28125 12.203125 53.3125 
Q 15.828125 64.359375 23.1875 75.875 
z
" id="DejaVuSans-28"/>
     <path d="M 8.6875 72.90625 
L 18.609375 72.90625 
L 18.609375 28.609375 
Q 18.609375 16.890625 22.84375 11.734375 
Q 27.09375 6.59375 36.625 6.59375 
Q 46.09375 6.59375 50.34375 11.734375 
Q 54.59375 16.890625 54.59375 28.609375 
L 54.59375 72.90625 
L 64.5 72.90625 
L 64.5 27.390625 
Q 64.5 13.140625 57.4375 5.859375 
Q 50.390625 -1.421875 36.625 -1.421875 
Q 22.796875 -1.421875 15.734375 5.859375 
Q 8.6875 13.140625 8.6875 27.390625 
z
" id="DejaVuSans-55"/>
     <path d="M 8.015625 75.875 
L 15.828125 75.875 
Q 23.140625 64.359375 26.78125 53.3125 
Q 30.421875 42.28125 30.421875 31.390625 
Q 30.421875 20.453125 26.78125 9.375 
Q 23.140625 -1.703125 15.828125 -13.1875 
L 8.015625 -13.1875 
Q 14.5 -2 17.703125 9.0625 
Q 20.90625 20.125 20.90625 31.390625 
Q 20.90625 42.671875 17.703125 53.65625 
Q 14.5 64.65625 8.015625 75.875 
" id="DejaVuSans-29"/>
    </defs>
    <g transform="translate(127.167813 16.318125)scale(0.12 -0.12)">
     <use xlink:href="#DejaVuSans-41"/>
     <use x="68.330078" xlink:href="#DejaVuSans-76"/>
     <use x="127.509766" xlink:href="#DejaVuSans-65"/>
     <use x="189.033203" xlink:href="#DejaVuSans-72"/>
     <use x="230.146484" xlink:href="#DejaVuSans-61"/>
     <use x="291.425781" xlink:href="#DejaVuSans-67"/>
     <use x="354.902344" xlink:href="#DejaVuSans-65"/>
     <use x="416.425781" xlink:href="#DejaVuSans-20"/>
     <use x="448.212891" xlink:href="#DejaVuSans-6f"/>
     <use x="509.394531" xlink:href="#DejaVuSans-66"/>
     <use x="544.599609" xlink:href="#DejaVuSans-20"/>
     <use x="576.386719" xlink:href="#DejaVuSans-31"/>
     <use x="640.009766" xlink:href="#DejaVuSans-30"/>
     <use x="703.632812" xlink:href="#DejaVuSans-20"/>
     <use x="735.419922" xlink:href="#DejaVuSans-72"/>
     <use x="776.501953" xlink:href="#DejaVuSans-65"/>
     <use x="838.025391" xlink:href="#DejaVuSans-61"/>
     <use x="899.304688" xlink:href="#DejaVuSans-6c"/>
     <use x="927.087891" xlink:href="#DejaVuSans-69"/>
     <use x="954.871094" xlink:href="#DejaVuSans-7a"/>
     <use x="1007.361328" xlink:href="#DejaVuSans-61"/>
     <use x="1068.640625" xlink:href="#DejaVuSans-74"/>
     <use x="1107.849609" xlink:href="#DejaVuSans-69"/>
     <use x="1135.632812" xlink:href="#DejaVuSans-6f"/>
     <use x="1196.814453" xlink:href="#DejaVuSans-6e"/>
     <use x="1260.193359" xlink:href="#DejaVuSans-20"/>
     <use x="1291.980469" xlink:href="#DejaVuSans-28"/>
     <use x="1330.994141" xlink:href="#DejaVuSans-55"/>
     <use x="1404.1875" xlink:href="#DejaVuSans-6e"/>
     <use x="1467.566406" xlink:href="#DejaVuSans-69"/>
     <use x="1495.349609" xlink:href="#DejaVuSans-74"/>
     <use x="1534.558594" xlink:href="#DejaVuSans-20"/>
     <use x="1566.345703" xlink:href="#DejaVuSans-64"/>
     <use x="1629.822266" xlink:href="#DejaVuSans-42"/>
     <use x="1698.425781" xlink:href="#DejaVuSans-29"/>
    </g>
   </g>
  </g>
 </g>
 <defs>
  <clipPath id="p27d0116a53">
   <rect height="266.112" width="357.12" x="52.854063" y="22.318125"/>
  </clipPath>
 </defs>
</svg>
