<?xml version="1.0" encoding="utf-8" standalone="no"?>
<!DOCTYPE svg PUBLIC "-//W3C//DTD SVG 1.1//EN"
  "http://www.w3.org/Graphics/SVG/1.1/DTD/svg11.dtd">
<!-- Created with matplotlib (http://matplotlib.org/) -->
<svg height="1440pt" version="1.1" viewBox="0 0 1440 1440" width="1440pt" xmlns="http://www.w3.org/2000/svg" xmlns:xlink="http://www.w3.org/1999/xlink">
 <defs>
  <style type="text/css">
*{stroke-linecap:butt;stroke-linejoin:round;stroke-miterlimit:100000;}
  </style>
 </defs>
 <g id="figure_1">
  <g id="patch_1">
   <path d="M 0 1440 
L 1440 1440 
L 1440 0 
L 0 0 
z
" style="fill:#ffffff;"/>
  </g>
  <g id="axes_1">
   <g id="patch_2">
    <path d="M 180 1296 
L 1296 1296 
L 1296 144 
L 180 144 
z
" style="fill:#ffffff;"/>
   </g>
   <g id="line2d_1">
    <path clip-path="url(#p1a17cce073)" d="M 180 1296 
L 191.272727 1296 
L 202.545455 1296 
L 213.818182 1296 
L 225.090909 1296 
L 236.363636 1296 
L 247.636364 1296 
L 258.909091 1296 
L 270.181818 1296 
L 281.454545 1296 
L 292.727273 1295.999996 
L 304 1295.999943 
L 315.272727 1295.999407 
L 326.545455 1295.994985 
L 337.818182 1295.964889 
L 349.090909 1295.793473 
L 360.363636 1294.973757 
L 371.636364 1291.718698 
L 382.909091 1281.293083 
L 394.181818 1255.508405 
L 405.454545 1207.929186 
L 416.727273 1141.695231 
L 428 1067.430682 
L 439.272727 994.37337 
L 450.545455 926.929922 
L 461.818182 866.214571 
L 473.090909 811.955174 
L 484.363636 763.47154 
L 495.636364 720.041172 
L 506.909091 681.008993 
L 518.181818 645.808692 
L 529.454545 613.957476 
L 540.727273 585.044604 
L 552 558.719837 
L 563.272727 534.683391 
L 574.545455 512.677587 
L 585.818182 492.479987 
L 597.090909 473.897788 
L 608.363636 456.763211 
L 619.636364 440.929703 
L 630.909091 426.268799 
L 642.181818 412.667507 
L 653.454545 400.026122 
L 664.727273 388.256398 
L 676 377.28 
L 687.272727 367.0272 
L 698.545455 357.435766 
L 709.818182 348.450014 
L 721.090909 340.02 
L 732.363636 332.100825 
L 743.636364 324.652032 
L 754.909091 317.637093 
L 766.181818 311.022959 
L 777.454545 304.779665 
L 788.727273 298.88 
L 800 293.2992 
L 811.272727 288.014694 
L 822.545455 283.005873 
L 833.818182 278.253888 
L 845.090909 273.741477 
L 856.363636 269.4528 
L 867.636364 265.373308 
L 878.909091 261.489615 
L 890.181818 257.789388 
L 901.454545 254.26125 
L 912.727273 250.894693 
L 924 247.68 
L 935.272727 244.608171 
L 946.545455 241.670865 
L 957.818182 238.86034 
L 969.090909 236.169404 
L 980.363636 233.591367 
L 991.636364 231.12 
L 1002.909091 228.749499 
L 1014.181818 226.474449 
L 1025.454545 224.289792 
L 1036.727273 222.190803 
L 1048 220.173061 
L 1059.272727 218.232426 
L 1070.545455 216.365018 
L 1081.818182 214.5672 
L 1093.090909 212.835556 
L 1104.363636 211.166877 
L 1115.636364 209.558148 
L 1126.909091 208.006531 
L 1138.181818 206.509354 
L 1149.454545 205.0641 
L 1160.727273 203.668395 
L 1172 202.32 
L 1183.272727 201.016801 
L 1194.545455 199.7568 
L 1205.818182 198.538109 
L 1217.090909 197.358941 
L 1228.363636 196.217607 
L 1239.636364 195.112503 
L 1250.909091 194.042114 
L 1262.181818 193.005 
L 1273.454545 191.999796 
L 1284.727273 191.025206 
L 1296 190.08 
" style="fill:none;stroke:#0000ff;stroke-linecap:square;stroke-width:7.0;"/>
   </g>
   <g id="line2d_2">
    <path clip-path="url(#p1a17cce073)" d="M 180 1104.156324 
L 191.272727 1143.758082 
L 202.545455 1224.82854 
L 213.818182 1282.132609 
L 225.090909 1295.996274 
L 236.363636 1292.590237 
L 247.636364 1293.291964 
L 258.909091 1295.860023 
L 270.181818 1295.386919 
L 281.454545 1294.871885 
L 292.727273 1295.78153 
L 304 1295.846534 
L 315.272727 1295.33426 
L 326.545455 1295.728937 
L 337.818182 1295.960726 
L 349.090909 1295.47708 
L 360.363636 1295.64304 
L 371.636364 1295.987724 
L 382.909091 1295.345876 
L 394.181818 1295.460961 
L 405.454545 1295.66401 
L 416.727273 1286.790944 
L 428 1259.363324 
L 439.272727 1216.223749 
L 450.545455 1170.085197 
L 461.818182 1129.919616 
L 473.090909 1094.384838 
L 484.363636 1056.884868 
L 495.636364 1013.477859 
L 506.909091 966.519644 
L 518.181818 922.433058 
L 529.454545 885.934319 
L 540.727273 856.117719 
L 552 827.999684 
L 563.272727 797.382547 
L 574.545455 764.295159 
L 585.818182 732.426436 
L 597.090909 705.469501 
L 608.363636 683.755005 
L 619.636364 664.188582 
L 630.909091 643.251762 
L 642.181818 620.072235 
L 653.454545 596.924778 
L 664.727273 576.966096 
L 676 561.333928 
L 687.272727 548.217749 
L 698.545455 534.599282 
L 709.818182 518.895602 
L 721.090909 502.144028 
L 732.363636 486.857405 
L 743.636364 474.70003 
L 754.909091 465.080198 
L 766.181818 455.831516 
L 777.454545 445.201218 
L 788.727273 433.289103 
L 800 421.754127 
L 811.272727 412.195139 
L 822.545455 404.724533 
L 833.818182 397.982996 
L 845.090909 390.459511 
L 856.363636 381.824538 
L 867.636364 373.098261 
L 878.909091 365.604288 
L 890.181818 359.733322 
L 901.454545 354.645254 
L 912.727273 349.111852 
L 924 342.648758 
L 935.272727 335.892018 
L 946.545455 329.931736 
L 957.818182 325.271516 
L 969.090909 321.386751 
L 980.363636 317.254825 
L 991.636364 312.313908 
L 1002.909091 306.94806 
L 1014.181818 302.08105 
L 1025.454545 298.292111 
L 1036.727273 295.287056 
L 1048 292.198449 
L 1059.272727 288.401739 
L 1070.545455 284.074605 
L 1081.818182 279.998613 
L 1093.090909 276.813212 
L 1104.363636 274.42585 
L 1115.636364 272.116758 
L 1126.909091 269.217109 
L 1138.181818 265.7165 
L 1149.454545 262.247215 
L 1160.727273 259.480623 
L 1172 257.506089 
L 1183.272727 255.763405 
L 1194.545455 253.573252 
L 1205.818182 250.759088 
L 1217.090909 247.78984 
L 1228.363636 245.329022 
L 1239.636364 243.619264 
L 1250.909091 242.270454 
L 1262.181818 240.633584 
L 1273.454545 238.399017 
L 1284.727273 235.866096 
L 1296 233.649521 
" style="fill:none;stroke:#008000;stroke-linecap:square;stroke-width:7.0;"/>
   </g>
   <g id="patch_3">
    <path d="M 180 144 
L 1296 144 
" style="fill:none;stroke:#000000;stroke-linecap:square;stroke-linejoin:miter;"/>
   </g>
   <g id="patch_4">
    <path d="M 1296 1296 
L 1296 144 
" style="fill:none;stroke:#000000;stroke-linecap:square;stroke-linejoin:miter;"/>
   </g>
   <g id="patch_5">
    <path d="M 180 1296 
L 1296 1296 
" style="fill:none;stroke:#000000;stroke-linecap:square;stroke-linejoin:miter;"/>
   </g>
   <g id="patch_6">
    <path d="M 180 1296 
L 180 144 
" style="fill:none;stroke:#000000;stroke-linecap:square;stroke-linejoin:miter;"/>
   </g>
   <g id="matplotlib.axis_1">
    <g id="xtick_1">
     <g id="line2d_3">
      <defs>
       <path d="M 0 0 
L 0 -4 
" id="mbc2e22cbe4" style="stroke:#000000;stroke-width:0.5;"/>
      </defs>
      <g>
       <use style="stroke:#000000;stroke-width:0.5;" x="180.0" xlink:href="#mbc2e22cbe4" y="1296.0"/>
      </g>
     </g>
     <g id="line2d_4">
      <defs>
       <path d="M 0 0 
L 0 4 
" id="me449017205" style="stroke:#000000;stroke-width:0.5;"/>
      </defs>
      <g>
       <use style="stroke:#000000;stroke-width:0.5;" x="180.0" xlink:href="#me449017205" y="144.0"/>
      </g>
     </g>
     <g id="text_1">
      <!-- 0 -->
      <defs>
       <path d="M 31.78125 66.40625 
Q 24.171875 66.40625 20.328125 58.90625 
Q 16.5 51.421875 16.5 36.375 
Q 16.5 21.390625 20.328125 13.890625 
Q 24.171875 6.390625 31.78125 6.390625 
Q 39.453125 6.390625 43.28125 13.890625 
Q 47.125 21.390625 47.125 36.375 
Q 47.125 51.421875 43.28125 58.90625 
Q 39.453125 66.40625 31.78125 66.40625 
M 31.78125 74.21875 
Q 44.046875 74.21875 50.515625 64.515625 
Q 56.984375 54.828125 56.984375 36.375 
Q 56.984375 17.96875 50.515625 8.265625 
Q 44.046875 -1.421875 31.78125 -1.421875 
Q 19.53125 -1.421875 13.0625 8.265625 
Q 6.59375 17.96875 6.59375 36.375 
Q 6.59375 54.828125 13.0625 64.515625 
Q 19.53125 74.21875 31.78125 74.21875 
" id="BitstreamVeraSans-Roman-30"/>
      </defs>
      <g transform="translate(170.45625 1322.7953125)scale(0.3 -0.3)">
       <use xlink:href="#BitstreamVeraSans-Roman-30"/>
      </g>
     </g>
    </g>
    <g id="xtick_2">
     <g id="line2d_5">
      <g>
       <use style="stroke:#000000;stroke-width:0.5;" x="403.2" xlink:href="#mbc2e22cbe4" y="1296.0"/>
      </g>
     </g>
     <g id="line2d_6">
      <g>
       <use style="stroke:#000000;stroke-width:0.5;" x="403.2" xlink:href="#me449017205" y="144.0"/>
      </g>
     </g>
     <g id="text_2">
      <!-- 1 -->
      <defs>
       <path d="M 12.40625 8.296875 
L 28.515625 8.296875 
L 28.515625 63.921875 
L 10.984375 60.40625 
L 10.984375 69.390625 
L 28.421875 72.90625 
L 38.28125 72.90625 
L 38.28125 8.296875 
L 54.390625 8.296875 
L 54.390625 0 
L 12.40625 0 
z
" id="BitstreamVeraSans-Roman-31"/>
      </defs>
      <g transform="translate(393.65625 1322.7953125)scale(0.3 -0.3)">
       <use xlink:href="#BitstreamVeraSans-Roman-31"/>
      </g>
     </g>
    </g>
    <g id="xtick_3">
     <g id="line2d_7">
      <g>
       <use style="stroke:#000000;stroke-width:0.5;" x="626.4" xlink:href="#mbc2e22cbe4" y="1296.0"/>
      </g>
     </g>
     <g id="line2d_8">
      <g>
       <use style="stroke:#000000;stroke-width:0.5;" x="626.4" xlink:href="#me449017205" y="144.0"/>
      </g>
     </g>
     <g id="text_3">
      <!-- 2 -->
      <defs>
       <path d="M 19.1875 8.296875 
L 53.609375 8.296875 
L 53.609375 0 
L 7.328125 0 
L 7.328125 8.296875 
Q 12.9375 14.109375 22.625 23.890625 
Q 32.328125 33.6875 34.8125 36.53125 
Q 39.546875 41.84375 41.421875 45.53125 
Q 43.3125 49.21875 43.3125 52.78125 
Q 43.3125 58.59375 39.234375 62.25 
Q 35.15625 65.921875 28.609375 65.921875 
Q 23.96875 65.921875 18.8125 64.3125 
Q 13.671875 62.703125 7.8125 59.421875 
L 7.8125 69.390625 
Q 13.765625 71.78125 18.9375 73 
Q 24.125 74.21875 28.421875 74.21875 
Q 39.75 74.21875 46.484375 68.546875 
Q 53.21875 62.890625 53.21875 53.421875 
Q 53.21875 48.921875 51.53125 44.890625 
Q 49.859375 40.875 45.40625 35.40625 
Q 44.1875 33.984375 37.640625 27.21875 
Q 31.109375 20.453125 19.1875 8.296875 
" id="BitstreamVeraSans-Roman-32"/>
      </defs>
      <g transform="translate(616.85625 1322.7953125)scale(0.3 -0.3)">
       <use xlink:href="#BitstreamVeraSans-Roman-32"/>
      </g>
     </g>
    </g>
    <g id="xtick_4">
     <g id="line2d_9">
      <g>
       <use style="stroke:#000000;stroke-width:0.5;" x="849.6" xlink:href="#mbc2e22cbe4" y="1296.0"/>
      </g>
     </g>
     <g id="line2d_10">
      <g>
       <use style="stroke:#000000;stroke-width:0.5;" x="849.6" xlink:href="#me449017205" y="144.0"/>
      </g>
     </g>
     <g id="text_4">
      <!-- 3 -->
      <defs>
       <path d="M 40.578125 39.3125 
Q 47.65625 37.796875 51.625 33 
Q 55.609375 28.21875 55.609375 21.1875 
Q 55.609375 10.40625 48.1875 4.484375 
Q 40.765625 -1.421875 27.09375 -1.421875 
Q 22.515625 -1.421875 17.65625 -0.515625 
Q 12.796875 0.390625 7.625 2.203125 
L 7.625 11.71875 
Q 11.71875 9.328125 16.59375 8.109375 
Q 21.484375 6.890625 26.8125 6.890625 
Q 36.078125 6.890625 40.9375 10.546875 
Q 45.796875 14.203125 45.796875 21.1875 
Q 45.796875 27.640625 41.28125 31.265625 
Q 36.765625 34.90625 28.71875 34.90625 
L 20.21875 34.90625 
L 20.21875 43.015625 
L 29.109375 43.015625 
Q 36.375 43.015625 40.234375 45.921875 
Q 44.09375 48.828125 44.09375 54.296875 
Q 44.09375 59.90625 40.109375 62.90625 
Q 36.140625 65.921875 28.71875 65.921875 
Q 24.65625 65.921875 20.015625 65.03125 
Q 15.375 64.15625 9.8125 62.3125 
L 9.8125 71.09375 
Q 15.4375 72.65625 20.34375 73.4375 
Q 25.25 74.21875 29.59375 74.21875 
Q 40.828125 74.21875 47.359375 69.109375 
Q 53.90625 64.015625 53.90625 55.328125 
Q 53.90625 49.265625 50.4375 45.09375 
Q 46.96875 40.921875 40.578125 39.3125 
" id="BitstreamVeraSans-Roman-33"/>
      </defs>
      <g transform="translate(840.05625 1322.7953125)scale(0.3 -0.3)">
       <use xlink:href="#BitstreamVeraSans-Roman-33"/>
      </g>
     </g>
    </g>
    <g id="xtick_5">
     <g id="line2d_11">
      <g>
       <use style="stroke:#000000;stroke-width:0.5;" x="1072.8" xlink:href="#mbc2e22cbe4" y="1296.0"/>
      </g>
     </g>
     <g id="line2d_12">
      <g>
       <use style="stroke:#000000;stroke-width:0.5;" x="1072.8" xlink:href="#me449017205" y="144.0"/>
      </g>
     </g>
     <g id="text_5">
      <!-- 4 -->
      <defs>
       <path d="M 37.796875 64.3125 
L 12.890625 25.390625 
L 37.796875 25.390625 
z
M 35.203125 72.90625 
L 47.609375 72.90625 
L 47.609375 25.390625 
L 58.015625 25.390625 
L 58.015625 17.1875 
L 47.609375 17.1875 
L 47.609375 0 
L 37.796875 0 
L 37.796875 17.1875 
L 4.890625 17.1875 
L 4.890625 26.703125 
z
" id="BitstreamVeraSans-Roman-34"/>
      </defs>
      <g transform="translate(1063.25625 1322.7953125)scale(0.3 -0.3)">
       <use xlink:href="#BitstreamVeraSans-Roman-34"/>
      </g>
     </g>
    </g>
    <g id="xtick_6">
     <g id="line2d_13">
      <g>
       <use style="stroke:#000000;stroke-width:0.5;" x="1296.0" xlink:href="#mbc2e22cbe4" y="1296.0"/>
      </g>
     </g>
     <g id="line2d_14">
      <g>
       <use style="stroke:#000000;stroke-width:0.5;" x="1296.0" xlink:href="#me449017205" y="144.0"/>
      </g>
     </g>
     <g id="text_6">
      <!-- 5 -->
      <defs>
       <path d="M 10.796875 72.90625 
L 49.515625 72.90625 
L 49.515625 64.59375 
L 19.828125 64.59375 
L 19.828125 46.734375 
Q 21.96875 47.46875 24.109375 47.828125 
Q 26.265625 48.1875 28.421875 48.1875 
Q 40.625 48.1875 47.75 41.5 
Q 54.890625 34.8125 54.890625 23.390625 
Q 54.890625 11.625 47.5625 5.09375 
Q 40.234375 -1.421875 26.90625 -1.421875 
Q 22.3125 -1.421875 17.546875 -0.640625 
Q 12.796875 0.140625 7.71875 1.703125 
L 7.71875 11.625 
Q 12.109375 9.234375 16.796875 8.0625 
Q 21.484375 6.890625 26.703125 6.890625 
Q 35.15625 6.890625 40.078125 11.328125 
Q 45.015625 15.765625 45.015625 23.390625 
Q 45.015625 31 40.078125 35.4375 
Q 35.15625 39.890625 26.703125 39.890625 
Q 22.75 39.890625 18.8125 39.015625 
Q 14.890625 38.140625 10.796875 36.28125 
z
" id="BitstreamVeraSans-Roman-35"/>
      </defs>
      <g transform="translate(1286.45625 1322.7953125)scale(0.3 -0.3)">
       <use xlink:href="#BitstreamVeraSans-Roman-35"/>
      </g>
     </g>
    </g>
    <g id="text_7">
     <!-- $\kappa_2$ / $\kappa_1$ -->
     <defs>
      <path d="M 4.984375 0 
L 4.984375 2.6875 
Q 4.984375 2.9375 5.171875 3.21875 
L 20.703125 20.40625 
Q 24.21875 24.21875 26.40625 26.796875 
Q 28.609375 29.390625 30.75 32.765625 
Q 32.90625 36.140625 34.15625 39.625 
Q 35.40625 43.109375 35.40625 47.015625 
Q 35.40625 51.125 33.890625 54.859375 
Q 32.375 58.59375 29.375 60.84375 
Q 26.375 63.09375 22.125 63.09375 
Q 17.78125 63.09375 14.3125 60.46875 
Q 10.84375 57.859375 9.421875 53.71875 
Q 9.8125 53.8125 10.5 53.8125 
Q 12.75 53.8125 14.328125 52.296875 
Q 15.921875 50.78125 15.921875 48.390625 
Q 15.921875 46.09375 14.328125 44.5 
Q 12.75 42.921875 10.5 42.921875 
Q 8.15625 42.921875 6.5625 44.546875 
Q 4.984375 46.1875 4.984375 48.390625 
Q 4.984375 52.15625 6.390625 55.4375 
Q 7.8125 58.734375 10.46875 61.296875 
Q 13.140625 63.875 16.484375 65.234375 
Q 19.828125 66.609375 23.578125 66.609375 
Q 29.296875 66.609375 34.21875 64.1875 
Q 39.15625 61.765625 42.03125 57.34375 
Q 44.921875 52.9375 44.921875 47.015625 
Q 44.921875 42.671875 43.015625 38.765625 
Q 41.109375 34.859375 38.125 31.65625 
Q 35.15625 28.46875 30.515625 24.40625 
Q 25.875 20.359375 24.421875 19 
L 13.09375 8.109375 
L 22.703125 8.109375 
Q 29.78125 8.109375 34.546875 8.21875 
Q 39.3125 8.34375 39.59375 8.59375 
Q 40.765625 9.859375 42 17.828125 
L 44.921875 17.828125 
L 42.09375 0 
z
" id="Cmr10-32"/>
      <path d="M 5.328125 1.703125 
Q 5.328125 2.296875 5.421875 2.59375 
L 14.984375 41.015625 
Q 15.375 42.4375 16.546875 43.3125 
Q 17.71875 44.1875 19.1875 44.1875 
Q 20.453125 44.1875 21.328125 43.421875 
Q 22.21875 42.671875 22.21875 41.40625 
Q 22.21875 41.109375 22.1875 40.9375 
Q 22.171875 40.765625 22.125 40.578125 
L 18.5 26.125 
Q 22.515625 27.4375 29.15625 32.984375 
Q 35.796875 38.53125 39.1875 40.8125 
Q 42.578125 43.109375 47.515625 43.109375 
Q 49.125 43.109375 50.21875 42.109375 
Q 51.3125 41.109375 51.3125 39.40625 
Q 51.3125 37.0625 49.625 35.421875 
Q 47.953125 33.796875 45.609375 33.796875 
Q 44 33.796875 42.890625 34.84375 
Q 41.796875 35.890625 41.796875 37.5 
Q 41.796875 38.625 42.1875 39.40625 
Q 39.796875 38.421875 37.28125 36.65625 
Q 34.765625 34.90625 32.71875 33.125 
Q 30.671875 31.34375 27.78125 28.953125 
Q 24.90625 26.5625 22.609375 25.296875 
Q 26.703125 25.296875 31 24.40625 
Q 35.296875 23.53125 38.453125 21.1875 
Q 41.609375 18.84375 41.609375 14.796875 
Q 41.609375 13.1875 41.21875 12.015625 
Q 40.28125 8.015625 40.28125 6 
Q 40.28125 1.515625 43.40625 1.515625 
Q 46.96875 1.515625 48.875 5.46875 
Q 50.78125 9.421875 52 14.703125 
Q 52.203125 15.28125 52.78125 15.28125 
L 54 15.28125 
Q 54.390625 15.28125 54.640625 15.015625 
Q 54.890625 14.75 54.890625 14.40625 
Q 54.890625 14.3125 54.78125 14.109375 
Q 51.125 -1.125 43.21875 -1.125 
Q 40.375 -1.125 38.203125 0.1875 
Q 36.03125 1.515625 34.859375 3.78125 
Q 33.6875 6.0625 33.6875 8.890625 
Q 33.6875 10.6875 34.078125 12.203125 
Q 34.421875 13.578125 34.421875 14.5 
Q 34.421875 17.71875 31.5625 19.578125 
Q 28.71875 21.4375 24.828125 22.109375 
Q 20.953125 22.796875 17.578125 22.796875 
L 12.5 2.203125 
Q 12.15625 0.828125 10.953125 -0.140625 
Q 9.765625 -1.125 8.296875 -1.125 
Q 7.078125 -1.125 6.203125 -0.34375 
Q 5.328125 0.4375 5.328125 1.703125 
" id="Cmmi10-b7"/>
      <path d="M 25.390625 72.90625 
L 33.6875 72.90625 
L 8.296875 -9.28125 
L 0 -9.28125 
z
" id="BitstreamVeraSans-Roman-2f"/>
      <path d="M 9.28125 0 
L 9.28125 3.515625 
Q 21.78125 3.515625 21.78125 6.6875 
L 21.78125 59.1875 
Q 16.609375 56.6875 8.6875 56.6875 
L 8.6875 60.203125 
Q 20.953125 60.203125 27.203125 66.609375 
L 28.609375 66.609375 
Q 28.953125 66.609375 29.265625 66.328125 
Q 29.59375 66.0625 29.59375 65.71875 
L 29.59375 6.6875 
Q 29.59375 3.515625 42.09375 3.515625 
L 42.09375 0 
z
" id="Cmr10-31"/>
      <path id="BitstreamVeraSans-Roman-20"/>
     </defs>
     <g transform="translate(684.72 1361.38875)scale(0.36 -0.36)">
      <use transform="translate(0.0 0.09375)" xlink:href="#Cmmi10-b7"/>
      <use transform="translate(57.6171875 -16.9125)scale(0.7)" xlink:href="#Cmr10-32"/>
      <use transform="translate(98.99453125 0.09375)" xlink:href="#BitstreamVeraSans-Roman-20"/>
      <use transform="translate(130.781640625 0.09375)" xlink:href="#BitstreamVeraSans-Roman-2f"/>
      <use transform="translate(164.473046875 0.09375)" xlink:href="#BitstreamVeraSans-Roman-20"/>
      <use transform="translate(196.26015625 0.09375)" xlink:href="#Cmmi10-b7"/>
      <use transform="translate(253.87734375 -16.9125)scale(0.7)" xlink:href="#Cmr10-31"/>
     </g>
    </g>
   </g>
   <g id="matplotlib.axis_2">
    <g id="ytick_1">
     <g id="line2d_15">
      <defs>
       <path d="M 0 0 
L 4 0 
" id="m84bd3e9385" style="stroke:#000000;stroke-width:0.5;"/>
      </defs>
      <g>
       <use style="stroke:#000000;stroke-width:0.5;" x="180.0" xlink:href="#m84bd3e9385" y="1296.0"/>
      </g>
     </g>
     <g id="line2d_16">
      <defs>
       <path d="M 0 0 
L -4 0 
" id="ma98cc6ab1b" style="stroke:#000000;stroke-width:0.5;"/>
      </defs>
      <g>
       <use style="stroke:#000000;stroke-width:0.5;" x="1296.0" xlink:href="#ma98cc6ab1b" y="1296.0"/>
      </g>
     </g>
     <g id="text_8">
      <!-- 0.0 -->
      <defs>
       <path d="M 10.6875 12.40625 
L 21 12.40625 
L 21 0 
L 10.6875 0 
z
" id="BitstreamVeraSans-Roman-2e"/>
      </defs>
      <g transform="translate(128.290625 1304.278125)scale(0.3 -0.3)">
       <use xlink:href="#BitstreamVeraSans-Roman-30"/>
       <use x="63.623046875" xlink:href="#BitstreamVeraSans-Roman-2e"/>
       <use x="95.41015625" xlink:href="#BitstreamVeraSans-Roman-30"/>
      </g>
     </g>
    </g>
    <g id="ytick_2">
     <g id="line2d_17">
      <g>
       <use style="stroke:#000000;stroke-width:0.5;" x="180.0" xlink:href="#m84bd3e9385" y="1065.6"/>
      </g>
     </g>
     <g id="line2d_18">
      <g>
       <use style="stroke:#000000;stroke-width:0.5;" x="1296.0" xlink:href="#ma98cc6ab1b" y="1065.6"/>
      </g>
     </g>
     <g id="text_9">
      <!-- 0.2 -->
      <g transform="translate(128.290625 1073.878125)scale(0.3 -0.3)">
       <use xlink:href="#BitstreamVeraSans-Roman-30"/>
       <use x="63.623046875" xlink:href="#BitstreamVeraSans-Roman-2e"/>
       <use x="95.41015625" xlink:href="#BitstreamVeraSans-Roman-32"/>
      </g>
     </g>
    </g>
    <g id="ytick_3">
     <g id="line2d_19">
      <g>
       <use style="stroke:#000000;stroke-width:0.5;" x="180.0" xlink:href="#m84bd3e9385" y="835.2"/>
      </g>
     </g>
     <g id="line2d_20">
      <g>
       <use style="stroke:#000000;stroke-width:0.5;" x="1296.0" xlink:href="#ma98cc6ab1b" y="835.2"/>
      </g>
     </g>
     <g id="text_10">
      <!-- 0.4 -->
      <g transform="translate(128.290625 843.478125)scale(0.3 -0.3)">
       <use xlink:href="#BitstreamVeraSans-Roman-30"/>
       <use x="63.623046875" xlink:href="#BitstreamVeraSans-Roman-2e"/>
       <use x="95.41015625" xlink:href="#BitstreamVeraSans-Roman-34"/>
      </g>
     </g>
    </g>
    <g id="ytick_4">
     <g id="line2d_21">
      <g>
       <use style="stroke:#000000;stroke-width:0.5;" x="180.0" xlink:href="#m84bd3e9385" y="604.8"/>
      </g>
     </g>
     <g id="line2d_22">
      <g>
       <use style="stroke:#000000;stroke-width:0.5;" x="1296.0" xlink:href="#ma98cc6ab1b" y="604.8"/>
      </g>
     </g>
     <g id="text_11">
      <!-- 0.6 -->
      <defs>
       <path d="M 33.015625 40.375 
Q 26.375 40.375 22.484375 35.828125 
Q 18.609375 31.296875 18.609375 23.390625 
Q 18.609375 15.53125 22.484375 10.953125 
Q 26.375 6.390625 33.015625 6.390625 
Q 39.65625 6.390625 43.53125 10.953125 
Q 47.40625 15.53125 47.40625 23.390625 
Q 47.40625 31.296875 43.53125 35.828125 
Q 39.65625 40.375 33.015625 40.375 
M 52.59375 71.296875 
L 52.59375 62.3125 
Q 48.875 64.0625 45.09375 64.984375 
Q 41.3125 65.921875 37.59375 65.921875 
Q 27.828125 65.921875 22.671875 59.328125 
Q 17.53125 52.734375 16.796875 39.40625 
Q 19.671875 43.65625 24.015625 45.921875 
Q 28.375 48.1875 33.59375 48.1875 
Q 44.578125 48.1875 50.953125 41.515625 
Q 57.328125 34.859375 57.328125 23.390625 
Q 57.328125 12.15625 50.6875 5.359375 
Q 44.046875 -1.421875 33.015625 -1.421875 
Q 20.359375 -1.421875 13.671875 8.265625 
Q 6.984375 17.96875 6.984375 36.375 
Q 6.984375 53.65625 15.1875 63.9375 
Q 23.390625 74.21875 37.203125 74.21875 
Q 40.921875 74.21875 44.703125 73.484375 
Q 48.484375 72.75 52.59375 71.296875 
" id="BitstreamVeraSans-Roman-36"/>
      </defs>
      <g transform="translate(128.290625 613.078125)scale(0.3 -0.3)">
       <use xlink:href="#BitstreamVeraSans-Roman-30"/>
       <use x="63.623046875" xlink:href="#BitstreamVeraSans-Roman-2e"/>
       <use x="95.41015625" xlink:href="#BitstreamVeraSans-Roman-36"/>
      </g>
     </g>
    </g>
    <g id="ytick_5">
     <g id="line2d_23">
      <g>
       <use style="stroke:#000000;stroke-width:0.5;" x="180.0" xlink:href="#m84bd3e9385" y="374.4"/>
      </g>
     </g>
     <g id="line2d_24">
      <g>
       <use style="stroke:#000000;stroke-width:0.5;" x="1296.0" xlink:href="#ma98cc6ab1b" y="374.4"/>
      </g>
     </g>
     <g id="text_12">
      <!-- 0.8 -->
      <defs>
       <path d="M 31.78125 34.625 
Q 24.75 34.625 20.71875 30.859375 
Q 16.703125 27.09375 16.703125 20.515625 
Q 16.703125 13.921875 20.71875 10.15625 
Q 24.75 6.390625 31.78125 6.390625 
Q 38.8125 6.390625 42.859375 10.171875 
Q 46.921875 13.96875 46.921875 20.515625 
Q 46.921875 27.09375 42.890625 30.859375 
Q 38.875 34.625 31.78125 34.625 
M 21.921875 38.8125 
Q 15.578125 40.375 12.03125 44.71875 
Q 8.5 49.078125 8.5 55.328125 
Q 8.5 64.0625 14.71875 69.140625 
Q 20.953125 74.21875 31.78125 74.21875 
Q 42.671875 74.21875 48.875 69.140625 
Q 55.078125 64.0625 55.078125 55.328125 
Q 55.078125 49.078125 51.53125 44.71875 
Q 48 40.375 41.703125 38.8125 
Q 48.828125 37.15625 52.796875 32.3125 
Q 56.78125 27.484375 56.78125 20.515625 
Q 56.78125 9.90625 50.3125 4.234375 
Q 43.84375 -1.421875 31.78125 -1.421875 
Q 19.734375 -1.421875 13.25 4.234375 
Q 6.78125 9.90625 6.78125 20.515625 
Q 6.78125 27.484375 10.78125 32.3125 
Q 14.796875 37.15625 21.921875 38.8125 
M 18.3125 54.390625 
Q 18.3125 48.734375 21.84375 45.5625 
Q 25.390625 42.390625 31.78125 42.390625 
Q 38.140625 42.390625 41.71875 45.5625 
Q 45.3125 48.734375 45.3125 54.390625 
Q 45.3125 60.0625 41.71875 63.234375 
Q 38.140625 66.40625 31.78125 66.40625 
Q 25.390625 66.40625 21.84375 63.234375 
Q 18.3125 60.0625 18.3125 54.390625 
" id="BitstreamVeraSans-Roman-38"/>
      </defs>
      <g transform="translate(128.290625 382.678125)scale(0.3 -0.3)">
       <use xlink:href="#BitstreamVeraSans-Roman-30"/>
       <use x="63.623046875" xlink:href="#BitstreamVeraSans-Roman-2e"/>
       <use x="95.41015625" xlink:href="#BitstreamVeraSans-Roman-38"/>
      </g>
     </g>
    </g>
    <g id="ytick_6">
     <g id="line2d_25">
      <g>
       <use style="stroke:#000000;stroke-width:0.5;" x="180.0" xlink:href="#m84bd3e9385" y="144.0"/>
      </g>
     </g>
     <g id="line2d_26">
      <g>
       <use style="stroke:#000000;stroke-width:0.5;" x="1296.0" xlink:href="#ma98cc6ab1b" y="144.0"/>
      </g>
     </g>
     <g id="text_13">
      <!-- 1.0 -->
      <g transform="translate(128.290625 152.278125)scale(0.3 -0.3)">
       <use xlink:href="#BitstreamVeraSans-Roman-31"/>
       <use x="63.623046875" xlink:href="#BitstreamVeraSans-Roman-2e"/>
       <use x="95.41015625" xlink:href="#BitstreamVeraSans-Roman-30"/>
      </g>
     </g>
    </g>
   </g>
   <g id="text_14">
    <!-- Normalized intenisty in first waveguide -->
    <defs>
     <path d="M 9.8125 72.90625 
L 23.09375 72.90625 
L 55.421875 11.921875 
L 55.421875 72.90625 
L 64.984375 72.90625 
L 64.984375 0 
L 51.703125 0 
L 19.390625 60.984375 
L 19.390625 0 
L 9.8125 0 
z
" id="BitstreamVeraSans-Roman-4e"/>
     <path d="M 8.5 21.578125 
L 8.5 54.6875 
L 17.484375 54.6875 
L 17.484375 21.921875 
Q 17.484375 14.15625 20.5 10.265625 
Q 23.53125 6.390625 29.59375 6.390625 
Q 36.859375 6.390625 41.078125 11.03125 
Q 45.3125 15.671875 45.3125 23.6875 
L 45.3125 54.6875 
L 54.296875 54.6875 
L 54.296875 0 
L 45.3125 0 
L 45.3125 8.40625 
Q 42.046875 3.421875 37.71875 1 
Q 33.40625 -1.421875 27.6875 -1.421875 
Q 18.265625 -1.421875 13.375 4.4375 
Q 8.5 10.296875 8.5 21.578125 
" id="BitstreamVeraSans-Roman-75"/>
     <path d="M 44.28125 53.078125 
L 44.28125 44.578125 
Q 40.484375 46.53125 36.375 47.5 
Q 32.28125 48.484375 27.875 48.484375 
Q 21.1875 48.484375 17.84375 46.4375 
Q 14.5 44.390625 14.5 40.28125 
Q 14.5 37.15625 16.890625 35.375 
Q 19.28125 33.59375 26.515625 31.984375 
L 29.59375 31.296875 
Q 39.15625 29.25 43.1875 25.515625 
Q 47.21875 21.78125 47.21875 15.09375 
Q 47.21875 7.46875 41.1875 3.015625 
Q 35.15625 -1.421875 24.609375 -1.421875 
Q 20.21875 -1.421875 15.453125 -0.5625 
Q 10.6875 0.296875 5.421875 2 
L 5.421875 11.28125 
Q 10.40625 8.6875 15.234375 7.390625 
Q 20.0625 6.109375 24.8125 6.109375 
Q 31.15625 6.109375 34.5625 8.28125 
Q 37.984375 10.453125 37.984375 14.40625 
Q 37.984375 18.0625 35.515625 20.015625 
Q 33.0625 21.96875 24.703125 23.78125 
L 21.578125 24.515625 
Q 13.234375 26.265625 9.515625 29.90625 
Q 5.8125 33.546875 5.8125 39.890625 
Q 5.8125 47.609375 11.28125 51.796875 
Q 16.75 56 26.8125 56 
Q 31.78125 56 36.171875 55.265625 
Q 40.578125 54.546875 44.28125 53.078125 
" id="BitstreamVeraSans-Roman-73"/>
     <path d="M 54.890625 33.015625 
L 54.890625 0 
L 45.90625 0 
L 45.90625 32.71875 
Q 45.90625 40.484375 42.875 44.328125 
Q 39.84375 48.1875 33.796875 48.1875 
Q 26.515625 48.1875 22.3125 43.546875 
Q 18.109375 38.921875 18.109375 30.90625 
L 18.109375 0 
L 9.078125 0 
L 9.078125 54.6875 
L 18.109375 54.6875 
L 18.109375 46.1875 
Q 21.34375 51.125 25.703125 53.5625 
Q 30.078125 56 35.796875 56 
Q 45.21875 56 50.046875 50.171875 
Q 54.890625 44.34375 54.890625 33.015625 
" id="BitstreamVeraSans-Roman-6e"/>
     <path d="M 52 44.1875 
Q 55.375 50.25 60.0625 53.125 
Q 64.75 56 71.09375 56 
Q 79.640625 56 84.28125 50.015625 
Q 88.921875 44.046875 88.921875 33.015625 
L 88.921875 0 
L 79.890625 0 
L 79.890625 32.71875 
Q 79.890625 40.578125 77.09375 44.375 
Q 74.3125 48.1875 68.609375 48.1875 
Q 61.625 48.1875 57.5625 43.546875 
Q 53.515625 38.921875 53.515625 30.90625 
L 53.515625 0 
L 44.484375 0 
L 44.484375 32.71875 
Q 44.484375 40.625 41.703125 44.40625 
Q 38.921875 48.1875 33.109375 48.1875 
Q 26.21875 48.1875 22.15625 43.53125 
Q 18.109375 38.875 18.109375 30.90625 
L 18.109375 0 
L 9.078125 0 
L 9.078125 54.6875 
L 18.109375 54.6875 
L 18.109375 46.1875 
Q 21.1875 51.21875 25.484375 53.609375 
Q 29.78125 56 35.6875 56 
Q 41.65625 56 45.828125 52.96875 
Q 50 49.953125 52 44.1875 
" id="BitstreamVeraSans-Roman-6d"/>
     <path d="M 30.609375 48.390625 
Q 23.390625 48.390625 19.1875 42.75 
Q 14.984375 37.109375 14.984375 27.296875 
Q 14.984375 17.484375 19.15625 11.84375 
Q 23.34375 6.203125 30.609375 6.203125 
Q 37.796875 6.203125 41.984375 11.859375 
Q 46.1875 17.53125 46.1875 27.296875 
Q 46.1875 37.015625 41.984375 42.703125 
Q 37.796875 48.390625 30.609375 48.390625 
M 30.609375 56 
Q 42.328125 56 49.015625 48.375 
Q 55.71875 40.765625 55.71875 27.296875 
Q 55.71875 13.875 49.015625 6.21875 
Q 42.328125 -1.421875 30.609375 -1.421875 
Q 18.84375 -1.421875 12.171875 6.21875 
Q 5.515625 13.875 5.515625 27.296875 
Q 5.515625 40.765625 12.171875 48.375 
Q 18.84375 56 30.609375 56 
" id="BitstreamVeraSans-Roman-6f"/>
     <path d="M 9.421875 75.984375 
L 18.40625 75.984375 
L 18.40625 0 
L 9.421875 0 
z
" id="BitstreamVeraSans-Roman-6c"/>
     <path d="M 5.515625 54.6875 
L 48.1875 54.6875 
L 48.1875 46.484375 
L 14.40625 7.171875 
L 48.1875 7.171875 
L 48.1875 0 
L 4.296875 0 
L 4.296875 8.203125 
L 38.09375 47.515625 
L 5.515625 47.515625 
z
" id="BitstreamVeraSans-Roman-7a"/>
     <path d="M 2.984375 54.6875 
L 12.5 54.6875 
L 29.59375 8.796875 
L 46.6875 54.6875 
L 56.203125 54.6875 
L 35.6875 0 
L 23.484375 0 
z
" id="BitstreamVeraSans-Roman-76"/>
     <path d="M 4.203125 54.6875 
L 13.1875 54.6875 
L 24.421875 12.015625 
L 35.59375 54.6875 
L 46.1875 54.6875 
L 57.421875 12.015625 
L 68.609375 54.6875 
L 77.59375 54.6875 
L 63.28125 0 
L 52.6875 0 
L 40.921875 44.828125 
L 29.109375 0 
L 18.5 0 
z
" id="BitstreamVeraSans-Roman-77"/>
     <path d="M 9.421875 54.6875 
L 18.40625 54.6875 
L 18.40625 0 
L 9.421875 0 
z
M 9.421875 75.984375 
L 18.40625 75.984375 
L 18.40625 64.59375 
L 9.421875 64.59375 
z
" id="BitstreamVeraSans-Roman-69"/>
     <path d="M 32.171875 -5.078125 
Q 28.375 -14.84375 24.75 -17.8125 
Q 21.140625 -20.796875 15.09375 -20.796875 
L 7.90625 -20.796875 
L 7.90625 -13.28125 
L 13.1875 -13.28125 
Q 16.890625 -13.28125 18.9375 -11.515625 
Q 21 -9.765625 23.484375 -3.21875 
L 25.09375 0.875 
L 2.984375 54.6875 
L 12.5 54.6875 
L 29.59375 11.921875 
L 46.6875 54.6875 
L 56.203125 54.6875 
z
" id="BitstreamVeraSans-Roman-79"/>
     <path d="M 56.203125 29.59375 
L 56.203125 25.203125 
L 14.890625 25.203125 
Q 15.484375 15.921875 20.484375 11.0625 
Q 25.484375 6.203125 34.421875 6.203125 
Q 39.59375 6.203125 44.453125 7.46875 
Q 49.3125 8.734375 54.109375 11.28125 
L 54.109375 2.78125 
Q 49.265625 0.734375 44.1875 -0.34375 
Q 39.109375 -1.421875 33.890625 -1.421875 
Q 20.796875 -1.421875 13.15625 6.1875 
Q 5.515625 13.8125 5.515625 26.8125 
Q 5.515625 40.234375 12.765625 48.109375 
Q 20.015625 56 32.328125 56 
Q 43.359375 56 49.78125 48.890625 
Q 56.203125 41.796875 56.203125 29.59375 
M 47.21875 32.234375 
Q 47.125 39.59375 43.09375 43.984375 
Q 39.0625 48.390625 32.421875 48.390625 
Q 24.90625 48.390625 20.390625 44.140625 
Q 15.875 39.890625 15.1875 32.171875 
z
" id="BitstreamVeraSans-Roman-65"/>
     <path d="M 45.40625 46.390625 
L 45.40625 75.984375 
L 54.390625 75.984375 
L 54.390625 0 
L 45.40625 0 
L 45.40625 8.203125 
Q 42.578125 3.328125 38.25 0.953125 
Q 33.9375 -1.421875 27.875 -1.421875 
Q 17.96875 -1.421875 11.734375 6.484375 
Q 5.515625 14.40625 5.515625 27.296875 
Q 5.515625 40.1875 11.734375 48.09375 
Q 17.96875 56 27.875 56 
Q 33.9375 56 38.25 53.625 
Q 42.578125 51.265625 45.40625 46.390625 
M 14.796875 27.296875 
Q 14.796875 17.390625 18.875 11.75 
Q 22.953125 6.109375 30.078125 6.109375 
Q 37.203125 6.109375 41.296875 11.75 
Q 45.40625 17.390625 45.40625 27.296875 
Q 45.40625 37.203125 41.296875 42.84375 
Q 37.203125 48.484375 30.078125 48.484375 
Q 22.953125 48.484375 18.875 42.84375 
Q 14.796875 37.203125 14.796875 27.296875 
" id="BitstreamVeraSans-Roman-64"/>
     <path d="M 34.28125 27.484375 
Q 23.390625 27.484375 19.1875 25 
Q 14.984375 22.515625 14.984375 16.5 
Q 14.984375 11.71875 18.140625 8.90625 
Q 21.296875 6.109375 26.703125 6.109375 
Q 34.1875 6.109375 38.703125 11.40625 
Q 43.21875 16.703125 43.21875 25.484375 
L 43.21875 27.484375 
z
M 52.203125 31.203125 
L 52.203125 0 
L 43.21875 0 
L 43.21875 8.296875 
Q 40.140625 3.328125 35.546875 0.953125 
Q 30.953125 -1.421875 24.3125 -1.421875 
Q 15.921875 -1.421875 10.953125 3.296875 
Q 6 8.015625 6 15.921875 
Q 6 25.140625 12.171875 29.828125 
Q 18.359375 34.515625 30.609375 34.515625 
L 43.21875 34.515625 
L 43.21875 35.40625 
Q 43.21875 41.609375 39.140625 45 
Q 35.0625 48.390625 27.6875 48.390625 
Q 23 48.390625 18.546875 47.265625 
Q 14.109375 46.140625 10.015625 43.890625 
L 10.015625 52.203125 
Q 14.9375 54.109375 19.578125 55.046875 
Q 24.21875 56 28.609375 56 
Q 40.484375 56 46.34375 49.84375 
Q 52.203125 43.703125 52.203125 31.203125 
" id="BitstreamVeraSans-Roman-61"/>
     <path d="M 37.109375 75.984375 
L 37.109375 68.5 
L 28.515625 68.5 
Q 23.6875 68.5 21.796875 66.546875 
Q 19.921875 64.59375 19.921875 59.515625 
L 19.921875 54.6875 
L 34.71875 54.6875 
L 34.71875 47.703125 
L 19.921875 47.703125 
L 19.921875 0 
L 10.890625 0 
L 10.890625 47.703125 
L 2.296875 47.703125 
L 2.296875 54.6875 
L 10.890625 54.6875 
L 10.890625 58.5 
Q 10.890625 67.625 15.140625 71.796875 
Q 19.390625 75.984375 28.609375 75.984375 
z
" id="BitstreamVeraSans-Roman-66"/>
     <path d="M 41.109375 46.296875 
Q 39.59375 47.171875 37.8125 47.578125 
Q 36.03125 48 33.890625 48 
Q 26.265625 48 22.1875 43.046875 
Q 18.109375 38.09375 18.109375 28.8125 
L 18.109375 0 
L 9.078125 0 
L 9.078125 54.6875 
L 18.109375 54.6875 
L 18.109375 46.1875 
Q 20.953125 51.171875 25.484375 53.578125 
Q 30.03125 56 36.53125 56 
Q 37.453125 56 38.578125 55.875 
Q 39.703125 55.765625 41.0625 55.515625 
z
" id="BitstreamVeraSans-Roman-72"/>
     <path d="M 18.3125 70.21875 
L 18.3125 54.6875 
L 36.8125 54.6875 
L 36.8125 47.703125 
L 18.3125 47.703125 
L 18.3125 18.015625 
Q 18.3125 11.328125 20.140625 9.421875 
Q 21.96875 7.515625 27.59375 7.515625 
L 36.8125 7.515625 
L 36.8125 0 
L 27.59375 0 
Q 17.1875 0 13.234375 3.875 
Q 9.28125 7.765625 9.28125 18.015625 
L 9.28125 47.703125 
L 2.6875 47.703125 
L 2.6875 54.6875 
L 9.28125 54.6875 
L 9.28125 70.21875 
z
" id="BitstreamVeraSans-Roman-74"/>
     <path d="M 45.40625 27.984375 
Q 45.40625 37.75 41.375 43.109375 
Q 37.359375 48.484375 30.078125 48.484375 
Q 22.859375 48.484375 18.828125 43.109375 
Q 14.796875 37.75 14.796875 27.984375 
Q 14.796875 18.265625 18.828125 12.890625 
Q 22.859375 7.515625 30.078125 7.515625 
Q 37.359375 7.515625 41.375 12.890625 
Q 45.40625 18.265625 45.40625 27.984375 
M 54.390625 6.78125 
Q 54.390625 -7.171875 48.1875 -13.984375 
Q 42 -20.796875 29.203125 -20.796875 
Q 24.46875 -20.796875 20.265625 -20.09375 
Q 16.0625 -19.390625 12.109375 -17.921875 
L 12.109375 -9.1875 
Q 16.0625 -11.328125 19.921875 -12.34375 
Q 23.78125 -13.375 27.78125 -13.375 
Q 36.625 -13.375 41.015625 -8.765625 
Q 45.40625 -4.15625 45.40625 5.171875 
L 45.40625 9.625 
Q 42.625 4.78125 38.28125 2.390625 
Q 33.9375 0 27.875 0 
Q 17.828125 0 11.671875 7.65625 
Q 5.515625 15.328125 5.515625 27.984375 
Q 5.515625 40.671875 11.671875 48.328125 
Q 17.828125 56 27.875 56 
Q 33.9375 56 38.28125 53.609375 
Q 42.625 51.21875 45.40625 46.390625 
L 45.40625 54.6875 
L 54.390625 54.6875 
z
" id="BitstreamVeraSans-Roman-67"/>
    </defs>
    <g transform="translate(385.2928125 92.92)scale(0.36 -0.36)">
     <use xlink:href="#BitstreamVeraSans-Roman-4e"/>
     <use x="74.8046875" xlink:href="#BitstreamVeraSans-Roman-6f"/>
     <use x="135.986328125" xlink:href="#BitstreamVeraSans-Roman-72"/>
     <use x="177.083984375" xlink:href="#BitstreamVeraSans-Roman-6d"/>
     <use x="274.49609375" xlink:href="#BitstreamVeraSans-Roman-61"/>
     <use x="335.775390625" xlink:href="#BitstreamVeraSans-Roman-6c"/>
     <use x="363.55859375" xlink:href="#BitstreamVeraSans-Roman-69"/>
     <use x="391.341796875" xlink:href="#BitstreamVeraSans-Roman-7a"/>
     <use x="443.83203125" xlink:href="#BitstreamVeraSans-Roman-65"/>
     <use x="505.35546875" xlink:href="#BitstreamVeraSans-Roman-64"/>
     <use x="568.83203125" xlink:href="#BitstreamVeraSans-Roman-20"/>
     <use x="600.619140625" xlink:href="#BitstreamVeraSans-Roman-69"/>
     <use x="628.40234375" xlink:href="#BitstreamVeraSans-Roman-6e"/>
     <use x="691.78125" xlink:href="#BitstreamVeraSans-Roman-74"/>
     <use x="730.990234375" xlink:href="#BitstreamVeraSans-Roman-65"/>
     <use x="792.513671875" xlink:href="#BitstreamVeraSans-Roman-6e"/>
     <use x="855.892578125" xlink:href="#BitstreamVeraSans-Roman-69"/>
     <use x="883.67578125" xlink:href="#BitstreamVeraSans-Roman-73"/>
     <use x="935.775390625" xlink:href="#BitstreamVeraSans-Roman-74"/>
     <use x="974.984375" xlink:href="#BitstreamVeraSans-Roman-79"/>
     <use x="1034.1640625" xlink:href="#BitstreamVeraSans-Roman-20"/>
     <use x="1065.95117188" xlink:href="#BitstreamVeraSans-Roman-69"/>
     <use x="1093.734375" xlink:href="#BitstreamVeraSans-Roman-6e"/>
     <use x="1157.11328125" xlink:href="#BitstreamVeraSans-Roman-20"/>
     <use x="1188.90039062" xlink:href="#BitstreamVeraSans-Roman-66"/>
     <use x="1224.10546875" xlink:href="#BitstreamVeraSans-Roman-69"/>
     <use x="1251.88867188" xlink:href="#BitstreamVeraSans-Roman-72"/>
     <use x="1293.00195312" xlink:href="#BitstreamVeraSans-Roman-73"/>
     <use x="1345.1015625" xlink:href="#BitstreamVeraSans-Roman-74"/>
     <use x="1384.31054688" xlink:href="#BitstreamVeraSans-Roman-20"/>
     <use x="1416.09765625" xlink:href="#BitstreamVeraSans-Roman-77"/>
     <use x="1497.88476562" xlink:href="#BitstreamVeraSans-Roman-61"/>
     <use x="1559.1640625" xlink:href="#BitstreamVeraSans-Roman-76"/>
     <use x="1618.34375" xlink:href="#BitstreamVeraSans-Roman-65"/>
     <use x="1679.8671875" xlink:href="#BitstreamVeraSans-Roman-67"/>
     <use x="1743.34375" xlink:href="#BitstreamVeraSans-Roman-75"/>
     <use x="1806.72265625" xlink:href="#BitstreamVeraSans-Roman-69"/>
     <use x="1834.50585938" xlink:href="#BitstreamVeraSans-Roman-64"/>
     <use x="1897.98242188" xlink:href="#BitstreamVeraSans-Roman-65"/>
    </g>
   </g>
   <g id="legend_1">
    <g id="patch_7">
     <path d="M 905.4 837.995625 
L 1289.82375 837.995625 
L 1289.82375 720 
L 905.4 720 
z
" style="fill:#ffffff;stroke:#000000;stroke-linejoin:miter;"/>
    </g>
    <g id="line2d_27">
     <path d="M 930.6 749.154375 
L 981 749.154375 
" style="fill:none;stroke:#0000ff;stroke-linecap:square;stroke-width:7.0;"/>
    </g>
    <g id="line2d_28"/>
    <g id="text_15">
     <!-- eigenmode(Z) -->
     <defs>
      <path d="M 8.015625 75.875 
L 15.828125 75.875 
Q 23.140625 64.359375 26.78125 53.3125 
Q 30.421875 42.28125 30.421875 31.390625 
Q 30.421875 20.453125 26.78125 9.375 
Q 23.140625 -1.703125 15.828125 -13.1875 
L 8.015625 -13.1875 
Q 14.5 -2 17.703125 9.0625 
Q 20.90625 20.125 20.90625 31.390625 
Q 20.90625 42.671875 17.703125 53.65625 
Q 14.5 64.65625 8.015625 75.875 
" id="BitstreamVeraSans-Roman-29"/>
      <path d="M 31 75.875 
Q 24.46875 64.65625 21.28125 53.65625 
Q 18.109375 42.671875 18.109375 31.390625 
Q 18.109375 20.125 21.3125 9.0625 
Q 24.515625 -2 31 -13.1875 
L 23.1875 -13.1875 
Q 15.875 -1.703125 12.234375 9.375 
Q 8.59375 20.453125 8.59375 31.390625 
Q 8.59375 42.28125 12.203125 53.3125 
Q 15.828125 64.359375 23.1875 75.875 
z
" id="BitstreamVeraSans-Roman-28"/>
      <path d="M 5.609375 72.90625 
L 62.890625 72.90625 
L 62.890625 65.375 
L 16.796875 8.296875 
L 64.015625 8.296875 
L 64.015625 0 
L 4.5 0 
L 4.5 7.515625 
L 50.59375 64.59375 
L 5.609375 64.59375 
z
" id="BitstreamVeraSans-Roman-5a"/>
     </defs>
     <g transform="translate(1020.6 761.754375)scale(0.36 -0.36)">
      <use xlink:href="#BitstreamVeraSans-Roman-65"/>
      <use x="61.5234375" xlink:href="#BitstreamVeraSans-Roman-69"/>
      <use x="89.306640625" xlink:href="#BitstreamVeraSans-Roman-67"/>
      <use x="152.783203125" xlink:href="#BitstreamVeraSans-Roman-65"/>
      <use x="214.306640625" xlink:href="#BitstreamVeraSans-Roman-6e"/>
      <use x="277.685546875" xlink:href="#BitstreamVeraSans-Roman-6d"/>
      <use x="375.09765625" xlink:href="#BitstreamVeraSans-Roman-6f"/>
      <use x="436.279296875" xlink:href="#BitstreamVeraSans-Roman-64"/>
      <use x="499.755859375" xlink:href="#BitstreamVeraSans-Roman-65"/>
      <use x="561.279296875" xlink:href="#BitstreamVeraSans-Roman-28"/>
      <use x="600.29296875" xlink:href="#BitstreamVeraSans-Roman-5a"/>
      <use x="668.798828125" xlink:href="#BitstreamVeraSans-Roman-29"/>
     </g>
    </g>
    <g id="line2d_29">
     <path d="M 930.6 801.995625 
L 981 801.995625 
" style="fill:none;stroke:#008000;stroke-linecap:square;stroke-width:7.0;"/>
    </g>
    <g id="line2d_30"/>
    <g id="text_16">
     <!-- $\Psi(Z)$ -->
     <defs>
      <path d="M 21.390625 0 
L 21.390625 3.515625 
Q 34.1875 3.515625 34.1875 6.6875 
L 34.1875 14.015625 
Q 28.609375 14.75 24.578125 16.921875 
Q 20.5625 19.09375 17.828125 22.609375 
Q 15.09375 26.125 13.703125 30.78125 
Q 12.3125 35.453125 12.3125 40.828125 
Q 12.3125 52.59375 6.59375 52.59375 
Q 6.34375 52.59375 5.96875 52.90625 
Q 5.609375 53.21875 5.609375 53.515625 
L 5.609375 54.296875 
Q 5.609375 54.640625 5.921875 54.90625 
Q 6.25 55.171875 6.59375 55.171875 
L 13.28125 55.171875 
Q 16.453125 55.171875 18.15625 52.90625 
Q 19.875 50.640625 20.4375 47.5625 
Q 21 44.484375 21 41.21875 
Q 21 32.328125 23.875 25.609375 
Q 26.765625 18.890625 34.1875 16.890625 
L 34.1875 61.625 
Q 34.1875 64.796875 21.390625 64.796875 
L 21.390625 68.3125 
L 55.71875 68.3125 
L 55.71875 64.796875 
Q 42.921875 64.796875 42.921875 61.625 
L 42.921875 16.796875 
Q 48.140625 18.109375 51.21875 21.84375 
Q 54.296875 25.59375 55.484375 30.5625 
Q 56.6875 35.546875 56.6875 41.21875 
Q 56.6875 46.578125 58.296875 50.875 
Q 59.90625 55.171875 64.40625 55.171875 
L 71.09375 55.171875 
Q 71.4375 55.171875 71.78125 54.90625 
Q 72.125 54.640625 72.125 54.296875 
L 72.125 53.515625 
Q 72.125 53.171875 71.734375 52.875 
Q 71.34375 52.59375 71.09375 52.59375 
Q 65.375 52.59375 65.375 40.828125 
Q 65.375 35.40625 63.953125 30.734375 
Q 62.546875 26.078125 59.6875 22.53125 
Q 56.84375 19 52.703125 16.828125 
Q 48.578125 14.65625 42.921875 13.921875 
L 42.921875 6.6875 
Q 42.921875 3.515625 55.71875 3.515625 
L 55.71875 0 
z
" id="Cmr10-aa"/>
      <path d="M 31 -24.8125 
Q 25.4375 -20.40625 21.40625 -14.71875 
Q 17.390625 -9.03125 14.8125 -2.578125 
Q 12.25 3.859375 10.984375 10.890625 
Q 9.71875 17.921875 9.71875 25 
Q 9.71875 32.171875 10.984375 39.203125 
Q 12.25 46.234375 14.859375 52.734375 
Q 17.484375 59.234375 21.53125 64.890625 
Q 25.59375 70.5625 31 74.8125 
Q 31 75 31.5 75 
L 32.421875 75 
Q 32.71875 75 32.953125 74.734375 
Q 33.203125 74.46875 33.203125 74.125 
Q 33.203125 73.6875 33.015625 73.484375 
Q 28.125 68.703125 24.875 63.234375 
Q 21.625 57.765625 19.640625 51.578125 
Q 17.671875 45.40625 16.796875 38.78125 
Q 15.921875 32.171875 15.921875 25 
Q 15.921875 -6.78125 32.90625 -23.296875 
Q 33.203125 -23.578125 33.203125 -24.125 
Q 33.203125 -24.359375 32.9375 -24.671875 
Q 32.671875 -25 32.421875 -25 
L 31.5 -25 
Q 31 -25 31 -24.8125 
" id="Cmr10-28"/>
      <path d="M 6.5 -25 
Q 5.609375 -25 5.609375 -24.125 
Q 5.609375 -23.6875 5.8125 -23.484375 
Q 22.90625 -6.78125 22.90625 25 
Q 22.90625 56.78125 6 73.296875 
Q 5.609375 73.53125 5.609375 74.125 
Q 5.609375 74.46875 5.875 74.734375 
Q 6.15625 75 6.5 75 
L 7.421875 75 
Q 7.71875 75 7.90625 74.8125 
Q 15.09375 69.140625 19.875 61.03125 
Q 24.65625 52.9375 26.875 43.75 
Q 29.109375 34.578125 29.109375 25 
Q 29.109375 17.921875 27.90625 11.0625 
Q 26.703125 4.203125 24.09375 -2.453125 
Q 21.484375 -9.125 17.484375 -14.765625 
Q 13.484375 -20.40625 7.90625 -24.8125 
Q 7.71875 -25 7.421875 -25 
z
" id="Cmr10-29"/>
      <path d="M 5.8125 0.78125 
Q 5.8125 2.25 6.5 3.078125 
L 61.53125 64.796875 
L 46.78125 64.796875 
Q 39.453125 64.796875 34.640625 63.0625 
Q 29.828125 61.328125 26.671875 57.296875 
Q 23.53125 53.265625 21.390625 46.296875 
Q 21.1875 45.40625 20.40625 45.40625 
L 19.484375 45.40625 
Q 18.5 45.40625 18.5 46.6875 
L 24.8125 67.390625 
Q 25 68.3125 25.78125 68.3125 
L 71.390625 68.3125 
Q 72.21875 68.3125 72.21875 67.484375 
Q 72.21875 66.015625 71.578125 65.375 
L 16.796875 3.8125 
L 31.984375 3.8125 
Q 40.828125 3.8125 45.875 5.984375 
Q 50.921875 8.15625 53.875 12.84375 
Q 56.84375 17.53125 59.625 26.21875 
Q 59.71875 26.5625 59.984375 26.828125 
Q 60.25 27.09375 60.59375 27.09375 
L 61.53125 27.09375 
Q 62.5 27.09375 62.5 25.78125 
L 54.59375 0.875 
Q 54.15625 0 53.609375 0 
L 6.6875 0 
Q 5.8125 0 5.8125 0.78125 
" id="Cmmi10-5a"/>
     </defs>
     <g transform="translate(1020.6 814.595625)scale(0.36 -0.36)">
      <use xlink:href="#Cmr10-aa"/>
      <use transform="translate(77.685546875 0.0)" xlink:href="#Cmr10-28"/>
      <use transform="translate(116.50390625 0.0)" xlink:href="#Cmmi10-5a"/>
      <use transform="translate(184.716796875 0.0)" xlink:href="#Cmr10-29"/>
     </g>
    </g>
   </g>
  </g>
 </g>
 <defs>
  <clipPath id="p1a17cce073">
   <rect height="1152.0" width="1116.0" x="180.0" y="144.0"/>
  </clipPath>
 </defs>
</svg>
