<?xml version="1.0" encoding="UTF-8" standalone="no"?>
<!-- Created with matplotlib (http://matplotlib.org/) -->

<svg
   xmlns:dc="http://purl.org/dc/elements/1.1/"
   xmlns:cc="http://creativecommons.org/ns#"
   xmlns:rdf="http://www.w3.org/1999/02/22-rdf-syntax-ns#"
   xmlns:svg="http://www.w3.org/2000/svg"
   xmlns="http://www.w3.org/2000/svg"
   xmlns:xlink="http://www.w3.org/1999/xlink"
   xmlns:sodipodi="http://sodipodi.sourceforge.net/DTD/sodipodi-0.dtd"
   xmlns:inkscape="http://www.inkscape.org/namespaces/inkscape"
   height="1440pt"
   version="1.1"
   viewBox="0 0 1440 1440"
   width="1440pt"
   id="svg2"
   inkscape:version="0.91 r13725"
   sodipodi:docname="avg_M_BT.svg">
  <metadata
     id="metadata610">
    <rdf:RDF>
      <cc:Work
         rdf:about="">
        <dc:format>image/svg+xml</dc:format>
        <dc:type
           rdf:resource="http://purl.org/dc/dcmitype/StillImage" />
        <dc:title></dc:title>
      </cc:Work>
    </rdf:RDF>
  </metadata>
  <sodipodi:namedview
     pagecolor="#ffffff"
     bordercolor="#666666"
     borderopacity="1"
     objecttolerance="10"
     gridtolerance="10"
     guidetolerance="10"
     inkscape:pageopacity="0"
     inkscape:pageshadow="2"
     inkscape:window-width="1855"
     inkscape:window-height="1176"
     id="namedview608"
     showgrid="false"
     inkscape:zoom="0.84"
     inkscape:cx="900"
     inkscape:cy="900"
     inkscape:window-x="65"
     inkscape:window-y="24"
     inkscape:window-maximized="1"
     inkscape:current-layer="svg2" />
  <defs
     id="defs4">
    <style
       type="text/css"
       id="style6">
*{stroke-linecap:butt;stroke-linejoin:round;stroke-miterlimit:100000;}
  </style>
  </defs>
  <g
     id="figure_1">
    <g
       id="patch_1">
      <path
         d="M 0 1440  L 1440 1440  L 1440 0  L 0 0  z "
         style="fill:#ffffff;"
         id="path10" />
    </g>
    <g
       id="axes_1">
      <g
         id="patch_2">
        <path
           d="M 180 1296  L 1296 1296  L 1296 144  L 180 144  z "
           style="fill:#ffffff;"
           id="path14" />
      </g>
      <g
         id="line2d_1">
        <path
           clip-path="url(#pac9be555e1)"
           d="M 180 147.192331  L 187.489933 149.504222  L 194.979866 152.350279  L 202.469799 152.966241  L 209.959732 154.030367  L 217.449664 156.842006  L 224.939597 160.180024  L 232.42953 165.799889  L 239.919463 175.851742  L 247.409396 189.966908  L 254.899329 208.263557  L 262.389262 232.425411  L 277.369128 287.806546  L 284.85906 313.330454  L 292.348993 334.627485  L 299.838926 351.443808  L 307.328859 370.570713  L 314.818792 398.98223  L 322.308725 432.142425  L 329.798658 459.029425  L 337.288591 473.542144  L 344.778523 476.216143  L 352.268456 470.752348  L 367.248322 452.121195  L 374.738255 446.294819  L 382.228188 446.573942  L 389.718121 454.016453  L 397.208054 467.563047  L 404.697987 484.544724  L 412.187919 501.913177  L 419.677852 517.228176  L 427.167785 528.964563  L 434.657718 536.369568  L 442.147651 539.233236  L 449.637584 537.750009  L 457.127517 532.472212  L 464.61745 524.286842  L 472.107383 514.35828  L 479.597315 504.020283  L 487.087248 494.635558  L 494.577181 487.454377  L 502.067114 483.495017  L 509.557047 483.453987  L 517.04698 487.649197  L 524.536913 496.004006  L 532.026846 508.081962  L 539.516779 523.17264  L 547.006711 540.412841  L 554.496644 558.916065  L 569.47651 596.680748  L 576.966443 614.8738  L 584.456376 632.23299  L 591.946309 648.709991  L 599.436242 664.399361  L 606.926174 679.491643  L 636.885906 738.422809  L 651.865772 768.975828  L 674.33557 815.287075  L 681.825503 830.184392  L 689.315436 844.50956  L 696.805369 858.109079  L 704.295302 870.860798  L 711.785235 882.676703  L 719.275168 893.502423  L 726.765101 903.3147  L 734.255034 912.117834  L 741.744966 919.939779  L 749.234899 926.828266  L 756.724832 932.847119  L 764.214765 938.072765  L 771.704698 942.590924  L 779.194631 946.493439  L 786.684564 949.875269  L 794.174497 952.831692  L 801.66443 955.455802  L 809.154362 957.836356  L 824.134228 962.190276  L 839.114094 966.462149  L 846.604027 968.707744  L 854.09396 971.083473  L 861.583893 973.620989  L 869.073826 976.343244  L 876.563758 979.264711  L 884.053691 982.391696  L 891.543624 985.722741  L 899.033557 989.249192  L 906.52349 992.955951  L 914.013423 996.822425  L 928.993289 1004.931662  L 951.463087 1017.597556  L 973.932886 1030.18718  L 988.912752 1038.240435  L 1003.892617 1045.891675  L 1018.872483 1053.086139  L 1033.852349 1059.806768  L 1048.832215 1066.060652  L 1063.812081 1071.867693  L 1078.791946 1077.252979  L 1093.771812 1082.242619  L 1108.751678 1086.861915  L 1123.731544 1091.134722  L 1138.711409 1095.083259  L 1153.691275 1098.728081  L 1168.671141 1102.088136  L 1183.651007 1105.180902  L 1198.630872 1108.022574  L 1213.610738 1110.628208  L 1228.590604 1113.011778  L 1243.57047 1115.18614  L 1258.550336 1117.162919  L 1273.530201 1118.952387  L 1288.510067 1120.563384  L 1303.489933 1122.003322  L 1318.469799 1123.278281  L 1333.449664 1124.393201  L 1348.42953 1125.352146  L 1363.409396 1126.158595  L 1385.879195 1127.089274  L 1408.348993 1127.694613  L 1430.818792 1127.985923  L 1441 1128.014053  L 1441 1128.014053  "
           style="fill:none;stroke:#ff7f50;stroke-linecap:square;stroke-width:5.0;"
           id="path17" />
      </g>
      <g
         id="line2d_2">
        <path
           clip-path="url(#pac9be555e1)"
           d="M 180 147.117256  L 187.489933 149.840224  L 194.979866 150.089787  L 202.469799 149.443526  L 209.959732 150.124799  L 217.449664 152.551927  L 224.939597 157.475305  L 232.42953 165.196967  L 239.919463 174.041919  L 247.409396 181.162578  L 254.899329 188.827372  L 262.389262 202.222598  L 269.879195 219.261029  L 277.369128 233.142468  L 284.85906 239.33561  L 292.348993 236.123851  L 299.838926 227.048357  L 307.328859 223.727409  L 314.818792 237.330126  L 322.308725 266.403076  L 329.798658 300.390148  L 337.288591 329.813185  L 344.778523 349.996077  L 352.268456 360.613663  L 359.758389 364.138065  L 367.248322 364.395679  L 374.738255 365.559323  L 382.228188 371.216994  L 389.718121 383.391088  L 397.208054 402.072825  L 404.697987 425.717971  L 412.187919 452.194575  L 419.677852 479.399984  L 427.167785 505.451886  L 434.657718 528.778171  L 442.147651 548.245079  L 449.637584 563.260434  L 457.127517 573.794599  L 464.61745 580.32153  L 472.107383 583.705787  L 479.597315 585.06015  L 487.087248 585.59249  L 494.577181 586.457337  L 502.067114 588.625603  L 509.557047 592.783278  L 517.04698 599.269181  L 524.536913 608.062556  L 532.026846 618.827059  L 539.516779 631.004756  L 561.986577 669.620658  L 569.47651 681.468053  L 576.966443 692.329001  L 584.456376 702.162539  L 591.946309 711.057731  L 599.436242 719.19735  L 606.926174 726.818871  L 629.395973 748.989892  L 636.885906 756.756618  L 644.375839 764.852231  L 651.865772 773.254987  L 666.845638 790.628041  L 681.825503 807.913158  L 689.315436 816.214545  L 696.805369 824.171577  L 704.295302 831.741397  L 711.785235 838.919013  L 719.275168 845.733421  L 726.765101 852.239781  L 734.255034 858.50864  L 749.234899 870.619504  L 771.704698 888.385404  L 786.684564 899.965465  L 794.174497 905.579168  L 801.66443 911.023974  L 809.154362 916.270327  L 816.644295 921.300031  L 824.134228 926.107025  L 831.624161 930.696381  L 839.114094 935.082238  L 846.604027 939.285264  L 854.09396 943.330108  L 869.073826 951.050281  L 884.053691 958.441442  L 906.52349 969.230823  L 936.483221 983.346701  L 951.463087 990.229011  L 966.442953 996.898905  L 981.422819 1003.281617  L 996.402685 1009.31846  L 1011.38255 1014.971633  L 1026.362416 1020.221969  L 1041.342282 1025.06351  L 1056.322148 1029.498278  L 1071.302013 1033.532973  L 1086.281879 1037.177701  L 1101.261745 1040.445894  L 1116.241611 1043.354483  L 1131.221477 1045.92378  L 1146.201342 1048.176939  L 1161.181208 1050.139127  L 1176.161074 1051.8366  L 1191.14094 1053.295797  L 1206.120805 1054.542555  L 1221.100671 1055.601473  L 1236.080537 1056.495473  L 1258.550336 1057.57271  L 1281.020134 1058.38889  L 1303.489933 1058.999565  L 1333.449664 1059.581115  L 1378.389262 1060.170925  L 1441 1060.824262  L 1441 1060.824262  "
           style="fill:none;stroke:#008000;stroke-dasharray:3.000000,5.000000,1.000000,5.000000;stroke-dashoffset:0.0;stroke-width:5.0;"
           id="path20" />
      </g>
      <g
         id="line2d_3">
        <path
           clip-path="url(#pac9be555e1)"
           d="M 180 147.012431  L 187.489933 148.1577  L 194.979866 149.524857  L 202.469799 149.691068  L 209.959732 149.743702  L 217.449664 152.149718  L 224.939597 158.600182  L 232.42953 166.43723  L 239.919463 174.447654  L 247.409396 183.2533  L 262.389262 202.494413  L 269.879195 211.137788  L 284.85906 227.736102  L 292.348993 234.318429  L 299.838926 237.598629  L 307.328859 239.171157  L 314.818792 243.259882  L 322.308725 253.301392  L 329.798658 270.038167  L 337.288591 291.651515  L 359.758389 362.686903  L 367.248322 384.869858  L 374.738255 405.486353  L 382.228188 424.104045  L 389.718121 440.483907  L 397.208054 454.81915  L 412.187919 480.78007  L 419.677852 494.468241  L 434.657718 523.516849  L 442.147651 536.324304  L 449.637584 545.934396  L 457.127517 551.519505  L 464.61745 553.146064  L 472.107383 551.612656  L 479.597315 548.105673  L 487.087248 543.841707  L 494.577181 539.809736  L 502.067114 536.660522  L 509.557047 534.72203  L 517.04698 534.081597  L 524.536913 534.682779  L 532.026846 536.412284  L 539.516779 539.171089  L 547.006711 542.926284  L 554.496644 547.735369  L 561.986577 553.733472  L 569.47651 561.082074  L 576.966443 569.89379  L 584.456376 580.162377  L 591.946309 591.728624  L 599.436242 604.296102  L 606.926174 617.486027  L 621.90604 644.197214  L 629.395973 657.07859  L 636.885906 669.338602  L 644.375839 680.834361  L 651.865772 691.476767  L 659.355705 701.218235  L 666.845638 710.04439  L 674.33557 717.969939  L 681.825503 725.037639  L 689.315436 731.318806  L 696.805369 736.913884  L 704.295302 741.951786  L 711.785235 746.586961  L 734.255034 759.853617  L 741.744966 764.65297  L 749.234899 769.885297  L 756.724832 775.638577  L 764.214765 781.949614  L 771.704698 788.803508  L 779.194631 796.139628  L 786.684564 803.862545  L 801.66443 819.993532  L 816.644295 836.229456  L 824.134228 844.12191  L 831.624161 851.755067  L 839.114094 859.068718  L 846.604027 866.018194  L 854.09396 872.572231  L 861.583893 878.710763  L 869.073826 884.422935  L 876.563758 889.705443  L 884.053691 894.561213  L 891.543624 898.998361  L 899.033557 903.029355  L 906.52349 906.670304  L 914.013423 909.940318  L 921.503356 912.860901  L 928.993289 915.455337  L 936.483221 917.748082  L 943.973154 919.764137  L 951.463087 921.528437  L 958.95302 923.065246  L 966.442953 924.397607  L 973.932886 925.546853  L 981.422819 926.532223  L 988.912752 927.370613  L 996.402685 928.076457  L 1011.38255 929.136368  L 1026.362416 929.783372  L 1041.342282 930.064932  L 1056.322148 930.017834  L 1071.302013 929.678805  L 1086.281879 929.08916  L 1101.261745 928.293328  L 1123.731544 926.803617  L 1146.201342 925.049064  L 1168.671141 923.073217  L 1191.14094 920.860782  L 1213.610738 918.36007  L 1228.590604 916.503364  L 1243.57047 914.479374  L 1258.550336 912.283022  L 1273.530201 909.919178  L 1296 906.097064  L 1325.959732 900.649185  L 1363.409396 893.761553  L 1385.879195 889.869537  L 1400.85906 887.46128  L 1415.838926 885.237712  L 1430.818792 883.218771  L 1441 881.975195  L 1441 881.975195  "
           style="fill:none;stroke:#0000ff;stroke-dasharray:6.000000,6.000000;stroke-dashoffset:0.0;stroke-width:5.0;"
           id="path23" />
      </g>
      <g
         id="line2d_4">
        <path
           clip-path="url(#pac9be555e1)"
           d="M 180 146.982351  L 187.489933 148.282074  L 194.979866 149.516261  L 202.469799 149.566396  L 209.959732 149.919389  L 217.449664 152.734515  L 224.939597 159.182733  L 232.42953 166.174183  L 239.919463 171.572537  L 247.409396 176.737804  L 254.899329 183.639431  L 269.879195 201.517986  L 277.369128 208.889249  L 284.85906 213.219557  L 292.348993 213.649121  L 299.838926 211.428345  L 307.328859 210.54873  L 314.818792 215.333072  L 322.308725 226.97118  L 329.798658 243.695266  L 344.778523 282.44959  L 352.268456 300.83562  L 359.758389 317.319537  L 367.248322 331.662959  L 374.738255 344.080573  L 382.228188 355.119446  L 389.718121 365.391082  L 404.697987 385.311905  L 412.187919 395.687269  L 419.677852 406.880556  L 427.167785 419.005696  L 442.147651 444.328849  L 449.637584 456.559452  L 457.127517 468.337698  L 464.61745 479.584946  L 472.107383 490.021817  L 479.597315 499.428201  L 487.087248 507.871499  L 494.577181 515.640407  L 509.557047 530.336892  L 532.026846 551.980469  L 561.986577 580.431205  L 569.47651 588.174775  L 576.966443 596.53175  L 584.456376 605.558438  L 591.946309 615.166269  L 614.416107 644.999812  L 621.90604 654.34666  L 629.395973 663.053947  L 636.885906 671.036942  L 644.375839 678.279731  L 651.865772 684.812585  L 659.355705 690.688563  L 666.845638 695.964601  L 674.33557 700.690103  L 681.825503 704.903898  L 689.315436 708.638393  L 696.805369 711.928159  L 704.295302 714.819463  L 711.785235 717.377628  L 719.275168 719.690073  L 741.744966 726.281267  L 749.234899 728.759726  L 756.724832 731.546709  L 764.214765 734.702437  L 771.704698 738.251776  L 779.194631 742.184714  L 786.684564 746.461375  L 794.174497 751.020099  L 809.154362 760.682769  L 831.624161 775.426105  L 839.114094 780.156432  L 846.604027 784.713395  L 854.09396 789.05822  L 861.583893 793.157492  L 869.073826 796.982845  L 876.563758 800.51116  L 884.053691 803.725103  L 891.543624 806.613724  L 899.033557 809.172924  L 906.52349 811.405606  L 914.013423 813.321484  L 921.503356 814.936528  L 928.993289 816.272135  L 936.483221 817.354108  L 943.973154 818.211516  L 951.463087 818.875532  L 958.95302 819.378281  L 973.932886 820.026797  L 996.402685 820.535254  L 1018.872483 821.005323  L 1033.852349 821.464196  L 1048.832215 822.079389  L 1071.302013 823.275894  L 1093.771812 824.71735  L 1168.671141 829.853311  L 1183.651007 830.6632  L 1198.630872 831.29854  L 1213.610738 831.71368  L 1228.590604 831.867162  L 1243.57047 831.7251  L 1258.550336 831.26424  L 1273.530201 830.474376  L 1288.510067 829.359872  L 1303.489933 827.940075  L 1318.469799 826.248481  L 1333.449664 824.330602  L 1355.919463 821.14935  L 1423.328859 811.179007  L 1441 808.815927  L 1441 808.815927  "
           style="fill:none;stroke:#00bfbf;stroke-dasharray:1.000000,3.000000;stroke-dashoffset:0.0;stroke-width:5.0;"
           id="path26" />
      </g>
      <g
         id="line2d_5">
        <path
           clip-path="url(#pac9be555e1)"
           d="M 180 298.338735  L 1441 298.338735  L 1441 298.338735  "
           style="fill:none;stroke:#000000;stroke-dasharray:6.000000,6.000000;stroke-dashoffset:0.0;stroke-width:3.0;"
           id="path29" />
      </g>
      <g
         id="patch_3">
        <path
           d="M 180 144  L 1296 144  "
           style="fill:none;stroke:#000000;stroke-linecap:square;stroke-linejoin:miter;"
           id="path32" />
      </g>
      <g
         id="patch_4">
        <path
           d="M 1296 1296  L 1296 144  "
           style="fill:none;stroke:#000000;stroke-linecap:square;stroke-linejoin:miter;"
           id="path35" />
      </g>
      <g
         id="patch_5">
        <path
           d="M 180 1296  L 1296 1296  "
           style="fill:none;stroke:#000000;stroke-linecap:square;stroke-linejoin:miter;"
           id="path38" />
      </g>
      <g
         id="patch_6">
        <path
           d="M 180 1296  L 180 144  "
           style="fill:none;stroke:#000000;stroke-linecap:square;stroke-linejoin:miter;"
           id="path41" />
      </g>
      <g
         id="matplotlib.axis_1">
        <g
           id="xtick_1">
          <g
             id="line2d_6">
            <defs
               id="defs46">
              <path
                 d="M 0 0  L 0 -4  "
                 id="m5212f7a230"
                 style="stroke:#000000;stroke-width:0.5;" />
            </defs>
            <g
               id="g49">
              <use
                 style="stroke:#000000;stroke-width:0.5;"
                 x="322.308724832"
                 xlink:href="#m5212f7a230"
                 y="1296.0"
                 id="use51" />
            </g>
          </g>
          <g
             id="line2d_7">
            <defs
               id="defs54">
              <path
                 d="M 0 0  L 0 4  "
                 id="m09f06d721e"
                 style="stroke:#000000;stroke-width:0.5;" />
            </defs>
            <g
               id="g57">
              <use
                 style="stroke:#000000;stroke-width:0.5;"
                 x="322.308724832"
                 xlink:href="#m09f06d721e"
                 y="144.0"
                 id="use59" />
            </g>
          </g>
          <g
             id="text_1">
            <!-- 20 -->
            <defs
               id="defs62">
              <path
                 d="M 19.1875 8.296875  L 53.609375 8.296875  L 53.609375 0  L 7.328125 0  L 7.328125 8.296875  Q 12.9375 14.109375 22.625 23.890625  Q 32.328125 33.6875 34.8125 36.53125  Q 39.546875 41.84375 41.421875 45.53125  Q 43.3125 49.21875 43.3125 52.78125  Q 43.3125 58.59375 39.234375 62.25  Q 35.15625 65.921875 28.609375 65.921875  Q 23.96875 65.921875 18.8125 64.3125  Q 13.671875 62.703125 7.8125 59.421875  L 7.8125 69.390625  Q 13.765625 71.78125 18.9375 73  Q 24.125 74.21875 28.421875 74.21875  Q 39.75 74.21875 46.484375 68.546875  Q 53.21875 62.890625 53.21875 53.421875  Q 53.21875 48.921875 51.53125 44.890625  Q 49.859375 40.875 45.40625 35.40625  Q 44.1875 33.984375 37.640625 27.21875  Q 31.109375 20.453125 19.1875 8.296875  "
                 id="BitstreamVeraSans-Roman-32" />
              <path
                 d="M 31.78125 66.40625  Q 24.171875 66.40625 20.328125 58.90625  Q 16.5 51.421875 16.5 36.375  Q 16.5 21.390625 20.328125 13.890625  Q 24.171875 6.390625 31.78125 6.390625  Q 39.453125 6.390625 43.28125 13.890625  Q 47.125 21.390625 47.125 36.375  Q 47.125 51.421875 43.28125 58.90625  Q 39.453125 66.40625 31.78125 66.40625  M 31.78125 74.21875  Q 44.046875 74.21875 50.515625 64.515625  Q 56.984375 54.828125 56.984375 36.375  Q 56.984375 17.96875 50.515625 8.265625  Q 44.046875 -1.421875 31.78125 -1.421875  Q 19.53125 -1.421875 13.0625 8.265625  Q 6.59375 17.96875 6.59375 36.375  Q 6.59375 54.828125 13.0625 64.515625  Q 19.53125 74.21875 31.78125 74.21875  "
                 id="BitstreamVeraSans-Roman-30" />
            </defs>
            <g
               transform="translate(303.221224832 1322.7953125)scale(0.3 -0.3)"
               id="g66">
              <use
                 xlink:href="#BitstreamVeraSans-Roman-32"
                 id="use68" />
              <use
                 x="63.623046875"
                 xlink:href="#BitstreamVeraSans-Roman-30"
                 id="use70" />
            </g>
          </g>
        </g>
        <g
           id="xtick_2">
          <g
             id="line2d_8">
            <g
               id="g74">
              <use
                 style="stroke:#000000;stroke-width:0.5;"
                 x="472.10738255"
                 xlink:href="#m5212f7a230"
                 y="1296.0"
                 id="use76" />
            </g>
          </g>
          <g
             id="line2d_9">
            <g
               id="g79">
              <use
                 style="stroke:#000000;stroke-width:0.5;"
                 x="472.10738255"
                 xlink:href="#m09f06d721e"
                 y="144.0"
                 id="use81" />
            </g>
          </g>
          <g
             id="text_2">
            <!-- 40 -->
            <defs
               id="defs84">
              <path
                 d="M 37.796875 64.3125  L 12.890625 25.390625  L 37.796875 25.390625  z M 35.203125 72.90625  L 47.609375 72.90625  L 47.609375 25.390625  L 58.015625 25.390625  L 58.015625 17.1875  L 47.609375 17.1875  L 47.609375 0  L 37.796875 0  L 37.796875 17.1875  L 4.890625 17.1875  L 4.890625 26.703125  z "
                 id="BitstreamVeraSans-Roman-34" />
            </defs>
            <g
               transform="translate(453.01988255 1322.7953125)scale(0.3 -0.3)"
               id="g87">
              <use
                 xlink:href="#BitstreamVeraSans-Roman-34"
                 id="use89" />
              <use
                 x="63.623046875"
                 xlink:href="#BitstreamVeraSans-Roman-30"
                 id="use91" />
            </g>
          </g>
        </g>
        <g
           id="xtick_3">
          <g
             id="line2d_10">
            <g
               id="g95">
              <use
                 style="stroke:#000000;stroke-width:0.5;"
                 x="621.906040268"
                 xlink:href="#m5212f7a230"
                 y="1296.0"
                 id="use97" />
            </g>
          </g>
          <g
             id="line2d_11">
            <g
               id="g100">
              <use
                 style="stroke:#000000;stroke-width:0.5;"
                 x="621.906040268"
                 xlink:href="#m09f06d721e"
                 y="144.0"
                 id="use102" />
            </g>
          </g>
          <g
             id="text_3">
            <!-- 60 -->
            <defs
               id="defs105">
              <path
                 d="M 33.015625 40.375  Q 26.375 40.375 22.484375 35.828125  Q 18.609375 31.296875 18.609375 23.390625  Q 18.609375 15.53125 22.484375 10.953125  Q 26.375 6.390625 33.015625 6.390625  Q 39.65625 6.390625 43.53125 10.953125  Q 47.40625 15.53125 47.40625 23.390625  Q 47.40625 31.296875 43.53125 35.828125  Q 39.65625 40.375 33.015625 40.375  M 52.59375 71.296875  L 52.59375 62.3125  Q 48.875 64.0625 45.09375 64.984375  Q 41.3125 65.921875 37.59375 65.921875  Q 27.828125 65.921875 22.671875 59.328125  Q 17.53125 52.734375 16.796875 39.40625  Q 19.671875 43.65625 24.015625 45.921875  Q 28.375 48.1875 33.59375 48.1875  Q 44.578125 48.1875 50.953125 41.515625  Q 57.328125 34.859375 57.328125 23.390625  Q 57.328125 12.15625 50.6875 5.359375  Q 44.046875 -1.421875 33.015625 -1.421875  Q 20.359375 -1.421875 13.671875 8.265625  Q 6.984375 17.96875 6.984375 36.375  Q 6.984375 53.65625 15.1875 63.9375  Q 23.390625 74.21875 37.203125 74.21875  Q 40.921875 74.21875 44.703125 73.484375  Q 48.484375 72.75 52.59375 71.296875  "
                 id="BitstreamVeraSans-Roman-36" />
            </defs>
            <g
               transform="translate(602.818540268 1322.7953125)scale(0.3 -0.3)"
               id="g108">
              <use
                 xlink:href="#BitstreamVeraSans-Roman-36"
                 id="use110" />
              <use
                 x="63.623046875"
                 xlink:href="#BitstreamVeraSans-Roman-30"
                 id="use112" />
            </g>
          </g>
        </g>
        <g
           id="xtick_4">
          <g
             id="line2d_12">
            <g
               id="g116">
              <use
                 style="stroke:#000000;stroke-width:0.5;"
                 x="771.704697987"
                 xlink:href="#m5212f7a230"
                 y="1296.0"
                 id="use118" />
            </g>
          </g>
          <g
             id="line2d_13">
            <g
               id="g121">
              <use
                 style="stroke:#000000;stroke-width:0.5;"
                 x="771.704697987"
                 xlink:href="#m09f06d721e"
                 y="144.0"
                 id="use123" />
            </g>
          </g>
          <g
             id="text_4">
            <!-- 80 -->
            <defs
               id="defs126">
              <path
                 d="M 31.78125 34.625  Q 24.75 34.625 20.71875 30.859375  Q 16.703125 27.09375 16.703125 20.515625  Q 16.703125 13.921875 20.71875 10.15625  Q 24.75 6.390625 31.78125 6.390625  Q 38.8125 6.390625 42.859375 10.171875  Q 46.921875 13.96875 46.921875 20.515625  Q 46.921875 27.09375 42.890625 30.859375  Q 38.875 34.625 31.78125 34.625  M 21.921875 38.8125  Q 15.578125 40.375 12.03125 44.71875  Q 8.5 49.078125 8.5 55.328125  Q 8.5 64.0625 14.71875 69.140625  Q 20.953125 74.21875 31.78125 74.21875  Q 42.671875 74.21875 48.875 69.140625  Q 55.078125 64.0625 55.078125 55.328125  Q 55.078125 49.078125 51.53125 44.71875  Q 48 40.375 41.703125 38.8125  Q 48.828125 37.15625 52.796875 32.3125  Q 56.78125 27.484375 56.78125 20.515625  Q 56.78125 9.90625 50.3125 4.234375  Q 43.84375 -1.421875 31.78125 -1.421875  Q 19.734375 -1.421875 13.25 4.234375  Q 6.78125 9.90625 6.78125 20.515625  Q 6.78125 27.484375 10.78125 32.3125  Q 14.796875 37.15625 21.921875 38.8125  M 18.3125 54.390625  Q 18.3125 48.734375 21.84375 45.5625  Q 25.390625 42.390625 31.78125 42.390625  Q 38.140625 42.390625 41.71875 45.5625  Q 45.3125 48.734375 45.3125 54.390625  Q 45.3125 60.0625 41.71875 63.234375  Q 38.140625 66.40625 31.78125 66.40625  Q 25.390625 66.40625 21.84375 63.234375  Q 18.3125 60.0625 18.3125 54.390625  "
                 id="BitstreamVeraSans-Roman-38" />
            </defs>
            <g
               transform="translate(752.617197987 1322.7953125)scale(0.3 -0.3)"
               id="g129">
              <use
                 xlink:href="#BitstreamVeraSans-Roman-38"
                 id="use131" />
              <use
                 x="63.623046875"
                 xlink:href="#BitstreamVeraSans-Roman-30"
                 id="use133" />
            </g>
          </g>
        </g>
        <g
           id="xtick_5">
          <g
             id="line2d_14">
            <g
               id="g137">
              <use
                 style="stroke:#000000;stroke-width:0.5;"
                 x="921.503355705"
                 xlink:href="#m5212f7a230"
                 y="1296.0"
                 id="use139" />
            </g>
          </g>
          <g
             id="line2d_15">
            <g
               id="g142">
              <use
                 style="stroke:#000000;stroke-width:0.5;"
                 x="921.503355705"
                 xlink:href="#m09f06d721e"
                 y="144.0"
                 id="use144" />
            </g>
          </g>
          <g
             id="text_5">
            <!-- 100 -->
            <defs
               id="defs147">
              <path
                 d="M 12.40625 8.296875  L 28.515625 8.296875  L 28.515625 63.921875  L 10.984375 60.40625  L 10.984375 69.390625  L 28.421875 72.90625  L 38.28125 72.90625  L 38.28125 8.296875  L 54.390625 8.296875  L 54.390625 0  L 12.40625 0  z "
                 id="BitstreamVeraSans-Roman-31" />
            </defs>
            <g
               transform="translate(892.872105705 1322.7953125)scale(0.3 -0.3)"
               id="g150">
              <use
                 xlink:href="#BitstreamVeraSans-Roman-31"
                 id="use152" />
              <use
                 x="63.623046875"
                 xlink:href="#BitstreamVeraSans-Roman-30"
                 id="use154" />
              <use
                 x="127.24609375"
                 xlink:href="#BitstreamVeraSans-Roman-30"
                 id="use156" />
            </g>
          </g>
        </g>
        <g
           id="xtick_6">
          <g
             id="line2d_16">
            <g
               id="g160">
              <use
                 style="stroke:#000000;stroke-width:0.5;"
                 x="1071.30201342"
                 xlink:href="#m5212f7a230"
                 y="1296.0"
                 id="use162" />
            </g>
          </g>
          <g
             id="line2d_17">
            <g
               id="g165">
              <use
                 style="stroke:#000000;stroke-width:0.5;"
                 x="1071.30201342"
                 xlink:href="#m09f06d721e"
                 y="144.0"
                 id="use167" />
            </g>
          </g>
          <g
             id="text_6">
            <!-- 120 -->
            <g
               transform="translate(1042.67076342 1322.7953125)scale(0.3 -0.3)"
               id="g170">
              <use
                 xlink:href="#BitstreamVeraSans-Roman-31"
                 id="use172" />
              <use
                 x="63.623046875"
                 xlink:href="#BitstreamVeraSans-Roman-32"
                 id="use174" />
              <use
                 x="127.24609375"
                 xlink:href="#BitstreamVeraSans-Roman-30"
                 id="use176" />
            </g>
          </g>
        </g>
        <g
           id="xtick_7">
          <g
             id="line2d_18">
            <g
               id="g180">
              <use
                 style="stroke:#000000;stroke-width:0.5;"
                 x="1221.10067114"
                 xlink:href="#m5212f7a230"
                 y="1296.0"
                 id="use182" />
            </g>
          </g>
          <g
             id="line2d_19">
            <g
               id="g185">
              <use
                 style="stroke:#000000;stroke-width:0.5;"
                 x="1221.10067114"
                 xlink:href="#m09f06d721e"
                 y="144.0"
                 id="use187" />
            </g>
          </g>
          <g
             id="text_7">
            <!-- 140 -->
            <g
               transform="translate(1192.46942114 1322.7953125)scale(0.3 -0.3)"
               id="g190">
              <use
                 xlink:href="#BitstreamVeraSans-Roman-31"
                 id="use192" />
              <use
                 x="63.623046875"
                 xlink:href="#BitstreamVeraSans-Roman-34"
                 id="use194" />
              <use
                 x="127.24609375"
                 xlink:href="#BitstreamVeraSans-Roman-30"
                 id="use196" />
            </g>
          </g>
        </g>
        <g
           id="text_8">
          <!-- Input power -->
          <defs
             id="defs199">
            <path
               id="BitstreamVeraSans-Roman-20" />
            <path
               d="M 54.890625 33.015625  L 54.890625 0  L 45.90625 0  L 45.90625 32.71875  Q 45.90625 40.484375 42.875 44.328125  Q 39.84375 48.1875 33.796875 48.1875  Q 26.515625 48.1875 22.3125 43.546875  Q 18.109375 38.921875 18.109375 30.90625  L 18.109375 0  L 9.078125 0  L 9.078125 54.6875  L 18.109375 54.6875  L 18.109375 46.1875  Q 21.34375 51.125 25.703125 53.5625  Q 30.078125 56 35.796875 56  Q 45.21875 56 50.046875 50.171875  Q 54.890625 44.34375 54.890625 33.015625  "
               id="BitstreamVeraSans-Roman-6e" />
            <path
               d="M 30.609375 48.390625  Q 23.390625 48.390625 19.1875 42.75  Q 14.984375 37.109375 14.984375 27.296875  Q 14.984375 17.484375 19.15625 11.84375  Q 23.34375 6.203125 30.609375 6.203125  Q 37.796875 6.203125 41.984375 11.859375  Q 46.1875 17.53125 46.1875 27.296875  Q 46.1875 37.015625 41.984375 42.703125  Q 37.796875 48.390625 30.609375 48.390625  M 30.609375 56  Q 42.328125 56 49.015625 48.375  Q 55.71875 40.765625 55.71875 27.296875  Q 55.71875 13.875 49.015625 6.21875  Q 42.328125 -1.421875 30.609375 -1.421875  Q 18.84375 -1.421875 12.171875 6.21875  Q 5.515625 13.875 5.515625 27.296875  Q 5.515625 40.765625 12.171875 48.375  Q 18.84375 56 30.609375 56  "
               id="BitstreamVeraSans-Roman-6f" />
            <path
               d="M 9.8125 72.90625  L 19.671875 72.90625  L 19.671875 0  L 9.8125 0  z "
               id="BitstreamVeraSans-Roman-49" />
            <path
               d="M 56.203125 29.59375  L 56.203125 25.203125  L 14.890625 25.203125  Q 15.484375 15.921875 20.484375 11.0625  Q 25.484375 6.203125 34.421875 6.203125  Q 39.59375 6.203125 44.453125 7.46875  Q 49.3125 8.734375 54.109375 11.28125  L 54.109375 2.78125  Q 49.265625 0.734375 44.1875 -0.34375  Q 39.109375 -1.421875 33.890625 -1.421875  Q 20.796875 -1.421875 13.15625 6.1875  Q 5.515625 13.8125 5.515625 26.8125  Q 5.515625 40.234375 12.765625 48.109375  Q 20.015625 56 32.328125 56  Q 43.359375 56 49.78125 48.890625  Q 56.203125 41.796875 56.203125 29.59375  M 47.21875 32.234375  Q 47.125 39.59375 43.09375 43.984375  Q 39.0625 48.390625 32.421875 48.390625  Q 24.90625 48.390625 20.390625 44.140625  Q 15.875 39.890625 15.1875 32.171875  z "
               id="BitstreamVeraSans-Roman-65" />
            <path
               d="M 4.203125 54.6875  L 13.1875 54.6875  L 24.421875 12.015625  L 35.59375 54.6875  L 46.1875 54.6875  L 57.421875 12.015625  L 68.609375 54.6875  L 77.59375 54.6875  L 63.28125 0  L 52.6875 0  L 40.921875 44.828125  L 29.109375 0  L 18.5 0  z "
               id="BitstreamVeraSans-Roman-77" />
            <path
               d="M 18.3125 70.21875  L 18.3125 54.6875  L 36.8125 54.6875  L 36.8125 47.703125  L 18.3125 47.703125  L 18.3125 18.015625  Q 18.3125 11.328125 20.140625 9.421875  Q 21.96875 7.515625 27.59375 7.515625  L 36.8125 7.515625  L 36.8125 0  L 27.59375 0  Q 17.1875 0 13.234375 3.875  Q 9.28125 7.765625 9.28125 18.015625  L 9.28125 47.703125  L 2.6875 47.703125  L 2.6875 54.6875  L 9.28125 54.6875  L 9.28125 70.21875  z "
               id="BitstreamVeraSans-Roman-74" />
            <path
               d="M 8.5 21.578125  L 8.5 54.6875  L 17.484375 54.6875  L 17.484375 21.921875  Q 17.484375 14.15625 20.5 10.265625  Q 23.53125 6.390625 29.59375 6.390625  Q 36.859375 6.390625 41.078125 11.03125  Q 45.3125 15.671875 45.3125 23.6875  L 45.3125 54.6875  L 54.296875 54.6875  L 54.296875 0  L 45.3125 0  L 45.3125 8.40625  Q 42.046875 3.421875 37.71875 1  Q 33.40625 -1.421875 27.6875 -1.421875  Q 18.265625 -1.421875 13.375 4.4375  Q 8.5 10.296875 8.5 21.578125  "
               id="BitstreamVeraSans-Roman-75" />
            <path
               d="M 41.109375 46.296875  Q 39.59375 47.171875 37.8125 47.578125  Q 36.03125 48 33.890625 48  Q 26.265625 48 22.1875 43.046875  Q 18.109375 38.09375 18.109375 28.8125  L 18.109375 0  L 9.078125 0  L 9.078125 54.6875  L 18.109375 54.6875  L 18.109375 46.1875  Q 20.953125 51.171875 25.484375 53.578125  Q 30.03125 56 36.53125 56  Q 37.453125 56 38.578125 55.875  Q 39.703125 55.765625 41.0625 55.515625  z "
               id="BitstreamVeraSans-Roman-72" />
            <path
               d="M 18.109375 8.203125  L 18.109375 -20.796875  L 9.078125 -20.796875  L 9.078125 54.6875  L 18.109375 54.6875  L 18.109375 46.390625  Q 20.953125 51.265625 25.265625 53.625  Q 29.59375 56 35.59375 56  Q 45.5625 56 51.78125 48.09375  Q 58.015625 40.1875 58.015625 27.296875  Q 58.015625 14.40625 51.78125 6.484375  Q 45.5625 -1.421875 35.59375 -1.421875  Q 29.59375 -1.421875 25.265625 0.953125  Q 20.953125 3.328125 18.109375 8.203125  M 48.6875 27.296875  Q 48.6875 37.203125 44.609375 42.84375  Q 40.53125 48.484375 33.40625 48.484375  Q 26.265625 48.484375 22.1875 42.84375  Q 18.109375 37.203125 18.109375 27.296875  Q 18.109375 17.390625 22.1875 11.75  Q 26.265625 6.109375 33.40625 6.109375  Q 40.53125 6.109375 44.609375 11.75  Q 48.6875 17.390625 48.6875 27.296875  "
               id="BitstreamVeraSans-Roman-70" />
          </defs>
          <g
             transform="translate(630.03375 1361.38875)scale(0.36 -0.36)"
             id="g211">
            <use
               xlink:href="#BitstreamVeraSans-Roman-49"
               id="use213" />
            <use
               x="29.4921875"
               xlink:href="#BitstreamVeraSans-Roman-6e"
               id="use215" />
            <use
               x="92.87109375"
               xlink:href="#BitstreamVeraSans-Roman-70"
               id="use217" />
            <use
               x="156.34765625"
               xlink:href="#BitstreamVeraSans-Roman-75"
               id="use219" />
            <use
               x="219.7265625"
               xlink:href="#BitstreamVeraSans-Roman-74"
               id="use221" />
            <use
               x="258.935546875"
               xlink:href="#BitstreamVeraSans-Roman-20"
               id="use223" />
            <use
               x="290.72265625"
               xlink:href="#BitstreamVeraSans-Roman-70"
               id="use225" />
            <use
               x="354.19921875"
               xlink:href="#BitstreamVeraSans-Roman-6f"
               id="use227" />
            <use
               x="415.380859375"
               xlink:href="#BitstreamVeraSans-Roman-77"
               id="use229" />
            <use
               x="497.16796875"
               xlink:href="#BitstreamVeraSans-Roman-65"
               id="use231" />
            <use
               x="558.69140625"
               xlink:href="#BitstreamVeraSans-Roman-72"
               id="use233" />
          </g>
        </g>
      </g>
      <g
         id="matplotlib.axis_2">
        <g
           id="ytick_1">
          <g
             id="line2d_20">
            <defs
               id="defs238">
              <path
                 d="M 0 0  L 4 0  "
                 id="ma2d791b795"
                 style="stroke:#000000;stroke-width:0.5;" />
            </defs>
            <g
               id="g241">
              <use
                 style="stroke:#000000;stroke-width:0.5;"
                 x="180.0"
                 xlink:href="#ma2d791b795"
                 y="1296.0"
                 id="use243" />
            </g>
          </g>
          <g
             id="line2d_21">
            <defs
               id="defs246">
              <path
                 d="M 0 0  L -4 0  "
                 id="m2de1d5a400"
                 style="stroke:#000000;stroke-width:0.5;" />
            </defs>
            <g
               id="g249">
              <use
                 style="stroke:#000000;stroke-width:0.5;"
                 x="1296.0"
                 xlink:href="#m2de1d5a400"
                 y="1296.0"
                 id="use251" />
            </g>
          </g>
          <g
             id="text_9">
            <!-- 0.0 -->
            <defs
               id="defs254">
              <path
                 d="M 10.6875 12.40625  L 21 12.40625  L 21 0  L 10.6875 0  z "
                 id="BitstreamVeraSans-Roman-2e" />
            </defs>
            <g
               transform="translate(128.290625 1304.278125)scale(0.3 -0.3)"
               id="g257">
              <use
                 xlink:href="#BitstreamVeraSans-Roman-30"
                 id="use259" />
              <use
                 x="63.623046875"
                 xlink:href="#BitstreamVeraSans-Roman-2e"
                 id="use261" />
              <use
                 x="95.41015625"
                 xlink:href="#BitstreamVeraSans-Roman-30"
                 id="use263" />
            </g>
          </g>
        </g>
        <g
           id="ytick_2">
          <g
             id="line2d_22">
            <g
               id="g267">
              <use
                 style="stroke:#000000;stroke-width:0.5;"
                 x="180.0"
                 xlink:href="#ma2d791b795"
                 y="1152.0"
                 id="use269" />
            </g>
          </g>
          <g
             id="line2d_23">
            <g
               id="g272">
              <use
                 style="stroke:#000000;stroke-width:0.5;"
                 x="1296.0"
                 xlink:href="#m2de1d5a400"
                 y="1152.0"
                 id="use274" />
            </g>
          </g>
          <g
             id="text_10">
            <!-- 0.5 -->
            <defs
               id="defs277">
              <path
                 d="M 10.796875 72.90625  L 49.515625 72.90625  L 49.515625 64.59375  L 19.828125 64.59375  L 19.828125 46.734375  Q 21.96875 47.46875 24.109375 47.828125  Q 26.265625 48.1875 28.421875 48.1875  Q 40.625 48.1875 47.75 41.5  Q 54.890625 34.8125 54.890625 23.390625  Q 54.890625 11.625 47.5625 5.09375  Q 40.234375 -1.421875 26.90625 -1.421875  Q 22.3125 -1.421875 17.546875 -0.640625  Q 12.796875 0.140625 7.71875 1.703125  L 7.71875 11.625  Q 12.109375 9.234375 16.796875 8.0625  Q 21.484375 6.890625 26.703125 6.890625  Q 35.15625 6.890625 40.078125 11.328125  Q 45.015625 15.765625 45.015625 23.390625  Q 45.015625 31 40.078125 35.4375  Q 35.15625 39.890625 26.703125 39.890625  Q 22.75 39.890625 18.8125 39.015625  Q 14.890625 38.140625 10.796875 36.28125  z "
                 id="BitstreamVeraSans-Roman-35" />
            </defs>
            <g
               transform="translate(128.290625 1160.278125)scale(0.3 -0.3)"
               id="g280">
              <use
                 xlink:href="#BitstreamVeraSans-Roman-30"
                 id="use282" />
              <use
                 x="63.623046875"
                 xlink:href="#BitstreamVeraSans-Roman-2e"
                 id="use284" />
              <use
                 x="95.41015625"
                 xlink:href="#BitstreamVeraSans-Roman-35"
                 id="use286" />
            </g>
          </g>
        </g>
        <g
           id="ytick_3">
          <g
             id="line2d_24">
            <g
               id="g290">
              <use
                 style="stroke:#000000;stroke-width:0.5;"
                 x="180.0"
                 xlink:href="#ma2d791b795"
                 y="1008.0"
                 id="use292" />
            </g>
          </g>
          <g
             id="line2d_25">
            <g
               id="g295">
              <use
                 style="stroke:#000000;stroke-width:0.5;"
                 x="1296.0"
                 xlink:href="#m2de1d5a400"
                 y="1008.0"
                 id="use297" />
            </g>
          </g>
          <g
             id="text_11">
            <!-- 1.0 -->
            <g
               transform="translate(128.290625 1016.278125)scale(0.3 -0.3)"
               id="g300">
              <use
                 xlink:href="#BitstreamVeraSans-Roman-31"
                 id="use302" />
              <use
                 x="63.623046875"
                 xlink:href="#BitstreamVeraSans-Roman-2e"
                 id="use304" />
              <use
                 x="95.41015625"
                 xlink:href="#BitstreamVeraSans-Roman-30"
                 id="use306" />
            </g>
          </g>
        </g>
        <g
           id="ytick_4">
          <g
             id="line2d_26">
            <g
               id="g310">
              <use
                 style="stroke:#000000;stroke-width:0.5;"
                 x="180.0"
                 xlink:href="#ma2d791b795"
                 y="864.0"
                 id="use312" />
            </g>
          </g>
          <g
             id="line2d_27">
            <g
               id="g315">
              <use
                 style="stroke:#000000;stroke-width:0.5;"
                 x="1296.0"
                 xlink:href="#m2de1d5a400"
                 y="864.0"
                 id="use317" />
            </g>
          </g>
          <g
             id="text_12">
            <!-- 1.5 -->
            <g
               transform="translate(128.290625 872.278125)scale(0.3 -0.3)"
               id="g320">
              <use
                 xlink:href="#BitstreamVeraSans-Roman-31"
                 id="use322" />
              <use
                 x="63.623046875"
                 xlink:href="#BitstreamVeraSans-Roman-2e"
                 id="use324" />
              <use
                 x="95.41015625"
                 xlink:href="#BitstreamVeraSans-Roman-35"
                 id="use326" />
            </g>
          </g>
        </g>
        <g
           id="ytick_5">
          <g
             id="line2d_28">
            <g
               id="g330">
              <use
                 style="stroke:#000000;stroke-width:0.5;"
                 x="180.0"
                 xlink:href="#ma2d791b795"
                 y="720.0"
                 id="use332" />
            </g>
          </g>
          <g
             id="line2d_29">
            <g
               id="g335">
              <use
                 style="stroke:#000000;stroke-width:0.5;"
                 x="1296.0"
                 xlink:href="#m2de1d5a400"
                 y="720.0"
                 id="use337" />
            </g>
          </g>
          <g
             id="text_13">
            <!-- 2.0 -->
            <g
               transform="translate(128.290625 728.278125)scale(0.3 -0.3)"
               id="g340">
              <use
                 xlink:href="#BitstreamVeraSans-Roman-32"
                 id="use342" />
              <use
                 x="63.623046875"
                 xlink:href="#BitstreamVeraSans-Roman-2e"
                 id="use344" />
              <use
                 x="95.41015625"
                 xlink:href="#BitstreamVeraSans-Roman-30"
                 id="use346" />
            </g>
          </g>
        </g>
        <g
           id="ytick_6">
          <g
             id="line2d_30">
            <g
               id="g350">
              <use
                 style="stroke:#000000;stroke-width:0.5;"
                 x="180.0"
                 xlink:href="#ma2d791b795"
                 y="576.0"
                 id="use352" />
            </g>
          </g>
          <g
             id="line2d_31">
            <g
               id="g355">
              <use
                 style="stroke:#000000;stroke-width:0.5;"
                 x="1296.0"
                 xlink:href="#m2de1d5a400"
                 y="576.0"
                 id="use357" />
            </g>
          </g>
          <g
             id="text_14">
            <!-- 2.5 -->
            <g
               transform="translate(128.290625 584.278125)scale(0.3 -0.3)"
               id="g360">
              <use
                 xlink:href="#BitstreamVeraSans-Roman-32"
                 id="use362" />
              <use
                 x="63.623046875"
                 xlink:href="#BitstreamVeraSans-Roman-2e"
                 id="use364" />
              <use
                 x="95.41015625"
                 xlink:href="#BitstreamVeraSans-Roman-35"
                 id="use366" />
            </g>
          </g>
        </g>
        <g
           id="ytick_7">
          <g
             id="line2d_32">
            <g
               id="g370">
              <use
                 style="stroke:#000000;stroke-width:0.5;"
                 x="180.0"
                 xlink:href="#ma2d791b795"
                 y="432.0"
                 id="use372" />
            </g>
          </g>
          <g
             id="line2d_33">
            <g
               id="g375">
              <use
                 style="stroke:#000000;stroke-width:0.5;"
                 x="1296.0"
                 xlink:href="#m2de1d5a400"
                 y="432.0"
                 id="use377" />
            </g>
          </g>
          <g
             id="text_15">
            <!-- 3.0 -->
            <defs
               id="defs380">
              <path
                 d="M 40.578125 39.3125  Q 47.65625 37.796875 51.625 33  Q 55.609375 28.21875 55.609375 21.1875  Q 55.609375 10.40625 48.1875 4.484375  Q 40.765625 -1.421875 27.09375 -1.421875  Q 22.515625 -1.421875 17.65625 -0.515625  Q 12.796875 0.390625 7.625 2.203125  L 7.625 11.71875  Q 11.71875 9.328125 16.59375 8.109375  Q 21.484375 6.890625 26.8125 6.890625  Q 36.078125 6.890625 40.9375 10.546875  Q 45.796875 14.203125 45.796875 21.1875  Q 45.796875 27.640625 41.28125 31.265625  Q 36.765625 34.90625 28.71875 34.90625  L 20.21875 34.90625  L 20.21875 43.015625  L 29.109375 43.015625  Q 36.375 43.015625 40.234375 45.921875  Q 44.09375 48.828125 44.09375 54.296875  Q 44.09375 59.90625 40.109375 62.90625  Q 36.140625 65.921875 28.71875 65.921875  Q 24.65625 65.921875 20.015625 65.03125  Q 15.375 64.15625 9.8125 62.3125  L 9.8125 71.09375  Q 15.4375 72.65625 20.34375 73.4375  Q 25.25 74.21875 29.59375 74.21875  Q 40.828125 74.21875 47.359375 69.109375  Q 53.90625 64.015625 53.90625 55.328125  Q 53.90625 49.265625 50.4375 45.09375  Q 46.96875 40.921875 40.578125 39.3125  "
                 id="BitstreamVeraSans-Roman-33" />
            </defs>
            <g
               transform="translate(128.290625 440.278125)scale(0.3 -0.3)"
               id="g383">
              <use
                 xlink:href="#BitstreamVeraSans-Roman-33"
                 id="use385" />
              <use
                 x="63.623046875"
                 xlink:href="#BitstreamVeraSans-Roman-2e"
                 id="use387" />
              <use
                 x="95.41015625"
                 xlink:href="#BitstreamVeraSans-Roman-30"
                 id="use389" />
            </g>
          </g>
        </g>
        <g
           id="ytick_8">
          <g
             id="line2d_34">
            <g
               id="g393">
              <use
                 style="stroke:#000000;stroke-width:0.5;"
                 x="180.0"
                 xlink:href="#ma2d791b795"
                 y="288.0"
                 id="use395" />
            </g>
          </g>
          <g
             id="line2d_35">
            <g
               id="g398">
              <use
                 style="stroke:#000000;stroke-width:0.5;"
                 x="1296.0"
                 xlink:href="#m2de1d5a400"
                 y="288.0"
                 id="use400" />
            </g>
          </g>
          <g
             id="text_16">
            <!-- 3.5 -->
            <g
               transform="translate(128.290625 296.278125)scale(0.3 -0.3)"
               id="g403">
              <use
                 xlink:href="#BitstreamVeraSans-Roman-33"
                 id="use405" />
              <use
                 x="63.623046875"
                 xlink:href="#BitstreamVeraSans-Roman-2e"
                 id="use407" />
              <use
                 x="95.41015625"
                 xlink:href="#BitstreamVeraSans-Roman-35"
                 id="use409" />
            </g>
          </g>
        </g>
        <g
           id="ytick_9">
          <g
             id="line2d_36">
            <g
               id="g413">
              <use
                 style="stroke:#000000;stroke-width:0.5;"
                 x="180.0"
                 xlink:href="#ma2d791b795"
                 y="144.0"
                 id="use415" />
            </g>
          </g>
          <g
             id="line2d_37">
            <g
               id="g418">
              <use
                 style="stroke:#000000;stroke-width:0.5;"
                 x="1296.0"
                 xlink:href="#m2de1d5a400"
                 y="144.0"
                 id="use420" />
            </g>
          </g>
          <g
             id="text_17">
            <!-- 4.0 -->
            <g
               transform="translate(128.290625 152.278125)scale(0.3 -0.3)"
               id="g423">
              <use
                 xlink:href="#BitstreamVeraSans-Roman-34"
                 id="use425" />
              <use
                 x="63.623046875"
                 xlink:href="#BitstreamVeraSans-Roman-2e"
                 id="use427" />
              <use
                 x="95.41015625"
                 xlink:href="#BitstreamVeraSans-Roman-30"
                 id="use429" />
            </g>
          </g>
        </g>
        <g
           id="text_18">
          <!-- $&lt;m_A&gt;-&lt;m_B&gt;$ -->
          <defs
             id="defs432">
            <path
               d="M 10.203125 23  Q 9.375 23 8.828125 23.625  Q 8.296875 24.265625 8.296875 25  Q 8.296875 25.734375 8.828125 26.359375  Q 9.375 27 10.203125 27  L 67.578125 27  Q 68.359375 27 68.875 26.359375  Q 69.390625 25.734375 69.390625 25  Q 69.390625 24.265625 68.875 23.625  Q 68.359375 23 67.578125 23  z "
               id="Cmsy10-a1" />
            <path
               d="M 7.71875 1.703125  Q 7.71875 2.296875 7.8125 2.59375  L 15.28125 32.421875  Q 16.015625 35.203125 16.015625 37.3125  Q 16.015625 41.609375 13.09375 41.609375  Q 9.96875 41.609375 8.453125 37.859375  Q 6.9375 34.125 5.515625 28.421875  Q 5.515625 28.125 5.21875 27.953125  Q 4.9375 27.78125 4.6875 27.78125  L 3.515625 27.78125  Q 3.171875 27.78125 2.921875 28.140625  Q 2.6875 28.515625 2.6875 28.8125  Q 3.765625 33.15625 4.765625 36.171875  Q 5.765625 39.203125 7.890625 41.6875  Q 10.015625 44.1875 13.1875 44.1875  Q 16.9375 44.1875 19.8125 41.8125  Q 22.703125 39.453125 22.703125 35.796875  Q 25.6875 39.703125 29.6875 41.9375  Q 33.6875 44.1875 38.1875 44.1875  Q 42.921875 44.1875 46.359375 41.765625  Q 49.8125 39.359375 49.8125 34.90625  Q 52.875 39.265625 57 41.71875  Q 61.140625 44.1875 66.015625 44.1875  Q 71.1875 44.1875 74.328125 41.375  Q 77.484375 38.578125 77.484375 33.40625  Q 77.484375 29.296875 75.65625 23.484375  Q 73.828125 17.671875 71.09375 10.5  Q 69.671875 7.03125 69.671875 4.5  Q 69.671875 1.515625 72.015625 1.515625  Q 75.921875 1.515625 78.515625 5.703125  Q 81.109375 9.90625 82.171875 14.703125  Q 82.46875 15.28125 83.015625 15.28125  L 84.1875 15.28125  Q 84.578125 15.28125 84.84375 15.015625  Q 85.109375 14.75 85.109375 14.40625  Q 85.109375 14.3125 85.015625 14.109375  Q 83.640625 8.453125 80.25 3.65625  Q 76.859375 -1.125 71.78125 -1.125  Q 68.265625 -1.125 65.765625 1.296875  Q 63.28125 3.71875 63.28125 7.171875  Q 63.28125 8.9375 64.109375 11.078125  Q 66.9375 18.609375 68.8125 24.515625  Q 70.703125 30.421875 70.703125 34.90625  Q 70.703125 37.703125 69.578125 39.65625  Q 68.453125 41.609375 65.828125 41.609375  Q 60.359375 41.609375 56.34375 38.25  Q 52.34375 34.90625 49.421875 29.390625  Q 49.21875 28.421875 49.125 27.875  L 42.671875 2.203125  Q 42.328125 0.828125 41.125 -0.140625  Q 39.9375 -1.125 38.484375 -1.125  Q 37.3125 -1.125 36.40625 -0.34375  Q 35.5 0.4375 35.5 1.703125  Q 35.5 2.296875 35.59375 2.59375  L 42 28.078125  Q 43.015625 32.171875 43.015625 34.90625  Q 43.015625 37.703125 41.859375 39.65625  Q 40.71875 41.609375 37.984375 41.609375  Q 34.328125 41.609375 31.25 39.984375  Q 28.171875 38.375 25.875 35.71875  Q 23.578125 33.0625 21.6875 29.390625  L 14.890625 2.203125  Q 14.546875 0.828125 13.34375 -0.140625  Q 12.15625 -1.125 10.6875 -1.125  Q 9.46875 -1.125 8.59375 -0.34375  Q 7.71875 0.4375 7.71875 1.703125  "
               id="Cmmi10-6d" />
            <path
               d="M 4.984375 0  Q 4 0 4 1.3125  Q 4.046875 1.5625 4.1875 2.140625  Q 4.34375 2.734375 4.578125 3.125  Q 4.828125 3.515625 5.328125 3.515625  Q 8.15625 3.515625 10.25 3.65625  Q 12.359375 3.8125 13.8125 4.203125  Q 14.984375 4.640625 15.71875 6.890625  L 29.390625 61.8125  Q 29.59375 62.796875 29.59375 63.1875  Q 29.59375 64.265625 28.421875 64.40625  Q 26.515625 64.796875 21.1875 64.796875  Q 20.21875 64.796875 20.21875 66.109375  Q 20.265625 66.359375 20.40625 66.96875  Q 20.5625 67.578125 20.828125 67.9375  Q 21.09375 68.3125 21.484375 68.3125  L 57.328125 68.3125  Q 60.59375 68.3125 63.796875 67.5  Q 67 66.703125 69.703125 64.9375  Q 72.40625 63.1875 74 60.5625  Q 75.59375 57.953125 75.59375 54.5  Q 75.59375 50.734375 73.65625 47.5  Q 71.734375 44.28125 68.671875 41.890625  Q 65.625 39.5 62.078125 37.953125  Q 58.546875 36.421875 54.6875 35.6875  Q 57.421875 35.6875 60.21875 34.609375  Q 63.03125 33.546875 65.234375 31.6875  Q 67.4375 29.828125 68.78125 27.234375  Q 70.125 24.65625 70.125 21.6875  Q 70.125 15.671875 65.921875 10.6875  Q 61.71875 5.71875 55.34375 2.859375  Q 48.96875 0 43.015625 0  z M 23.390625 4.296875  Q 23.390625 3.515625 26.8125 3.515625  L 41.109375 3.515625  Q 46 3.515625 50.484375 6.21875  Q 54.984375 8.9375 57.6875 13.421875  Q 60.40625 17.921875 60.40625 22.796875  Q 60.40625 25.78125 59.15625 28.4375  Q 57.90625 31.109375 55.5625 32.640625  Q 53.21875 34.1875 50.203125 34.1875  L 30.71875 34.1875  L 23.78125 6.5  Q 23.390625 5.125 23.390625 4.296875  M 31.390625 36.8125  L 46.578125 36.8125  Q 51.375 36.8125 55.890625 39.25  Q 60.40625 41.703125 63.25 45.890625  Q 66.109375 50.09375 66.109375 54.78125  Q 66.109375 59.125 63.390625 61.953125  Q 60.6875 64.796875 56.390625 64.796875  L 42.671875 64.796875  Q 39.984375 64.796875 39.0625 64.296875  Q 38.140625 63.8125 37.5 61.375  z "
               id="Cmmi10-42" />
            <path
               d="M 4.5 0  Q 3.515625 0 3.515625 1.3125  Q 3.90625 3.515625 4.78125 3.515625  Q 8.84375 3.515625 11.796875 5.125  Q 14.75 6.734375 16.890625 10.109375  Q 17.09375 10.296875 17.09375 10.296875  L 52.78125 70.515625  Q 53.5625 71.578125 54.6875 71.578125  L 56 71.578125  Q 56.296875 71.578125 56.59375 71.453125  Q 56.890625 71.34375 57.109375 71.0625  Q 57.328125 70.796875 57.328125 70.515625  L 63.375 5.90625  Q 63.375 5.46875 63.8125 4.59375  Q 64.796875 3.515625 71.296875 3.515625  Q 72.3125 3.515625 72.3125 2.203125  Q 71.96875 0.875 71.75 0.4375  Q 71.53125 0 70.609375 0  L 45.609375 0  Q 44.671875 0 44.671875 1.3125  Q 45.21875 3.515625 46 3.515625  Q 53.90625 3.515625 54.390625 6.203125  L 52.875 22.703125  L 28.21875 22.703125  L 20.21875 9.28125  Q 19.484375 8.203125 19.484375 6.78125  Q 19.484375 5.03125 21.171875 4.265625  Q 22.859375 3.515625 24.90625 3.515625  Q 25.875 3.515625 25.875 2.203125  Q 25.53125 0.78125 25.328125 0.390625  Q 25.140625 0 24.21875 0  z M 30.171875 26.21875  L 52.484375 26.21875  L 49.515625 58.59375  z "
               id="Cmmi10-41" />
            <path
               d="M 8.296875 -2  Q 8.296875 -0.734375 9.625 -0.09375  L 62.703125 25  L 9.28125 50.296875  Q 8.296875 50.59375 8.296875 52  Q 8.296875 52.6875 8.859375 53.34375  Q 9.421875 54 10.296875 54  Q 10.5 54 11.078125 53.8125  L 68.5 26.703125  Q 69.390625 26.265625 69.390625 25  Q 69.390625 23.6875 68.21875 23.1875  L 11.078125 -3.8125  Q 10.5 -4 10.296875 -4  Q 9.421875 -4 8.859375 -3.34375  Q 8.296875 -2.6875 8.296875 -2  "
               id="Cmmi10-3e" />
            <path
               d="M 9.28125 23.296875  Q 8.296875 23.734375 8.296875 25  Q 8.296875 26.265625 9.625 26.90625  L 66.703125 53.8125  Q 67.09375 54 67.390625 54  Q 68.265625 54 68.828125 53.390625  Q 69.390625 52.78125 69.390625 52  Q 69.390625 50.78125 68.21875 50.09375  L 14.984375 25  L 68.5 -0.296875  Q 69.390625 -0.59375 69.390625 -2  Q 69.390625 -2.78125 68.828125 -3.390625  Q 68.265625 -4 67.390625 -4  Q 67.09375 -4 66.703125 -3.8125  z "
               id="Cmmi10-3c" />
          </defs>
          <g
             transform="translate(80.80375 874.44)rotate(-90.0)scale(0.36 -0.36)"
             id="g440">
            <use
               transform="translate(17.55859375 0.0)"
               xlink:href="#Cmmi10-3c"
               id="use442" />
            <use
               transform="translate(112.802734375 0.0)"
               xlink:href="#Cmmi10-6d"
               id="use444" />
            <use
               transform="translate(200.595703125 -17.00625)scale(0.7)"
               xlink:href="#Cmmi10-41"
               id="use446" />
            <use
               transform="translate(277.031640625 0.0)"
               xlink:href="#Cmmi10-3e"
               id="use448" />
            <use
               transform="translate(389.834375 0.0)"
               xlink:href="#Cmsy10-a1"
               id="use450" />
            <use
               transform="translate(502.637109375 0.0)"
               xlink:href="#Cmmi10-3c"
               id="use452" />
            <use
               transform="translate(597.88125 0.0)"
               xlink:href="#Cmmi10-6d"
               id="use454" />
            <use
               transform="translate(685.67421875 -17.00625)scale(0.7)"
               xlink:href="#Cmmi10-42"
               id="use456" />
            <use
               transform="translate(762.65703125 0.0)"
               xlink:href="#Cmmi10-3e"
               id="use458" />
          </g>
        </g>
      </g>
      <g
         id="legend_1">
        <g
           id="patch_7">
          <path
             d="M 961.2 536.76  L 1275 536.76  L 1275 351.36  L 961.2 351.36  z "
             style="fill:#ffffff;"
             id="path462" />
        </g>
        <g
           id="line2d_38">
          <path
             d="M 982.2 375.66  L 1024.2 375.66  "
             style="fill:none;stroke:#ff7f50;stroke-linecap:square;stroke-width:5.0;"
             id="path465" />
        </g>
        <g
           id="line2d_39" />
        <g
           id="text_19">
          <!-- $\leqslant 1$ hop away -->
          <defs
             id="defs469">
            <path
               d="M 62.09375 6.703125  L 5.59375 34.203125  L 5.59375 35.203125  L 62.09375 62.5  L 62.09375 56.203125  L 18.90625 34.703125  L 62.09375 13.203125  z M 62.09375 -13.703125  L 5.59375 13.796875  L 5.59375 20.40625  L 62.09375 -7.09375  z "
               id="STIXGeneral-Regular-2a7d" />
            <path
               d="M 9.28125 0  L 9.28125 3.515625  Q 21.78125 3.515625 21.78125 6.6875  L 21.78125 59.1875  Q 16.609375 56.6875 8.6875 56.6875  L 8.6875 60.203125  Q 20.953125 60.203125 27.203125 66.609375  L 28.609375 66.609375  Q 28.953125 66.609375 29.265625 66.328125  Q 29.59375 66.0625 29.59375 65.71875  L 29.59375 6.6875  Q 29.59375 3.515625 42.09375 3.515625  L 42.09375 0  z "
               id="Cmr10-31" />
            <path
               d="M 34.28125 27.484375  Q 23.390625 27.484375 19.1875 25  Q 14.984375 22.515625 14.984375 16.5  Q 14.984375 11.71875 18.140625 8.90625  Q 21.296875 6.109375 26.703125 6.109375  Q 34.1875 6.109375 38.703125 11.40625  Q 43.21875 16.703125 43.21875 25.484375  L 43.21875 27.484375  z M 52.203125 31.203125  L 52.203125 0  L 43.21875 0  L 43.21875 8.296875  Q 40.140625 3.328125 35.546875 0.953125  Q 30.953125 -1.421875 24.3125 -1.421875  Q 15.921875 -1.421875 10.953125 3.296875  Q 6 8.015625 6 15.921875  Q 6 25.140625 12.171875 29.828125  Q 18.359375 34.515625 30.609375 34.515625  L 43.21875 34.515625  L 43.21875 35.40625  Q 43.21875 41.609375 39.140625 45  Q 35.0625 48.390625 27.6875 48.390625  Q 23 48.390625 18.546875 47.265625  Q 14.109375 46.140625 10.015625 43.890625  L 10.015625 52.203125  Q 14.9375 54.109375 19.578125 55.046875  Q 24.21875 56 28.609375 56  Q 40.484375 56 46.34375 49.84375  Q 52.203125 43.703125 52.203125 31.203125  "
               id="BitstreamVeraSans-Roman-61" />
            <path
               d="M 54.890625 33.015625  L 54.890625 0  L 45.90625 0  L 45.90625 32.71875  Q 45.90625 40.484375 42.875 44.328125  Q 39.84375 48.1875 33.796875 48.1875  Q 26.515625 48.1875 22.3125 43.546875  Q 18.109375 38.921875 18.109375 30.90625  L 18.109375 0  L 9.078125 0  L 9.078125 75.984375  L 18.109375 75.984375  L 18.109375 46.1875  Q 21.34375 51.125 25.703125 53.5625  Q 30.078125 56 35.796875 56  Q 45.21875 56 50.046875 50.171875  Q 54.890625 44.34375 54.890625 33.015625  "
               id="BitstreamVeraSans-Roman-68" />
            <path
               d="M 32.171875 -5.078125  Q 28.375 -14.84375 24.75 -17.8125  Q 21.140625 -20.796875 15.09375 -20.796875  L 7.90625 -20.796875  L 7.90625 -13.28125  L 13.1875 -13.28125  Q 16.890625 -13.28125 18.9375 -11.515625  Q 21 -9.765625 23.484375 -3.21875  L 25.09375 0.875  L 2.984375 54.6875  L 12.5 54.6875  L 29.59375 11.921875  L 46.6875 54.6875  L 56.203125 54.6875  z "
               id="BitstreamVeraSans-Roman-79" />
          </defs>
          <g
             transform="translate(1057.2 386.16)scale(0.3 -0.3)"
             id="g476">
            <use
               transform="translate(0.0 0.015625)"
               xlink:href="#STIXGeneral-Regular-2a7d"
               id="use478" />
            <use
               transform="translate(68.4999847412 0.015625)"
               xlink:href="#Cmr10-31"
               id="use480" />
            <use
               transform="translate(118.499984741 0.015625)"
               xlink:href="#BitstreamVeraSans-Roman-20"
               id="use482" />
            <use
               transform="translate(150.287094116 0.015625)"
               xlink:href="#BitstreamVeraSans-Roman-68"
               id="use484" />
            <use
               transform="translate(213.666000366 0.015625)"
               xlink:href="#BitstreamVeraSans-Roman-6f"
               id="use486" />
            <use
               transform="translate(274.847640991 0.015625)"
               xlink:href="#BitstreamVeraSans-Roman-70"
               id="use488" />
            <use
               transform="translate(338.324203491 0.015625)"
               xlink:href="#BitstreamVeraSans-Roman-20"
               id="use490" />
            <use
               transform="translate(370.111312866 0.015625)"
               xlink:href="#BitstreamVeraSans-Roman-61"
               id="use492" />
            <use
               transform="translate(431.390609741 0.015625)"
               xlink:href="#BitstreamVeraSans-Roman-77"
               id="use494" />
            <use
               transform="translate(513.177719116 0.015625)"
               xlink:href="#BitstreamVeraSans-Roman-61"
               id="use496" />
            <use
               transform="translate(574.457015991 0.015625)"
               xlink:href="#BitstreamVeraSans-Roman-79"
               id="use498" />
          </g>
        </g>
        <g
           id="line2d_40">
          <path
             d="M 982.2 419.76  L 1024.2 419.76  "
             style="fill:none;stroke:#008000;stroke-dasharray:3.000000,5.000000,1.000000,5.000000;stroke-dashoffset:0.0;stroke-width:5.0;"
             id="path501" />
        </g>
        <g
           id="line2d_41" />
        <g
           id="text_20">
          <!-- $\leqslant 2$ hops away -->
          <defs
             id="defs505">
            <path
               d="M 4.984375 0  L 4.984375 2.6875  Q 4.984375 2.9375 5.171875 3.21875  L 20.703125 20.40625  Q 24.21875 24.21875 26.40625 26.796875  Q 28.609375 29.390625 30.75 32.765625  Q 32.90625 36.140625 34.15625 39.625  Q 35.40625 43.109375 35.40625 47.015625  Q 35.40625 51.125 33.890625 54.859375  Q 32.375 58.59375 29.375 60.84375  Q 26.375 63.09375 22.125 63.09375  Q 17.78125 63.09375 14.3125 60.46875  Q 10.84375 57.859375 9.421875 53.71875  Q 9.8125 53.8125 10.5 53.8125  Q 12.75 53.8125 14.328125 52.296875  Q 15.921875 50.78125 15.921875 48.390625  Q 15.921875 46.09375 14.328125 44.5  Q 12.75 42.921875 10.5 42.921875  Q 8.15625 42.921875 6.5625 44.546875  Q 4.984375 46.1875 4.984375 48.390625  Q 4.984375 52.15625 6.390625 55.4375  Q 7.8125 58.734375 10.46875 61.296875  Q 13.140625 63.875 16.484375 65.234375  Q 19.828125 66.609375 23.578125 66.609375  Q 29.296875 66.609375 34.21875 64.1875  Q 39.15625 61.765625 42.03125 57.34375  Q 44.921875 52.9375 44.921875 47.015625  Q 44.921875 42.671875 43.015625 38.765625  Q 41.109375 34.859375 38.125 31.65625  Q 35.15625 28.46875 30.515625 24.40625  Q 25.875 20.359375 24.421875 19  L 13.09375 8.109375  L 22.703125 8.109375  Q 29.78125 8.109375 34.546875 8.21875  Q 39.3125 8.34375 39.59375 8.59375  Q 40.765625 9.859375 42 17.828125  L 44.921875 17.828125  L 42.09375 0  z "
               id="Cmr10-32" />
            <path
               d="M 44.28125 53.078125  L 44.28125 44.578125  Q 40.484375 46.53125 36.375 47.5  Q 32.28125 48.484375 27.875 48.484375  Q 21.1875 48.484375 17.84375 46.4375  Q 14.5 44.390625 14.5 40.28125  Q 14.5 37.15625 16.890625 35.375  Q 19.28125 33.59375 26.515625 31.984375  L 29.59375 31.296875  Q 39.15625 29.25 43.1875 25.515625  Q 47.21875 21.78125 47.21875 15.09375  Q 47.21875 7.46875 41.1875 3.015625  Q 35.15625 -1.421875 24.609375 -1.421875  Q 20.21875 -1.421875 15.453125 -0.5625  Q 10.6875 0.296875 5.421875 2  L 5.421875 11.28125  Q 10.40625 8.6875 15.234375 7.390625  Q 20.0625 6.109375 24.8125 6.109375  Q 31.15625 6.109375 34.5625 8.28125  Q 37.984375 10.453125 37.984375 14.40625  Q 37.984375 18.0625 35.515625 20.015625  Q 33.0625 21.96875 24.703125 23.78125  L 21.578125 24.515625  Q 13.234375 26.265625 9.515625 29.90625  Q 5.8125 33.546875 5.8125 39.890625  Q 5.8125 47.609375 11.28125 51.796875  Q 16.75 56 26.8125 56  Q 31.78125 56 36.171875 55.265625  Q 40.578125 54.546875 44.28125 53.078125  "
               id="BitstreamVeraSans-Roman-73" />
          </defs>
          <g
             transform="translate(1057.2 430.26)scale(0.3 -0.3)"
             id="g509">
            <use
               transform="translate(0.0 0.015625)"
               xlink:href="#STIXGeneral-Regular-2a7d"
               id="use511" />
            <use
               transform="translate(68.4999847412 0.015625)"
               xlink:href="#Cmr10-32"
               id="use513" />
            <use
               transform="translate(118.499984741 0.015625)"
               xlink:href="#BitstreamVeraSans-Roman-20"
               id="use515" />
            <use
               transform="translate(150.287094116 0.015625)"
               xlink:href="#BitstreamVeraSans-Roman-68"
               id="use517" />
            <use
               transform="translate(213.666000366 0.015625)"
               xlink:href="#BitstreamVeraSans-Roman-6f"
               id="use519" />
            <use
               transform="translate(274.847640991 0.015625)"
               xlink:href="#BitstreamVeraSans-Roman-70"
               id="use521" />
            <use
               transform="translate(338.324203491 0.015625)"
               xlink:href="#BitstreamVeraSans-Roman-73"
               id="use523" />
            <use
               transform="translate(390.423812866 0.015625)"
               xlink:href="#BitstreamVeraSans-Roman-20"
               id="use525" />
            <use
               transform="translate(422.210922241 0.015625)"
               xlink:href="#BitstreamVeraSans-Roman-61"
               id="use527" />
            <use
               transform="translate(483.490219116 0.015625)"
               xlink:href="#BitstreamVeraSans-Roman-77"
               id="use529" />
            <use
               transform="translate(565.277328491 0.015625)"
               xlink:href="#BitstreamVeraSans-Roman-61"
               id="use531" />
            <use
               transform="translate(626.556625366 0.015625)"
               xlink:href="#BitstreamVeraSans-Roman-79"
               id="use533" />
          </g>
        </g>
        <g
           id="line2d_42">
          <path
             d="M 982.2 463.86  L 1024.2 463.86  "
             style="fill:none;stroke:#0000ff;stroke-dasharray:6.000000,6.000000;stroke-dashoffset:0.0;stroke-width:5.0;"
             id="path536" />
        </g>
        <g
           id="line2d_43" />
        <g
           id="text_21">
          <!-- $\leqslant 3$ hops away -->
          <defs
             id="defs540">
            <path
               d="M 9.515625 7.71875  Q 11.859375 4.296875 15.8125 2.640625  Q 19.78125 0.984375 24.3125 0.984375  Q 30.125 0.984375 32.5625 5.9375  Q 35.015625 10.890625 35.015625 17.1875  Q 35.015625 20.015625 34.5 22.84375  Q 33.984375 25.6875 32.765625 28.125  Q 31.546875 30.5625 29.421875 32.03125  Q 27.296875 33.5 24.21875 33.5  L 17.578125 33.5  Q 16.703125 33.5 16.703125 34.421875  L 16.703125 35.296875  Q 16.703125 36.078125 17.578125 36.078125  L 23.09375 36.53125  Q 26.609375 36.53125 28.921875 39.15625  Q 31.25 41.796875 32.328125 45.578125  Q 33.40625 49.359375 33.40625 52.78125  Q 33.40625 57.5625 31.15625 60.640625  Q 28.90625 63.71875 24.3125 63.71875  Q 20.515625 63.71875 17.046875 62.28125  Q 13.578125 60.84375 11.53125 57.90625  Q 11.71875 57.953125 11.859375 57.984375  Q 12.015625 58.015625 12.203125 58.015625  Q 14.453125 58.015625 15.96875 56.453125  Q 17.484375 54.890625 17.484375 52.6875  Q 17.484375 50.53125 15.96875 48.96875  Q 14.453125 47.40625 12.203125 47.40625  Q 10.015625 47.40625 8.453125 48.96875  Q 6.890625 50.53125 6.890625 52.6875  Q 6.890625 56.984375 9.46875 60.15625  Q 12.0625 63.328125 16.140625 64.96875  Q 20.21875 66.609375 24.3125 66.609375  Q 27.34375 66.609375 30.703125 65.703125  Q 34.078125 64.796875 36.8125 63.109375  Q 39.546875 61.421875 41.28125 58.78125  Q 43.015625 56.15625 43.015625 52.78125  Q 43.015625 48.578125 41.140625 45.015625  Q 39.265625 41.453125 35.984375 38.859375  Q 32.71875 36.28125 28.8125 35.015625  Q 33.15625 34.1875 37.0625 31.734375  Q 40.96875 29.296875 43.328125 25.484375  Q 45.703125 21.6875 45.703125 17.28125  Q 45.703125 11.765625 42.671875 7.296875  Q 39.65625 2.828125 34.71875 0.3125  Q 29.78125 -2.203125 24.3125 -2.203125  Q 19.625 -2.203125 14.90625 -0.40625  Q 10.203125 1.375 7.203125 4.9375  Q 4.203125 8.5 4.203125 13.484375  Q 4.203125 15.96875 5.859375 17.625  Q 7.515625 19.28125 10.015625 19.28125  Q 11.625 19.28125 12.96875 18.53125  Q 14.3125 17.78125 15.0625 16.40625  Q 15.828125 15.046875 15.828125 13.484375  Q 15.828125 11.03125 14.109375 9.375  Q 12.40625 7.71875 10.015625 7.71875  z "
               id="Cmr10-33" />
          </defs>
          <g
             transform="translate(1057.2 474.36)scale(0.3 -0.3)"
             id="g543">
            <use
               transform="translate(0.0 0.015625)"
               xlink:href="#STIXGeneral-Regular-2a7d"
               id="use545" />
            <use
               transform="translate(68.4999847412 0.015625)"
               xlink:href="#Cmr10-33"
               id="use547" />
            <use
               transform="translate(118.499984741 0.015625)"
               xlink:href="#BitstreamVeraSans-Roman-20"
               id="use549" />
            <use
               transform="translate(150.287094116 0.015625)"
               xlink:href="#BitstreamVeraSans-Roman-68"
               id="use551" />
            <use
               transform="translate(213.666000366 0.015625)"
               xlink:href="#BitstreamVeraSans-Roman-6f"
               id="use553" />
            <use
               transform="translate(274.847640991 0.015625)"
               xlink:href="#BitstreamVeraSans-Roman-70"
               id="use555" />
            <use
               transform="translate(338.324203491 0.015625)"
               xlink:href="#BitstreamVeraSans-Roman-73"
               id="use557" />
            <use
               transform="translate(390.423812866 0.015625)"
               xlink:href="#BitstreamVeraSans-Roman-20"
               id="use559" />
            <use
               transform="translate(422.210922241 0.015625)"
               xlink:href="#BitstreamVeraSans-Roman-61"
               id="use561" />
            <use
               transform="translate(483.490219116 0.015625)"
               xlink:href="#BitstreamVeraSans-Roman-77"
               id="use563" />
            <use
               transform="translate(565.277328491 0.015625)"
               xlink:href="#BitstreamVeraSans-Roman-61"
               id="use565" />
            <use
               transform="translate(626.556625366 0.015625)"
               xlink:href="#BitstreamVeraSans-Roman-79"
               id="use567" />
          </g>
        </g>
        <g
           id="line2d_44">
          <path
             d="M 982.2 507.96  L 1024.2 507.96  "
             style="fill:none;stroke:#00bfbf;stroke-dasharray:1.000000,3.000000;stroke-dashoffset:0.0;stroke-width:5.0;"
             id="path570" />
        </g>
        <g
           id="line2d_45" />
        <g
           id="text_22">
          <!-- $\leqslant 4$ hops away -->
          <defs
             id="defs574">
            <path
               d="M 2.78125 16.5  L 2.78125 20.015625  L 33.6875 66.109375  Q 34.03125 66.609375 34.71875 66.609375  L 36.1875 66.609375  Q 37.3125 66.609375 37.3125 65.484375  L 37.3125 20.015625  L 47.125 20.015625  L 47.125 16.5  L 37.3125 16.5  L 37.3125 6.6875  Q 37.3125 4.640625 40.234375 4.078125  Q 43.171875 3.515625 47.015625 3.515625  L 47.015625 0  L 19.484375 0  L 19.484375 3.515625  Q 23.34375 3.515625 26.265625 4.078125  Q 29.203125 4.640625 29.203125 6.6875  L 29.203125 16.5  z M 6.109375 20.015625  L 29.78125 20.015625  L 29.78125 55.421875  z "
               id="Cmr10-34" />
          </defs>
          <g
             transform="translate(1057.2 518.46)scale(0.3 -0.3)"
             id="g577">
            <use
               transform="translate(0.0 0.015625)"
               xlink:href="#STIXGeneral-Regular-2a7d"
               id="use579" />
            <use
               transform="translate(68.4999847412 0.015625)"
               xlink:href="#Cmr10-34"
               id="use581" />
            <use
               transform="translate(118.499984741 0.015625)"
               xlink:href="#BitstreamVeraSans-Roman-20"
               id="use583" />
            <use
               transform="translate(150.287094116 0.015625)"
               xlink:href="#BitstreamVeraSans-Roman-68"
               id="use585" />
            <use
               transform="translate(213.666000366 0.015625)"
               xlink:href="#BitstreamVeraSans-Roman-6f"
               id="use587" />
            <use
               transform="translate(274.847640991 0.015625)"
               xlink:href="#BitstreamVeraSans-Roman-70"
               id="use589" />
            <use
               transform="translate(338.324203491 0.015625)"
               xlink:href="#BitstreamVeraSans-Roman-73"
               id="use591" />
            <use
               transform="translate(390.423812866 0.015625)"
               xlink:href="#BitstreamVeraSans-Roman-20"
               id="use593" />
            <use
               transform="translate(422.210922241 0.015625)"
               xlink:href="#BitstreamVeraSans-Roman-61"
               id="use595" />
            <use
               transform="translate(483.490219116 0.015625)"
               xlink:href="#BitstreamVeraSans-Roman-77"
               id="use597" />
            <use
               transform="translate(565.277328491 0.015625)"
               xlink:href="#BitstreamVeraSans-Roman-61"
               id="use599" />
            <use
               transform="translate(626.556625366 0.015625)"
               xlink:href="#BitstreamVeraSans-Roman-79"
               id="use601" />
          </g>
        </g>
      </g>
    </g>
  </g>
  <defs
     id="defs603">
    <clipPath
       id="pac9be555e1">
      <rect
         height="1152.0"
         width="1116.0"
         x="180.0"
         y="144.0"
         id="rect606" />
    </clipPath>
  </defs>
  <text
     xml:space="preserve"
     style="font-style:normal;font-weight:normal;font-size:32px;line-height:125%;font-family:sans-serif;letter-spacing:0px;word-spacing:0px;fill:#000000;fill-opacity:1;stroke:none;stroke-width:1px;stroke-linecap:butt;stroke-linejoin:miter;stroke-miterlimit:100000;stroke-opacity:1"
     x="962.97186"
     y="349.02863"
     id="text4738"
     sodipodi:linespacing="125%"><tspan
       sodipodi:role="line"
       id="tspan4740"
       style="stroke-linecap:butt;stroke-linejoin:round;stroke-miterlimit:100000"
       x="962.97186"
       y="349.02863">Averaged over sites:</tspan></text>
</svg>
