<?xml version="1.0" encoding="utf-8" standalone="no"?>
<!DOCTYPE svg PUBLIC "-//W3C//DTD SVG 1.1//EN"
  "http://www.w3.org/Graphics/SVG/1.1/DTD/svg11.dtd">
<!-- Created with matplotlib (http://matplotlib.org/) -->
<svg height="1440pt" version="1.1" viewBox="0 0 1440 1440" width="1440pt" xmlns="http://www.w3.org/2000/svg" xmlns:xlink="http://www.w3.org/1999/xlink">
 <defs>
  <style type="text/css">
*{stroke-linecap:butt;stroke-linejoin:round;stroke-miterlimit:100000;}
  </style>
 </defs>
 <g id="figure_1">
  <g id="patch_1">
   <path d="M 0 1440 
L 1440 1440 
L 1440 0 
L 0 0 
z
" style="fill:#ffffff;"/>
  </g>
  <g id="axes_1">
   <g id="patch_2">
    <path d="M 180 1296 
L 1296 1296 
L 1296 144 
L 180 144 
z
" style="fill:#ffffff;"/>
   </g>
   <g id="line2d_1">
    <path clip-path="url(#p3e7b3f753a)" d="M 180 1280.119445 
L 185.60804 1286.477515 
L 191.21608 1288.578159 
L 196.824121 1288.765797 
L 202.432161 1284.700135 
L 208.040201 1283.785442 
L 213.648241 1286.935816 
L 219.256281 1288.094252 
L 224.864322 1286.081576 
L 230.472362 1285.401946 
L 236.080402 1287.508152 
L 241.688442 1289.942707 
L 247.296482 1290.842342 
L 252.904523 1289.851589 
L 258.512563 1287.324214 
L 264.120603 1284.146639 
L 269.728643 1281.448217 
L 275.336683 1279.996133 
L 280.944724 1279.822281 
L 286.552764 1280.30549 
L 292.160804 1280.532045 
L 297.768844 1279.749335 
L 303.376884 1277.84943 
L 308.984925 1275.704512 
L 314.592965 1274.902935 
L 320.201005 1276.654891 
L 331.417085 1284.269767 
L 337.025126 1285.538674 
L 342.633166 1283.804382 
L 353.849246 1276.804631 
L 359.457286 1274.618072 
L 365.065327 1273.204969 
L 370.673367 1269.664774 
L 376.281407 1260.375522 
L 381.889447 1244.188766 
L 387.497487 1223.495474 
L 393.105528 1202.210485 
L 398.713568 1183.495988 
L 404.321608 1168.939303 
L 409.929648 1158.780872 
L 415.537688 1152.434174 
L 421.145729 1148.934601 
L 426.753769 1147.241722 
L 432.361809 1146.41652 
L 437.969849 1145.705914 
L 443.577889 1144.559635 
L 449.18593 1142.601473 
L 454.79397 1139.577624 
L 460.40201 1135.304496 
L 466.01005 1129.633231 
L 471.61809 1122.437998 
L 477.226131 1113.623301 
L 482.834171 1103.13851 
L 488.442211 1090.988666 
L 494.050251 1077.236688 
L 499.658291 1061.997696 
L 505.266332 1045.428579 
L 510.874372 1027.715676 
L 516.482412 1009.062397 
L 522.090452 989.677789 
L 533.306533 949.521496 
L 550.130653 888.418217 
L 561.346734 848.620755 
L 566.954774 829.264266 
L 572.562814 810.343217 
L 578.170854 791.896141 
L 583.778894 773.951204 
L 589.386935 756.528387 
L 594.994975 739.641211 
L 600.603015 723.298038 
L 606.211055 707.503052 
L 611.819095 692.257072 
L 617.427136 677.558324 
L 623.035176 663.403318 
L 628.643216 649.787938 
L 634.251256 636.708798 
L 639.859296 624.164896 
L 645.467337 612.15947 
L 651.075377 600.701932 
L 656.683417 589.809584 
L 662.291457 579.50875 
L 667.899497 569.834842 
L 673.507538 560.830889 
L 679.115578 552.544124 
L 684.723618 545.020537 
L 690.331658 538.297691 
L 695.939698 532.396615 
L 701.547739 527.314118 
L 707.155779 523.017029 
L 712.763819 519.439801 
L 718.371859 516.486293 
L 723.979899 514.035692 
L 729.58794 511.951646 
L 740.80402 508.324572 
L 746.41206 506.525666 
L 752.020101 504.596501 
L 757.628141 502.460946 
L 763.236181 500.066563 
L 768.844221 497.382374 
L 774.452261 494.395272 
L 780.060302 491.105909 
L 785.668342 487.524737 
L 791.276382 483.66861 
L 796.884422 479.558159 
L 802.492462 475.215951 
L 808.100503 470.665332 
L 813.708543 465.929793 
L 824.924623 455.997229 
L 836.140704 445.603224 
L 852.964824 429.548654 
L 869.788945 413.485748 
L 881.005025 403.069505 
L 892.221106 393.081217 
L 897.829146 388.294183 
L 903.437186 383.667034 
L 909.045226 379.21377 
L 914.653266 374.946229 
L 920.261307 370.873897 
L 925.869347 367.003779 
L 931.477387 363.340321 
L 937.085427 359.885407 
L 942.693467 356.638418 
L 948.301508 353.596368 
L 953.909548 350.754079 
L 959.517588 348.104424 
L 965.125628 345.638589 
L 970.733668 343.346369 
L 976.341709 341.216464 
L 981.949749 339.236785 
L 987.557789 337.394729 
L 998.773869 334.072069 
L 1009.98995 331.146605 
L 1021.20603 328.521624 
L 1032.422111 326.10921 
L 1049.246231 322.723039 
L 1082.894472 316.059732 
L 1099.718593 312.486433 
L 1110.934673 309.936527 
L 1122.150754 307.217473 
L 1133.366834 304.299813 
L 1144.582915 301.15392 
L 1155.798995 297.750109 
L 1167.015075 294.059258 
L 1178.231156 290.053807 
L 1189.447236 285.708938 
L 1200.663317 281.003787 
L 1211.879397 275.922531 
L 1223.095477 270.455241 
L 1234.311558 264.598394 
L 1245.527638 258.355017 
L 1256.743719 251.734423 
L 1267.959799 244.751592 
L 1279.175879 237.426258 
L 1290.39196 229.781811 
L 1296 225.847938 
L 1296 225.847938 
" style="fill:none;stroke:#000000;stroke-linecap:square;stroke-width:5.0;"/>
   </g>
   <g id="patch_3">
    <path d="M 180 144 
L 1296 144 
" style="fill:none;stroke:#000000;stroke-linecap:square;stroke-linejoin:miter;"/>
   </g>
   <g id="patch_4">
    <path d="M 1296 1296 
L 1296 144 
" style="fill:none;stroke:#000000;stroke-linecap:square;stroke-linejoin:miter;"/>
   </g>
   <g id="patch_5">
    <path d="M 180 1296 
L 1296 1296 
" style="fill:none;stroke:#000000;stroke-linecap:square;stroke-linejoin:miter;"/>
   </g>
   <g id="patch_6">
    <path d="M 180 1296 
L 180 144 
" style="fill:none;stroke:#000000;stroke-linecap:square;stroke-linejoin:miter;"/>
   </g>
   <g id="matplotlib.axis_1">
    <g id="xtick_1">
     <g id="line2d_2">
      <defs>
       <path d="M 0 0 
L 0 -4 
" id="mbb3c2da82d" style="stroke:#000000;stroke-width:0.5;"/>
      </defs>
      <g>
       <use style="stroke:#000000;stroke-width:0.5;" x="454.793969849" xlink:href="#mbb3c2da82d" y="1296.0"/>
      </g>
     </g>
     <g id="line2d_3">
      <defs>
       <path d="M 0 0 
L 0 4 
" id="m350205246e" style="stroke:#000000;stroke-width:0.5;"/>
      </defs>
      <g>
       <use style="stroke:#000000;stroke-width:0.5;" x="454.793969849" xlink:href="#m350205246e" y="144.0"/>
      </g>
     </g>
     <g id="text_1">
      <!-- 50 -->
      <defs>
       <path d="M 31.78125 66.40625 
Q 24.171875 66.40625 20.328125 58.90625 
Q 16.5 51.421875 16.5 36.375 
Q 16.5 21.390625 20.328125 13.890625 
Q 24.171875 6.390625 31.78125 6.390625 
Q 39.453125 6.390625 43.28125 13.890625 
Q 47.125 21.390625 47.125 36.375 
Q 47.125 51.421875 43.28125 58.90625 
Q 39.453125 66.40625 31.78125 66.40625 
M 31.78125 74.21875 
Q 44.046875 74.21875 50.515625 64.515625 
Q 56.984375 54.828125 56.984375 36.375 
Q 56.984375 17.96875 50.515625 8.265625 
Q 44.046875 -1.421875 31.78125 -1.421875 
Q 19.53125 -1.421875 13.0625 8.265625 
Q 6.59375 17.96875 6.59375 36.375 
Q 6.59375 54.828125 13.0625 64.515625 
Q 19.53125 74.21875 31.78125 74.21875 
" id="BitstreamVeraSans-Roman-30"/>
       <path d="M 10.796875 72.90625 
L 49.515625 72.90625 
L 49.515625 64.59375 
L 19.828125 64.59375 
L 19.828125 46.734375 
Q 21.96875 47.46875 24.109375 47.828125 
Q 26.265625 48.1875 28.421875 48.1875 
Q 40.625 48.1875 47.75 41.5 
Q 54.890625 34.8125 54.890625 23.390625 
Q 54.890625 11.625 47.5625 5.09375 
Q 40.234375 -1.421875 26.90625 -1.421875 
Q 22.3125 -1.421875 17.546875 -0.640625 
Q 12.796875 0.140625 7.71875 1.703125 
L 7.71875 11.625 
Q 12.109375 9.234375 16.796875 8.0625 
Q 21.484375 6.890625 26.703125 6.890625 
Q 35.15625 6.890625 40.078125 11.328125 
Q 45.015625 15.765625 45.015625 23.390625 
Q 45.015625 31 40.078125 35.4375 
Q 35.15625 39.890625 26.703125 39.890625 
Q 22.75 39.890625 18.8125 39.015625 
Q 14.890625 38.140625 10.796875 36.28125 
z
" id="BitstreamVeraSans-Roman-35"/>
      </defs>
      <g transform="translate(435.706469849 1322.7953125)scale(0.3 -0.3)">
       <use xlink:href="#BitstreamVeraSans-Roman-35"/>
       <use x="63.623046875" xlink:href="#BitstreamVeraSans-Roman-30"/>
      </g>
     </g>
    </g>
    <g id="xtick_2">
     <g id="line2d_4">
      <g>
       <use style="stroke:#000000;stroke-width:0.5;" x="735.195979899" xlink:href="#mbb3c2da82d" y="1296.0"/>
      </g>
     </g>
     <g id="line2d_5">
      <g>
       <use style="stroke:#000000;stroke-width:0.5;" x="735.195979899" xlink:href="#m350205246e" y="144.0"/>
      </g>
     </g>
     <g id="text_2">
      <!-- 100 -->
      <defs>
       <path d="M 12.40625 8.296875 
L 28.515625 8.296875 
L 28.515625 63.921875 
L 10.984375 60.40625 
L 10.984375 69.390625 
L 28.421875 72.90625 
L 38.28125 72.90625 
L 38.28125 8.296875 
L 54.390625 8.296875 
L 54.390625 0 
L 12.40625 0 
z
" id="BitstreamVeraSans-Roman-31"/>
      </defs>
      <g transform="translate(706.564729899 1322.7953125)scale(0.3 -0.3)">
       <use xlink:href="#BitstreamVeraSans-Roman-31"/>
       <use x="63.623046875" xlink:href="#BitstreamVeraSans-Roman-30"/>
       <use x="127.24609375" xlink:href="#BitstreamVeraSans-Roman-30"/>
      </g>
     </g>
    </g>
    <g id="xtick_3">
     <g id="line2d_6">
      <g>
       <use style="stroke:#000000;stroke-width:0.5;" x="1015.59798995" xlink:href="#mbb3c2da82d" y="1296.0"/>
      </g>
     </g>
     <g id="line2d_7">
      <g>
       <use style="stroke:#000000;stroke-width:0.5;" x="1015.59798995" xlink:href="#m350205246e" y="144.0"/>
      </g>
     </g>
     <g id="text_3">
      <!-- 150 -->
      <g transform="translate(986.96673995 1322.7953125)scale(0.3 -0.3)">
       <use xlink:href="#BitstreamVeraSans-Roman-31"/>
       <use x="63.623046875" xlink:href="#BitstreamVeraSans-Roman-35"/>
       <use x="127.24609375" xlink:href="#BitstreamVeraSans-Roman-30"/>
      </g>
     </g>
    </g>
    <g id="xtick_4">
     <g id="line2d_8">
      <g>
       <use style="stroke:#000000;stroke-width:0.5;" x="1296.0" xlink:href="#mbb3c2da82d" y="1296.0"/>
      </g>
     </g>
     <g id="line2d_9">
      <g>
       <use style="stroke:#000000;stroke-width:0.5;" x="1296.0" xlink:href="#m350205246e" y="144.0"/>
      </g>
     </g>
     <g id="text_4">
      <!-- 200 -->
      <defs>
       <path d="M 19.1875 8.296875 
L 53.609375 8.296875 
L 53.609375 0 
L 7.328125 0 
L 7.328125 8.296875 
Q 12.9375 14.109375 22.625 23.890625 
Q 32.328125 33.6875 34.8125 36.53125 
Q 39.546875 41.84375 41.421875 45.53125 
Q 43.3125 49.21875 43.3125 52.78125 
Q 43.3125 58.59375 39.234375 62.25 
Q 35.15625 65.921875 28.609375 65.921875 
Q 23.96875 65.921875 18.8125 64.3125 
Q 13.671875 62.703125 7.8125 59.421875 
L 7.8125 69.390625 
Q 13.765625 71.78125 18.9375 73 
Q 24.125 74.21875 28.421875 74.21875 
Q 39.75 74.21875 46.484375 68.546875 
Q 53.21875 62.890625 53.21875 53.421875 
Q 53.21875 48.921875 51.53125 44.890625 
Q 49.859375 40.875 45.40625 35.40625 
Q 44.1875 33.984375 37.640625 27.21875 
Q 31.109375 20.453125 19.1875 8.296875 
" id="BitstreamVeraSans-Roman-32"/>
      </defs>
      <g transform="translate(1267.36875 1322.7953125)scale(0.3 -0.3)">
       <use xlink:href="#BitstreamVeraSans-Roman-32"/>
       <use x="63.623046875" xlink:href="#BitstreamVeraSans-Roman-30"/>
       <use x="127.24609375" xlink:href="#BitstreamVeraSans-Roman-30"/>
      </g>
     </g>
    </g>
    <g id="text_5">
     <!-- Input power -->
     <defs>
      <path id="BitstreamVeraSans-Roman-20"/>
      <path d="M 54.890625 33.015625 
L 54.890625 0 
L 45.90625 0 
L 45.90625 32.71875 
Q 45.90625 40.484375 42.875 44.328125 
Q 39.84375 48.1875 33.796875 48.1875 
Q 26.515625 48.1875 22.3125 43.546875 
Q 18.109375 38.921875 18.109375 30.90625 
L 18.109375 0 
L 9.078125 0 
L 9.078125 54.6875 
L 18.109375 54.6875 
L 18.109375 46.1875 
Q 21.34375 51.125 25.703125 53.5625 
Q 30.078125 56 35.796875 56 
Q 45.21875 56 50.046875 50.171875 
Q 54.890625 44.34375 54.890625 33.015625 
" id="BitstreamVeraSans-Roman-6e"/>
      <path d="M 30.609375 48.390625 
Q 23.390625 48.390625 19.1875 42.75 
Q 14.984375 37.109375 14.984375 27.296875 
Q 14.984375 17.484375 19.15625 11.84375 
Q 23.34375 6.203125 30.609375 6.203125 
Q 37.796875 6.203125 41.984375 11.859375 
Q 46.1875 17.53125 46.1875 27.296875 
Q 46.1875 37.015625 41.984375 42.703125 
Q 37.796875 48.390625 30.609375 48.390625 
M 30.609375 56 
Q 42.328125 56 49.015625 48.375 
Q 55.71875 40.765625 55.71875 27.296875 
Q 55.71875 13.875 49.015625 6.21875 
Q 42.328125 -1.421875 30.609375 -1.421875 
Q 18.84375 -1.421875 12.171875 6.21875 
Q 5.515625 13.875 5.515625 27.296875 
Q 5.515625 40.765625 12.171875 48.375 
Q 18.84375 56 30.609375 56 
" id="BitstreamVeraSans-Roman-6f"/>
      <path d="M 9.8125 72.90625 
L 19.671875 72.90625 
L 19.671875 0 
L 9.8125 0 
z
" id="BitstreamVeraSans-Roman-49"/>
      <path d="M 56.203125 29.59375 
L 56.203125 25.203125 
L 14.890625 25.203125 
Q 15.484375 15.921875 20.484375 11.0625 
Q 25.484375 6.203125 34.421875 6.203125 
Q 39.59375 6.203125 44.453125 7.46875 
Q 49.3125 8.734375 54.109375 11.28125 
L 54.109375 2.78125 
Q 49.265625 0.734375 44.1875 -0.34375 
Q 39.109375 -1.421875 33.890625 -1.421875 
Q 20.796875 -1.421875 13.15625 6.1875 
Q 5.515625 13.8125 5.515625 26.8125 
Q 5.515625 40.234375 12.765625 48.109375 
Q 20.015625 56 32.328125 56 
Q 43.359375 56 49.78125 48.890625 
Q 56.203125 41.796875 56.203125 29.59375 
M 47.21875 32.234375 
Q 47.125 39.59375 43.09375 43.984375 
Q 39.0625 48.390625 32.421875 48.390625 
Q 24.90625 48.390625 20.390625 44.140625 
Q 15.875 39.890625 15.1875 32.171875 
z
" id="BitstreamVeraSans-Roman-65"/>
      <path d="M 4.203125 54.6875 
L 13.1875 54.6875 
L 24.421875 12.015625 
L 35.59375 54.6875 
L 46.1875 54.6875 
L 57.421875 12.015625 
L 68.609375 54.6875 
L 77.59375 54.6875 
L 63.28125 0 
L 52.6875 0 
L 40.921875 44.828125 
L 29.109375 0 
L 18.5 0 
z
" id="BitstreamVeraSans-Roman-77"/>
      <path d="M 18.3125 70.21875 
L 18.3125 54.6875 
L 36.8125 54.6875 
L 36.8125 47.703125 
L 18.3125 47.703125 
L 18.3125 18.015625 
Q 18.3125 11.328125 20.140625 9.421875 
Q 21.96875 7.515625 27.59375 7.515625 
L 36.8125 7.515625 
L 36.8125 0 
L 27.59375 0 
Q 17.1875 0 13.234375 3.875 
Q 9.28125 7.765625 9.28125 18.015625 
L 9.28125 47.703125 
L 2.6875 47.703125 
L 2.6875 54.6875 
L 9.28125 54.6875 
L 9.28125 70.21875 
z
" id="BitstreamVeraSans-Roman-74"/>
      <path d="M 8.5 21.578125 
L 8.5 54.6875 
L 17.484375 54.6875 
L 17.484375 21.921875 
Q 17.484375 14.15625 20.5 10.265625 
Q 23.53125 6.390625 29.59375 6.390625 
Q 36.859375 6.390625 41.078125 11.03125 
Q 45.3125 15.671875 45.3125 23.6875 
L 45.3125 54.6875 
L 54.296875 54.6875 
L 54.296875 0 
L 45.3125 0 
L 45.3125 8.40625 
Q 42.046875 3.421875 37.71875 1 
Q 33.40625 -1.421875 27.6875 -1.421875 
Q 18.265625 -1.421875 13.375 4.4375 
Q 8.5 10.296875 8.5 21.578125 
" id="BitstreamVeraSans-Roman-75"/>
      <path d="M 41.109375 46.296875 
Q 39.59375 47.171875 37.8125 47.578125 
Q 36.03125 48 33.890625 48 
Q 26.265625 48 22.1875 43.046875 
Q 18.109375 38.09375 18.109375 28.8125 
L 18.109375 0 
L 9.078125 0 
L 9.078125 54.6875 
L 18.109375 54.6875 
L 18.109375 46.1875 
Q 20.953125 51.171875 25.484375 53.578125 
Q 30.03125 56 36.53125 56 
Q 37.453125 56 38.578125 55.875 
Q 39.703125 55.765625 41.0625 55.515625 
z
" id="BitstreamVeraSans-Roman-72"/>
      <path d="M 18.109375 8.203125 
L 18.109375 -20.796875 
L 9.078125 -20.796875 
L 9.078125 54.6875 
L 18.109375 54.6875 
L 18.109375 46.390625 
Q 20.953125 51.265625 25.265625 53.625 
Q 29.59375 56 35.59375 56 
Q 45.5625 56 51.78125 48.09375 
Q 58.015625 40.1875 58.015625 27.296875 
Q 58.015625 14.40625 51.78125 6.484375 
Q 45.5625 -1.421875 35.59375 -1.421875 
Q 29.59375 -1.421875 25.265625 0.953125 
Q 20.953125 3.328125 18.109375 8.203125 
M 48.6875 27.296875 
Q 48.6875 37.203125 44.609375 42.84375 
Q 40.53125 48.484375 33.40625 48.484375 
Q 26.265625 48.484375 22.1875 42.84375 
Q 18.109375 37.203125 18.109375 27.296875 
Q 18.109375 17.390625 22.1875 11.75 
Q 26.265625 6.109375 33.40625 6.109375 
Q 40.53125 6.109375 44.609375 11.75 
Q 48.6875 17.390625 48.6875 27.296875 
" id="BitstreamVeraSans-Roman-70"/>
     </defs>
     <g transform="translate(630.03375 1361.38875)scale(0.36 -0.36)">
      <use xlink:href="#BitstreamVeraSans-Roman-49"/>
      <use x="29.4921875" xlink:href="#BitstreamVeraSans-Roman-6e"/>
      <use x="92.87109375" xlink:href="#BitstreamVeraSans-Roman-70"/>
      <use x="156.34765625" xlink:href="#BitstreamVeraSans-Roman-75"/>
      <use x="219.7265625" xlink:href="#BitstreamVeraSans-Roman-74"/>
      <use x="258.935546875" xlink:href="#BitstreamVeraSans-Roman-20"/>
      <use x="290.72265625" xlink:href="#BitstreamVeraSans-Roman-70"/>
      <use x="354.19921875" xlink:href="#BitstreamVeraSans-Roman-6f"/>
      <use x="415.380859375" xlink:href="#BitstreamVeraSans-Roman-77"/>
      <use x="497.16796875" xlink:href="#BitstreamVeraSans-Roman-65"/>
      <use x="558.69140625" xlink:href="#BitstreamVeraSans-Roman-72"/>
     </g>
    </g>
   </g>
   <g id="matplotlib.axis_2">
    <g id="ytick_1">
     <g id="line2d_10">
      <defs>
       <path d="M 0 0 
L 4 0 
" id="mba8a68fa04" style="stroke:#000000;stroke-width:0.5;"/>
      </defs>
      <g>
       <use style="stroke:#000000;stroke-width:0.5;" x="180.0" xlink:href="#mba8a68fa04" y="1296.0"/>
      </g>
     </g>
     <g id="text_6">
      <!-- 0.00 -->
      <defs>
       <path d="M 10.6875 12.40625 
L 21 12.40625 
L 21 0 
L 10.6875 0 
z
" id="BitstreamVeraSans-Roman-2e"/>
      </defs>
      <g transform="translate(109.203125 1304.278125)scale(0.3 -0.3)">
       <use xlink:href="#BitstreamVeraSans-Roman-30"/>
       <use x="63.623046875" xlink:href="#BitstreamVeraSans-Roman-2e"/>
       <use x="95.41015625" xlink:href="#BitstreamVeraSans-Roman-30"/>
       <use x="159.033203125" xlink:href="#BitstreamVeraSans-Roman-30"/>
      </g>
     </g>
    </g>
    <g id="ytick_2">
     <g id="line2d_11">
      <g>
       <use style="stroke:#000000;stroke-width:0.5;" x="180.0" xlink:href="#mba8a68fa04" y="1104.0"/>
      </g>
     </g>
     <g id="text_7">
      <!-- 0.02 -->
      <g transform="translate(109.203125 1112.278125)scale(0.3 -0.3)">
       <use xlink:href="#BitstreamVeraSans-Roman-30"/>
       <use x="63.623046875" xlink:href="#BitstreamVeraSans-Roman-2e"/>
       <use x="95.41015625" xlink:href="#BitstreamVeraSans-Roman-30"/>
       <use x="159.033203125" xlink:href="#BitstreamVeraSans-Roman-32"/>
      </g>
     </g>
    </g>
    <g id="ytick_3">
     <g id="line2d_12">
      <g>
       <use style="stroke:#000000;stroke-width:0.5;" x="180.0" xlink:href="#mba8a68fa04" y="912.0"/>
      </g>
     </g>
     <g id="text_8">
      <!-- 0.04 -->
      <defs>
       <path d="M 37.796875 64.3125 
L 12.890625 25.390625 
L 37.796875 25.390625 
z
M 35.203125 72.90625 
L 47.609375 72.90625 
L 47.609375 25.390625 
L 58.015625 25.390625 
L 58.015625 17.1875 
L 47.609375 17.1875 
L 47.609375 0 
L 37.796875 0 
L 37.796875 17.1875 
L 4.890625 17.1875 
L 4.890625 26.703125 
z
" id="BitstreamVeraSans-Roman-34"/>
      </defs>
      <g transform="translate(109.203125 920.278125)scale(0.3 -0.3)">
       <use xlink:href="#BitstreamVeraSans-Roman-30"/>
       <use x="63.623046875" xlink:href="#BitstreamVeraSans-Roman-2e"/>
       <use x="95.41015625" xlink:href="#BitstreamVeraSans-Roman-30"/>
       <use x="159.033203125" xlink:href="#BitstreamVeraSans-Roman-34"/>
      </g>
     </g>
    </g>
    <g id="ytick_4">
     <g id="line2d_13">
      <g>
       <use style="stroke:#000000;stroke-width:0.5;" x="180.0" xlink:href="#mba8a68fa04" y="720.0"/>
      </g>
     </g>
     <g id="text_9">
      <!-- 0.06 -->
      <defs>
       <path d="M 33.015625 40.375 
Q 26.375 40.375 22.484375 35.828125 
Q 18.609375 31.296875 18.609375 23.390625 
Q 18.609375 15.53125 22.484375 10.953125 
Q 26.375 6.390625 33.015625 6.390625 
Q 39.65625 6.390625 43.53125 10.953125 
Q 47.40625 15.53125 47.40625 23.390625 
Q 47.40625 31.296875 43.53125 35.828125 
Q 39.65625 40.375 33.015625 40.375 
M 52.59375 71.296875 
L 52.59375 62.3125 
Q 48.875 64.0625 45.09375 64.984375 
Q 41.3125 65.921875 37.59375 65.921875 
Q 27.828125 65.921875 22.671875 59.328125 
Q 17.53125 52.734375 16.796875 39.40625 
Q 19.671875 43.65625 24.015625 45.921875 
Q 28.375 48.1875 33.59375 48.1875 
Q 44.578125 48.1875 50.953125 41.515625 
Q 57.328125 34.859375 57.328125 23.390625 
Q 57.328125 12.15625 50.6875 5.359375 
Q 44.046875 -1.421875 33.015625 -1.421875 
Q 20.359375 -1.421875 13.671875 8.265625 
Q 6.984375 17.96875 6.984375 36.375 
Q 6.984375 53.65625 15.1875 63.9375 
Q 23.390625 74.21875 37.203125 74.21875 
Q 40.921875 74.21875 44.703125 73.484375 
Q 48.484375 72.75 52.59375 71.296875 
" id="BitstreamVeraSans-Roman-36"/>
      </defs>
      <g transform="translate(109.203125 728.278125)scale(0.3 -0.3)">
       <use xlink:href="#BitstreamVeraSans-Roman-30"/>
       <use x="63.623046875" xlink:href="#BitstreamVeraSans-Roman-2e"/>
       <use x="95.41015625" xlink:href="#BitstreamVeraSans-Roman-30"/>
       <use x="159.033203125" xlink:href="#BitstreamVeraSans-Roman-36"/>
      </g>
     </g>
    </g>
    <g id="ytick_5">
     <g id="line2d_14">
      <g>
       <use style="stroke:#000000;stroke-width:0.5;" x="180.0" xlink:href="#mba8a68fa04" y="528.0"/>
      </g>
     </g>
     <g id="text_10">
      <!-- 0.08 -->
      <defs>
       <path d="M 31.78125 34.625 
Q 24.75 34.625 20.71875 30.859375 
Q 16.703125 27.09375 16.703125 20.515625 
Q 16.703125 13.921875 20.71875 10.15625 
Q 24.75 6.390625 31.78125 6.390625 
Q 38.8125 6.390625 42.859375 10.171875 
Q 46.921875 13.96875 46.921875 20.515625 
Q 46.921875 27.09375 42.890625 30.859375 
Q 38.875 34.625 31.78125 34.625 
M 21.921875 38.8125 
Q 15.578125 40.375 12.03125 44.71875 
Q 8.5 49.078125 8.5 55.328125 
Q 8.5 64.0625 14.71875 69.140625 
Q 20.953125 74.21875 31.78125 74.21875 
Q 42.671875 74.21875 48.875 69.140625 
Q 55.078125 64.0625 55.078125 55.328125 
Q 55.078125 49.078125 51.53125 44.71875 
Q 48 40.375 41.703125 38.8125 
Q 48.828125 37.15625 52.796875 32.3125 
Q 56.78125 27.484375 56.78125 20.515625 
Q 56.78125 9.90625 50.3125 4.234375 
Q 43.84375 -1.421875 31.78125 -1.421875 
Q 19.734375 -1.421875 13.25 4.234375 
Q 6.78125 9.90625 6.78125 20.515625 
Q 6.78125 27.484375 10.78125 32.3125 
Q 14.796875 37.15625 21.921875 38.8125 
M 18.3125 54.390625 
Q 18.3125 48.734375 21.84375 45.5625 
Q 25.390625 42.390625 31.78125 42.390625 
Q 38.140625 42.390625 41.71875 45.5625 
Q 45.3125 48.734375 45.3125 54.390625 
Q 45.3125 60.0625 41.71875 63.234375 
Q 38.140625 66.40625 31.78125 66.40625 
Q 25.390625 66.40625 21.84375 63.234375 
Q 18.3125 60.0625 18.3125 54.390625 
" id="BitstreamVeraSans-Roman-38"/>
      </defs>
      <g transform="translate(109.203125 536.278125)scale(0.3 -0.3)">
       <use xlink:href="#BitstreamVeraSans-Roman-30"/>
       <use x="63.623046875" xlink:href="#BitstreamVeraSans-Roman-2e"/>
       <use x="95.41015625" xlink:href="#BitstreamVeraSans-Roman-30"/>
       <use x="159.033203125" xlink:href="#BitstreamVeraSans-Roman-38"/>
      </g>
     </g>
    </g>
    <g id="ytick_6">
     <g id="line2d_15">
      <g>
       <use style="stroke:#000000;stroke-width:0.5;" x="180.0" xlink:href="#mba8a68fa04" y="336.0"/>
      </g>
     </g>
     <g id="text_11">
      <!-- 0.10 -->
      <g transform="translate(109.203125 344.278125)scale(0.3 -0.3)">
       <use xlink:href="#BitstreamVeraSans-Roman-30"/>
       <use x="63.623046875" xlink:href="#BitstreamVeraSans-Roman-2e"/>
       <use x="95.41015625" xlink:href="#BitstreamVeraSans-Roman-31"/>
       <use x="159.033203125" xlink:href="#BitstreamVeraSans-Roman-30"/>
      </g>
     </g>
    </g>
    <g id="ytick_7">
     <g id="line2d_16">
      <g>
       <use style="stroke:#000000;stroke-width:0.5;" x="180.0" xlink:href="#mba8a68fa04" y="144.0"/>
      </g>
     </g>
     <g id="text_12">
      <!-- 0.12 -->
      <g transform="translate(109.203125 152.278125)scale(0.3 -0.3)">
       <use xlink:href="#BitstreamVeraSans-Roman-30"/>
       <use x="63.623046875" xlink:href="#BitstreamVeraSans-Roman-2e"/>
       <use x="95.41015625" xlink:href="#BitstreamVeraSans-Roman-31"/>
       <use x="159.033203125" xlink:href="#BitstreamVeraSans-Roman-32"/>
      </g>
     </g>
    </g>
    <g id="text_13">
     <!-- T -->
     <defs>
      <path d="M -0.296875 72.90625 
L 61.375 72.90625 
L 61.375 64.59375 
L 35.5 64.59375 
L 35.5 0 
L 25.59375 0 
L 25.59375 64.59375 
L -0.296875 64.59375 
z
" id="BitstreamVeraSans-Roman-54"/>
     </defs>
     <g transform="translate(58.2090625 712.513125)scale(0.36 -0.36)">
      <use xlink:href="#BitstreamVeraSans-Roman-54"/>
     </g>
    </g>
   </g>
   <g id="text_14">
    <!-- Left y axis:Transmittance  -->
    <defs>
     <path d="M 9.8125 72.90625 
L 19.671875 72.90625 
L 19.671875 8.296875 
L 55.171875 8.296875 
L 55.171875 0 
L 9.8125 0 
z
" id="BitstreamVeraSans-Roman-4c"/>
     <path d="M 52 44.1875 
Q 55.375 50.25 60.0625 53.125 
Q 64.75 56 71.09375 56 
Q 79.640625 56 84.28125 50.015625 
Q 88.921875 44.046875 88.921875 33.015625 
L 88.921875 0 
L 79.890625 0 
L 79.890625 32.71875 
Q 79.890625 40.578125 77.09375 44.375 
Q 74.3125 48.1875 68.609375 48.1875 
Q 61.625 48.1875 57.5625 43.546875 
Q 53.515625 38.921875 53.515625 30.90625 
L 53.515625 0 
L 44.484375 0 
L 44.484375 32.71875 
Q 44.484375 40.625 41.703125 44.40625 
Q 38.921875 48.1875 33.109375 48.1875 
Q 26.21875 48.1875 22.15625 43.53125 
Q 18.109375 38.875 18.109375 30.90625 
L 18.109375 0 
L 9.078125 0 
L 9.078125 54.6875 
L 18.109375 54.6875 
L 18.109375 46.1875 
Q 21.1875 51.21875 25.484375 53.609375 
Q 29.78125 56 35.6875 56 
Q 41.65625 56 45.828125 52.96875 
Q 50 49.953125 52 44.1875 
" id="BitstreamVeraSans-Roman-6d"/>
     <path d="M 11.71875 12.40625 
L 22.015625 12.40625 
L 22.015625 0 
L 11.71875 0 
z
M 11.71875 51.703125 
L 22.015625 51.703125 
L 22.015625 39.3125 
L 11.71875 39.3125 
z
" id="BitstreamVeraSans-Roman-3a"/>
     <path d="M 9.421875 54.6875 
L 18.40625 54.6875 
L 18.40625 0 
L 9.421875 0 
z
M 9.421875 75.984375 
L 18.40625 75.984375 
L 18.40625 64.59375 
L 9.421875 64.59375 
z
" id="BitstreamVeraSans-Roman-69"/>
     <path d="M 54.890625 54.6875 
L 35.109375 28.078125 
L 55.90625 0 
L 45.3125 0 
L 29.390625 21.484375 
L 13.484375 0 
L 2.875 0 
L 24.125 28.609375 
L 4.6875 54.6875 
L 15.28125 54.6875 
L 29.78125 35.203125 
L 44.28125 54.6875 
z
" id="BitstreamVeraSans-Roman-78"/>
     <path d="M 32.171875 -5.078125 
Q 28.375 -14.84375 24.75 -17.8125 
Q 21.140625 -20.796875 15.09375 -20.796875 
L 7.90625 -20.796875 
L 7.90625 -13.28125 
L 13.1875 -13.28125 
Q 16.890625 -13.28125 18.9375 -11.515625 
Q 21 -9.765625 23.484375 -3.21875 
L 25.09375 0.875 
L 2.984375 54.6875 
L 12.5 54.6875 
L 29.59375 11.921875 
L 46.6875 54.6875 
L 56.203125 54.6875 
z
" id="BitstreamVeraSans-Roman-79"/>
     <path d="M 37.109375 75.984375 
L 37.109375 68.5 
L 28.515625 68.5 
Q 23.6875 68.5 21.796875 66.546875 
Q 19.921875 64.59375 19.921875 59.515625 
L 19.921875 54.6875 
L 34.71875 54.6875 
L 34.71875 47.703125 
L 19.921875 47.703125 
L 19.921875 0 
L 10.890625 0 
L 10.890625 47.703125 
L 2.296875 47.703125 
L 2.296875 54.6875 
L 10.890625 54.6875 
L 10.890625 58.5 
Q 10.890625 67.625 15.140625 71.796875 
Q 19.390625 75.984375 28.609375 75.984375 
z
" id="BitstreamVeraSans-Roman-66"/>
     <path d="M 34.28125 27.484375 
Q 23.390625 27.484375 19.1875 25 
Q 14.984375 22.515625 14.984375 16.5 
Q 14.984375 11.71875 18.140625 8.90625 
Q 21.296875 6.109375 26.703125 6.109375 
Q 34.1875 6.109375 38.703125 11.40625 
Q 43.21875 16.703125 43.21875 25.484375 
L 43.21875 27.484375 
z
M 52.203125 31.203125 
L 52.203125 0 
L 43.21875 0 
L 43.21875 8.296875 
Q 40.140625 3.328125 35.546875 0.953125 
Q 30.953125 -1.421875 24.3125 -1.421875 
Q 15.921875 -1.421875 10.953125 3.296875 
Q 6 8.015625 6 15.921875 
Q 6 25.140625 12.171875 29.828125 
Q 18.359375 34.515625 30.609375 34.515625 
L 43.21875 34.515625 
L 43.21875 35.40625 
Q 43.21875 41.609375 39.140625 45 
Q 35.0625 48.390625 27.6875 48.390625 
Q 23 48.390625 18.546875 47.265625 
Q 14.109375 46.140625 10.015625 43.890625 
L 10.015625 52.203125 
Q 14.9375 54.109375 19.578125 55.046875 
Q 24.21875 56 28.609375 56 
Q 40.484375 56 46.34375 49.84375 
Q 52.203125 43.703125 52.203125 31.203125 
" id="BitstreamVeraSans-Roman-61"/>
     <path d="M 44.28125 53.078125 
L 44.28125 44.578125 
Q 40.484375 46.53125 36.375 47.5 
Q 32.28125 48.484375 27.875 48.484375 
Q 21.1875 48.484375 17.84375 46.4375 
Q 14.5 44.390625 14.5 40.28125 
Q 14.5 37.15625 16.890625 35.375 
Q 19.28125 33.59375 26.515625 31.984375 
L 29.59375 31.296875 
Q 39.15625 29.25 43.1875 25.515625 
Q 47.21875 21.78125 47.21875 15.09375 
Q 47.21875 7.46875 41.1875 3.015625 
Q 35.15625 -1.421875 24.609375 -1.421875 
Q 20.21875 -1.421875 15.453125 -0.5625 
Q 10.6875 0.296875 5.421875 2 
L 5.421875 11.28125 
Q 10.40625 8.6875 15.234375 7.390625 
Q 20.0625 6.109375 24.8125 6.109375 
Q 31.15625 6.109375 34.5625 8.28125 
Q 37.984375 10.453125 37.984375 14.40625 
Q 37.984375 18.0625 35.515625 20.015625 
Q 33.0625 21.96875 24.703125 23.78125 
L 21.578125 24.515625 
Q 13.234375 26.265625 9.515625 29.90625 
Q 5.8125 33.546875 5.8125 39.890625 
Q 5.8125 47.609375 11.28125 51.796875 
Q 16.75 56 26.8125 56 
Q 31.78125 56 36.171875 55.265625 
Q 40.578125 54.546875 44.28125 53.078125 
" id="BitstreamVeraSans-Roman-73"/>
     <path d="M 48.78125 52.59375 
L 48.78125 44.1875 
Q 44.96875 46.296875 41.140625 47.34375 
Q 37.3125 48.390625 33.40625 48.390625 
Q 24.65625 48.390625 19.8125 42.84375 
Q 14.984375 37.3125 14.984375 27.296875 
Q 14.984375 17.28125 19.8125 11.734375 
Q 24.65625 6.203125 33.40625 6.203125 
Q 37.3125 6.203125 41.140625 7.25 
Q 44.96875 8.296875 48.78125 10.40625 
L 48.78125 2.09375 
Q 45.015625 0.34375 40.984375 -0.53125 
Q 36.96875 -1.421875 32.421875 -1.421875 
Q 20.0625 -1.421875 12.78125 6.34375 
Q 5.515625 14.109375 5.515625 27.296875 
Q 5.515625 40.671875 12.859375 48.328125 
Q 20.21875 56 33.015625 56 
Q 37.15625 56 41.109375 55.140625 
Q 45.0625 54.296875 48.78125 52.59375 
" id="BitstreamVeraSans-Roman-63"/>
    </defs>
    <g transform="translate(503.3390625 97.169125)scale(0.36 -0.36)">
     <use xlink:href="#BitstreamVeraSans-Roman-4c"/>
     <use x="55.697265625" xlink:href="#BitstreamVeraSans-Roman-65"/>
     <use x="117.220703125" xlink:href="#BitstreamVeraSans-Roman-66"/>
     <use x="152.41015625" xlink:href="#BitstreamVeraSans-Roman-74"/>
     <use x="191.619140625" xlink:href="#BitstreamVeraSans-Roman-20"/>
     <use x="223.40625" xlink:href="#BitstreamVeraSans-Roman-79"/>
     <use x="282.5859375" xlink:href="#BitstreamVeraSans-Roman-20"/>
     <use x="314.373046875" xlink:href="#BitstreamVeraSans-Roman-61"/>
     <use x="375.65234375" xlink:href="#BitstreamVeraSans-Roman-78"/>
     <use x="434.83203125" xlink:href="#BitstreamVeraSans-Roman-69"/>
     <use x="462.615234375" xlink:href="#BitstreamVeraSans-Roman-73"/>
     <use x="514.71484375" xlink:href="#BitstreamVeraSans-Roman-3a"/>
     <use x="548.40625" xlink:href="#BitstreamVeraSans-Roman-54"/>
     <use x="609.271484375" xlink:href="#BitstreamVeraSans-Roman-72"/>
     <use x="650.384765625" xlink:href="#BitstreamVeraSans-Roman-61"/>
     <use x="711.6640625" xlink:href="#BitstreamVeraSans-Roman-6e"/>
     <use x="775.04296875" xlink:href="#BitstreamVeraSans-Roman-73"/>
     <use x="827.142578125" xlink:href="#BitstreamVeraSans-Roman-6d"/>
     <use x="924.5546875" xlink:href="#BitstreamVeraSans-Roman-69"/>
     <use x="952.337890625" xlink:href="#BitstreamVeraSans-Roman-74"/>
     <use x="991.546875" xlink:href="#BitstreamVeraSans-Roman-74"/>
     <use x="1030.75585938" xlink:href="#BitstreamVeraSans-Roman-61"/>
     <use x="1092.03515625" xlink:href="#BitstreamVeraSans-Roman-6e"/>
     <use x="1155.4140625" xlink:href="#BitstreamVeraSans-Roman-63"/>
     <use x="1210.39453125" xlink:href="#BitstreamVeraSans-Roman-65"/>
     <use x="1271.91796875" xlink:href="#BitstreamVeraSans-Roman-20"/>
    </g>
    <!--  Right Y axis: |&lt;$M_1$&gt;-&lt;$M_2$&gt;| -->
    <defs>
     <path d="M 4.984375 0 
L 4.984375 2.6875 
Q 4.984375 2.9375 5.171875 3.21875 
L 20.703125 20.40625 
Q 24.21875 24.21875 26.40625 26.796875 
Q 28.609375 29.390625 30.75 32.765625 
Q 32.90625 36.140625 34.15625 39.625 
Q 35.40625 43.109375 35.40625 47.015625 
Q 35.40625 51.125 33.890625 54.859375 
Q 32.375 58.59375 29.375 60.84375 
Q 26.375 63.09375 22.125 63.09375 
Q 17.78125 63.09375 14.3125 60.46875 
Q 10.84375 57.859375 9.421875 53.71875 
Q 9.8125 53.8125 10.5 53.8125 
Q 12.75 53.8125 14.328125 52.296875 
Q 15.921875 50.78125 15.921875 48.390625 
Q 15.921875 46.09375 14.328125 44.5 
Q 12.75 42.921875 10.5 42.921875 
Q 8.15625 42.921875 6.5625 44.546875 
Q 4.984375 46.1875 4.984375 48.390625 
Q 4.984375 52.15625 6.390625 55.4375 
Q 7.8125 58.734375 10.46875 61.296875 
Q 13.140625 63.875 16.484375 65.234375 
Q 19.828125 66.609375 23.578125 66.609375 
Q 29.296875 66.609375 34.21875 64.1875 
Q 39.15625 61.765625 42.03125 57.34375 
Q 44.921875 52.9375 44.921875 47.015625 
Q 44.921875 42.671875 43.015625 38.765625 
Q 41.109375 34.859375 38.125 31.65625 
Q 35.15625 28.46875 30.515625 24.40625 
Q 25.875 20.359375 24.421875 19 
L 13.09375 8.109375 
L 22.703125 8.109375 
Q 29.78125 8.109375 34.546875 8.21875 
Q 39.3125 8.34375 39.59375 8.59375 
Q 40.765625 9.859375 42 17.828125 
L 44.921875 17.828125 
L 42.09375 0 
z
" id="Cmr10-32"/>
     <path d="M 9.28125 0 
L 9.28125 3.515625 
Q 21.78125 3.515625 21.78125 6.6875 
L 21.78125 59.1875 
Q 16.609375 56.6875 8.6875 56.6875 
L 8.6875 60.203125 
Q 20.953125 60.203125 27.203125 66.609375 
L 28.609375 66.609375 
Q 28.953125 66.609375 29.265625 66.328125 
Q 29.59375 66.0625 29.59375 65.71875 
L 29.59375 6.6875 
Q 29.59375 3.515625 42.09375 3.515625 
L 42.09375 0 
z
" id="Cmr10-31"/>
     <path d="M 5.078125 0 
Q 4.109375 0 4.109375 1.3125 
Q 4.15625 1.5625 4.296875 2.140625 
Q 4.4375 2.734375 4.6875 3.125 
Q 4.9375 3.515625 5.421875 3.515625 
Q 14.9375 3.515625 16.5 9.625 
L 29.5 61.8125 
Q 29.6875 62.796875 29.6875 63.1875 
Q 29.6875 64.265625 28.515625 64.40625 
Q 26.609375 64.796875 21.296875 64.796875 
Q 20.3125 64.796875 20.3125 66.109375 
Q 20.359375 66.359375 20.5 66.96875 
Q 20.65625 67.578125 20.921875 67.9375 
Q 21.1875 68.3125 21.578125 68.3125 
L 39.203125 68.3125 
Q 40.328125 68.3125 40.484375 67.1875 
L 48.296875 9.90625 
L 84.71875 67.1875 
Q 85.40625 68.3125 86.625 68.3125 
L 103.609375 68.3125 
Q 104.59375 68.3125 104.59375 67 
Q 104.546875 66.75 104.390625 66.140625 
Q 104.25 65.53125 103.984375 65.15625 
Q 103.71875 64.796875 103.328125 64.796875 
Q 97.21875 64.796875 94.828125 64.109375 
Q 93.5 63.671875 92.921875 61.375 
L 79.203125 6.5 
Q 79 5.515625 79 5.078125 
Q 79 4.6875 79.125 4.421875 
Q 79.25 4.15625 79.46875 4.078125 
Q 79.6875 4 80.171875 3.90625 
Q 82.078125 3.515625 87.40625 3.515625 
Q 88.375 3.515625 88.375 2.203125 
Q 88.03125 0.78125 87.828125 0.390625 
Q 87.640625 0 86.71875 0 
L 60.59375 0 
Q 59.625 0 59.625 1.3125 
Q 59.671875 1.5625 59.8125 2.171875 
Q 59.96875 2.78125 60.234375 3.140625 
Q 60.5 3.515625 60.890625 3.515625 
Q 67 3.515625 69.390625 4.203125 
Q 70.703125 4.640625 71.296875 6.890625 
L 85.6875 64.796875 
L 45.3125 1.125 
Q 44.734375 0 43.3125 0 
Q 42.046875 0 41.890625 1.125 
L 33.40625 64.015625 
L 19.671875 9.1875 
Q 19.578125 8.9375 19.53125 8.5625 
Q 19.484375 8.203125 19.390625 7.71875 
Q 19.390625 5.125 21.65625 4.3125 
Q 23.921875 3.515625 27.203125 3.515625 
Q 28.21875 3.515625 28.21875 2.203125 
Q 27.875 0.875 27.65625 0.4375 
Q 27.4375 0 26.515625 0 
z
" id="Cmmi10-4d"/>
     <path d="M 21 76.421875 
L 21 -23.578125 
L 12.703125 -23.578125 
L 12.703125 76.421875 
z
" id="BitstreamVeraSans-Roman-7c"/>
     <path d="M 73.1875 49.21875 
L 22.796875 31.296875 
L 73.1875 13.484375 
L 73.1875 4.59375 
L 10.59375 27.296875 
L 10.59375 35.40625 
L 73.1875 58.109375 
z
" id="BitstreamVeraSans-Roman-3c"/>
     <path d="M 44.390625 34.1875 
Q 47.5625 33.109375 50.5625 29.59375 
Q 53.5625 26.078125 56.59375 19.921875 
L 66.609375 0 
L 56 0 
L 46.6875 18.703125 
Q 43.0625 26.03125 39.671875 28.421875 
Q 36.28125 30.8125 30.421875 30.8125 
L 19.671875 30.8125 
L 19.671875 0 
L 9.8125 0 
L 9.8125 72.90625 
L 32.078125 72.90625 
Q 44.578125 72.90625 50.734375 67.671875 
Q 56.890625 62.453125 56.890625 51.90625 
Q 56.890625 45.015625 53.6875 40.46875 
Q 50.484375 35.9375 44.390625 34.1875 
M 19.671875 64.796875 
L 19.671875 38.921875 
L 32.078125 38.921875 
Q 39.203125 38.921875 42.84375 42.21875 
Q 46.484375 45.515625 46.484375 51.90625 
Q 46.484375 58.296875 42.84375 61.546875 
Q 39.203125 64.796875 32.078125 64.796875 
z
" id="BitstreamVeraSans-Roman-52"/>
     <path d="M 54.890625 33.015625 
L 54.890625 0 
L 45.90625 0 
L 45.90625 32.71875 
Q 45.90625 40.484375 42.875 44.328125 
Q 39.84375 48.1875 33.796875 48.1875 
Q 26.515625 48.1875 22.3125 43.546875 
Q 18.109375 38.921875 18.109375 30.90625 
L 18.109375 0 
L 9.078125 0 
L 9.078125 75.984375 
L 18.109375 75.984375 
L 18.109375 46.1875 
Q 21.34375 51.125 25.703125 53.5625 
Q 30.078125 56 35.796875 56 
Q 45.21875 56 50.046875 50.171875 
Q 54.890625 44.34375 54.890625 33.015625 
" id="BitstreamVeraSans-Roman-68"/>
     <path d="M 10.59375 49.21875 
L 10.59375 58.109375 
L 73.1875 35.40625 
L 73.1875 27.296875 
L 10.59375 4.59375 
L 10.59375 13.484375 
L 60.890625 31.296875 
z
" id="BitstreamVeraSans-Roman-3e"/>
     <path d="M -0.203125 72.90625 
L 10.40625 72.90625 
L 30.609375 42.921875 
L 50.6875 72.90625 
L 61.28125 72.90625 
L 35.5 34.71875 
L 35.5 0 
L 25.59375 0 
L 25.59375 34.71875 
z
" id="BitstreamVeraSans-Roman-59"/>
     <path d="M 45.40625 27.984375 
Q 45.40625 37.75 41.375 43.109375 
Q 37.359375 48.484375 30.078125 48.484375 
Q 22.859375 48.484375 18.828125 43.109375 
Q 14.796875 37.75 14.796875 27.984375 
Q 14.796875 18.265625 18.828125 12.890625 
Q 22.859375 7.515625 30.078125 7.515625 
Q 37.359375 7.515625 41.375 12.890625 
Q 45.40625 18.265625 45.40625 27.984375 
M 54.390625 6.78125 
Q 54.390625 -7.171875 48.1875 -13.984375 
Q 42 -20.796875 29.203125 -20.796875 
Q 24.46875 -20.796875 20.265625 -20.09375 
Q 16.0625 -19.390625 12.109375 -17.921875 
L 12.109375 -9.1875 
Q 16.0625 -11.328125 19.921875 -12.34375 
Q 23.78125 -13.375 27.78125 -13.375 
Q 36.625 -13.375 41.015625 -8.765625 
Q 45.40625 -4.15625 45.40625 5.171875 
L 45.40625 9.625 
Q 42.625 4.78125 38.28125 2.390625 
Q 33.9375 0 27.875 0 
Q 17.828125 0 11.671875 7.65625 
Q 5.515625 15.328125 5.515625 27.984375 
Q 5.515625 40.671875 11.671875 48.328125 
Q 17.828125 56 27.875 56 
Q 33.9375 56 38.28125 53.609375 
Q 42.625 51.21875 45.40625 46.390625 
L 45.40625 54.6875 
L 54.390625 54.6875 
z
" id="BitstreamVeraSans-Roman-67"/>
     <path d="M 4.890625 31.390625 
L 31.203125 31.390625 
L 31.203125 23.390625 
L 4.890625 23.390625 
z
" id="BitstreamVeraSans-Roman-2d"/>
    </defs>
    <g transform="translate(485.64 137.92)scale(0.36 -0.36)">
     <use transform="translate(0.0 0.578125)" xlink:href="#BitstreamVeraSans-Roman-20"/>
     <use transform="translate(31.787109375 0.578125)" xlink:href="#BitstreamVeraSans-Roman-52"/>
     <use transform="translate(101.26953125 0.578125)" xlink:href="#BitstreamVeraSans-Roman-69"/>
     <use transform="translate(129.052734375 0.578125)" xlink:href="#BitstreamVeraSans-Roman-67"/>
     <use transform="translate(192.529296875 0.578125)" xlink:href="#BitstreamVeraSans-Roman-68"/>
     <use transform="translate(255.908203125 0.578125)" xlink:href="#BitstreamVeraSans-Roman-74"/>
     <use transform="translate(295.1171875 0.578125)" xlink:href="#BitstreamVeraSans-Roman-20"/>
     <use transform="translate(326.904296875 0.578125)" xlink:href="#BitstreamVeraSans-Roman-59"/>
     <use transform="translate(387.98828125 0.578125)" xlink:href="#BitstreamVeraSans-Roman-20"/>
     <use transform="translate(419.775390625 0.578125)" xlink:href="#BitstreamVeraSans-Roman-61"/>
     <use transform="translate(481.0546875 0.578125)" xlink:href="#BitstreamVeraSans-Roman-78"/>
     <use transform="translate(540.234375 0.578125)" xlink:href="#BitstreamVeraSans-Roman-69"/>
     <use transform="translate(568.017578125 0.578125)" xlink:href="#BitstreamVeraSans-Roman-73"/>
     <use transform="translate(620.1171875 0.578125)" xlink:href="#BitstreamVeraSans-Roman-3a"/>
     <use transform="translate(653.80859375 0.578125)" xlink:href="#BitstreamVeraSans-Roman-20"/>
     <use transform="translate(685.595703125 0.578125)" xlink:href="#BitstreamVeraSans-Roman-7c"/>
     <use transform="translate(719.287109375 0.578125)" xlink:href="#BitstreamVeraSans-Roman-3c"/>
     <use transform="translate(803.076171875 0.578125)" xlink:href="#Cmmi10-4d"/>
     <use transform="translate(900.09765625 -16.428125)scale(0.7)" xlink:href="#Cmr10-31"/>
     <use transform="translate(941.475 0.578125)" xlink:href="#BitstreamVeraSans-Roman-3e"/>
     <use transform="translate(1025.2640625 0.578125)" xlink:href="#BitstreamVeraSans-Roman-2d"/>
     <use transform="translate(1061.34804687 0.578125)" xlink:href="#BitstreamVeraSans-Roman-3c"/>
     <use transform="translate(1145.13710937 0.578125)" xlink:href="#Cmmi10-4d"/>
     <use transform="translate(1242.15859375 -16.428125)scale(0.7)" xlink:href="#Cmr10-32"/>
     <use transform="translate(1283.5359375 0.578125)" xlink:href="#BitstreamVeraSans-Roman-3e"/>
     <use transform="translate(1367.325 0.578125)" xlink:href="#BitstreamVeraSans-Roman-7c"/>
    </g>
   </g>
   <g id="legend_1">
    <g id="patch_7">
     <path d="M 738 186.4275 
L 839.05875 186.4275 
L 839.05875 144 
L 738 144 
z
" style="fill:#ffffff;stroke:#000000;stroke-linejoin:miter;"/>
    </g>
    <g id="line2d_17">
     <path d="M 754.8 163.43625 
L 788.4 163.43625 
" style="fill:none;stroke:#000000;stroke-linecap:square;stroke-width:5.0;"/>
    </g>
    <g id="line2d_18"/>
    <g id="text_15">
     <!-- T -->
     <g transform="translate(814.8 171.83625)scale(0.24 -0.24)">
      <use xlink:href="#BitstreamVeraSans-Roman-54"/>
     </g>
    </g>
   </g>
  </g>
  <g id="axes_2">
   <g id="line2d_19">
    <path clip-path="url(#p3e7b3f753a)" d="M 180 145.526978 
L 185.60804 147.315769 
L 191.21608 147.764004 
L 196.824121 148.695568 
L 202.432161 150.056135 
L 208.040201 150.224415 
L 213.648241 149.465136 
L 219.256281 150.080301 
L 224.864322 153.756613 
L 230.472362 159.006301 
L 236.080402 162.906091 
L 241.688442 164.413228 
L 247.296482 164.889296 
L 252.904523 166.091116 
L 258.512563 168.579121 
L 264.120603 171.477748 
L 269.728643 173.419117 
L 275.336683 173.694393 
L 280.944724 172.679848 
L 286.552764 171.52029 
L 292.160804 171.619384 
L 297.768844 174.300834 
L 303.376884 180.43297 
L 308.984925 189.826243 
L 314.592965 200.890036 
L 320.201005 211.144436 
L 331.417085 227.433443 
L 337.025126 240.098226 
L 342.633166 258.923451 
L 348.241206 280.232533 
L 353.849246 296.910648 
L 359.457286 303.525758 
L 365.065327 302.820537 
L 370.673367 309.025168 
L 376.281407 338.542604 
L 381.889447 393.171555 
L 393.105528 525.933722 
L 398.713568 583.346013 
L 404.321608 630.569679 
L 409.929648 668.47333 
L 415.537688 698.866407 
L 421.145729 723.683524 
L 426.753769 744.658948 
L 432.361809 763.208111 
L 437.969849 780.394177 
L 449.18593 813.294322 
L 460.40201 846.214382 
L 471.61809 879.820572 
L 494.050251 947.720972 
L 499.658291 964.085401 
L 505.266332 979.877111 
L 510.874372 994.957903 
L 516.482412 1009.224527 
L 522.090452 1022.611586 
L 527.698492 1035.08941 
L 533.306533 1046.658791 
L 538.914573 1057.344319 
L 544.522613 1067.187563 
L 550.130653 1076.240907 
L 555.738693 1084.562448 
L 561.346734 1092.212072 
L 566.954774 1099.248658 
L 572.562814 1105.728254 
L 578.170854 1111.703025 
L 583.778894 1117.220795 
L 589.386935 1122.324986 
L 594.994975 1127.05482 
L 600.603015 1131.445662 
L 606.211055 1135.52942 
L 611.819095 1139.334933 
L 617.427136 1142.888331 
L 623.035176 1146.213318 
L 628.643216 1149.331416 
L 634.251256 1152.262133 
L 639.859296 1155.023104 
L 645.467337 1157.630202 
L 651.075377 1160.097644 
L 662.291457 1164.662935 
L 673.507538 1168.805149 
L 684.723618 1172.595486 
L 695.939698 1176.097996 
L 707.155779 1179.374796 
L 723.979899 1183.994365 
L 746.41206 1189.826147 
L 768.844221 1195.395987 
L 785.668342 1199.365317 
L 802.492462 1203.106316 
L 819.316583 1206.591135 
L 836.140704 1209.80904 
L 852.964824 1212.758171 
L 869.788945 1215.440523 
L 886.613065 1217.861176 
L 903.437186 1220.029519 
L 920.261307 1221.960842 
L 937.085427 1223.677453 
L 959.517588 1225.683427 
L 981.949749 1227.440886 
L 1009.98995 1229.409567 
L 1054.854271 1232.305097 
L 1161.407035 1239.1141 
L 1296 1248.037825 
L 1296 1248.037825 
" style="fill:none;stroke:#0000ff;stroke-linecap:square;stroke-width:5.0;"/>
   </g>
   <g id="line2d_20">
    <path clip-path="url(#p3e7b3f753a)" d="M 180 146.359063 
L 185.60804 147.495553 
L 191.21608 147.472452 
L 202.432161 148.48045 
L 208.040201 149.073656 
L 213.648241 150.339569 
L 219.256281 152.677677 
L 224.864322 156.60974 
L 230.472362 161.176862 
L 236.080402 164.026551 
L 241.688442 164.387053 
L 247.296482 163.903138 
L 252.904523 164.532322 
L 258.512563 166.752399 
L 264.120603 169.435645 
L 269.728643 171.110148 
L 275.336683 171.224707 
L 280.944724 170.394827 
L 286.552764 169.872957 
L 292.160804 170.863601 
L 297.768844 173.999025 
L 303.376884 179.102145 
L 308.984925 185.549447 
L 314.592965 193.089966 
L 320.201005 201.980974 
L 325.809045 212.545639 
L 331.417085 224.799129 
L 337.025126 238.70838 
L 342.633166 255.091871 
L 348.241206 274.515718 
L 353.849246 295.325454 
L 359.457286 313.535029 
L 365.065327 327.026674 
L 370.673367 341.556817 
L 376.281407 366.888194 
L 381.889447 404.847156 
L 387.497487 448.609769 
L 393.105528 491.062109 
L 398.713568 528.611112 
L 404.321608 560.382504 
L 409.929648 586.787625 
L 415.537688 608.676775 
L 421.145729 626.955089 
L 426.753769 642.425425 
L 432.361809 655.730711 
L 437.969849 667.344971 
L 443.577889 677.596883 
L 449.18593 686.717505 
L 454.79397 694.89863 
L 460.40201 702.342222 
L 466.01005 709.283597 
L 477.226131 722.706384 
L 482.834171 729.689616 
L 488.442211 737.13774 
L 494.050251 745.214616 
L 499.658291 754.039105 
L 505.266332 763.675493 
L 510.874372 774.122805 
L 516.482412 785.309999 
L 522.090452 797.102102 
L 533.306533 821.750397 
L 544.522613 846.472132 
L 550.130653 858.423658 
L 555.738693 869.936577 
L 561.346734 880.933365 
L 566.954774 891.370156 
L 572.562814 901.231249 
L 578.170854 910.523125 
L 583.778894 919.268768 
L 589.386935 927.502671 
L 594.994975 935.266624 
L 600.603015 942.606217 
L 606.211055 949.567935 
L 611.819095 956.196694 
L 617.427136 962.533724 
L 623.035176 968.614727 
L 628.643216 974.468321 
L 634.251256 980.114823 
L 639.859296 985.565444 
L 645.467337 990.822002 
L 651.075377 995.877234 
L 656.683417 1000.715765 
L 662.291457 1005.315702 
L 667.899497 1009.650782 
L 673.507538 1013.692872 
L 679.115578 1017.414569 
L 684.723618 1020.791595 
L 690.331658 1023.804699 
L 695.939698 1026.44091 
L 701.547739 1028.694116 
L 707.155779 1030.565186 
L 712.763819 1032.061912 
L 718.371859 1033.199066 
L 723.979899 1033.998656 
L 729.58794 1034.49028 
L 735.19598 1034.71126 
L 740.80402 1034.706233 
L 746.41206 1034.525977 
L 757.628141 1033.861387 
L 768.844221 1033.16149 
L 774.452261 1032.923999 
L 780.060302 1032.815947 
L 785.668342 1032.86833 
L 791.276382 1033.103977 
L 796.884422 1033.537975 
L 802.492462 1034.178496 
L 808.100503 1035.027869 
L 813.708543 1036.083742 
L 819.316583 1037.340221 
L 824.924623 1038.788897 
L 830.532663 1040.419696 
L 836.140704 1042.22155 
L 841.748744 1044.182863 
L 847.356784 1046.291826 
L 852.964824 1048.536589 
L 864.180905 1053.386343 
L 875.396985 1058.638355 
L 886.613065 1064.199658 
L 903.437186 1072.921364 
L 942.693467 1093.578463 
L 953.909548 1099.251427 
L 965.125628 1104.736847 
L 976.341709 1110.009286 
L 987.557789 1115.053414 
L 998.773869 1119.86058 
L 1009.98995 1124.425829 
L 1021.20603 1128.746054 
L 1032.422111 1132.819321 
L 1043.638191 1136.644944 
L 1054.854271 1140.223852 
L 1066.070352 1143.558918 
L 1077.286432 1146.655086 
L 1088.502513 1149.519271 
L 1099.718593 1152.160045 
L 1110.934673 1154.587164 
L 1122.150754 1156.811013 
L 1133.366834 1158.842079 
L 1144.582915 1160.690537 
L 1155.798995 1162.366044 
L 1167.015075 1163.877754 
L 1183.839196 1165.857627 
L 1200.663317 1167.519686 
L 1217.487437 1168.898133 
L 1234.311558 1170.032849 
L 1251.135678 1170.969936 
L 1273.567839 1172.000417 
L 1296 1172.894977 
L 1296 1172.894977 
" style="fill:none;stroke:#008000;stroke-linecap:square;stroke-width:5.0;"/>
   </g>
   <g id="line2d_21">
    <path clip-path="url(#p3e7b3f753a)" d="M 180 146.281295 
L 185.60804 147.662277 
L 191.21608 149.491691 
L 196.824121 149.741825 
L 202.432161 149.701034 
L 208.040201 150.930445 
L 213.648241 153.562061 
L 219.256281 156.989075 
L 230.472362 165.197502 
L 236.080402 167.265789 
L 241.688442 166.576816 
L 247.296482 164.690538 
L 252.904523 164.014083 
L 258.512563 165.904409 
L 269.728643 173.600975 
L 275.336683 176.102687 
L 280.944724 177.028598 
L 286.552764 177.278482 
L 292.160804 178.265249 
L 297.768844 181.260362 
L 303.376884 186.560724 
L 308.984925 192.531544 
L 314.592965 196.170711 
L 320.201005 196.31869 
L 325.809045 196.607319 
L 331.417085 203.389492 
L 337.025126 218.760554 
L 342.633166 239.646383 
L 348.241206 265.498573 
L 353.849246 298.116604 
L 365.065327 371.967001 
L 376.281407 441.049391 
L 381.889447 476.8028 
L 387.497487 510.941966 
L 393.105528 540.809525 
L 398.713568 565.44383 
L 404.321608 585.063815 
L 409.929648 600.316621 
L 415.537688 611.898311 
L 421.145729 620.428537 
L 426.753769 626.427072 
L 432.361809 630.321881 
L 437.969849 632.466784 
L 443.577889 633.164988 
L 449.18593 632.696613 
L 454.79397 631.343878 
L 460.40201 629.404995 
L 471.61809 625.009029 
L 477.226131 623.141822 
L 482.834171 621.837495 
L 488.442211 621.309704 
L 494.050251 621.742123 
L 499.658291 623.287076 
L 505.266332 626.054776 
L 510.874372 630.097656 
L 516.482412 635.398269 
L 522.090452 641.867718 
L 527.698492 649.356587 
L 533.306533 657.67531 
L 538.914573 666.618228 
L 544.522613 675.985741 
L 578.170854 733.487726 
L 589.386935 751.628369 
L 600.603015 769.032264 
L 606.211055 777.446687 
L 611.819095 785.658673 
L 617.427136 793.656299 
L 623.035176 801.424725 
L 628.643216 808.946504 
L 634.251256 816.201907 
L 639.859296 823.169249 
L 645.467337 829.825309 
L 651.075377 836.145897 
L 656.683417 842.106595 
L 662.291457 847.68362 
L 667.899497 852.854665 
L 673.507538 857.599572 
L 679.115578 861.900758 
L 684.723618 865.743427 
L 690.331658 869.115823 
L 695.939698 872.009801 
L 701.547739 874.421928 
L 707.155779 876.355035 
L 712.763819 877.819888 
L 718.371859 878.836478 
L 723.979899 879.434582 
L 729.58794 879.653455 
L 735.19598 879.540794 
L 740.80402 879.151222 
L 746.41206 878.544493 
L 757.628141 876.932703 
L 768.844221 875.211918 
L 774.452261 874.458666 
L 780.060302 873.845296 
L 785.668342 873.414156 
L 791.276382 873.199405 
L 796.884422 873.226765 
L 802.492462 873.513735 
L 808.100503 874.070202 
L 813.708543 874.899346 
L 819.316583 875.998696 
L 824.924623 877.361247 
L 830.532663 878.976515 
L 836.140704 880.831479 
L 841.748744 882.911363 
L 847.356784 885.200253 
L 852.964824 887.681557 
L 858.572864 890.338341 
L 864.180905 893.153565 
L 875.396985 899.191635 
L 886.613065 905.663003 
L 897.829146 912.441344 
L 914.653266 922.931352 
L 942.693467 940.462341 
L 953.909548 947.266435 
L 965.125628 953.866416 
L 976.341709 960.221722 
L 987.557789 966.300014 
L 998.773869 972.074476 
L 1009.98995 977.522668 
L 1021.20603 982.627347 
L 1032.422111 987.378586 
L 1043.638191 991.775984 
L 1054.854271 995.82988 
L 1066.070352 999.56103 
L 1077.286432 1002.998735 
L 1088.502513 1006.177852 
L 1099.718593 1009.135281 
L 1110.934673 1011.906493 
L 1127.758794 1015.780437 
L 1144.582915 1019.380076 
L 1161.407035 1022.742755 
L 1178.231156 1025.870428 
L 1195.055276 1028.740954 
L 1211.879397 1031.322909 
L 1228.703518 1033.589624 
L 1245.527638 1035.529378 
L 1262.351759 1037.1504 
L 1279.175879 1038.480858 
L 1296 1039.564915 
L 1296 1039.564915 
" style="fill:none;stroke:#ff0000;stroke-linecap:square;stroke-width:5.0;"/>
   </g>
   <g id="line2d_22">
    <path clip-path="url(#p3e7b3f753a)" d="M 180 146.56062 
L 185.60804 148.184574 
L 191.21608 149.777928 
L 196.824121 150.678519 
L 202.432161 151.14512 
L 208.040201 152.242687 
L 219.256281 155.744232 
L 224.864322 158.635447 
L 230.472362 163.570565 
L 236.080402 168.249832 
L 241.688442 170.460256 
L 247.296482 170.774799 
L 252.904523 171.304015 
L 258.512563 173.616849 
L 264.120603 177.567081 
L 269.728643 181.667055 
L 275.336683 184.467804 
L 280.944724 185.502997 
L 286.552764 185.232759 
L 292.160804 184.516146 
L 297.768844 184.151789 
L 303.376884 184.720706 
L 308.984925 186.706314 
L 314.592965 190.212978 
L 320.201005 194.268426 
L 325.809045 199.213871 
L 331.417085 209.203217 
L 337.025126 227.088804 
L 342.633166 250.540478 
L 348.241206 277.735355 
L 353.849246 308.530718 
L 359.457286 340.427425 
L 365.065327 369.947863 
L 370.673367 397.321607 
L 376.281407 425.656324 
L 387.497487 485.435949 
L 393.105528 512.675713 
L 398.713568 536.796983 
L 404.321608 557.907106 
L 409.929648 576.179664 
L 415.537688 591.588637 
L 421.145729 603.993057 
L 426.753769 613.329199 
L 432.361809 619.747148 
L 437.969849 623.657003 
L 443.577889 625.708352 
L 449.18593 626.710065 
L 454.79397 627.47324 
L 460.40201 628.602604 
L 466.01005 630.354105 
L 471.61809 632.671176 
L 477.226131 635.357611 
L 488.442211 641.220431 
L 499.658291 647.458787 
L 505.266332 650.766794 
L 510.874372 654.234362 
L 516.482412 657.8669 
L 527.698492 665.546425 
L 550.130653 681.367702 
L 561.346734 688.938696 
L 572.562814 696.22047 
L 611.819095 721.375624 
L 639.859296 739.868511 
L 684.723618 769.563598 
L 690.331658 772.978768 
L 695.939698 776.167585 
L 701.547739 779.057904 
L 707.155779 781.580549 
L 712.763819 783.676351 
L 718.371859 785.301715 
L 723.979899 786.431823 
L 729.58794 787.061354 
L 735.19598 787.203225 
L 740.80402 786.886184 
L 746.41206 786.151999 
L 752.020101 785.052706 
L 757.628141 783.648126 
L 763.236181 782.003616 
L 774.452261 778.271416 
L 785.668342 774.41186 
L 791.276382 772.599326 
L 796.884422 770.943658 
L 802.492462 769.495744 
L 808.100503 768.298797 
L 813.708543 767.387677 
L 819.316583 766.78849 
L 824.924623 766.518459 
L 830.532663 766.586087 
L 836.140704 766.991632 
L 841.748744 767.727868 
L 847.356784 768.781107 
L 852.964824 770.132383 
L 858.572864 771.758728 
L 864.180905 773.63444 
L 869.788945 775.732259 
L 875.396985 778.024392 
L 881.005025 780.483357 
L 892.221106 785.797058 
L 903.437186 791.479603 
L 920.261307 800.342221 
L 942.693467 812.151057 
L 953.909548 817.853226 
L 965.125628 823.337272 
L 976.341709 828.555527 
L 987.557789 833.4652 
L 998.773869 838.024509 
L 1009.98995 842.192508 
L 1021.20603 845.932676 
L 1032.422111 849.218626 
L 1038.030151 850.687166 
L 1043.638191 852.039506 
L 1054.854271 854.403055 
L 1066.070352 856.335385 
L 1077.286432 857.877737 
L 1088.502513 859.081424 
L 1099.718593 860.002538 
L 1110.934673 860.697801 
L 1127.758794 861.437087 
L 1155.798995 862.29163 
L 1178.231156 863.077327 
L 1195.055276 863.955455 
L 1206.271357 864.740551 
L 1217.487437 865.70991 
L 1228.703518 866.874063 
L 1239.919598 868.235347 
L 1251.135678 869.789733 
L 1262.351759 871.528809 
L 1273.567839 873.441446 
L 1284.78392 875.514884 
L 1296 877.735206 
L 1296 877.735206 
" style="fill:none;stroke:#00bfbf;stroke-linecap:square;stroke-width:5.0;"/>
   </g>
   <g id="line2d_23">
    <path clip-path="url(#p3e7b3f753a)" d="M 180 298.338735 
L 1296 298.338735 
L 1296 298.338735 
" style="fill:none;stroke:#bfbf00;stroke-dasharray:6.000000,6.000000;stroke-dashoffset:0.0;stroke-width:5.0;"/>
   </g>
   <g id="patch_8">
    <path d="M 180 144 
L 1296 144 
" style="fill:none;stroke:#000000;stroke-linecap:square;stroke-linejoin:miter;"/>
   </g>
   <g id="patch_9">
    <path d="M 1296 1296 
L 1296 144 
" style="fill:none;stroke:#000000;stroke-linecap:square;stroke-linejoin:miter;"/>
   </g>
   <g id="patch_10">
    <path d="M 180 1296 
L 1296 1296 
" style="fill:none;stroke:#000000;stroke-linecap:square;stroke-linejoin:miter;"/>
   </g>
   <g id="patch_11">
    <path d="M 180 1296 
L 180 144 
" style="fill:none;stroke:#000000;stroke-linecap:square;stroke-linejoin:miter;"/>
   </g>
   <g id="matplotlib.axis_3">
    <g id="ytick_8">
     <g id="line2d_24">
      <defs>
       <path d="M 0 0 
L -4 0 
" id="m3440d417cb" style="stroke:#000000;stroke-width:0.5;"/>
      </defs>
      <g>
       <use style="stroke:#000000;stroke-width:0.5;" x="1296.0" xlink:href="#m3440d417cb" y="1296.0"/>
      </g>
     </g>
     <g id="text_16">
      <!-- 0.0 -->
      <g transform="translate(1300.0 1304.278125)scale(0.3 -0.3)">
       <use xlink:href="#BitstreamVeraSans-Roman-30"/>
       <use x="63.623046875" xlink:href="#BitstreamVeraSans-Roman-2e"/>
       <use x="95.41015625" xlink:href="#BitstreamVeraSans-Roman-30"/>
      </g>
     </g>
    </g>
    <g id="ytick_9">
     <g id="line2d_25">
      <g>
       <use style="stroke:#000000;stroke-width:0.5;" x="1296.0" xlink:href="#m3440d417cb" y="1152.0"/>
      </g>
     </g>
     <g id="text_17">
      <!-- 0.5 -->
      <g transform="translate(1300.0 1160.278125)scale(0.3 -0.3)">
       <use xlink:href="#BitstreamVeraSans-Roman-30"/>
       <use x="63.623046875" xlink:href="#BitstreamVeraSans-Roman-2e"/>
       <use x="95.41015625" xlink:href="#BitstreamVeraSans-Roman-35"/>
      </g>
     </g>
    </g>
    <g id="ytick_10">
     <g id="line2d_26">
      <g>
       <use style="stroke:#000000;stroke-width:0.5;" x="1296.0" xlink:href="#m3440d417cb" y="1008.0"/>
      </g>
     </g>
     <g id="text_18">
      <!-- 1.0 -->
      <g transform="translate(1300.0 1016.278125)scale(0.3 -0.3)">
       <use xlink:href="#BitstreamVeraSans-Roman-31"/>
       <use x="63.623046875" xlink:href="#BitstreamVeraSans-Roman-2e"/>
       <use x="95.41015625" xlink:href="#BitstreamVeraSans-Roman-30"/>
      </g>
     </g>
    </g>
    <g id="ytick_11">
     <g id="line2d_27">
      <g>
       <use style="stroke:#000000;stroke-width:0.5;" x="1296.0" xlink:href="#m3440d417cb" y="864.0"/>
      </g>
     </g>
     <g id="text_19">
      <!-- 1.5 -->
      <g transform="translate(1300.0 872.278125)scale(0.3 -0.3)">
       <use xlink:href="#BitstreamVeraSans-Roman-31"/>
       <use x="63.623046875" xlink:href="#BitstreamVeraSans-Roman-2e"/>
       <use x="95.41015625" xlink:href="#BitstreamVeraSans-Roman-35"/>
      </g>
     </g>
    </g>
    <g id="ytick_12">
     <g id="line2d_28">
      <g>
       <use style="stroke:#000000;stroke-width:0.5;" x="1296.0" xlink:href="#m3440d417cb" y="720.0"/>
      </g>
     </g>
     <g id="text_20">
      <!-- 2.0 -->
      <g transform="translate(1300.0 728.278125)scale(0.3 -0.3)">
       <use xlink:href="#BitstreamVeraSans-Roman-32"/>
       <use x="63.623046875" xlink:href="#BitstreamVeraSans-Roman-2e"/>
       <use x="95.41015625" xlink:href="#BitstreamVeraSans-Roman-30"/>
      </g>
     </g>
    </g>
    <g id="ytick_13">
     <g id="line2d_29">
      <g>
       <use style="stroke:#000000;stroke-width:0.5;" x="1296.0" xlink:href="#m3440d417cb" y="576.0"/>
      </g>
     </g>
     <g id="text_21">
      <!-- 2.5 -->
      <g transform="translate(1300.0 584.278125)scale(0.3 -0.3)">
       <use xlink:href="#BitstreamVeraSans-Roman-32"/>
       <use x="63.623046875" xlink:href="#BitstreamVeraSans-Roman-2e"/>
       <use x="95.41015625" xlink:href="#BitstreamVeraSans-Roman-35"/>
      </g>
     </g>
    </g>
    <g id="ytick_14">
     <g id="line2d_30">
      <g>
       <use style="stroke:#000000;stroke-width:0.5;" x="1296.0" xlink:href="#m3440d417cb" y="432.0"/>
      </g>
     </g>
     <g id="text_22">
      <!-- 3.0 -->
      <defs>
       <path d="M 40.578125 39.3125 
Q 47.65625 37.796875 51.625 33 
Q 55.609375 28.21875 55.609375 21.1875 
Q 55.609375 10.40625 48.1875 4.484375 
Q 40.765625 -1.421875 27.09375 -1.421875 
Q 22.515625 -1.421875 17.65625 -0.515625 
Q 12.796875 0.390625 7.625 2.203125 
L 7.625 11.71875 
Q 11.71875 9.328125 16.59375 8.109375 
Q 21.484375 6.890625 26.8125 6.890625 
Q 36.078125 6.890625 40.9375 10.546875 
Q 45.796875 14.203125 45.796875 21.1875 
Q 45.796875 27.640625 41.28125 31.265625 
Q 36.765625 34.90625 28.71875 34.90625 
L 20.21875 34.90625 
L 20.21875 43.015625 
L 29.109375 43.015625 
Q 36.375 43.015625 40.234375 45.921875 
Q 44.09375 48.828125 44.09375 54.296875 
Q 44.09375 59.90625 40.109375 62.90625 
Q 36.140625 65.921875 28.71875 65.921875 
Q 24.65625 65.921875 20.015625 65.03125 
Q 15.375 64.15625 9.8125 62.3125 
L 9.8125 71.09375 
Q 15.4375 72.65625 20.34375 73.4375 
Q 25.25 74.21875 29.59375 74.21875 
Q 40.828125 74.21875 47.359375 69.109375 
Q 53.90625 64.015625 53.90625 55.328125 
Q 53.90625 49.265625 50.4375 45.09375 
Q 46.96875 40.921875 40.578125 39.3125 
" id="BitstreamVeraSans-Roman-33"/>
      </defs>
      <g transform="translate(1300.0 440.278125)scale(0.3 -0.3)">
       <use xlink:href="#BitstreamVeraSans-Roman-33"/>
       <use x="63.623046875" xlink:href="#BitstreamVeraSans-Roman-2e"/>
       <use x="95.41015625" xlink:href="#BitstreamVeraSans-Roman-30"/>
      </g>
     </g>
    </g>
    <g id="ytick_15">
     <g id="line2d_31">
      <g>
       <use style="stroke:#000000;stroke-width:0.5;" x="1296.0" xlink:href="#m3440d417cb" y="288.0"/>
      </g>
     </g>
     <g id="text_23">
      <!-- 3.5 -->
      <g transform="translate(1300.0 296.278125)scale(0.3 -0.3)">
       <use xlink:href="#BitstreamVeraSans-Roman-33"/>
       <use x="63.623046875" xlink:href="#BitstreamVeraSans-Roman-2e"/>
       <use x="95.41015625" xlink:href="#BitstreamVeraSans-Roman-35"/>
      </g>
     </g>
    </g>
    <g id="ytick_16">
     <g id="line2d_32">
      <g>
       <use style="stroke:#000000;stroke-width:0.5;" x="1296.0" xlink:href="#m3440d417cb" y="144.0"/>
      </g>
     </g>
     <g id="text_24">
      <!-- 4.0 -->
      <g transform="translate(1300.0 152.278125)scale(0.3 -0.3)">
       <use xlink:href="#BitstreamVeraSans-Roman-34"/>
       <use x="63.623046875" xlink:href="#BitstreamVeraSans-Roman-2e"/>
       <use x="95.41015625" xlink:href="#BitstreamVeraSans-Roman-30"/>
      </g>
     </g>
    </g>
   </g>
   <g id="legend_2">
    <g id="patch_12">
     <path d="M 849.6 794.91 
L 1256.88 794.91 
L 1256.88 604.8 
L 849.6 604.8 
z
" style="fill:#ffffff;stroke:#000000;stroke-linejoin:miter;"/>
    </g>
    <g id="line2d_33">
     <path d="M 866.4 624.23625 
L 900 624.23625 
" style="fill:none;stroke:#0000ff;stroke-linecap:square;stroke-width:5.0;"/>
    </g>
    <g id="line2d_34"/>
    <g id="text_25">
     <!-- 1 nearest hopping away -->
     <g transform="translate(926.4 632.63625)scale(0.24 -0.24)">
      <use xlink:href="#BitstreamVeraSans-Roman-31"/>
      <use x="63.623046875" xlink:href="#BitstreamVeraSans-Roman-20"/>
      <use x="95.41015625" xlink:href="#BitstreamVeraSans-Roman-6e"/>
      <use x="158.7890625" xlink:href="#BitstreamVeraSans-Roman-65"/>
      <use x="220.3125" xlink:href="#BitstreamVeraSans-Roman-61"/>
      <use x="281.591796875" xlink:href="#BitstreamVeraSans-Roman-72"/>
      <use x="322.673828125" xlink:href="#BitstreamVeraSans-Roman-65"/>
      <use x="384.197265625" xlink:href="#BitstreamVeraSans-Roman-73"/>
      <use x="436.296875" xlink:href="#BitstreamVeraSans-Roman-74"/>
      <use x="475.505859375" xlink:href="#BitstreamVeraSans-Roman-20"/>
      <use x="507.29296875" xlink:href="#BitstreamVeraSans-Roman-68"/>
      <use x="570.671875" xlink:href="#BitstreamVeraSans-Roman-6f"/>
      <use x="631.853515625" xlink:href="#BitstreamVeraSans-Roman-70"/>
      <use x="695.330078125" xlink:href="#BitstreamVeraSans-Roman-70"/>
      <use x="758.806640625" xlink:href="#BitstreamVeraSans-Roman-69"/>
      <use x="786.58984375" xlink:href="#BitstreamVeraSans-Roman-6e"/>
      <use x="849.96875" xlink:href="#BitstreamVeraSans-Roman-67"/>
      <use x="913.4453125" xlink:href="#BitstreamVeraSans-Roman-20"/>
      <use x="945.232421875" xlink:href="#BitstreamVeraSans-Roman-61"/>
      <use x="1006.51171875" xlink:href="#BitstreamVeraSans-Roman-77"/>
      <use x="1088.29882812" xlink:href="#BitstreamVeraSans-Roman-61"/>
      <use x="1149.578125" xlink:href="#BitstreamVeraSans-Roman-79"/>
     </g>
    </g>
    <g id="line2d_35">
     <path d="M 866.4 659.46375 
L 900 659.46375 
" style="fill:none;stroke:#008000;stroke-linecap:square;stroke-width:5.0;"/>
    </g>
    <g id="line2d_36"/>
    <g id="text_26">
     <!-- 2 nearest hopping away -->
     <g transform="translate(926.4 667.86375)scale(0.24 -0.24)">
      <use xlink:href="#BitstreamVeraSans-Roman-32"/>
      <use x="63.623046875" xlink:href="#BitstreamVeraSans-Roman-20"/>
      <use x="95.41015625" xlink:href="#BitstreamVeraSans-Roman-6e"/>
      <use x="158.7890625" xlink:href="#BitstreamVeraSans-Roman-65"/>
      <use x="220.3125" xlink:href="#BitstreamVeraSans-Roman-61"/>
      <use x="281.591796875" xlink:href="#BitstreamVeraSans-Roman-72"/>
      <use x="322.673828125" xlink:href="#BitstreamVeraSans-Roman-65"/>
      <use x="384.197265625" xlink:href="#BitstreamVeraSans-Roman-73"/>
      <use x="436.296875" xlink:href="#BitstreamVeraSans-Roman-74"/>
      <use x="475.505859375" xlink:href="#BitstreamVeraSans-Roman-20"/>
      <use x="507.29296875" xlink:href="#BitstreamVeraSans-Roman-68"/>
      <use x="570.671875" xlink:href="#BitstreamVeraSans-Roman-6f"/>
      <use x="631.853515625" xlink:href="#BitstreamVeraSans-Roman-70"/>
      <use x="695.330078125" xlink:href="#BitstreamVeraSans-Roman-70"/>
      <use x="758.806640625" xlink:href="#BitstreamVeraSans-Roman-69"/>
      <use x="786.58984375" xlink:href="#BitstreamVeraSans-Roman-6e"/>
      <use x="849.96875" xlink:href="#BitstreamVeraSans-Roman-67"/>
      <use x="913.4453125" xlink:href="#BitstreamVeraSans-Roman-20"/>
      <use x="945.232421875" xlink:href="#BitstreamVeraSans-Roman-61"/>
      <use x="1006.51171875" xlink:href="#BitstreamVeraSans-Roman-77"/>
      <use x="1088.29882812" xlink:href="#BitstreamVeraSans-Roman-61"/>
      <use x="1149.578125" xlink:href="#BitstreamVeraSans-Roman-79"/>
     </g>
    </g>
    <g id="line2d_37">
     <path d="M 866.4 694.69125 
L 900 694.69125 
" style="fill:none;stroke:#ff0000;stroke-linecap:square;stroke-width:5.0;"/>
    </g>
    <g id="line2d_38"/>
    <g id="text_27">
     <!-- 3 nearest hopping away -->
     <g transform="translate(926.4 703.09125)scale(0.24 -0.24)">
      <use xlink:href="#BitstreamVeraSans-Roman-33"/>
      <use x="63.623046875" xlink:href="#BitstreamVeraSans-Roman-20"/>
      <use x="95.41015625" xlink:href="#BitstreamVeraSans-Roman-6e"/>
      <use x="158.7890625" xlink:href="#BitstreamVeraSans-Roman-65"/>
      <use x="220.3125" xlink:href="#BitstreamVeraSans-Roman-61"/>
      <use x="281.591796875" xlink:href="#BitstreamVeraSans-Roman-72"/>
      <use x="322.673828125" xlink:href="#BitstreamVeraSans-Roman-65"/>
      <use x="384.197265625" xlink:href="#BitstreamVeraSans-Roman-73"/>
      <use x="436.296875" xlink:href="#BitstreamVeraSans-Roman-74"/>
      <use x="475.505859375" xlink:href="#BitstreamVeraSans-Roman-20"/>
      <use x="507.29296875" xlink:href="#BitstreamVeraSans-Roman-68"/>
      <use x="570.671875" xlink:href="#BitstreamVeraSans-Roman-6f"/>
      <use x="631.853515625" xlink:href="#BitstreamVeraSans-Roman-70"/>
      <use x="695.330078125" xlink:href="#BitstreamVeraSans-Roman-70"/>
      <use x="758.806640625" xlink:href="#BitstreamVeraSans-Roman-69"/>
      <use x="786.58984375" xlink:href="#BitstreamVeraSans-Roman-6e"/>
      <use x="849.96875" xlink:href="#BitstreamVeraSans-Roman-67"/>
      <use x="913.4453125" xlink:href="#BitstreamVeraSans-Roman-20"/>
      <use x="945.232421875" xlink:href="#BitstreamVeraSans-Roman-61"/>
      <use x="1006.51171875" xlink:href="#BitstreamVeraSans-Roman-77"/>
      <use x="1088.29882812" xlink:href="#BitstreamVeraSans-Roman-61"/>
      <use x="1149.578125" xlink:href="#BitstreamVeraSans-Roman-79"/>
     </g>
    </g>
    <g id="line2d_39">
     <path d="M 866.4 729.91875 
L 900 729.91875 
" style="fill:none;stroke:#00bfbf;stroke-linecap:square;stroke-width:5.0;"/>
    </g>
    <g id="line2d_40"/>
    <g id="text_28">
     <!-- 4 nearest hopping away -->
     <g transform="translate(926.4 738.31875)scale(0.24 -0.24)">
      <use xlink:href="#BitstreamVeraSans-Roman-34"/>
      <use x="63.623046875" xlink:href="#BitstreamVeraSans-Roman-20"/>
      <use x="95.41015625" xlink:href="#BitstreamVeraSans-Roman-6e"/>
      <use x="158.7890625" xlink:href="#BitstreamVeraSans-Roman-65"/>
      <use x="220.3125" xlink:href="#BitstreamVeraSans-Roman-61"/>
      <use x="281.591796875" xlink:href="#BitstreamVeraSans-Roman-72"/>
      <use x="322.673828125" xlink:href="#BitstreamVeraSans-Roman-65"/>
      <use x="384.197265625" xlink:href="#BitstreamVeraSans-Roman-73"/>
      <use x="436.296875" xlink:href="#BitstreamVeraSans-Roman-74"/>
      <use x="475.505859375" xlink:href="#BitstreamVeraSans-Roman-20"/>
      <use x="507.29296875" xlink:href="#BitstreamVeraSans-Roman-68"/>
      <use x="570.671875" xlink:href="#BitstreamVeraSans-Roman-6f"/>
      <use x="631.853515625" xlink:href="#BitstreamVeraSans-Roman-70"/>
      <use x="695.330078125" xlink:href="#BitstreamVeraSans-Roman-70"/>
      <use x="758.806640625" xlink:href="#BitstreamVeraSans-Roman-69"/>
      <use x="786.58984375" xlink:href="#BitstreamVeraSans-Roman-6e"/>
      <use x="849.96875" xlink:href="#BitstreamVeraSans-Roman-67"/>
      <use x="913.4453125" xlink:href="#BitstreamVeraSans-Roman-20"/>
      <use x="945.232421875" xlink:href="#BitstreamVeraSans-Roman-61"/>
      <use x="1006.51171875" xlink:href="#BitstreamVeraSans-Roman-77"/>
      <use x="1088.29882812" xlink:href="#BitstreamVeraSans-Roman-61"/>
      <use x="1149.578125" xlink:href="#BitstreamVeraSans-Roman-79"/>
     </g>
    </g>
    <g id="line2d_41">
     <path d="M 866.4 771.87 
L 900 771.87 
" style="fill:none;stroke:#bfbf00;stroke-dasharray:6.000000,6.000000;stroke-dashoffset:0.0;stroke-width:5.0;"/>
    </g>
    <g id="line2d_42"/>
    <g id="text_29">
     <!-- $2\sqrt{3}$ phase transition point -->
     <defs>
      <path d="M 9.515625 7.71875 
Q 11.859375 4.296875 15.8125 2.640625 
Q 19.78125 0.984375 24.3125 0.984375 
Q 30.125 0.984375 32.5625 5.9375 
Q 35.015625 10.890625 35.015625 17.1875 
Q 35.015625 20.015625 34.5 22.84375 
Q 33.984375 25.6875 32.765625 28.125 
Q 31.546875 30.5625 29.421875 32.03125 
Q 27.296875 33.5 24.21875 33.5 
L 17.578125 33.5 
Q 16.703125 33.5 16.703125 34.421875 
L 16.703125 35.296875 
Q 16.703125 36.078125 17.578125 36.078125 
L 23.09375 36.53125 
Q 26.609375 36.53125 28.921875 39.15625 
Q 31.25 41.796875 32.328125 45.578125 
Q 33.40625 49.359375 33.40625 52.78125 
Q 33.40625 57.5625 31.15625 60.640625 
Q 28.90625 63.71875 24.3125 63.71875 
Q 20.515625 63.71875 17.046875 62.28125 
Q 13.578125 60.84375 11.53125 57.90625 
Q 11.71875 57.953125 11.859375 57.984375 
Q 12.015625 58.015625 12.203125 58.015625 
Q 14.453125 58.015625 15.96875 56.453125 
Q 17.484375 54.890625 17.484375 52.6875 
Q 17.484375 50.53125 15.96875 48.96875 
Q 14.453125 47.40625 12.203125 47.40625 
Q 10.015625 47.40625 8.453125 48.96875 
Q 6.890625 50.53125 6.890625 52.6875 
Q 6.890625 56.984375 9.46875 60.15625 
Q 12.0625 63.328125 16.140625 64.96875 
Q 20.21875 66.609375 24.3125 66.609375 
Q 27.34375 66.609375 30.703125 65.703125 
Q 34.078125 64.796875 36.8125 63.109375 
Q 39.546875 61.421875 41.28125 58.78125 
Q 43.015625 56.15625 43.015625 52.78125 
Q 43.015625 48.578125 41.140625 45.015625 
Q 39.265625 41.453125 35.984375 38.859375 
Q 32.71875 36.28125 28.8125 35.015625 
Q 33.15625 34.1875 37.0625 31.734375 
Q 40.96875 29.296875 43.328125 25.484375 
Q 45.703125 21.6875 45.703125 17.28125 
Q 45.703125 11.765625 42.671875 7.296875 
Q 39.65625 2.828125 34.71875 0.3125 
Q 29.78125 -2.203125 24.3125 -2.203125 
Q 19.625 -2.203125 14.90625 -0.40625 
Q 10.203125 1.375 7.203125 4.9375 
Q 4.203125 8.5 4.203125 13.484375 
Q 4.203125 15.96875 5.859375 17.625 
Q 7.515625 19.28125 10.015625 19.28125 
Q 11.625 19.28125 12.96875 18.53125 
Q 14.3125 17.78125 15.0625 16.40625 
Q 15.828125 15.046875 15.828125 13.484375 
Q 15.828125 11.03125 14.109375 9.375 
Q 12.40625 7.71875 10.015625 7.71875 
z
" id="Cmr10-33"/>
      <path d="M 42.390625 -116.015625 
L 19.828125 -63.484375 
L 12.796875 -68.890625 
L 10.984375 -67.09375 
L 25.296875 -56 
L 46.390625 -105.078125 
L 98.296875 3.078125 
Q 98.78125 4 100 4 
Q 100.828125 4 101.40625 3.40625 
Q 102 2.828125 102 2 
Q 102 1.515625 101.90625 1.3125 
L 46.09375 -115.09375 
Q 45.703125 -116.015625 44.578125 -116.015625 
z
" id="Cmex10-70"/>
     </defs>
     <g transform="translate(926.4 780.27)scale(0.24 -0.24)">
      <use transform="translate(0.0 0.15625)" xlink:href="#Cmr10-32"/>
      <use transform="translate(50.0 94.65625)scale(0.833745606041)" xlink:href="#Cmex10-70"/>
      <use transform="translate(145.859375 0.140625)" xlink:href="#Cmr10-33"/>
      <use transform="translate(208.359375 0.15625)" xlink:href="#BitstreamVeraSans-Roman-20"/>
      <use transform="translate(240.146484375 0.15625)" xlink:href="#BitstreamVeraSans-Roman-70"/>
      <use transform="translate(303.623046875 0.15625)" xlink:href="#BitstreamVeraSans-Roman-68"/>
      <use transform="translate(367.001953125 0.15625)" xlink:href="#BitstreamVeraSans-Roman-61"/>
      <use transform="translate(428.28125 0.15625)" xlink:href="#BitstreamVeraSans-Roman-73"/>
      <use transform="translate(480.380859375 0.15625)" xlink:href="#BitstreamVeraSans-Roman-65"/>
      <use transform="translate(541.904296875 0.15625)" xlink:href="#BitstreamVeraSans-Roman-20"/>
      <use transform="translate(573.69140625 0.15625)" xlink:href="#BitstreamVeraSans-Roman-74"/>
      <use transform="translate(612.900390625 0.15625)" xlink:href="#BitstreamVeraSans-Roman-72"/>
      <use transform="translate(654.013671875 0.15625)" xlink:href="#BitstreamVeraSans-Roman-61"/>
      <use transform="translate(715.29296875 0.15625)" xlink:href="#BitstreamVeraSans-Roman-6e"/>
      <use transform="translate(778.671875 0.15625)" xlink:href="#BitstreamVeraSans-Roman-73"/>
      <use transform="translate(830.771484375 0.15625)" xlink:href="#BitstreamVeraSans-Roman-69"/>
      <use transform="translate(858.5546875 0.15625)" xlink:href="#BitstreamVeraSans-Roman-74"/>
      <use transform="translate(897.763671875 0.15625)" xlink:href="#BitstreamVeraSans-Roman-69"/>
      <use transform="translate(925.546875 0.15625)" xlink:href="#BitstreamVeraSans-Roman-6f"/>
      <use transform="translate(986.728515625 0.15625)" xlink:href="#BitstreamVeraSans-Roman-6e"/>
      <use transform="translate(1050.10742188 0.15625)" xlink:href="#BitstreamVeraSans-Roman-20"/>
      <use transform="translate(1081.89453125 0.15625)" xlink:href="#BitstreamVeraSans-Roman-70"/>
      <use transform="translate(1145.37109375 0.15625)" xlink:href="#BitstreamVeraSans-Roman-6f"/>
      <use transform="translate(1206.55273438 0.15625)" xlink:href="#BitstreamVeraSans-Roman-69"/>
      <use transform="translate(1234.3359375 0.15625)" xlink:href="#BitstreamVeraSans-Roman-6e"/>
      <use transform="translate(1297.71484375 0.15625)" xlink:href="#BitstreamVeraSans-Roman-74"/>
      <path d="M 133.359375 91.5 
L 133.359375 97.75 
L 208.359375 97.75 
L 208.359375 91.5 
L 133.359375 91.5 
z
"/>
     </g>
    </g>
   </g>
  </g>
 </g>
 <defs>
  <clipPath id="p3e7b3f753a">
   <rect height="1152.0" width="1116.0" x="180.0" y="144.0"/>
  </clipPath>
 </defs>
</svg>
