<?xml version="1.0" encoding="utf-8" standalone="no"?>
<!DOCTYPE svg PUBLIC "-//W3C//DTD SVG 1.1//EN"
  "http://www.w3.org/Graphics/SVG/1.1/DTD/svg11.dtd">
<!-- Created with matplotlib (http://matplotlib.org/) -->
<svg height="1440pt" version="1.1" viewBox="0 0 1440 1440" width="1440pt" xmlns="http://www.w3.org/2000/svg" xmlns:xlink="http://www.w3.org/1999/xlink">
 <defs>
  <style type="text/css">
*{stroke-linecap:butt;stroke-linejoin:round;stroke-miterlimit:100000;}
  </style>
 </defs>
 <g id="figure_1">
  <g id="patch_1">
   <path d="M 0 1440 
L 1440 1440 
L 1440 0 
L 0 0 
z
" style="fill:#ffffff;"/>
  </g>
  <g id="axes_1">
   <g id="patch_2">
    <path d="M 180 1296 
L 1296 1296 
L 1296 144 
L 180 144 
z
" style="fill:#ffffff;"/>
   </g>
   <g id="line2d_1">
    <path clip-path="url(#pf768890fcc)" d="M 182.232 751.668753 
L 184.464 474.187511 
L 186.696 452.11234 
L 188.928 442.474002 
L 191.16 458.995197 
L 193.392 533.33041 
L 195.624 577.043953 
L 197.856 530.451837 
L 200.088 523.925425 
L 202.32 523.271069 
L 204.552 520.689404 
L 206.784 517.001701 
L 209.016 515.789446 
L 211.248 519.00499 
L 213.48 525.327775 
L 215.712 530.644904 
L 217.944 530.835777 
L 220.176 526.939475 
L 222.408 524.173592 
L 224.64 526.471987 
L 226.872 536.234015 
L 229.104 558.006201 
L 231.336 606.92822 
L 233.568 767.925094 
L 235.8 603.981539 
L 238.032 578.439752 
L 240.264 584.900593 
L 242.496 604.665859 
L 244.728 596.00347 
L 249.192 504.861404 
L 251.424 470.704296 
L 253.656 447.24392 
L 255.888 433.389166 
L 258.12 428.364506 
L 260.352 430.627219 
L 262.584 436.232792 
L 264.816 438.755184 
L 267.048 434.518065 
L 269.28 427.341943 
L 271.512 423.936175 
L 273.744 429.760902 
L 275.976 451.33142 
L 278.208 509.37077 
L 280.44 564.134122 
L 282.672 465.233591 
L 284.904 431.24206 
L 287.136 413.512779 
L 289.368 402.36044 
L 291.6 394.000978 
L 293.832 387.652344 
L 296.064 383.876882 
L 298.296 383.106393 
L 300.528 385.067948 
L 302.76 389.218997 
L 304.992 395.69895 
L 307.224 405.584807 
L 309.456 419.957147 
L 313.92 456.821513 
L 316.152 464.287478 
L 318.384 452.426287 
L 322.848 406.240903 
L 325.08 388.548184 
L 327.312 375.725795 
L 329.544 365.743615 
L 331.776 356.920527 
L 334.008 349.094125 
L 336.24 343.538185 
L 338.472 342.138273 
L 340.704 346.921576 
L 342.936 360.46558 
L 345.168 387.876987 
L 347.4 447.559162 
L 349.632 524.573198 
L 351.864 417.234458 
L 354.096 384.715915 
L 356.328 372.230207 
L 358.56 372.609694 
L 360.792 384.974355 
L 363.024 411.342822 
L 365.256 456.178095 
L 367.488 515.550976 
L 369.72 507.062814 
L 371.952 434.820961 
L 374.184 377.315949 
L 376.416 336.560539 
L 378.648 307.215891 
L 380.88 285.854955 
L 383.112 270.406996 
L 385.344 259.571881 
L 387.576 252.505066 
L 389.808 248.651782 
L 392.04 247.651383 
L 394.272 249.265757 
L 396.504 253.29734 
L 398.736 259.4586 
L 403.2 275.148028 
L 405.432 281.39313 
L 407.664 283.438374 
L 409.896 279.865365 
L 412.128 271.432662 
L 418.824 238.423984 
L 421.056 229.455111 
L 423.288 222.184781 
L 425.52 216.559695 
L 427.752 212.454806 
L 429.984 209.73721 
L 432.216 208.291738 
L 434.448 208.027716 
L 436.68 208.875495 
L 438.912 210.774055 
L 441.144 213.646202 
L 443.376 217.355783 
L 447.84 226.06261 
L 450.072 229.935699 
L 452.304 232.45396 
L 454.536 232.926367 
L 456.768 231.096781 
L 459 227.272261 
L 461.232 222.144258 
L 465.696 210.853639 
L 467.928 205.672246 
L 470.16 201.122273 
L 472.392 197.27734 
L 474.624 194.143229 
L 476.856 191.693883 
L 479.088 189.892202 
L 481.32 188.700661 
L 483.552 188.085932 
L 485.784 188.020155 
L 488.016 188.480184 
L 490.248 189.445049 
L 492.48 190.891026 
L 494.712 192.78322 
L 496.944 195.062518 
L 503.64 202.892375 
L 505.872 205.051886 
L 508.104 206.471229 
L 510.336 206.885944 
L 512.568 206.177939 
L 514.8 204.41837 
L 517.032 201.837923 
L 519.264 198.74503 
L 523.728 192.167008 
L 525.96 189.088935 
L 528.192 186.305391 
L 530.424 183.865544 
L 532.656 181.786544 
L 534.888 180.067084 
L 537.12 178.696591 
L 539.352 177.660853 
L 541.584 176.945154 
L 543.816 176.535826 
L 546.048 176.420841 
L 548.28 176.589807 
L 550.512 177.033501 
L 552.744 177.742884 
L 554.976 178.707424 
L 557.208 179.912434 
L 559.44 181.335184 
L 563.904 184.670378 
L 568.368 188.158191 
L 570.6 189.670523 
L 572.832 190.835524 
L 575.064 191.516102 
L 577.296 191.615235 
L 579.528 191.100505 
L 581.76 190.012751 
L 583.992 188.454487 
L 586.224 186.563828 
L 595.152 178.275016 
L 597.384 176.457671 
L 599.616 174.828392 
L 601.848 173.399543 
L 604.08 172.174413 
L 606.312 171.15092 
L 608.544 170.324141 
L 610.776 169.687919 
L 613.008 169.235826 
L 615.24 168.961673 
L 617.472 168.859757 
L 619.704 168.924913 
L 621.936 169.152434 
L 624.168 169.537857 
L 626.4 170.076564 
L 628.632 170.763146 
L 630.864 171.590452 
L 635.328 173.621372 
L 639.792 176.015667 
L 644.256 178.472393 
L 646.488 179.579244 
L 648.72 180.509228 
L 650.952 181.189253 
L 653.184 181.557136 
L 655.416 181.572345 
L 657.648 181.223893 
L 659.88 180.532588 
L 662.112 179.546779 
L 664.344 178.333145 
L 668.808 175.515819 
L 675.504 171.232386 
L 679.968 168.778813 
L 684.432 166.791059 
L 686.664 165.98099 
L 688.896 165.292658 
L 691.128 164.72379 
L 693.36 164.271541 
L 697.824 163.704741 
L 702.288 163.568835 
L 706.752 163.84309 
L 711.216 164.508851 
L 715.68 165.54544 
L 720.144 166.920646 
L 724.608 168.573068 
L 735.768 172.94818 
L 738 173.615257 
L 740.232 174.122605 
L 742.464 174.435997 
L 744.696 174.531045 
L 746.928 174.396777 
L 749.16 174.037353 
L 751.392 173.471431 
L 753.624 172.729339 
L 758.088 170.870618 
L 769.248 165.726847 
L 773.712 163.970206 
L 778.176 162.508085 
L 782.64 161.356701 
L 787.104 160.513073 
L 791.568 159.966755 
L 796.032 159.705553 
L 800.496 159.717828 
L 804.96 159.993062 
L 809.424 160.521305 
L 813.888 161.291326 
L 818.352 162.286625 
L 822.816 163.478303 
L 831.744 166.206606 
L 836.208 167.522278 
L 840.672 168.589243 
L 842.904 168.972195 
L 845.136 169.227881 
L 847.368 169.341812 
L 849.6 169.306076 
L 851.832 169.120285 
L 854.064 168.791617 
L 858.528 167.766301 
L 862.992 166.390745 
L 878.616 161.13916 
L 883.08 159.918134 
L 887.544 158.891303 
L 892.008 158.063129 
L 896.472 157.430613 
L 900.936 156.987797 
L 905.4 156.728123 
L 909.864 156.645521 
L 914.328 156.734814 
L 918.792 156.991716 
L 923.256 157.412464 
L 927.72 157.992877 
L 934.416 159.147442 
L 941.112 160.595964 
L 956.736 164.248489 
L 961.2 164.968467 
L 965.664 165.349455 
L 970.128 165.32457 
L 974.592 164.888039 
L 979.056 164.097305 
L 983.52 163.053115 
L 1003.608 157.882391 
L 1010.304 156.586379 
L 1017 155.606798 
L 1023.696 154.940747 
L 1030.392 154.575786 
L 1037.088 154.498106 
L 1043.784 154.695397 
L 1050.48 155.1572 
L 1057.176 155.872937 
L 1063.872 156.825935 
L 1070.568 157.980837 
L 1088.424 161.282074 
L 1092.888 161.862374 
L 1097.352 162.211936 
L 1101.816 162.28516 
L 1106.28 162.068827 
L 1110.744 161.585799 
L 1115.208 160.888284 
L 1121.904 159.588946 
L 1137.528 156.419239 
L 1144.224 155.293019 
L 1150.92 154.374824 
L 1157.616 153.672605 
L 1164.312 153.183616 
L 1171.008 152.901508 
L 1177.704 152.819458 
L 1184.4 152.9313 
L 1191.096 153.231709 
L 1197.792 153.715549 
L 1204.488 154.375775 
L 1213.416 155.504939 
L 1224.576 157.191618 
L 1235.736 158.818149 
L 1242.432 159.502589 
L 1246.896 159.747561 
L 1251.36 159.790571 
L 1255.824 159.625121 
L 1260.288 159.26605 
L 1266.984 158.438674 
L 1275.912 157.027827 
L 1289.304 154.871269 
L 1296 153.942782 
L 1296 153.942782 
" style="fill:none;stroke:#0000ff;stroke-linecap:square;stroke-width:3.0;"/>
   </g>
   <g id="line2d_2">
    <path clip-path="url(#pf768890fcc)" d="M 182.232 746.739433 
L 184.464 731.822034 
L 186.696 720.24865 
L 188.928 711.163387 
L 191.16 704.055698 
L 193.392 698.592344 
L 195.624 694.537069 
L 197.856 691.708193 
L 200.088 689.955162 
L 202.32 689.145998 
L 204.552 689.161892 
L 206.784 689.896825 
L 209.016 691.260582 
L 211.248 693.183557 
L 213.48 695.621821 
L 215.712 698.561174 
L 217.944 702.019552 
L 220.176 706.04794 
L 222.408 710.73079 
L 224.64 716.187606 
L 226.872 722.578086 
L 229.104 730.114349 
L 231.336 739.08642 
L 233.568 749.913601 
L 235.8 763.251663 
L 238.032 780.238027 
L 240.264 803.150496 
L 242.496 837.748439 
L 244.728 908.679281 
L 246.96 932.933197 
L 249.192 844.936678 
L 251.424 806.340248 
L 253.656 781.0988 
L 255.888 762.162516 
L 258.12 746.88342 
L 260.352 733.977914 
L 262.584 722.725303 
L 264.816 712.676463 
L 267.048 703.526158 
L 269.28 695.050541 
L 273.744 679.458955 
L 278.208 664.871131 
L 287.136 636.632402 
L 293.832 616.181393 
L 298.296 603.367504 
L 302.76 591.476887 
L 307.224 580.582762 
L 311.688 570.64333 
L 316.152 561.577025 
L 320.616 553.332581 
L 325.08 545.921153 
L 327.312 542.546249 
L 329.544 539.404964 
L 331.776 536.506644 
L 334.008 533.858686 
L 336.24 531.465576 
L 338.472 529.328333 
L 340.704 527.444405 
L 342.936 525.80799 
L 345.168 524.410684 
L 347.4 523.242349 
L 349.632 522.292052 
L 351.864 521.548939 
L 354.096 521.00294 
L 356.328 520.645267 
L 358.56 520.468707 
L 360.792 520.467764 
L 363.024 520.638753 
L 365.256 520.979932 
L 367.488 521.491749 
L 369.72 522.177266 
L 371.952 523.042724 
L 374.184 524.098223 
L 376.416 525.358415 
L 378.648 526.843147 
L 380.88 528.57803 
L 383.112 530.595008 
L 385.344 532.933153 
L 387.576 535.640055 
L 389.808 538.774339 
L 392.04 542.410024 
L 394.272 546.643641 
L 396.504 551.605491 
L 398.736 557.477437 
L 400.968 564.521932 
L 403.2 573.13271 
L 405.432 583.932185 
L 407.664 597.983612 
L 409.896 617.3383 
L 412.128 646.867177 
L 414.36 704.572534 
L 416.592 782.372114 
L 418.824 663.960548 
L 421.056 619.678317 
L 423.288 591.373446 
L 425.52 570.377732 
L 427.752 553.637327 
L 429.984 539.710252 
L 432.216 527.795777 
L 434.448 517.400168 
L 436.68 508.196071 
L 438.912 499.954796 
L 441.144 492.510193 
L 443.376 485.737679 
L 445.608 479.541184 
L 447.84 473.844563 
L 450.072 468.58575 
L 452.304 463.712697 
L 454.536 459.180566 
L 456.768 454.949799 
L 459 450.984856 
L 463.464 443.72624 
L 467.928 437.181804 
L 472.392 431.181949 
L 476.856 425.626142 
L 481.32 420.494228 
L 485.784 415.838015 
L 488.016 413.717241 
L 490.248 411.75239 
L 492.48 409.956534 
L 494.712 408.341977 
L 496.944 406.920157 
L 499.176 405.701825 
L 501.408 404.697384 
L 503.64 403.917242 
L 505.872 403.372091 
L 508.104 403.073044 
L 510.336 403.031663 
L 512.568 403.259928 
L 514.8 403.770262 
L 517.032 404.575741 
L 519.264 405.690622 
L 521.496 407.131325 
L 523.728 408.918018 
L 525.96 411.076946 
L 528.192 413.643693 
L 530.424 416.667649 
L 532.656 420.21808 
L 534.888 424.392562 
L 537.12 429.329178 
L 539.352 435.225254 
L 541.584 442.368438 
L 543.816 451.192911 
L 546.048 462.391768 
L 548.28 477.171779 
L 550.512 497.942776 
L 552.744 530.812848 
L 554.976 602.826995 
L 557.208 612.030328 
L 559.44 526.824093 
L 561.672 487.146274 
L 563.904 460.552859 
L 566.136 440.36232 
L 568.368 424.023228 
L 570.6 410.281337 
L 572.832 398.422013 
L 575.064 387.995254 
L 577.296 378.696123 
L 579.528 370.306132 
L 581.76 362.661954 
L 583.992 355.637635 
L 586.224 349.133957 
L 588.456 343.071792 
L 590.688 337.38774 
L 595.152 326.961671 
L 599.616 317.565277 
L 604.08 309.023865 
L 608.544 301.236721 
L 613.008 294.143468 
L 617.472 287.698852 
L 621.936 281.856647 
L 626.4 276.562181 
L 630.864 271.75167 
L 635.328 267.356041 
L 639.792 263.306895 
L 644.256 259.542637 
L 648.72 256.013233 
L 655.416 251.084536 
L 662.112 246.540927 
L 668.808 242.364787 
L 675.504 238.556063 
L 682.2 235.106427 
L 688.896 231.986645 
L 695.592 229.147729 
L 702.288 226.531308 
L 711.216 223.296807 
L 720.144 220.277118 
L 729.072 217.445591 
L 738 214.816139 
L 746.928 212.409416 
L 755.856 210.226083 
L 767.016 207.767439 
L 780.408 205.09376 
L 798.264 201.799121 
L 813.888 199.142029 
L 827.28 197.089841 
L 840.672 195.261882 
L 858.528 193.090231 
L 885.312 190.103698 
L 907.632 187.811976 
L 925.488 186.192317 
L 945.576 184.593867 
L 981.288 182.024969 
L 1012.536 179.948101 
L 1037.088 178.53954 
L 1070.568 176.873541 
L 1126.368 174.31171 
L 1157.616 173.102464 
L 1211.184 171.311248 
L 1269.216 169.506608 
L 1296 168.807985 
L 1296 168.807985 
" style="fill:none;stroke:#008000;stroke-linecap:square;stroke-width:3.0;"/>
   </g>
   <g id="line2d_3">
    <path clip-path="url(#pf768890fcc)" d="M 182.232 481.284821 
L 184.464 498.799932 
L 186.696 514.05745 
L 188.928 527.442417 
L 191.16 539.270503 
L 193.392 549.887991 
L 202.32 589.5247 
L 204.552 601.537666 
L 206.784 615.805127 
L 209.016 633.518853 
L 211.248 656.891705 
L 213.48 691.285062 
L 215.712 758.135944 
L 217.944 805.388679 
L 220.176 708.695262 
L 222.408 669.831332 
L 224.64 645.394359 
L 226.872 627.720842 
L 229.104 614.019127 
L 231.336 602.964296 
L 233.568 593.831672 
L 235.8 586.18909 
L 238.032 579.762591 
L 240.264 574.367573 
L 242.496 569.868373 
L 244.728 566.152392 
L 246.96 563.113722 
L 249.192 560.644772 
L 251.424 558.635331 
L 253.656 556.978053 
L 255.888 555.578019 
L 258.12 554.362763 
L 260.352 553.288644 
L 262.584 552.340664 
L 264.816 551.525241 
L 267.048 550.858318 
L 269.28 550.352855 
L 271.512 550.009692 
L 273.744 549.814245 
L 278.208 549.752595 
L 282.672 549.943911 
L 287.136 550.349211 
L 289.368 550.705002 
L 291.6 551.237396 
L 293.832 552.016902 
L 296.064 553.119671 
L 298.296 554.623302 
L 300.528 556.603925 
L 302.76 559.134594 
L 304.992 562.284807 
L 307.224 566.120793 
L 309.456 570.70625 
L 311.688 576.103239 
L 313.92 582.373157 
L 316.152 589.577918 
L 318.384 597.781886 
L 320.616 607.055564 
L 322.848 617.482776 
L 325.08 629.174264 
L 327.312 642.292744 
L 329.544 657.099265 
L 331.776 674.042655 
L 334.008 693.948644 
L 336.24 718.485093 
L 338.472 751.6199 
L 340.704 806.806623 
L 342.936 991.074796 
L 345.168 800.785659 
L 347.4 755.178082 
L 349.632 728.044514 
L 351.864 708.522937 
L 354.096 693.15453 
L 356.328 680.434182 
L 358.56 669.588902 
L 360.792 660.166021 
L 363.024 651.862551 
L 365.256 644.448173 
L 367.488 637.731173 
L 369.72 631.545487 
L 374.184 620.218361 
L 380.88 604.419361 
L 389.808 583.975828 
L 396.504 569.269083 
L 400.968 560.064882 
L 405.432 551.550107 
L 407.664 547.608986 
L 409.896 543.910319 
L 412.128 540.477599 
L 414.36 537.332946 
L 416.592 534.495611 
L 418.824 531.980196 
L 421.056 529.794837 
L 423.288 527.939623 
L 425.52 526.405593 
L 427.752 525.174586 
L 429.984 524.220159 
L 432.216 523.509605 
L 434.448 523.006917 
L 436.68 522.676312 
L 438.912 522.485752 
L 443.376 522.431514 
L 447.84 522.741086 
L 452.304 523.418967 
L 456.768 524.495506 
L 461.232 525.935577 
L 472.392 529.981308 
L 476.856 531.186612 
L 481.32 531.959646 
L 485.784 532.355427 
L 494.712 532.795094 
L 499.176 533.338168 
L 501.408 533.791111 
L 503.64 534.393794 
L 505.872 535.161802 
L 508.104 536.105562 
L 510.336 537.230247 
L 512.568 538.535801 
L 514.8 540.017041 
L 517.032 541.663834 
L 521.496 545.390391 
L 525.96 549.547764 
L 537.12 560.378529 
L 541.584 564.362021 
L 546.048 568.018787 
L 559.44 578.527126 
L 561.672 580.555461 
L 563.904 582.7584 
L 566.136 585.169862 
L 568.368 587.823771 
L 570.6 590.755882 
L 572.832 594.006311 
L 575.064 597.62281 
L 577.296 601.664879 
L 579.528 606.209069 
L 581.76 611.356116 
L 583.992 617.241186 
L 586.224 624.04965 
L 588.456 632.043193 
L 590.688 641.606427 
L 592.92 653.337675 
L 595.152 668.24655 
L 597.384 688.256635 
L 599.616 717.841825 
L 601.848 772.656214 
L 604.08 888.423076 
L 606.312 746.861856 
L 608.544 701.610684 
L 610.776 673.740969 
L 613.008 653.608385 
L 615.24 637.949356 
L 617.472 625.262468 
L 619.704 614.73321 
L 621.936 605.870143 
L 624.168 598.353001 
L 626.4 591.959803 
L 628.632 586.528193 
L 630.864 581.93333 
L 633.096 578.074489 
L 635.328 574.866588 
L 637.56 572.234697 
L 639.792 570.11045 
L 642.024 568.429768 
L 644.256 567.131508 
L 646.488 566.156802 
L 648.72 565.448921 
L 650.952 564.953491 
L 653.184 564.618965 
L 657.648 564.243931 
L 664.344 563.820054 
L 668.808 563.271734 
L 671.04 562.851154 
L 673.272 562.311665 
L 675.504 561.641066 
L 677.736 560.829956 
L 679.968 559.871753 
L 682.2 558.762842 
L 684.432 557.502779 
L 686.664 556.094504 
L 691.128 552.862482 
L 695.592 549.158203 
L 700.056 545.117415 
L 713.448 532.600488 
L 717.912 528.798346 
L 722.376 525.373755 
L 726.84 522.400984 
L 729.072 521.100262 
L 731.304 519.928985 
L 733.536 518.889585 
L 735.768 517.983003 
L 738 517.208636 
L 740.232 516.564255 
L 742.464 516.045924 
L 746.928 515.362798 
L 751.392 515.092516 
L 755.856 515.143384 
L 762.552 515.585604 
L 773.712 516.483135 
L 780.408 516.821308 
L 798.264 517.500689 
L 802.728 517.906959 
L 807.192 518.530695 
L 811.656 519.437016 
L 816.12 520.691655 
L 820.584 522.357725 
L 822.816 523.362829 
L 825.048 524.490619 
L 827.28 525.745752 
L 829.512 527.131552 
L 833.976 530.300374 
L 838.44 533.98823 
L 842.904 538.150709 
L 847.368 542.70242 
L 854.064 549.966935 
L 860.76 557.216515 
L 865.224 561.706204 
L 869.688 565.712132 
L 871.92 567.495612 
L 874.152 569.123517 
L 876.384 570.597127 
L 878.616 571.924678 
L 883.08 574.208452 
L 889.776 577.110414 
L 894.24 579.114605 
L 896.472 580.264333 
L 898.704 581.574682 
L 900.936 583.095751 
L 903.168 584.881333 
L 905.4 586.990304 
L 907.632 589.488694 
L 909.864 592.452682 
L 912.096 595.972916 
L 914.328 600.160889 
L 916.56 605.158646 
L 918.792 611.154188 
L 921.024 618.407288 
L 923.256 627.295594 
L 925.488 638.404095 
L 927.72 652.718747 
L 929.952 672.115879 
L 932.184 700.940475 
L 934.416 754.164623 
L 936.648 884.789574 
L 938.88 731.62175 
L 941.112 685.237457 
L 943.344 656.709875 
L 945.576 636.025311 
L 947.808 619.830359 
L 950.04 606.587227 
L 952.272 595.462348 
L 954.504 585.953233 
L 956.736 577.733521 
L 958.968 570.579002 
L 961.2 564.328579 
L 963.432 558.862032 
L 965.664 554.086573 
L 967.896 549.928307 
L 970.128 546.326584 
L 972.36 543.230129 
L 974.592 540.594313 
L 976.824 538.37918 
L 979.056 536.547999 
L 981.288 535.066177 
L 983.52 533.900451 
L 985.752 533.018284 
L 987.984 532.387436 
L 990.216 531.975667 
L 992.448 531.750584 
L 994.68 531.679592 
L 999.144 531.869035 
L 1010.304 532.798527 
L 1014.768 532.763739 
L 1017 532.573139 
L 1019.232 532.24948 
L 1021.464 531.785026 
L 1023.696 531.176499 
L 1025.928 530.424959 
L 1028.16 529.535533 
L 1032.624 527.381327 
L 1037.088 524.818503 
L 1043.784 520.510055 
L 1052.712 514.677699 
L 1057.176 512.031318 
L 1061.64 509.714595 
L 1066.104 507.812796 
L 1068.336 507.03791 
L 1070.568 506.388373 
L 1072.8 505.868369 
L 1075.032 505.480608 
L 1077.264 505.22631 
L 1079.496 505.105187 
L 1081.728 505.115421 
L 1083.96 505.253651 
L 1086.192 505.514971 
L 1090.656 506.379582 
L 1095.12 507.639862 
L 1099.584 509.204593 
L 1106.28 511.881752 
L 1112.976 514.596597 
L 1117.44 516.239102 
L 1121.904 517.644587 
L 1126.368 518.762018 
L 1130.832 519.581846 
L 1135.296 520.138048 
L 1141.992 520.649278 
L 1148.688 521.117739 
L 1153.152 521.633781 
L 1157.616 522.481097 
L 1159.848 523.073695 
L 1162.08 523.802198 
L 1164.312 524.683644 
L 1166.544 525.734757 
L 1168.776 526.972023 
L 1171.008 528.411797 
L 1173.24 530.070456 
L 1175.472 531.9646 
L 1177.704 534.111288 
L 1179.936 536.528342 
L 1182.168 539.234715 
L 1184.4 542.250937 
L 1186.632 545.599691 
L 1188.864 549.306525 
L 1191.096 553.400789 
L 1193.328 557.91686 
L 1195.56 562.895806 
L 1197.792 568.387668 
L 1200.024 574.454703 
L 1202.256 581.176095 
L 1204.488 588.655029 
L 1206.72 597.029721 
L 1208.952 606.491357 
L 1211.184 617.314918 
L 1213.416 629.915837 
L 1215.648 644.963748 
L 1217.88 663.640188 
L 1220.112 688.335454 
L 1222.344 725.174739 
L 1224.576 801.614841 
L 1226.808 812.241564 
L 1229.04 731.36644 
L 1231.272 695.189301 
L 1233.504 671.818329 
L 1235.736 654.61274 
L 1237.968 641.0231 
L 1240.2 629.792157 
L 1242.432 620.203658 
L 1244.664 611.80889 
L 1246.896 604.307299 
L 1249.128 597.487558 
L 1251.36 591.195757 
L 1253.592 585.316989 
L 1258.056 574.470381 
L 1262.52 564.46862 
L 1266.984 555.03556 
L 1271.448 546.023265 
L 1275.912 537.366678 
L 1280.376 529.052803 
L 1284.84 521.098591 
L 1289.304 513.535044 
L 1293.768 506.396161 
L 1296 502.995564 
L 1296 502.995564 
" style="fill:none;stroke:#000000;stroke-linecap:square;stroke-width:3.0;"/>
   </g>
   <g id="line2d_4">
    <path clip-path="url(#pf768890fcc)" d="M 182.232 1048.481733 
L 184.464 968.230471 
L 186.696 934.398238 
L 188.928 913.670203 
L 191.16 899.248215 
L 193.392 888.532011 
L 195.624 880.238376 
L 197.856 873.634374 
L 200.088 868.259713 
L 202.32 863.806119 
L 204.552 860.058055 
L 206.784 856.860793 
L 209.016 854.101893 
L 211.248 851.699708 
L 213.48 849.595781 
L 215.712 847.749489 
L 217.944 846.134056 
L 220.176 844.733461 
L 222.408 843.539969 
L 224.64 842.552132 
L 226.872 841.773196 
L 229.104 841.20984 
L 231.336 840.871215 
L 233.568 840.768252 
L 235.8 840.913199 
L 238.032 841.319374 
L 240.264 842.001098 
L 242.496 842.973791 
L 244.728 844.254238 
L 246.96 845.861005 
L 249.192 847.815032 
L 251.424 850.140433 
L 253.656 852.865555 
L 255.888 856.024389 
L 258.12 859.658468 
L 260.352 863.819485 
L 262.584 868.572983 
L 264.816 874.003729 
L 267.048 880.223806 
L 269.28 887.385301 
L 271.512 895.701181 
L 273.744 905.481709 
L 275.976 917.202808 
L 278.208 931.647461 
L 280.44 950.239946 
L 282.672 976.011965 
L 284.904 1017.570445 
L 287.136 1132.056741 
L 289.368 1053.530123 
L 291.6 992.684387 
L 293.832 960.178703 
L 296.064 937.867757 
L 298.296 920.879489 
L 300.528 907.177178 
L 302.76 895.712012 
L 304.992 885.871499 
L 307.224 877.266104 
L 309.456 869.632212 
L 311.688 862.782754 
L 313.92 856.5799 
L 316.152 850.918956 
L 318.384 845.718369 
L 320.616 840.913263 
L 322.848 836.451109 
L 325.08 832.288743 
L 327.312 828.390256 
L 331.776 821.268838 
L 336.24 814.896008 
L 340.704 809.132257 
L 345.168 803.874642 
L 349.632 799.047283 
L 354.096 794.594722 
L 358.56 790.476902 
L 363.024 786.665105 
L 367.488 783.138565 
L 371.952 779.881603 
L 376.416 776.881271 
L 380.88 774.1255 
L 385.344 771.601767 
L 389.808 769.296289 
L 394.272 767.193743 
L 398.736 765.277445 
L 405.432 762.714087 
L 412.128 760.473602 
L 418.824 758.508413 
L 425.52 756.788553 
L 432.216 755.307517 
L 438.912 754.084377 
L 445.608 753.16203 
L 450.072 752.744293 
L 454.536 752.50952 
L 459 752.481571 
L 463.464 752.685623 
L 467.928 753.147776 
L 472.392 753.894896 
L 476.856 754.954717 
L 481.32 756.356209 
L 485.784 758.130239 
L 490.248 760.310543 
L 494.712 762.93509 
L 499.176 766.04795 
L 501.408 767.803551 
L 503.64 769.701868 
L 505.872 771.751444 
L 508.104 773.961902 
L 510.336 776.344161 
L 512.568 778.910703 
L 514.8 781.675907 
L 517.032 784.656468 
L 519.264 787.871935 
L 521.496 791.345402 
L 523.728 795.104416 
L 525.96 799.182187 
L 528.192 803.619223 
L 530.424 808.465596 
L 532.656 813.784138 
L 534.888 819.655087 
L 537.12 826.183038 
L 539.352 833.507735 
L 541.584 841.821564 
L 543.816 851.399475 
L 546.048 862.653715 
L 548.28 876.243079 
L 550.512 893.318456 
L 552.744 916.179027 
L 554.976 950.601362 
L 557.208 1021.127921 
L 559.44 1046.067285 
L 561.672 957.553961 
L 563.904 918.805187 
L 566.136 893.535799 
L 568.368 874.684174 
L 570.6 859.600026 
L 572.832 846.996405 
L 575.064 836.150132 
L 577.296 826.614138 
L 579.528 818.092714 
L 581.76 810.38014 
L 583.992 803.327588 
L 586.224 796.823983 
L 588.456 790.78429 
L 590.688 785.142026 
L 592.92 779.844286 
L 597.384 770.119142 
L 601.848 761.349986 
L 606.312 753.356357 
L 610.776 746.007856 
L 615.24 739.207362 
L 619.704 732.88058 
L 624.168 726.969268 
L 628.632 721.426728 
L 633.096 716.214726 
L 637.56 711.301377 
L 642.024 706.659659 
L 646.488 702.266383 
L 650.952 698.101455 
L 655.416 694.147355 
L 662.112 688.578523 
L 668.808 683.406147 
L 675.504 678.594455 
L 682.2 674.114529 
L 688.896 669.943241 
L 695.592 666.062292 
L 702.288 662.457324 
L 708.984 659.11709 
L 715.68 656.032691 
L 722.376 653.196871 
L 729.072 650.603377 
L 735.768 648.246419 
L 742.464 646.120246 
L 749.16 644.218882 
L 755.856 642.53608 
L 762.552 641.065489 
L 769.248 639.801064 
L 775.944 638.73767 
L 782.64 637.871816 
L 789.336 637.20242 
L 796.032 636.731509 
L 802.728 636.464766 
L 809.424 636.41185 
L 816.12 636.586499 
L 822.816 637.006438 
L 829.512 637.693183 
L 836.208 638.671851 
L 842.904 639.971108 
L 847.368 641.031231 
L 851.832 642.258823 
L 856.296 643.665548 
L 860.76 645.264282 
L 865.224 647.069393 
L 869.688 649.097122 
L 874.152 651.366073 
L 878.616 653.897872 
L 883.08 656.718017 
L 887.544 659.857016 
L 892.008 663.35191 
L 896.472 667.248355 
L 900.936 671.603521 
L 905.4 676.490241 
L 909.864 682.003121 
L 912.096 685.032085 
L 914.328 688.267863 
L 916.56 691.733444 
L 918.792 695.456105 
L 921.024 699.46852 
L 923.256 703.810271 
L 925.488 708.529911 
L 927.72 713.687875 
L 929.952 719.360669 
L 932.184 725.647094 
L 934.416 732.677815 
L 936.648 740.630683 
L 938.88 749.756559 
L 941.112 760.42567 
L 943.344 773.217801 
L 945.576 789.11806 
L 947.808 810.013097 
L 950.04 840.298496 
L 952.272 895.270414 
L 954.504 1018.95015 
L 956.736 872.575118 
L 958.968 827.263274 
L 961.2 799.388401 
L 963.432 779.113327 
L 965.664 763.119566 
L 967.896 749.878352 
L 970.128 738.557831 
L 972.36 728.65486 
L 974.592 719.841834 
L 976.824 711.893493 
L 979.056 704.648296 
L 981.288 697.98646 
L 983.52 691.816705 
L 985.752 686.067882 
L 987.984 680.683457 
L 990.216 675.617764 
L 994.68 666.299291 
L 999.144 657.881768 
L 1003.608 650.200204 
L 1008.072 643.132461 
L 1012.536 636.585527 
L 1017 630.486873 
L 1021.464 624.778799 
L 1025.928 619.414607 
L 1030.392 614.355938 
L 1034.856 609.57088 
L 1039.32 605.032589 
L 1043.784 600.718271 
L 1050.48 594.624804 
L 1057.176 588.937004 
L 1063.872 583.610297 
L 1070.568 578.608168 
L 1077.264 573.900443 
L 1083.96 569.461992 
L 1090.656 565.271733 
L 1097.352 561.31186 
L 1104.048 557.56722 
L 1110.744 554.024834 
L 1119.672 549.597157 
L 1128.6 545.486874 
L 1137.528 541.675464 
L 1146.456 538.147795 
L 1155.384 534.891788 
L 1164.312 531.898177 
L 1173.24 529.160272 
L 1182.168 526.673663 
L 1191.096 524.435862 
L 1200.024 522.445919 
L 1208.952 520.704046 
L 1217.88 519.211354 
L 1226.808 517.969739 
L 1235.736 516.981961 
L 1244.664 516.251941 
L 1253.592 515.78524 
L 1262.52 515.589693 
L 1271.448 515.676139 
L 1278.144 515.934663 
L 1284.84 516.367763 
L 1291.536 516.9849 
L 1296 517.504067 
L 1296 517.504067 
" style="fill:none;stroke:#ff0000;stroke-linecap:square;stroke-width:3.0;"/>
   </g>
   <g id="patch_3">
    <path d="M 180 144 
L 1296 144 
" style="fill:none;stroke:#000000;stroke-linecap:square;stroke-linejoin:miter;"/>
   </g>
   <g id="patch_4">
    <path d="M 1296 1296 
L 1296 144 
" style="fill:none;stroke:#000000;stroke-linecap:square;stroke-linejoin:miter;"/>
   </g>
   <g id="patch_5">
    <path d="M 180 1296 
L 1296 1296 
" style="fill:none;stroke:#000000;stroke-linecap:square;stroke-linejoin:miter;"/>
   </g>
   <g id="patch_6">
    <path d="M 180 1296 
L 180 144 
" style="fill:none;stroke:#000000;stroke-linecap:square;stroke-linejoin:miter;"/>
   </g>
   <g id="matplotlib.axis_1">
    <g id="xtick_1">
     <g id="line2d_5">
      <defs>
       <path d="M 0 0 
L 0 -4 
" id="m93cc5ea36c" style="stroke:#000000;stroke-width:0.5;"/>
      </defs>
      <g>
       <use style="stroke:#000000;stroke-width:0.5;" x="180.0" xlink:href="#m93cc5ea36c" y="1296.0"/>
      </g>
     </g>
     <g id="line2d_6">
      <defs>
       <path d="M 0 0 
L 0 4 
" id="m5329a7affa" style="stroke:#000000;stroke-width:0.5;"/>
      </defs>
      <g>
       <use style="stroke:#000000;stroke-width:0.5;" x="180.0" xlink:href="#m5329a7affa" y="144.0"/>
      </g>
     </g>
     <g id="text_1">
      <!-- 0 -->
      <defs>
       <path d="M 31.78125 66.40625 
Q 24.171875 66.40625 20.328125 58.90625 
Q 16.5 51.421875 16.5 36.375 
Q 16.5 21.390625 20.328125 13.890625 
Q 24.171875 6.390625 31.78125 6.390625 
Q 39.453125 6.390625 43.28125 13.890625 
Q 47.125 21.390625 47.125 36.375 
Q 47.125 51.421875 43.28125 58.90625 
Q 39.453125 66.40625 31.78125 66.40625 
M 31.78125 74.21875 
Q 44.046875 74.21875 50.515625 64.515625 
Q 56.984375 54.828125 56.984375 36.375 
Q 56.984375 17.96875 50.515625 8.265625 
Q 44.046875 -1.421875 31.78125 -1.421875 
Q 19.53125 -1.421875 13.0625 8.265625 
Q 6.59375 17.96875 6.59375 36.375 
Q 6.59375 54.828125 13.0625 64.515625 
Q 19.53125 74.21875 31.78125 74.21875 
" id="BitstreamVeraSans-Roman-30"/>
      </defs>
      <g transform="translate(170.45625 1322.7953125)scale(0.3 -0.3)">
       <use xlink:href="#BitstreamVeraSans-Roman-30"/>
      </g>
     </g>
    </g>
    <g id="xtick_2">
     <g id="line2d_7">
      <g>
       <use style="stroke:#000000;stroke-width:0.5;" x="403.2" xlink:href="#m93cc5ea36c" y="1296.0"/>
      </g>
     </g>
     <g id="line2d_8">
      <g>
       <use style="stroke:#000000;stroke-width:0.5;" x="403.2" xlink:href="#m5329a7affa" y="144.0"/>
      </g>
     </g>
     <g id="text_2">
      <!-- 10 -->
      <defs>
       <path d="M 12.40625 8.296875 
L 28.515625 8.296875 
L 28.515625 63.921875 
L 10.984375 60.40625 
L 10.984375 69.390625 
L 28.421875 72.90625 
L 38.28125 72.90625 
L 38.28125 8.296875 
L 54.390625 8.296875 
L 54.390625 0 
L 12.40625 0 
z
" id="BitstreamVeraSans-Roman-31"/>
      </defs>
      <g transform="translate(384.1125 1322.7953125)scale(0.3 -0.3)">
       <use xlink:href="#BitstreamVeraSans-Roman-31"/>
       <use x="63.623046875" xlink:href="#BitstreamVeraSans-Roman-30"/>
      </g>
     </g>
    </g>
    <g id="xtick_3">
     <g id="line2d_9">
      <g>
       <use style="stroke:#000000;stroke-width:0.5;" x="626.4" xlink:href="#m93cc5ea36c" y="1296.0"/>
      </g>
     </g>
     <g id="line2d_10">
      <g>
       <use style="stroke:#000000;stroke-width:0.5;" x="626.4" xlink:href="#m5329a7affa" y="144.0"/>
      </g>
     </g>
     <g id="text_3">
      <!-- 20 -->
      <defs>
       <path d="M 19.1875 8.296875 
L 53.609375 8.296875 
L 53.609375 0 
L 7.328125 0 
L 7.328125 8.296875 
Q 12.9375 14.109375 22.625 23.890625 
Q 32.328125 33.6875 34.8125 36.53125 
Q 39.546875 41.84375 41.421875 45.53125 
Q 43.3125 49.21875 43.3125 52.78125 
Q 43.3125 58.59375 39.234375 62.25 
Q 35.15625 65.921875 28.609375 65.921875 
Q 23.96875 65.921875 18.8125 64.3125 
Q 13.671875 62.703125 7.8125 59.421875 
L 7.8125 69.390625 
Q 13.765625 71.78125 18.9375 73 
Q 24.125 74.21875 28.421875 74.21875 
Q 39.75 74.21875 46.484375 68.546875 
Q 53.21875 62.890625 53.21875 53.421875 
Q 53.21875 48.921875 51.53125 44.890625 
Q 49.859375 40.875 45.40625 35.40625 
Q 44.1875 33.984375 37.640625 27.21875 
Q 31.109375 20.453125 19.1875 8.296875 
" id="BitstreamVeraSans-Roman-32"/>
      </defs>
      <g transform="translate(607.3125 1322.7953125)scale(0.3 -0.3)">
       <use xlink:href="#BitstreamVeraSans-Roman-32"/>
       <use x="63.623046875" xlink:href="#BitstreamVeraSans-Roman-30"/>
      </g>
     </g>
    </g>
    <g id="xtick_4">
     <g id="line2d_11">
      <g>
       <use style="stroke:#000000;stroke-width:0.5;" x="849.6" xlink:href="#m93cc5ea36c" y="1296.0"/>
      </g>
     </g>
     <g id="line2d_12">
      <g>
       <use style="stroke:#000000;stroke-width:0.5;" x="849.6" xlink:href="#m5329a7affa" y="144.0"/>
      </g>
     </g>
     <g id="text_4">
      <!-- 30 -->
      <defs>
       <path d="M 40.578125 39.3125 
Q 47.65625 37.796875 51.625 33 
Q 55.609375 28.21875 55.609375 21.1875 
Q 55.609375 10.40625 48.1875 4.484375 
Q 40.765625 -1.421875 27.09375 -1.421875 
Q 22.515625 -1.421875 17.65625 -0.515625 
Q 12.796875 0.390625 7.625 2.203125 
L 7.625 11.71875 
Q 11.71875 9.328125 16.59375 8.109375 
Q 21.484375 6.890625 26.8125 6.890625 
Q 36.078125 6.890625 40.9375 10.546875 
Q 45.796875 14.203125 45.796875 21.1875 
Q 45.796875 27.640625 41.28125 31.265625 
Q 36.765625 34.90625 28.71875 34.90625 
L 20.21875 34.90625 
L 20.21875 43.015625 
L 29.109375 43.015625 
Q 36.375 43.015625 40.234375 45.921875 
Q 44.09375 48.828125 44.09375 54.296875 
Q 44.09375 59.90625 40.109375 62.90625 
Q 36.140625 65.921875 28.71875 65.921875 
Q 24.65625 65.921875 20.015625 65.03125 
Q 15.375 64.15625 9.8125 62.3125 
L 9.8125 71.09375 
Q 15.4375 72.65625 20.34375 73.4375 
Q 25.25 74.21875 29.59375 74.21875 
Q 40.828125 74.21875 47.359375 69.109375 
Q 53.90625 64.015625 53.90625 55.328125 
Q 53.90625 49.265625 50.4375 45.09375 
Q 46.96875 40.921875 40.578125 39.3125 
" id="BitstreamVeraSans-Roman-33"/>
      </defs>
      <g transform="translate(830.5125 1322.7953125)scale(0.3 -0.3)">
       <use xlink:href="#BitstreamVeraSans-Roman-33"/>
       <use x="63.623046875" xlink:href="#BitstreamVeraSans-Roman-30"/>
      </g>
     </g>
    </g>
    <g id="xtick_5">
     <g id="line2d_13">
      <g>
       <use style="stroke:#000000;stroke-width:0.5;" x="1072.8" xlink:href="#m93cc5ea36c" y="1296.0"/>
      </g>
     </g>
     <g id="line2d_14">
      <g>
       <use style="stroke:#000000;stroke-width:0.5;" x="1072.8" xlink:href="#m5329a7affa" y="144.0"/>
      </g>
     </g>
     <g id="text_5">
      <!-- 40 -->
      <defs>
       <path d="M 37.796875 64.3125 
L 12.890625 25.390625 
L 37.796875 25.390625 
z
M 35.203125 72.90625 
L 47.609375 72.90625 
L 47.609375 25.390625 
L 58.015625 25.390625 
L 58.015625 17.1875 
L 47.609375 17.1875 
L 47.609375 0 
L 37.796875 0 
L 37.796875 17.1875 
L 4.890625 17.1875 
L 4.890625 26.703125 
z
" id="BitstreamVeraSans-Roman-34"/>
      </defs>
      <g transform="translate(1053.7125 1322.7953125)scale(0.3 -0.3)">
       <use xlink:href="#BitstreamVeraSans-Roman-34"/>
       <use x="63.623046875" xlink:href="#BitstreamVeraSans-Roman-30"/>
      </g>
     </g>
    </g>
    <g id="xtick_6">
     <g id="line2d_15">
      <g>
       <use style="stroke:#000000;stroke-width:0.5;" x="1296.0" xlink:href="#m93cc5ea36c" y="1296.0"/>
      </g>
     </g>
     <g id="line2d_16">
      <g>
       <use style="stroke:#000000;stroke-width:0.5;" x="1296.0" xlink:href="#m5329a7affa" y="144.0"/>
      </g>
     </g>
     <g id="text_6">
      <!-- 50 -->
      <defs>
       <path d="M 10.796875 72.90625 
L 49.515625 72.90625 
L 49.515625 64.59375 
L 19.828125 64.59375 
L 19.828125 46.734375 
Q 21.96875 47.46875 24.109375 47.828125 
Q 26.265625 48.1875 28.421875 48.1875 
Q 40.625 48.1875 47.75 41.5 
Q 54.890625 34.8125 54.890625 23.390625 
Q 54.890625 11.625 47.5625 5.09375 
Q 40.234375 -1.421875 26.90625 -1.421875 
Q 22.3125 -1.421875 17.546875 -0.640625 
Q 12.796875 0.140625 7.71875 1.703125 
L 7.71875 11.625 
Q 12.109375 9.234375 16.796875 8.0625 
Q 21.484375 6.890625 26.703125 6.890625 
Q 35.15625 6.890625 40.078125 11.328125 
Q 45.015625 15.765625 45.015625 23.390625 
Q 45.015625 31 40.078125 35.4375 
Q 35.15625 39.890625 26.703125 39.890625 
Q 22.75 39.890625 18.8125 39.015625 
Q 14.890625 38.140625 10.796875 36.28125 
z
" id="BitstreamVeraSans-Roman-35"/>
      </defs>
      <g transform="translate(1276.9125 1322.7953125)scale(0.3 -0.3)">
       <use xlink:href="#BitstreamVeraSans-Roman-35"/>
       <use x="63.623046875" xlink:href="#BitstreamVeraSans-Roman-30"/>
      </g>
     </g>
    </g>
    <g id="text_7">
     <!-- Input power $I$  -->
     <defs>
      <path id="BitstreamVeraSans-Roman-20"/>
      <path d="M 54.890625 33.015625 
L 54.890625 0 
L 45.90625 0 
L 45.90625 32.71875 
Q 45.90625 40.484375 42.875 44.328125 
Q 39.84375 48.1875 33.796875 48.1875 
Q 26.515625 48.1875 22.3125 43.546875 
Q 18.109375 38.921875 18.109375 30.90625 
L 18.109375 0 
L 9.078125 0 
L 9.078125 54.6875 
L 18.109375 54.6875 
L 18.109375 46.1875 
Q 21.34375 51.125 25.703125 53.5625 
Q 30.078125 56 35.796875 56 
Q 45.21875 56 50.046875 50.171875 
Q 54.890625 44.34375 54.890625 33.015625 
" id="BitstreamVeraSans-Roman-6e"/>
      <path d="M 4.203125 0 
Q 3.21875 0 3.21875 1.3125 
Q 3.609375 3.515625 4.5 3.515625 
Q 10.40625 3.515625 12.5 3.90625 
Q 14.796875 4.4375 15.375 6.890625 
L 29.109375 61.8125 
Q 29.296875 62.796875 29.296875 63.09375 
Q 29.296875 63.71875 28.96875 63.984375 
Q 28.65625 64.265625 27.984375 64.40625 
Q 25.984375 64.796875 20.40625 64.796875 
Q 19.390625 64.796875 19.390625 66.109375 
Q 19.734375 67.390625 19.921875 67.84375 
Q 20.125 68.3125 21.09375 68.3125 
L 49.03125 68.3125 
Q 50 68.3125 50 67 
Q 49.953125 66.75 49.796875 66.15625 
Q 49.65625 65.578125 49.40625 65.1875 
Q 49.171875 64.796875 48.6875 64.796875 
Q 42.828125 64.796875 40.578125 64.40625 
Q 38.375 63.875 37.796875 61.375 
L 24.125 6.5 
Q 23.875 5.28125 23.875 5.171875 
Q 23.875 4.9375 23.953125 4.71875 
Q 24.03125 4.5 24.25 4.328125 
Q 24.46875 4.15625 24.6875 4.078125 
Q 24.90625 4 25.203125 3.90625 
Q 27.09375 3.515625 32.8125 3.515625 
Q 33.796875 3.515625 33.796875 2.203125 
Q 33.453125 0.78125 33.25 0.390625 
Q 33.0625 0 32.078125 0 
z
" id="Cmmi10-49"/>
      <path d="M 30.609375 48.390625 
Q 23.390625 48.390625 19.1875 42.75 
Q 14.984375 37.109375 14.984375 27.296875 
Q 14.984375 17.484375 19.15625 11.84375 
Q 23.34375 6.203125 30.609375 6.203125 
Q 37.796875 6.203125 41.984375 11.859375 
Q 46.1875 17.53125 46.1875 27.296875 
Q 46.1875 37.015625 41.984375 42.703125 
Q 37.796875 48.390625 30.609375 48.390625 
M 30.609375 56 
Q 42.328125 56 49.015625 48.375 
Q 55.71875 40.765625 55.71875 27.296875 
Q 55.71875 13.875 49.015625 6.21875 
Q 42.328125 -1.421875 30.609375 -1.421875 
Q 18.84375 -1.421875 12.171875 6.21875 
Q 5.515625 13.875 5.515625 27.296875 
Q 5.515625 40.765625 12.171875 48.375 
Q 18.84375 56 30.609375 56 
" id="BitstreamVeraSans-Roman-6f"/>
      <path d="M 9.8125 72.90625 
L 19.671875 72.90625 
L 19.671875 0 
L 9.8125 0 
z
" id="BitstreamVeraSans-Roman-49"/>
      <path d="M 56.203125 29.59375 
L 56.203125 25.203125 
L 14.890625 25.203125 
Q 15.484375 15.921875 20.484375 11.0625 
Q 25.484375 6.203125 34.421875 6.203125 
Q 39.59375 6.203125 44.453125 7.46875 
Q 49.3125 8.734375 54.109375 11.28125 
L 54.109375 2.78125 
Q 49.265625 0.734375 44.1875 -0.34375 
Q 39.109375 -1.421875 33.890625 -1.421875 
Q 20.796875 -1.421875 13.15625 6.1875 
Q 5.515625 13.8125 5.515625 26.8125 
Q 5.515625 40.234375 12.765625 48.109375 
Q 20.015625 56 32.328125 56 
Q 43.359375 56 49.78125 48.890625 
Q 56.203125 41.796875 56.203125 29.59375 
M 47.21875 32.234375 
Q 47.125 39.59375 43.09375 43.984375 
Q 39.0625 48.390625 32.421875 48.390625 
Q 24.90625 48.390625 20.390625 44.140625 
Q 15.875 39.890625 15.1875 32.171875 
z
" id="BitstreamVeraSans-Roman-65"/>
      <path d="M 4.203125 54.6875 
L 13.1875 54.6875 
L 24.421875 12.015625 
L 35.59375 54.6875 
L 46.1875 54.6875 
L 57.421875 12.015625 
L 68.609375 54.6875 
L 77.59375 54.6875 
L 63.28125 0 
L 52.6875 0 
L 40.921875 44.828125 
L 29.109375 0 
L 18.5 0 
z
" id="BitstreamVeraSans-Roman-77"/>
      <path d="M 18.3125 70.21875 
L 18.3125 54.6875 
L 36.8125 54.6875 
L 36.8125 47.703125 
L 18.3125 47.703125 
L 18.3125 18.015625 
Q 18.3125 11.328125 20.140625 9.421875 
Q 21.96875 7.515625 27.59375 7.515625 
L 36.8125 7.515625 
L 36.8125 0 
L 27.59375 0 
Q 17.1875 0 13.234375 3.875 
Q 9.28125 7.765625 9.28125 18.015625 
L 9.28125 47.703125 
L 2.6875 47.703125 
L 2.6875 54.6875 
L 9.28125 54.6875 
L 9.28125 70.21875 
z
" id="BitstreamVeraSans-Roman-74"/>
      <path d="M 8.5 21.578125 
L 8.5 54.6875 
L 17.484375 54.6875 
L 17.484375 21.921875 
Q 17.484375 14.15625 20.5 10.265625 
Q 23.53125 6.390625 29.59375 6.390625 
Q 36.859375 6.390625 41.078125 11.03125 
Q 45.3125 15.671875 45.3125 23.6875 
L 45.3125 54.6875 
L 54.296875 54.6875 
L 54.296875 0 
L 45.3125 0 
L 45.3125 8.40625 
Q 42.046875 3.421875 37.71875 1 
Q 33.40625 -1.421875 27.6875 -1.421875 
Q 18.265625 -1.421875 13.375 4.4375 
Q 8.5 10.296875 8.5 21.578125 
" id="BitstreamVeraSans-Roman-75"/>
      <path d="M 41.109375 46.296875 
Q 39.59375 47.171875 37.8125 47.578125 
Q 36.03125 48 33.890625 48 
Q 26.265625 48 22.1875 43.046875 
Q 18.109375 38.09375 18.109375 28.8125 
L 18.109375 0 
L 9.078125 0 
L 9.078125 54.6875 
L 18.109375 54.6875 
L 18.109375 46.1875 
Q 20.953125 51.171875 25.484375 53.578125 
Q 30.03125 56 36.53125 56 
Q 37.453125 56 38.578125 55.875 
Q 39.703125 55.765625 41.0625 55.515625 
z
" id="BitstreamVeraSans-Roman-72"/>
      <path d="M 18.109375 8.203125 
L 18.109375 -20.796875 
L 9.078125 -20.796875 
L 9.078125 54.6875 
L 18.109375 54.6875 
L 18.109375 46.390625 
Q 20.953125 51.265625 25.265625 53.625 
Q 29.59375 56 35.59375 56 
Q 45.5625 56 51.78125 48.09375 
Q 58.015625 40.1875 58.015625 27.296875 
Q 58.015625 14.40625 51.78125 6.484375 
Q 45.5625 -1.421875 35.59375 -1.421875 
Q 29.59375 -1.421875 25.265625 0.953125 
Q 20.953125 3.328125 18.109375 8.203125 
M 48.6875 27.296875 
Q 48.6875 37.203125 44.609375 42.84375 
Q 40.53125 48.484375 33.40625 48.484375 
Q 26.265625 48.484375 22.1875 42.84375 
Q 18.109375 37.203125 18.109375 27.296875 
Q 18.109375 17.390625 22.1875 11.75 
Q 26.265625 6.109375 33.40625 6.109375 
Q 40.53125 6.109375 44.609375 11.75 
Q 48.6875 17.390625 48.6875 27.296875 
" id="BitstreamVeraSans-Roman-70"/>
     </defs>
     <g transform="translate(610.56 1361.315625)scale(0.36 -0.36)">
      <use transform="translate(0.0 0.09375)" xlink:href="#BitstreamVeraSans-Roman-49"/>
      <use transform="translate(29.4921875 0.09375)" xlink:href="#BitstreamVeraSans-Roman-6e"/>
      <use transform="translate(92.87109375 0.09375)" xlink:href="#BitstreamVeraSans-Roman-70"/>
      <use transform="translate(156.34765625 0.09375)" xlink:href="#BitstreamVeraSans-Roman-75"/>
      <use transform="translate(219.7265625 0.09375)" xlink:href="#BitstreamVeraSans-Roman-74"/>
      <use transform="translate(258.935546875 0.09375)" xlink:href="#BitstreamVeraSans-Roman-20"/>
      <use transform="translate(290.72265625 0.09375)" xlink:href="#BitstreamVeraSans-Roman-70"/>
      <use transform="translate(354.19921875 0.09375)" xlink:href="#BitstreamVeraSans-Roman-6f"/>
      <use transform="translate(415.380859375 0.09375)" xlink:href="#BitstreamVeraSans-Roman-77"/>
      <use transform="translate(497.16796875 0.09375)" xlink:href="#BitstreamVeraSans-Roman-65"/>
      <use transform="translate(558.69140625 0.09375)" xlink:href="#BitstreamVeraSans-Roman-72"/>
      <use transform="translate(599.8046875 0.09375)" xlink:href="#BitstreamVeraSans-Roman-20"/>
      <use transform="translate(631.591796875 0.09375)" xlink:href="#Cmmi10-49"/>
      <use transform="translate(675.48828125 0.09375)" xlink:href="#BitstreamVeraSans-Roman-20"/>
     </g>
    </g>
   </g>
   <g id="matplotlib.axis_2">
    <g id="ytick_1">
     <g id="line2d_17">
      <defs>
       <path d="M 0 0 
L 4 0 
" id="m250bb7598e" style="stroke:#000000;stroke-width:0.5;"/>
      </defs>
      <g>
       <use style="stroke:#000000;stroke-width:0.5;" x="180.0" xlink:href="#m250bb7598e" y="1296.0"/>
      </g>
     </g>
     <g id="line2d_18">
      <defs>
       <path d="M 0 0 
L -4 0 
" id="m5b00451eac" style="stroke:#000000;stroke-width:0.5;"/>
      </defs>
      <g>
       <use style="stroke:#000000;stroke-width:0.5;" x="1296.0" xlink:href="#m5b00451eac" y="1296.0"/>
      </g>
     </g>
     <g id="text_8">
      <!-- −140 -->
      <defs>
       <path d="M 10.59375 35.5 
L 73.1875 35.5 
L 73.1875 27.203125 
L 10.59375 27.203125 
z
" id="BitstreamVeraSans-Roman-2212"/>
      </defs>
      <g transform="translate(93.5984375 1304.278125)scale(0.3 -0.3)">
       <use xlink:href="#BitstreamVeraSans-Roman-2212"/>
       <use x="83.7890625" xlink:href="#BitstreamVeraSans-Roman-31"/>
       <use x="147.412109375" xlink:href="#BitstreamVeraSans-Roman-34"/>
       <use x="211.03515625" xlink:href="#BitstreamVeraSans-Roman-30"/>
      </g>
     </g>
    </g>
    <g id="ytick_2">
     <g id="line2d_19">
      <g>
       <use style="stroke:#000000;stroke-width:0.5;" x="180.0" xlink:href="#m250bb7598e" y="1131.42857143"/>
      </g>
     </g>
     <g id="line2d_20">
      <g>
       <use style="stroke:#000000;stroke-width:0.5;" x="1296.0" xlink:href="#m5b00451eac" y="1131.42857143"/>
      </g>
     </g>
     <g id="text_9">
      <!-- −120 -->
      <g transform="translate(93.5984375 1139.70669643)scale(0.3 -0.3)">
       <use xlink:href="#BitstreamVeraSans-Roman-2212"/>
       <use x="83.7890625" xlink:href="#BitstreamVeraSans-Roman-31"/>
       <use x="147.412109375" xlink:href="#BitstreamVeraSans-Roman-32"/>
       <use x="211.03515625" xlink:href="#BitstreamVeraSans-Roman-30"/>
      </g>
     </g>
    </g>
    <g id="ytick_3">
     <g id="line2d_21">
      <g>
       <use style="stroke:#000000;stroke-width:0.5;" x="180.0" xlink:href="#m250bb7598e" y="966.857142857"/>
      </g>
     </g>
     <g id="line2d_22">
      <g>
       <use style="stroke:#000000;stroke-width:0.5;" x="1296.0" xlink:href="#m5b00451eac" y="966.857142857"/>
      </g>
     </g>
     <g id="text_10">
      <!-- −100 -->
      <g transform="translate(93.5984375 975.135267857)scale(0.3 -0.3)">
       <use xlink:href="#BitstreamVeraSans-Roman-2212"/>
       <use x="83.7890625" xlink:href="#BitstreamVeraSans-Roman-31"/>
       <use x="147.412109375" xlink:href="#BitstreamVeraSans-Roman-30"/>
       <use x="211.03515625" xlink:href="#BitstreamVeraSans-Roman-30"/>
      </g>
     </g>
    </g>
    <g id="ytick_4">
     <g id="line2d_23">
      <g>
       <use style="stroke:#000000;stroke-width:0.5;" x="180.0" xlink:href="#m250bb7598e" y="802.285714286"/>
      </g>
     </g>
     <g id="line2d_24">
      <g>
       <use style="stroke:#000000;stroke-width:0.5;" x="1296.0" xlink:href="#m5b00451eac" y="802.285714286"/>
      </g>
     </g>
     <g id="text_11">
      <!-- −80 -->
      <defs>
       <path d="M 31.78125 34.625 
Q 24.75 34.625 20.71875 30.859375 
Q 16.703125 27.09375 16.703125 20.515625 
Q 16.703125 13.921875 20.71875 10.15625 
Q 24.75 6.390625 31.78125 6.390625 
Q 38.8125 6.390625 42.859375 10.171875 
Q 46.921875 13.96875 46.921875 20.515625 
Q 46.921875 27.09375 42.890625 30.859375 
Q 38.875 34.625 31.78125 34.625 
M 21.921875 38.8125 
Q 15.578125 40.375 12.03125 44.71875 
Q 8.5 49.078125 8.5 55.328125 
Q 8.5 64.0625 14.71875 69.140625 
Q 20.953125 74.21875 31.78125 74.21875 
Q 42.671875 74.21875 48.875 69.140625 
Q 55.078125 64.0625 55.078125 55.328125 
Q 55.078125 49.078125 51.53125 44.71875 
Q 48 40.375 41.703125 38.8125 
Q 48.828125 37.15625 52.796875 32.3125 
Q 56.78125 27.484375 56.78125 20.515625 
Q 56.78125 9.90625 50.3125 4.234375 
Q 43.84375 -1.421875 31.78125 -1.421875 
Q 19.734375 -1.421875 13.25 4.234375 
Q 6.78125 9.90625 6.78125 20.515625 
Q 6.78125 27.484375 10.78125 32.3125 
Q 14.796875 37.15625 21.921875 38.8125 
M 18.3125 54.390625 
Q 18.3125 48.734375 21.84375 45.5625 
Q 25.390625 42.390625 31.78125 42.390625 
Q 38.140625 42.390625 41.71875 45.5625 
Q 45.3125 48.734375 45.3125 54.390625 
Q 45.3125 60.0625 41.71875 63.234375 
Q 38.140625 66.40625 31.78125 66.40625 
Q 25.390625 66.40625 21.84375 63.234375 
Q 18.3125 60.0625 18.3125 54.390625 
" id="BitstreamVeraSans-Roman-38"/>
      </defs>
      <g transform="translate(112.6859375 810.563839286)scale(0.3 -0.3)">
       <use xlink:href="#BitstreamVeraSans-Roman-2212"/>
       <use x="83.7890625" xlink:href="#BitstreamVeraSans-Roman-38"/>
       <use x="147.412109375" xlink:href="#BitstreamVeraSans-Roman-30"/>
      </g>
     </g>
    </g>
    <g id="ytick_5">
     <g id="line2d_25">
      <g>
       <use style="stroke:#000000;stroke-width:0.5;" x="180.0" xlink:href="#m250bb7598e" y="637.714285714"/>
      </g>
     </g>
     <g id="line2d_26">
      <g>
       <use style="stroke:#000000;stroke-width:0.5;" x="1296.0" xlink:href="#m5b00451eac" y="637.714285714"/>
      </g>
     </g>
     <g id="text_12">
      <!-- −60 -->
      <defs>
       <path d="M 33.015625 40.375 
Q 26.375 40.375 22.484375 35.828125 
Q 18.609375 31.296875 18.609375 23.390625 
Q 18.609375 15.53125 22.484375 10.953125 
Q 26.375 6.390625 33.015625 6.390625 
Q 39.65625 6.390625 43.53125 10.953125 
Q 47.40625 15.53125 47.40625 23.390625 
Q 47.40625 31.296875 43.53125 35.828125 
Q 39.65625 40.375 33.015625 40.375 
M 52.59375 71.296875 
L 52.59375 62.3125 
Q 48.875 64.0625 45.09375 64.984375 
Q 41.3125 65.921875 37.59375 65.921875 
Q 27.828125 65.921875 22.671875 59.328125 
Q 17.53125 52.734375 16.796875 39.40625 
Q 19.671875 43.65625 24.015625 45.921875 
Q 28.375 48.1875 33.59375 48.1875 
Q 44.578125 48.1875 50.953125 41.515625 
Q 57.328125 34.859375 57.328125 23.390625 
Q 57.328125 12.15625 50.6875 5.359375 
Q 44.046875 -1.421875 33.015625 -1.421875 
Q 20.359375 -1.421875 13.671875 8.265625 
Q 6.984375 17.96875 6.984375 36.375 
Q 6.984375 53.65625 15.1875 63.9375 
Q 23.390625 74.21875 37.203125 74.21875 
Q 40.921875 74.21875 44.703125 73.484375 
Q 48.484375 72.75 52.59375 71.296875 
" id="BitstreamVeraSans-Roman-36"/>
      </defs>
      <g transform="translate(112.6859375 645.992410714)scale(0.3 -0.3)">
       <use xlink:href="#BitstreamVeraSans-Roman-2212"/>
       <use x="83.7890625" xlink:href="#BitstreamVeraSans-Roman-36"/>
       <use x="147.412109375" xlink:href="#BitstreamVeraSans-Roman-30"/>
      </g>
     </g>
    </g>
    <g id="ytick_6">
     <g id="line2d_27">
      <g>
       <use style="stroke:#000000;stroke-width:0.5;" x="180.0" xlink:href="#m250bb7598e" y="473.142857143"/>
      </g>
     </g>
     <g id="line2d_28">
      <g>
       <use style="stroke:#000000;stroke-width:0.5;" x="1296.0" xlink:href="#m5b00451eac" y="473.142857143"/>
      </g>
     </g>
     <g id="text_13">
      <!-- −40 -->
      <g transform="translate(112.6859375 481.420982143)scale(0.3 -0.3)">
       <use xlink:href="#BitstreamVeraSans-Roman-2212"/>
       <use x="83.7890625" xlink:href="#BitstreamVeraSans-Roman-34"/>
       <use x="147.412109375" xlink:href="#BitstreamVeraSans-Roman-30"/>
      </g>
     </g>
    </g>
    <g id="ytick_7">
     <g id="line2d_29">
      <g>
       <use style="stroke:#000000;stroke-width:0.5;" x="180.0" xlink:href="#m250bb7598e" y="308.571428571"/>
      </g>
     </g>
     <g id="line2d_30">
      <g>
       <use style="stroke:#000000;stroke-width:0.5;" x="1296.0" xlink:href="#m5b00451eac" y="308.571428571"/>
      </g>
     </g>
     <g id="text_14">
      <!-- −20 -->
      <g transform="translate(112.6859375 316.849553571)scale(0.3 -0.3)">
       <use xlink:href="#BitstreamVeraSans-Roman-2212"/>
       <use x="83.7890625" xlink:href="#BitstreamVeraSans-Roman-32"/>
       <use x="147.412109375" xlink:href="#BitstreamVeraSans-Roman-30"/>
      </g>
     </g>
    </g>
    <g id="ytick_8">
     <g id="line2d_31">
      <g>
       <use style="stroke:#000000;stroke-width:0.5;" x="180.0" xlink:href="#m250bb7598e" y="144.0"/>
      </g>
     </g>
     <g id="line2d_32">
      <g>
       <use style="stroke:#000000;stroke-width:0.5;" x="1296.0" xlink:href="#m5b00451eac" y="144.0"/>
      </g>
     </g>
     <g id="text_15">
      <!-- 0 -->
      <g transform="translate(156.9125 152.278125)scale(0.3 -0.3)">
       <use xlink:href="#BitstreamVeraSans-Roman-30"/>
      </g>
     </g>
    </g>
   </g>
   <g id="text_16">
    <!-- Transmittance with different loss distribution  -->
    <defs>
     <path d="M 52 44.1875 
Q 55.375 50.25 60.0625 53.125 
Q 64.75 56 71.09375 56 
Q 79.640625 56 84.28125 50.015625 
Q 88.921875 44.046875 88.921875 33.015625 
L 88.921875 0 
L 79.890625 0 
L 79.890625 32.71875 
Q 79.890625 40.578125 77.09375 44.375 
Q 74.3125 48.1875 68.609375 48.1875 
Q 61.625 48.1875 57.5625 43.546875 
Q 53.515625 38.921875 53.515625 30.90625 
L 53.515625 0 
L 44.484375 0 
L 44.484375 32.71875 
Q 44.484375 40.625 41.703125 44.40625 
Q 38.921875 48.1875 33.109375 48.1875 
Q 26.21875 48.1875 22.15625 43.53125 
Q 18.109375 38.875 18.109375 30.90625 
L 18.109375 0 
L 9.078125 0 
L 9.078125 54.6875 
L 18.109375 54.6875 
L 18.109375 46.1875 
Q 21.1875 51.21875 25.484375 53.609375 
Q 29.78125 56 35.6875 56 
Q 41.65625 56 45.828125 52.96875 
Q 50 49.953125 52 44.1875 
" id="BitstreamVeraSans-Roman-6d"/>
     <path d="M 9.421875 75.984375 
L 18.40625 75.984375 
L 18.40625 0 
L 9.421875 0 
z
" id="BitstreamVeraSans-Roman-6c"/>
     <path d="M 9.421875 54.6875 
L 18.40625 54.6875 
L 18.40625 0 
L 9.421875 0 
z
M 9.421875 75.984375 
L 18.40625 75.984375 
L 18.40625 64.59375 
L 9.421875 64.59375 
z
" id="BitstreamVeraSans-Roman-69"/>
     <path d="M 54.890625 33.015625 
L 54.890625 0 
L 45.90625 0 
L 45.90625 32.71875 
Q 45.90625 40.484375 42.875 44.328125 
Q 39.84375 48.1875 33.796875 48.1875 
Q 26.515625 48.1875 22.3125 43.546875 
Q 18.109375 38.921875 18.109375 30.90625 
L 18.109375 0 
L 9.078125 0 
L 9.078125 75.984375 
L 18.109375 75.984375 
L 18.109375 46.1875 
Q 21.34375 51.125 25.703125 53.5625 
Q 30.078125 56 35.796875 56 
Q 45.21875 56 50.046875 50.171875 
Q 54.890625 44.34375 54.890625 33.015625 
" id="BitstreamVeraSans-Roman-68"/>
     <path d="M 45.40625 46.390625 
L 45.40625 75.984375 
L 54.390625 75.984375 
L 54.390625 0 
L 45.40625 0 
L 45.40625 8.203125 
Q 42.578125 3.328125 38.25 0.953125 
Q 33.9375 -1.421875 27.875 -1.421875 
Q 17.96875 -1.421875 11.734375 6.484375 
Q 5.515625 14.40625 5.515625 27.296875 
Q 5.515625 40.1875 11.734375 48.09375 
Q 17.96875 56 27.875 56 
Q 33.9375 56 38.25 53.625 
Q 42.578125 51.265625 45.40625 46.390625 
M 14.796875 27.296875 
Q 14.796875 17.390625 18.875 11.75 
Q 22.953125 6.109375 30.078125 6.109375 
Q 37.203125 6.109375 41.296875 11.75 
Q 45.40625 17.390625 45.40625 27.296875 
Q 45.40625 37.203125 41.296875 42.84375 
Q 37.203125 48.484375 30.078125 48.484375 
Q 22.953125 48.484375 18.875 42.84375 
Q 14.796875 37.203125 14.796875 27.296875 
" id="BitstreamVeraSans-Roman-64"/>
     <path d="M -0.296875 72.90625 
L 61.375 72.90625 
L 61.375 64.59375 
L 35.5 64.59375 
L 35.5 0 
L 25.59375 0 
L 25.59375 64.59375 
L -0.296875 64.59375 
z
" id="BitstreamVeraSans-Roman-54"/>
     <path d="M 37.109375 75.984375 
L 37.109375 68.5 
L 28.515625 68.5 
Q 23.6875 68.5 21.796875 66.546875 
Q 19.921875 64.59375 19.921875 59.515625 
L 19.921875 54.6875 
L 34.71875 54.6875 
L 34.71875 47.703125 
L 19.921875 47.703125 
L 19.921875 0 
L 10.890625 0 
L 10.890625 47.703125 
L 2.296875 47.703125 
L 2.296875 54.6875 
L 10.890625 54.6875 
L 10.890625 58.5 
Q 10.890625 67.625 15.140625 71.796875 
Q 19.390625 75.984375 28.609375 75.984375 
z
" id="BitstreamVeraSans-Roman-66"/>
     <path d="M 34.28125 27.484375 
Q 23.390625 27.484375 19.1875 25 
Q 14.984375 22.515625 14.984375 16.5 
Q 14.984375 11.71875 18.140625 8.90625 
Q 21.296875 6.109375 26.703125 6.109375 
Q 34.1875 6.109375 38.703125 11.40625 
Q 43.21875 16.703125 43.21875 25.484375 
L 43.21875 27.484375 
z
M 52.203125 31.203125 
L 52.203125 0 
L 43.21875 0 
L 43.21875 8.296875 
Q 40.140625 3.328125 35.546875 0.953125 
Q 30.953125 -1.421875 24.3125 -1.421875 
Q 15.921875 -1.421875 10.953125 3.296875 
Q 6 8.015625 6 15.921875 
Q 6 25.140625 12.171875 29.828125 
Q 18.359375 34.515625 30.609375 34.515625 
L 43.21875 34.515625 
L 43.21875 35.40625 
Q 43.21875 41.609375 39.140625 45 
Q 35.0625 48.390625 27.6875 48.390625 
Q 23 48.390625 18.546875 47.265625 
Q 14.109375 46.140625 10.015625 43.890625 
L 10.015625 52.203125 
Q 14.9375 54.109375 19.578125 55.046875 
Q 24.21875 56 28.609375 56 
Q 40.484375 56 46.34375 49.84375 
Q 52.203125 43.703125 52.203125 31.203125 
" id="BitstreamVeraSans-Roman-61"/>
     <path d="M 44.28125 53.078125 
L 44.28125 44.578125 
Q 40.484375 46.53125 36.375 47.5 
Q 32.28125 48.484375 27.875 48.484375 
Q 21.1875 48.484375 17.84375 46.4375 
Q 14.5 44.390625 14.5 40.28125 
Q 14.5 37.15625 16.890625 35.375 
Q 19.28125 33.59375 26.515625 31.984375 
L 29.59375 31.296875 
Q 39.15625 29.25 43.1875 25.515625 
Q 47.21875 21.78125 47.21875 15.09375 
Q 47.21875 7.46875 41.1875 3.015625 
Q 35.15625 -1.421875 24.609375 -1.421875 
Q 20.21875 -1.421875 15.453125 -0.5625 
Q 10.6875 0.296875 5.421875 2 
L 5.421875 11.28125 
Q 10.40625 8.6875 15.234375 7.390625 
Q 20.0625 6.109375 24.8125 6.109375 
Q 31.15625 6.109375 34.5625 8.28125 
Q 37.984375 10.453125 37.984375 14.40625 
Q 37.984375 18.0625 35.515625 20.015625 
Q 33.0625 21.96875 24.703125 23.78125 
L 21.578125 24.515625 
Q 13.234375 26.265625 9.515625 29.90625 
Q 5.8125 33.546875 5.8125 39.890625 
Q 5.8125 47.609375 11.28125 51.796875 
Q 16.75 56 26.8125 56 
Q 31.78125 56 36.171875 55.265625 
Q 40.578125 54.546875 44.28125 53.078125 
" id="BitstreamVeraSans-Roman-73"/>
     <path d="M 48.78125 52.59375 
L 48.78125 44.1875 
Q 44.96875 46.296875 41.140625 47.34375 
Q 37.3125 48.390625 33.40625 48.390625 
Q 24.65625 48.390625 19.8125 42.84375 
Q 14.984375 37.3125 14.984375 27.296875 
Q 14.984375 17.28125 19.8125 11.734375 
Q 24.65625 6.203125 33.40625 6.203125 
Q 37.3125 6.203125 41.140625 7.25 
Q 44.96875 8.296875 48.78125 10.40625 
L 48.78125 2.09375 
Q 45.015625 0.34375 40.984375 -0.53125 
Q 36.96875 -1.421875 32.421875 -1.421875 
Q 20.0625 -1.421875 12.78125 6.34375 
Q 5.515625 14.109375 5.515625 27.296875 
Q 5.515625 40.671875 12.859375 48.328125 
Q 20.21875 56 33.015625 56 
Q 37.15625 56 41.109375 55.140625 
Q 45.0625 54.296875 48.78125 52.59375 
" id="BitstreamVeraSans-Roman-63"/>
     <path d="M 48.6875 27.296875 
Q 48.6875 37.203125 44.609375 42.84375 
Q 40.53125 48.484375 33.40625 48.484375 
Q 26.265625 48.484375 22.1875 42.84375 
Q 18.109375 37.203125 18.109375 27.296875 
Q 18.109375 17.390625 22.1875 11.75 
Q 26.265625 6.109375 33.40625 6.109375 
Q 40.53125 6.109375 44.609375 11.75 
Q 48.6875 17.390625 48.6875 27.296875 
M 18.109375 46.390625 
Q 20.953125 51.265625 25.265625 53.625 
Q 29.59375 56 35.59375 56 
Q 45.5625 56 51.78125 48.09375 
Q 58.015625 40.1875 58.015625 27.296875 
Q 58.015625 14.40625 51.78125 6.484375 
Q 45.5625 -1.421875 35.59375 -1.421875 
Q 29.59375 -1.421875 25.265625 0.953125 
Q 20.953125 3.328125 18.109375 8.203125 
L 18.109375 0 
L 9.078125 0 
L 9.078125 75.984375 
L 18.109375 75.984375 
z
" id="BitstreamVeraSans-Roman-62"/>
    </defs>
    <g transform="translate(326.53125 97.529125)scale(0.36 -0.36)">
     <use xlink:href="#BitstreamVeraSans-Roman-54"/>
     <use x="60.865234375" xlink:href="#BitstreamVeraSans-Roman-72"/>
     <use x="101.978515625" xlink:href="#BitstreamVeraSans-Roman-61"/>
     <use x="163.2578125" xlink:href="#BitstreamVeraSans-Roman-6e"/>
     <use x="226.63671875" xlink:href="#BitstreamVeraSans-Roman-73"/>
     <use x="278.736328125" xlink:href="#BitstreamVeraSans-Roman-6d"/>
     <use x="376.1484375" xlink:href="#BitstreamVeraSans-Roman-69"/>
     <use x="403.931640625" xlink:href="#BitstreamVeraSans-Roman-74"/>
     <use x="443.140625" xlink:href="#BitstreamVeraSans-Roman-74"/>
     <use x="482.349609375" xlink:href="#BitstreamVeraSans-Roman-61"/>
     <use x="543.62890625" xlink:href="#BitstreamVeraSans-Roman-6e"/>
     <use x="607.0078125" xlink:href="#BitstreamVeraSans-Roman-63"/>
     <use x="661.98828125" xlink:href="#BitstreamVeraSans-Roman-65"/>
     <use x="723.51171875" xlink:href="#BitstreamVeraSans-Roman-20"/>
     <use x="755.298828125" xlink:href="#BitstreamVeraSans-Roman-77"/>
     <use x="837.0859375" xlink:href="#BitstreamVeraSans-Roman-69"/>
     <use x="864.869140625" xlink:href="#BitstreamVeraSans-Roman-74"/>
     <use x="904.078125" xlink:href="#BitstreamVeraSans-Roman-68"/>
     <use x="967.45703125" xlink:href="#BitstreamVeraSans-Roman-20"/>
     <use x="999.244140625" xlink:href="#BitstreamVeraSans-Roman-64"/>
     <use x="1062.72070312" xlink:href="#BitstreamVeraSans-Roman-69"/>
     <use x="1090.50390625" xlink:href="#BitstreamVeraSans-Roman-66"/>
     <use x="1125.70898438" xlink:href="#BitstreamVeraSans-Roman-66"/>
     <use x="1160.9140625" xlink:href="#BitstreamVeraSans-Roman-65"/>
     <use x="1222.4375" xlink:href="#BitstreamVeraSans-Roman-72"/>
     <use x="1263.51953125" xlink:href="#BitstreamVeraSans-Roman-65"/>
     <use x="1325.04296875" xlink:href="#BitstreamVeraSans-Roman-6e"/>
     <use x="1388.421875" xlink:href="#BitstreamVeraSans-Roman-74"/>
     <use x="1427.63085938" xlink:href="#BitstreamVeraSans-Roman-20"/>
     <use x="1459.41796875" xlink:href="#BitstreamVeraSans-Roman-6c"/>
     <use x="1487.20117188" xlink:href="#BitstreamVeraSans-Roman-6f"/>
     <use x="1548.3828125" xlink:href="#BitstreamVeraSans-Roman-73"/>
     <use x="1600.48242188" xlink:href="#BitstreamVeraSans-Roman-73"/>
     <use x="1652.58203125" xlink:href="#BitstreamVeraSans-Roman-20"/>
     <use x="1684.36914062" xlink:href="#BitstreamVeraSans-Roman-64"/>
     <use x="1747.84570312" xlink:href="#BitstreamVeraSans-Roman-69"/>
     <use x="1775.62890625" xlink:href="#BitstreamVeraSans-Roman-73"/>
     <use x="1827.72851562" xlink:href="#BitstreamVeraSans-Roman-74"/>
     <use x="1866.9375" xlink:href="#BitstreamVeraSans-Roman-72"/>
     <use x="1908.05078125" xlink:href="#BitstreamVeraSans-Roman-69"/>
     <use x="1935.83398438" xlink:href="#BitstreamVeraSans-Roman-62"/>
     <use x="1999.31054688" xlink:href="#BitstreamVeraSans-Roman-75"/>
     <use x="2062.68945312" xlink:href="#BitstreamVeraSans-Roman-74"/>
     <use x="2101.8984375" xlink:href="#BitstreamVeraSans-Roman-69"/>
     <use x="2129.68164062" xlink:href="#BitstreamVeraSans-Roman-6f"/>
     <use x="2190.86328125" xlink:href="#BitstreamVeraSans-Roman-6e"/>
     <use x="2254.2421875" xlink:href="#BitstreamVeraSans-Roman-20"/>
    </g>
    <!--  $\gamma = i\kappa_1/2$ -->
    <defs>
     <path d="M 4.984375 0 
L 4.984375 2.6875 
Q 4.984375 2.9375 5.171875 3.21875 
L 20.703125 20.40625 
Q 24.21875 24.21875 26.40625 26.796875 
Q 28.609375 29.390625 30.75 32.765625 
Q 32.90625 36.140625 34.15625 39.625 
Q 35.40625 43.109375 35.40625 47.015625 
Q 35.40625 51.125 33.890625 54.859375 
Q 32.375 58.59375 29.375 60.84375 
Q 26.375 63.09375 22.125 63.09375 
Q 17.78125 63.09375 14.3125 60.46875 
Q 10.84375 57.859375 9.421875 53.71875 
Q 9.8125 53.8125 10.5 53.8125 
Q 12.75 53.8125 14.328125 52.296875 
Q 15.921875 50.78125 15.921875 48.390625 
Q 15.921875 46.09375 14.328125 44.5 
Q 12.75 42.921875 10.5 42.921875 
Q 8.15625 42.921875 6.5625 44.546875 
Q 4.984375 46.1875 4.984375 48.390625 
Q 4.984375 52.15625 6.390625 55.4375 
Q 7.8125 58.734375 10.46875 61.296875 
Q 13.140625 63.875 16.484375 65.234375 
Q 19.828125 66.609375 23.578125 66.609375 
Q 29.296875 66.609375 34.21875 64.1875 
Q 39.15625 61.765625 42.03125 57.34375 
Q 44.921875 52.9375 44.921875 47.015625 
Q 44.921875 42.671875 43.015625 38.765625 
Q 41.109375 34.859375 38.125 31.65625 
Q 35.15625 28.46875 30.515625 24.40625 
Q 25.875 20.359375 24.421875 19 
L 13.09375 8.109375 
L 22.703125 8.109375 
Q 29.78125 8.109375 34.546875 8.21875 
Q 39.3125 8.34375 39.59375 8.59375 
Q 40.765625 9.859375 42 17.828125 
L 44.921875 17.828125 
L 42.09375 0 
z
" id="Cmr10-32"/>
     <path d="M 9.28125 0 
L 9.28125 3.515625 
Q 21.78125 3.515625 21.78125 6.6875 
L 21.78125 59.1875 
Q 16.609375 56.6875 8.6875 56.6875 
L 8.6875 60.203125 
Q 20.953125 60.203125 27.203125 66.609375 
L 28.609375 66.609375 
Q 28.953125 66.609375 29.265625 66.328125 
Q 29.59375 66.0625 29.59375 65.71875 
L 29.59375 6.6875 
Q 29.59375 3.515625 42.09375 3.515625 
L 42.09375 0 
z
" id="Cmr10-31"/>
     <path d="M 29.5 -19.578125 
Q 29.5 -17.328125 30.5 -13.03125 
Q 31.5 -8.734375 32.9375 -3.875 
Q 34.375 0.984375 35.40625 4.109375 
Q 35.796875 9.078125 35.796875 11.625 
Q 35.796875 18.0625 34.515625 23.609375 
Q 33.25 29.15625 29.734375 32.890625 
Q 26.21875 36.625 19.921875 36.625 
Q 16.609375 36.625 13.3125 35.203125 
Q 10.015625 33.796875 7.640625 31.25 
Q 5.28125 28.71875 4.390625 25.484375 
Q 4.203125 24.90625 3.609375 24.90625 
L 2.390625 24.90625 
Q 1.609375 24.90625 1.609375 25.78125 
L 1.609375 26.125 
Q 2.734375 30.609375 5.59375 34.78125 
Q 8.453125 38.96875 12.578125 41.578125 
Q 16.703125 44.1875 21.296875 44.1875 
Q 25.984375 44.1875 29.390625 41.015625 
Q 32.8125 37.84375 34.859375 32.953125 
Q 36.921875 28.078125 37.8125 23.09375 
Q 38.71875 18.109375 38.71875 13.71875 
Q 43.75 27.390625 50 39.59375 
L 51.515625 42.828125 
Q 51.8125 43.109375 52.203125 43.109375 
L 53.421875 43.109375 
Q 54.203125 43.109375 54.203125 42.1875 
Q 54.203125 42 54 41.609375 
L 52.484375 38.484375 
Q 48.140625 29.828125 44.5 20.9375 
Q 40.875 12.0625 38.28125 3.8125 
Q 37.890625 0.4375 36.78125 -5.421875 
Q 35.6875 -11.28125 34.125 -16.328125 
Q 32.5625 -21.390625 31 -21.578125 
Q 29.5 -21.578125 29.5 -19.578125 
" id="Cmmi10-b0"/>
     <path d="M 7.515625 13.28125 
Q 6.6875 13.28125 6.140625 13.90625 
Q 5.609375 14.546875 5.609375 15.28125 
Q 5.609375 16.109375 6.140625 16.6875 
Q 6.6875 17.28125 7.515625 17.28125 
L 70.3125 17.28125 
Q 71.046875 17.28125 71.578125 16.6875 
Q 72.125 16.109375 72.125 15.28125 
Q 72.125 14.546875 71.578125 13.90625 
Q 71.046875 13.28125 70.3125 13.28125 
z
M 7.515625 32.71875 
Q 6.6875 32.71875 6.140625 33.296875 
Q 5.609375 33.890625 5.609375 34.71875 
Q 5.609375 35.453125 6.140625 36.078125 
Q 6.6875 36.71875 7.515625 36.71875 
L 70.3125 36.71875 
Q 71.046875 36.71875 71.578125 36.078125 
Q 72.125 35.453125 72.125 34.71875 
Q 72.125 33.890625 71.578125 33.296875 
Q 71.046875 32.71875 70.3125 32.71875 
z
" id="Cmr10-3d"/>
     <path d="M 7.8125 7.171875 
Q 7.8125 9.03125 8.59375 11.078125 
L 16.703125 32.625 
Q 18.015625 36.28125 18.015625 38.625 
Q 18.015625 41.609375 15.828125 41.609375 
Q 11.859375 41.609375 9.296875 37.53125 
Q 6.734375 33.453125 5.515625 28.421875 
Q 5.328125 27.78125 4.6875 27.78125 
L 3.515625 27.78125 
Q 2.6875 27.78125 2.6875 28.71875 
L 2.6875 29 
Q 4.296875 34.96875 7.609375 39.578125 
Q 10.9375 44.1875 16.015625 44.1875 
Q 19.578125 44.1875 22.046875 41.84375 
Q 24.515625 39.5 24.515625 35.890625 
Q 24.515625 34.03125 23.6875 31.984375 
L 15.578125 10.5 
Q 14.203125 7.171875 14.203125 4.5 
Q 14.203125 1.515625 16.5 1.515625 
Q 20.40625 1.515625 23.015625 5.6875 
Q 25.640625 9.859375 26.703125 14.703125 
Q 26.90625 15.28125 27.484375 15.28125 
L 28.71875 15.28125 
Q 29.109375 15.28125 29.34375 15.015625 
Q 29.59375 14.75 29.59375 14.40625 
Q 29.59375 14.3125 29.5 14.109375 
Q 28.125 8.453125 24.734375 3.65625 
Q 21.34375 -1.125 16.3125 -1.125 
Q 12.796875 -1.125 10.296875 1.296875 
Q 7.8125 3.71875 7.8125 7.171875 
M 19.09375 60.59375 
Q 19.09375 62.703125 20.84375 64.40625 
Q 22.609375 66.109375 24.703125 66.109375 
Q 26.421875 66.109375 27.515625 65.0625 
Q 28.609375 64.015625 28.609375 62.40625 
Q 28.609375 60.15625 26.828125 58.46875 
Q 25.046875 56.78125 22.90625 56.78125 
Q 21.296875 56.78125 20.1875 57.875 
Q 19.09375 58.984375 19.09375 60.59375 
" id="Cmmi10-69"/>
     <path d="M 5.328125 1.703125 
Q 5.328125 2.296875 5.421875 2.59375 
L 14.984375 41.015625 
Q 15.375 42.4375 16.546875 43.3125 
Q 17.71875 44.1875 19.1875 44.1875 
Q 20.453125 44.1875 21.328125 43.421875 
Q 22.21875 42.671875 22.21875 41.40625 
Q 22.21875 41.109375 22.1875 40.9375 
Q 22.171875 40.765625 22.125 40.578125 
L 18.5 26.125 
Q 22.515625 27.4375 29.15625 32.984375 
Q 35.796875 38.53125 39.1875 40.8125 
Q 42.578125 43.109375 47.515625 43.109375 
Q 49.125 43.109375 50.21875 42.109375 
Q 51.3125 41.109375 51.3125 39.40625 
Q 51.3125 37.0625 49.625 35.421875 
Q 47.953125 33.796875 45.609375 33.796875 
Q 44 33.796875 42.890625 34.84375 
Q 41.796875 35.890625 41.796875 37.5 
Q 41.796875 38.625 42.1875 39.40625 
Q 39.796875 38.421875 37.28125 36.65625 
Q 34.765625 34.90625 32.71875 33.125 
Q 30.671875 31.34375 27.78125 28.953125 
Q 24.90625 26.5625 22.609375 25.296875 
Q 26.703125 25.296875 31 24.40625 
Q 35.296875 23.53125 38.453125 21.1875 
Q 41.609375 18.84375 41.609375 14.796875 
Q 41.609375 13.1875 41.21875 12.015625 
Q 40.28125 8.015625 40.28125 6 
Q 40.28125 1.515625 43.40625 1.515625 
Q 46.96875 1.515625 48.875 5.46875 
Q 50.78125 9.421875 52 14.703125 
Q 52.203125 15.28125 52.78125 15.28125 
L 54 15.28125 
Q 54.390625 15.28125 54.640625 15.015625 
Q 54.890625 14.75 54.890625 14.40625 
Q 54.890625 14.3125 54.78125 14.109375 
Q 51.125 -1.125 43.21875 -1.125 
Q 40.375 -1.125 38.203125 0.1875 
Q 36.03125 1.515625 34.859375 3.78125 
Q 33.6875 6.0625 33.6875 8.890625 
Q 33.6875 10.6875 34.078125 12.203125 
Q 34.421875 13.578125 34.421875 14.5 
Q 34.421875 17.71875 31.5625 19.578125 
Q 28.71875 21.4375 24.828125 22.109375 
Q 20.953125 22.796875 17.578125 22.796875 
L 12.5 2.203125 
Q 12.15625 0.828125 10.953125 -0.140625 
Q 9.765625 -1.125 8.296875 -1.125 
Q 7.078125 -1.125 6.203125 -0.34375 
Q 5.328125 0.4375 5.328125 1.703125 
" id="Cmmi10-b7"/>
     <path d="M 5.609375 -23 
Q 5.609375 -22.703125 5.71875 -22.609375 
L 40.484375 73.78125 
Q 40.671875 74.359375 41.15625 74.671875 
Q 41.65625 75 42.28125 75 
Q 43.171875 75 43.71875 74.453125 
Q 44.28125 73.921875 44.28125 73 
L 44.28125 72.609375 
L 9.515625 -23.78125 
Q 8.9375 -25 7.625 -25 
Q 6.78125 -25 6.1875 -24.40625 
Q 5.609375 -23.828125 5.609375 -23 
" id="Cmmi10-3d"/>
    </defs>
    <g transform="translate(660.6 137.84125)scale(0.36 -0.36)">
     <use xlink:href="#BitstreamVeraSans-Roman-20"/>
     <use transform="translate(31.787109375 0.0)" xlink:href="#Cmmi10-b0"/>
     <use transform="translate(101.0546875 0.0)" xlink:href="#Cmr10-3d"/>
     <use transform="translate(196.298828125 0.0)" xlink:href="#Cmmi10-69"/>
     <use transform="translate(230.72265625 0.0)" xlink:href="#Cmmi10-b7"/>
     <use transform="translate(288.33984375 -17.00625)scale(0.7)" xlink:href="#Cmr10-31"/>
     <use transform="translate(329.7171875 0.0)" xlink:href="#Cmmi10-3d"/>
     <use transform="translate(379.7171875 0.0)" xlink:href="#Cmr10-32"/>
    </g>
   </g>
   <g id="legend_1">
    <g id="patch_7">
     <path d="M 905.4 1172.5825 
L 1218.640625 1172.5825 
L 1218.640625 950.4 
L 905.4 950.4 
z
" style="fill:#ffffff;stroke:#000000;stroke-linejoin:miter;"/>
    </g>
    <g id="line2d_33">
     <path d="M 930.6 979.559375 
L 981 979.559375 
" style="fill:none;stroke:#0000ff;stroke-linecap:square;stroke-width:3.0;"/>
    </g>
    <g id="line2d_34"/>
    <g id="text_17">
     <!-- lossless -->
     <g transform="translate(1020.6 992.159375)scale(0.36 -0.36)">
      <use xlink:href="#BitstreamVeraSans-Roman-6c"/>
      <use x="27.783203125" xlink:href="#BitstreamVeraSans-Roman-6f"/>
      <use x="88.96484375" xlink:href="#BitstreamVeraSans-Roman-73"/>
      <use x="141.064453125" xlink:href="#BitstreamVeraSans-Roman-73"/>
      <use x="193.1640625" xlink:href="#BitstreamVeraSans-Roman-6c"/>
      <use x="220.947265625" xlink:href="#BitstreamVeraSans-Roman-65"/>
      <use x="282.470703125" xlink:href="#BitstreamVeraSans-Roman-73"/>
      <use x="334.5703125" xlink:href="#BitstreamVeraSans-Roman-73"/>
     </g>
    </g>
    <g id="line2d_35">
     <path d="M 930.6 1032.405625 
L 981 1032.405625 
" style="fill:none;stroke:#008000;stroke-linecap:square;stroke-width:3.0;"/>
    </g>
    <g id="line2d_36"/>
    <g id="text_18">
     <!-- odd sites -->
     <g transform="translate(1020.6 1045.005625)scale(0.36 -0.36)">
      <use xlink:href="#BitstreamVeraSans-Roman-6f"/>
      <use x="61.181640625" xlink:href="#BitstreamVeraSans-Roman-64"/>
      <use x="124.658203125" xlink:href="#BitstreamVeraSans-Roman-64"/>
      <use x="188.134765625" xlink:href="#BitstreamVeraSans-Roman-20"/>
      <use x="219.921875" xlink:href="#BitstreamVeraSans-Roman-73"/>
      <use x="272.021484375" xlink:href="#BitstreamVeraSans-Roman-69"/>
      <use x="299.8046875" xlink:href="#BitstreamVeraSans-Roman-74"/>
      <use x="339.013671875" xlink:href="#BitstreamVeraSans-Roman-65"/>
      <use x="400.537109375" xlink:href="#BitstreamVeraSans-Roman-73"/>
     </g>
    </g>
    <g id="line2d_37">
     <path d="M 930.6 1085.251875 
L 981 1085.251875 
" style="fill:none;stroke:#000000;stroke-linecap:square;stroke-width:3.0;"/>
    </g>
    <g id="line2d_38"/>
    <g id="text_19">
     <!-- even sites -->
     <defs>
      <path d="M 2.984375 54.6875 
L 12.5 54.6875 
L 29.59375 8.796875 
L 46.6875 54.6875 
L 56.203125 54.6875 
L 35.6875 0 
L 23.484375 0 
z
" id="BitstreamVeraSans-Roman-76"/>
     </defs>
     <g transform="translate(1020.6 1097.851875)scale(0.36 -0.36)">
      <use xlink:href="#BitstreamVeraSans-Roman-65"/>
      <use x="61.5234375" xlink:href="#BitstreamVeraSans-Roman-76"/>
      <use x="120.703125" xlink:href="#BitstreamVeraSans-Roman-65"/>
      <use x="182.2265625" xlink:href="#BitstreamVeraSans-Roman-6e"/>
      <use x="245.60546875" xlink:href="#BitstreamVeraSans-Roman-20"/>
      <use x="277.392578125" xlink:href="#BitstreamVeraSans-Roman-73"/>
      <use x="329.4921875" xlink:href="#BitstreamVeraSans-Roman-69"/>
      <use x="357.275390625" xlink:href="#BitstreamVeraSans-Roman-74"/>
      <use x="396.484375" xlink:href="#BitstreamVeraSans-Roman-65"/>
      <use x="458.0078125" xlink:href="#BitstreamVeraSans-Roman-73"/>
     </g>
    </g>
    <g id="line2d_39">
     <path d="M 930.6 1138.098125 
L 981 1138.098125 
" style="fill:none;stroke:#ff0000;stroke-linecap:square;stroke-width:3.0;"/>
    </g>
    <g id="line2d_40"/>
    <g id="text_20">
     <!-- all sites -->
     <g transform="translate(1020.6 1150.698125)scale(0.36 -0.36)">
      <use xlink:href="#BitstreamVeraSans-Roman-61"/>
      <use x="61.279296875" xlink:href="#BitstreamVeraSans-Roman-6c"/>
      <use x="89.0625" xlink:href="#BitstreamVeraSans-Roman-6c"/>
      <use x="116.845703125" xlink:href="#BitstreamVeraSans-Roman-20"/>
      <use x="148.6328125" xlink:href="#BitstreamVeraSans-Roman-73"/>
      <use x="200.732421875" xlink:href="#BitstreamVeraSans-Roman-69"/>
      <use x="228.515625" xlink:href="#BitstreamVeraSans-Roman-74"/>
      <use x="267.724609375" xlink:href="#BitstreamVeraSans-Roman-65"/>
      <use x="329.248046875" xlink:href="#BitstreamVeraSans-Roman-73"/>
     </g>
    </g>
   </g>
  </g>
 </g>
 <defs>
  <clipPath id="pf768890fcc">
   <rect height="1152.0" width="1116.0" x="180.0" y="144.0"/>
  </clipPath>
 </defs>
</svg>
