<?xml version="1.0" encoding="utf-8" standalone="no"?>
<!DOCTYPE svg PUBLIC "-//W3C//DTD SVG 1.1//EN"
  "http://www.w3.org/Graphics/SVG/1.1/DTD/svg11.dtd">
<!-- Created with matplotlib (http://matplotlib.org/) -->
<svg height="1440pt" version="1.1" viewBox="0 0 1440 1440" width="1440pt" xmlns="http://www.w3.org/2000/svg" xmlns:xlink="http://www.w3.org/1999/xlink">
 <defs>
  <style type="text/css">
*{stroke-linecap:butt;stroke-linejoin:round;stroke-miterlimit:100000;}
  </style>
 </defs>
 <g id="figure_1">
  <g id="patch_1">
   <path d="M 0 1440 
L 1440 1440 
L 1440 0 
L 0 0 
z
" style="fill:#ffffff;"/>
  </g>
  <g id="axes_1">
   <g id="patch_2">
    <path d="M 180 1296 
L 1296 1296 
L 1296 144 
L 180 144 
z
" style="fill:#ffffff;"/>
   </g>
   <g id="line2d_1">
    <defs>
     <path d="M 0 3.75 
C 0.994512 3.75 1.948425 3.354876 2.65165 2.65165 
C 3.354876 1.948425 3.75 0.994512 3.75 0 
C 3.75 -0.994512 3.354876 -1.948425 2.65165 -2.65165 
C 1.948425 -3.354876 0.994512 -3.75 0 -3.75 
C -0.994512 -3.75 -1.948425 -3.354876 -2.65165 -2.65165 
C -3.354876 -1.948425 -3.75 -0.994512 -3.75 0 
C -3.75 0.994512 -3.354876 1.948425 -2.65165 2.65165 
C -1.948425 3.354876 -0.994512 3.75 0 3.75 
z
" id="m0d1f5c01f6" style="stroke:#0000ff;stroke-width:0.5;"/>
    </defs>
    <g clip-path="url(#pa49e5d5be3)">
     <use style="fill:#0000ff;stroke:#0000ff;stroke-width:0.5;" x="217.2" xlink:href="#m0d1f5c01f6" y="827.42225012"/>
     <use style="fill:#0000ff;stroke:#0000ff;stroke-width:0.5;" x="254.4" xlink:href="#m0d1f5c01f6" y="967.464953768"/>
     <use style="fill:#0000ff;stroke:#0000ff;stroke-width:0.5;" x="291.6" xlink:href="#m0d1f5c01f6" y="990.667871859"/>
     <use style="fill:#0000ff;stroke:#0000ff;stroke-width:0.5;" x="328.8" xlink:href="#m0d1f5c01f6" y="1053.19260204"/>
     <use style="fill:#0000ff;stroke:#0000ff;stroke-width:0.5;" x="366.0" xlink:href="#m0d1f5c01f6" y="699.377388148"/>
     <use style="fill:#0000ff;stroke:#0000ff;stroke-width:0.5;" x="403.2" xlink:href="#m0d1f5c01f6" y="702.438087495"/>
     <use style="fill:#0000ff;stroke:#0000ff;stroke-width:0.5;" x="440.4" xlink:href="#m0d1f5c01f6" y="687.473343916"/>
     <use style="fill:#0000ff;stroke:#0000ff;stroke-width:0.5;" x="477.6" xlink:href="#m0d1f5c01f6" y="802.451922675"/>
     <use style="fill:#0000ff;stroke:#0000ff;stroke-width:0.5;" x="514.8" xlink:href="#m0d1f5c01f6" y="849.263254869"/>
     <use style="fill:#0000ff;stroke:#0000ff;stroke-width:0.5;" x="552.0" xlink:href="#m0d1f5c01f6" y="866.885647731"/>
     <use style="fill:#0000ff;stroke:#0000ff;stroke-width:0.5;" x="589.2" xlink:href="#m0d1f5c01f6" y="617.760810787"/>
     <use style="fill:#0000ff;stroke:#0000ff;stroke-width:0.5;" x="626.4" xlink:href="#m0d1f5c01f6" y="641.277077859"/>
     <use style="fill:#0000ff;stroke:#0000ff;stroke-width:0.5;" x="663.6" xlink:href="#m0d1f5c01f6" y="678.518945706"/>
     <use style="fill:#0000ff;stroke:#0000ff;stroke-width:0.5;" x="700.8" xlink:href="#m0d1f5c01f6" y="709.013845719"/>
     <use style="fill:#0000ff;stroke:#0000ff;stroke-width:0.5;" x="738.0" xlink:href="#m0d1f5c01f6" y="524.778359575"/>
     <use style="fill:#0000ff;stroke:#0000ff;stroke-width:0.5;" x="775.2" xlink:href="#m0d1f5c01f6" y="516.446543693"/>
     <use style="fill:#0000ff;stroke:#0000ff;stroke-width:0.5;" x="812.4" xlink:href="#m0d1f5c01f6" y="728.592340177"/>
     <use style="fill:#0000ff;stroke:#0000ff;stroke-width:0.5;" x="849.6" xlink:href="#m0d1f5c01f6" y="628.129212452"/>
     <use style="fill:#0000ff;stroke:#0000ff;stroke-width:0.5;" x="886.8" xlink:href="#m0d1f5c01f6" y="695.947613832"/>
     <use style="fill:#0000ff;stroke:#0000ff;stroke-width:0.5;" x="924.0" xlink:href="#m0d1f5c01f6" y="543.221492515"/>
     <use style="fill:#0000ff;stroke:#0000ff;stroke-width:0.5;" x="961.2" xlink:href="#m0d1f5c01f6" y="650.587772702"/>
     <use style="fill:#0000ff;stroke:#0000ff;stroke-width:0.5;" x="998.4" xlink:href="#m0d1f5c01f6" y="573.235644548"/>
     <use style="fill:#0000ff;stroke:#0000ff;stroke-width:0.5;" x="1035.6" xlink:href="#m0d1f5c01f6" y="898.668604355"/>
     <use style="fill:#0000ff;stroke:#0000ff;stroke-width:0.5;" x="1072.8" xlink:href="#m0d1f5c01f6" y="643.760593437"/>
     <use style="fill:#0000ff;stroke:#0000ff;stroke-width:0.5;" x="1110.0" xlink:href="#m0d1f5c01f6" y="632.863600077"/>
     <use style="fill:#0000ff;stroke:#0000ff;stroke-width:0.5;" x="1147.2" xlink:href="#m0d1f5c01f6" y="712.440010241"/>
     <use style="fill:#0000ff;stroke:#0000ff;stroke-width:0.5;" x="1184.4" xlink:href="#m0d1f5c01f6" y="648.174458325"/>
     <use style="fill:#0000ff;stroke:#0000ff;stroke-width:0.5;" x="1221.6" xlink:href="#m0d1f5c01f6" y="654.744700083"/>
     <use style="fill:#0000ff;stroke:#0000ff;stroke-width:0.5;" x="1258.8" xlink:href="#m0d1f5c01f6" y="732.848569467"/>
    </g>
   </g>
   <g id="line2d_2">
    <path clip-path="url(#pa49e5d5be3)" d="M 217.2 827.42225 
L 254.4 967.464954 
L 291.6 990.667872 
L 328.8 1053.192602 
L 366 699.377388 
L 403.2 702.438087 
L 440.4 687.473344 
L 477.6 802.451923 
L 514.8 849.263255 
L 552 866.885648 
L 589.2 617.760811 
L 626.4 641.277078 
L 663.6 678.518946 
L 700.8 709.013846 
L 738 524.77836 
L 775.2 516.446544 
L 812.4 728.59234 
L 849.6 628.129212 
L 886.8 695.947614 
L 924 543.221493 
L 961.2 650.587773 
L 998.4 573.235645 
L 1035.6 898.668604 
L 1072.8 643.760593 
L 1110 632.8636 
L 1147.2 712.44001 
L 1184.4 648.174458 
L 1221.6 654.7447 
L 1258.8 732.848569 
" style="fill:none;stroke:#0000ff;stroke-linecap:square;"/>
   </g>
   <g id="line2d_3">
    <defs>
     <path d="M 0 3.75 
C 0.994512 3.75 1.948425 3.354876 2.65165 2.65165 
C 3.354876 1.948425 3.75 0.994512 3.75 0 
C 3.75 -0.994512 3.354876 -1.948425 2.65165 -2.65165 
C 1.948425 -3.354876 0.994512 -3.75 0 -3.75 
C -0.994512 -3.75 -1.948425 -3.354876 -2.65165 -2.65165 
C -3.354876 -1.948425 -3.75 -0.994512 -3.75 0 
C -3.75 0.994512 -3.354876 1.948425 -2.65165 2.65165 
C -1.948425 3.354876 -0.994512 3.75 0 3.75 
z
" id="mb0278b41f8" style="stroke:#ff0000;stroke-width:0.5;"/>
    </defs>
    <g clip-path="url(#pa49e5d5be3)">
     <use style="fill:#ff0000;stroke:#ff0000;stroke-width:0.5;" x="217.2" xlink:href="#mb0278b41f8" y="345.335393939"/>
     <use style="fill:#ff0000;stroke:#ff0000;stroke-width:0.5;" x="254.4" xlink:href="#mb0278b41f8" y="467.027920936"/>
     <use style="fill:#ff0000;stroke:#ff0000;stroke-width:0.5;" x="291.6" xlink:href="#mb0278b41f8" y="557.911535799"/>
     <use style="fill:#ff0000;stroke:#ff0000;stroke-width:0.5;" x="328.8" xlink:href="#mb0278b41f8" y="915.236241938"/>
     <use style="fill:#ff0000;stroke:#ff0000;stroke-width:0.5;" x="366.0" xlink:href="#mb0278b41f8" y="578.619524239"/>
     <use style="fill:#ff0000;stroke:#ff0000;stroke-width:0.5;" x="403.2" xlink:href="#mb0278b41f8" y="647.374803763"/>
     <use style="fill:#ff0000;stroke:#ff0000;stroke-width:0.5;" x="440.4" xlink:href="#mb0278b41f8" y="547.965739091"/>
     <use style="fill:#ff0000;stroke:#ff0000;stroke-width:0.5;" x="477.6" xlink:href="#mb0278b41f8" y="724.956694613"/>
     <use style="fill:#ff0000;stroke:#ff0000;stroke-width:0.5;" x="514.8" xlink:href="#mb0278b41f8" y="545.965359152"/>
     <use style="fill:#ff0000;stroke:#ff0000;stroke-width:0.5;" x="552.0" xlink:href="#mb0278b41f8" y="552.428254342"/>
     <use style="fill:#ff0000;stroke:#ff0000;stroke-width:0.5;" x="589.2" xlink:href="#mb0278b41f8" y="493.278146092"/>
     <use style="fill:#ff0000;stroke:#ff0000;stroke-width:0.5;" x="626.4" xlink:href="#mb0278b41f8" y="508.240802479"/>
     <use style="fill:#ff0000;stroke:#ff0000;stroke-width:0.5;" x="663.6" xlink:href="#mb0278b41f8" y="747.187762471"/>
     <use style="fill:#ff0000;stroke:#ff0000;stroke-width:0.5;" x="700.8" xlink:href="#mb0278b41f8" y="547.385008815"/>
     <use style="fill:#ff0000;stroke:#ff0000;stroke-width:0.5;" x="738.0" xlink:href="#mb0278b41f8" y="672.499940572"/>
     <use style="fill:#ff0000;stroke:#ff0000;stroke-width:0.5;" x="775.2" xlink:href="#mb0278b41f8" y="577.407685306"/>
     <use style="fill:#ff0000;stroke:#ff0000;stroke-width:0.5;" x="812.4" xlink:href="#mb0278b41f8" y="769.296819344"/>
     <use style="fill:#ff0000;stroke:#ff0000;stroke-width:0.5;" x="849.6" xlink:href="#mb0278b41f8" y="554.220704537"/>
     <use style="fill:#ff0000;stroke:#ff0000;stroke-width:0.5;" x="886.8" xlink:href="#mb0278b41f8" y="647.074961845"/>
     <use style="fill:#ff0000;stroke:#ff0000;stroke-width:0.5;" x="924.0" xlink:href="#mb0278b41f8" y="567.95596018"/>
     <use style="fill:#ff0000;stroke:#ff0000;stroke-width:0.5;" x="961.2" xlink:href="#mb0278b41f8" y="743.898818418"/>
     <use style="fill:#ff0000;stroke:#ff0000;stroke-width:0.5;" x="998.4" xlink:href="#mb0278b41f8" y="578.819726445"/>
     <use style="fill:#ff0000;stroke:#ff0000;stroke-width:0.5;" x="1035.6" xlink:href="#mb0278b41f8" y="598.650684087"/>
     <use style="fill:#ff0000;stroke:#ff0000;stroke-width:0.5;" x="1072.8" xlink:href="#mb0278b41f8" y="641.977835334"/>
     <use style="fill:#ff0000;stroke:#ff0000;stroke-width:0.5;" x="1110.0" xlink:href="#mb0278b41f8" y="719.884630745"/>
     <use style="fill:#ff0000;stroke:#ff0000;stroke-width:0.5;" x="1147.2" xlink:href="#mb0278b41f8" y="581.010627116"/>
     <use style="fill:#ff0000;stroke:#ff0000;stroke-width:0.5;" x="1184.4" xlink:href="#mb0278b41f8" y="723.108891101"/>
     <use style="fill:#ff0000;stroke:#ff0000;stroke-width:0.5;" x="1221.6" xlink:href="#mb0278b41f8" y="702.099590249"/>
     <use style="fill:#ff0000;stroke:#ff0000;stroke-width:0.5;" x="1258.8" xlink:href="#mb0278b41f8" y="834.138396574"/>
    </g>
   </g>
   <g id="line2d_4">
    <path clip-path="url(#pa49e5d5be3)" d="M 217.2 345.335394 
L 254.4 467.027921 
L 291.6 557.911536 
L 328.8 915.236242 
L 366 578.619524 
L 403.2 647.374804 
L 440.4 547.965739 
L 477.6 724.956695 
L 514.8 545.965359 
L 552 552.428254 
L 589.2 493.278146 
L 626.4 508.240802 
L 663.6 747.187762 
L 700.8 547.385009 
L 738 672.499941 
L 775.2 577.407685 
L 812.4 769.296819 
L 849.6 554.220705 
L 886.8 647.074962 
L 924 567.95596 
L 961.2 743.898818 
L 998.4 578.819726 
L 1035.6 598.650684 
L 1072.8 641.977835 
L 1110 719.884631 
L 1147.2 581.010627 
L 1184.4 723.108891 
L 1221.6 702.09959 
L 1258.8 834.138397 
" style="fill:none;stroke:#ff0000;stroke-linecap:square;"/>
   </g>
   <g id="line2d_5">
    <defs>
     <path d="M 0 3.75 
C 0.994512 3.75 1.948425 3.354876 2.65165 2.65165 
C 3.354876 1.948425 3.75 0.994512 3.75 0 
C 3.75 -0.994512 3.354876 -1.948425 2.65165 -2.65165 
C 1.948425 -3.354876 0.994512 -3.75 0 -3.75 
C -0.994512 -3.75 -1.948425 -3.354876 -2.65165 -2.65165 
C -3.354876 -1.948425 -3.75 -0.994512 -3.75 0 
C -3.75 0.994512 -3.354876 1.948425 -2.65165 2.65165 
C -1.948425 3.354876 -0.994512 3.75 0 3.75 
z
" id="m21efa1339b" style="stroke:#008000;stroke-width:0.5;"/>
    </defs>
    <g clip-path="url(#pa49e5d5be3)">
     <use style="fill:#008000;stroke:#008000;stroke-width:0.5;" x="217.2" xlink:href="#m21efa1339b" y="373.90716818"/>
     <use style="fill:#008000;stroke:#008000;stroke-width:0.5;" x="254.4" xlink:href="#m21efa1339b" y="774.70760216"/>
     <use style="fill:#008000;stroke:#008000;stroke-width:0.5;" x="291.6" xlink:href="#m21efa1339b" y="484.628239896"/>
     <use style="fill:#008000;stroke:#008000;stroke-width:0.5;" x="328.8" xlink:href="#m21efa1339b" y="662.856381304"/>
     <use style="fill:#008000;stroke:#008000;stroke-width:0.5;" x="366.0" xlink:href="#m21efa1339b" y="538.245306902"/>
     <use style="fill:#008000;stroke:#008000;stroke-width:0.5;" x="403.2" xlink:href="#m21efa1339b" y="620.173046468"/>
     <use style="fill:#008000;stroke:#008000;stroke-width:0.5;" x="440.4" xlink:href="#m21efa1339b" y="577.897272111"/>
     <use style="fill:#008000;stroke:#008000;stroke-width:0.5;" x="477.6" xlink:href="#m21efa1339b" y="609.176293719"/>
     <use style="fill:#008000;stroke:#008000;stroke-width:0.5;" x="514.8" xlink:href="#m21efa1339b" y="620.245710402"/>
     <use style="fill:#008000;stroke:#008000;stroke-width:0.5;" x="552.0" xlink:href="#m21efa1339b" y="617.743850528"/>
     <use style="fill:#008000;stroke:#008000;stroke-width:0.5;" x="589.2" xlink:href="#m21efa1339b" y="672.765905423"/>
     <use style="fill:#008000;stroke:#008000;stroke-width:0.5;" x="626.4" xlink:href="#m21efa1339b" y="646.447442269"/>
     <use style="fill:#008000;stroke:#008000;stroke-width:0.5;" x="663.6" xlink:href="#m21efa1339b" y="732.699003347"/>
     <use style="fill:#008000;stroke:#008000;stroke-width:0.5;" x="700.8" xlink:href="#m21efa1339b" y="693.712600288"/>
     <use style="fill:#008000;stroke:#008000;stroke-width:0.5;" x="738.0" xlink:href="#m21efa1339b" y="802.039789171"/>
     <use style="fill:#008000;stroke:#008000;stroke-width:0.5;" x="775.2" xlink:href="#m21efa1339b" y="760.939435673"/>
     <use style="fill:#008000;stroke:#008000;stroke-width:0.5;" x="812.4" xlink:href="#m21efa1339b" y="876.257925651"/>
     <use style="fill:#008000;stroke:#008000;stroke-width:0.5;" x="849.6" xlink:href="#m21efa1339b" y="831.234961668"/>
     <use style="fill:#008000;stroke:#008000;stroke-width:0.5;" x="886.8" xlink:href="#m21efa1339b" y="950.404114954"/>
     <use style="fill:#008000;stroke:#008000;stroke-width:0.5;" x="924.0" xlink:href="#m21efa1339b" y="917.439943161"/>
     <use style="fill:#008000;stroke:#008000;stroke-width:0.5;" x="961.2" xlink:href="#m21efa1339b" y="1045.72867628"/>
     <use style="fill:#008000;stroke:#008000;stroke-width:0.5;" x="998.4" xlink:href="#m21efa1339b" y="994.215307241"/>
     <use style="fill:#008000;stroke:#008000;stroke-width:0.5;" x="1035.6" xlink:href="#m21efa1339b" y="1082.60648576"/>
     <use style="fill:#008000;stroke:#008000;stroke-width:0.5;" x="1072.8" xlink:href="#m21efa1339b" y="1085.46835541"/>
     <use style="fill:#008000;stroke:#008000;stroke-width:0.5;" x="1110.0" xlink:href="#m21efa1339b" y="1210.68714619"/>
     <use style="fill:#008000;stroke:#008000;stroke-width:0.5;" x="1147.2" xlink:href="#m21efa1339b" y="1252.78246108"/>
     <use style="fill:#008000;stroke:#008000;stroke-width:0.5;" x="1184.4" xlink:href="#m21efa1339b" y="1193.64719666"/>
     <use style="fill:#008000;stroke:#008000;stroke-width:0.5;" x="1221.6" xlink:href="#m21efa1339b" y="1189.44676553"/>
     <use style="fill:#008000;stroke:#008000;stroke-width:0.5;" x="1258.8" xlink:href="#m21efa1339b" y="1029.66534711"/>
    </g>
   </g>
   <g id="line2d_6">
    <path clip-path="url(#pa49e5d5be3)" d="M 217.2 373.907168 
L 254.4 774.707602 
L 291.6 484.62824 
L 328.8 662.856381 
L 366 538.245307 
L 403.2 620.173046 
L 440.4 577.897272 
L 477.6 609.176294 
L 514.8 620.24571 
L 552 617.743851 
L 589.2 672.765905 
L 626.4 646.447442 
L 663.6 732.699003 
L 700.8 693.7126 
L 738 802.039789 
L 775.2 760.939436 
L 812.4 876.257926 
L 849.6 831.234962 
L 886.8 950.404115 
L 924 917.439943 
L 961.2 1045.728676 
L 998.4 994.215307 
L 1035.6 1082.606486 
L 1072.8 1085.468355 
L 1110 1210.687146 
L 1147.2 1252.782461 
L 1184.4 1193.647197 
L 1221.6 1189.446766 
L 1258.8 1029.665347 
" style="fill:none;stroke:#008000;stroke-linecap:square;"/>
   </g>
   <g id="line2d_7">
    <defs>
     <path d="M 0 3.75 
C 0.994512 3.75 1.948425 3.354876 2.65165 2.65165 
C 3.354876 1.948425 3.75 0.994512 3.75 0 
C 3.75 -0.994512 3.354876 -1.948425 2.65165 -2.65165 
C 1.948425 -3.354876 0.994512 -3.75 0 -3.75 
C -0.994512 -3.75 -1.948425 -3.354876 -2.65165 -2.65165 
C -3.354876 -1.948425 -3.75 -0.994512 -3.75 0 
C -3.75 0.994512 -3.354876 1.948425 -2.65165 2.65165 
C -1.948425 3.354876 -0.994512 3.75 0 3.75 
z
" id="m536bc6780b" style="stroke:#000000;stroke-width:0.5;"/>
    </defs>
    <g clip-path="url(#pa49e5d5be3)">
     <use style="stroke:#000000;stroke-width:0.5;" x="217.2" xlink:href="#m536bc6780b" y="885.842672645"/>
     <use style="stroke:#000000;stroke-width:0.5;" x="254.4" xlink:href="#m536bc6780b" y="1043.63693574"/>
     <use style="stroke:#000000;stroke-width:0.5;" x="291.6" xlink:href="#m536bc6780b" y="995.916855607"/>
     <use style="stroke:#000000;stroke-width:0.5;" x="328.8" xlink:href="#m536bc6780b" y="892.133599802"/>
     <use style="stroke:#000000;stroke-width:0.5;" x="366.0" xlink:href="#m536bc6780b" y="778.274415592"/>
     <use style="stroke:#000000;stroke-width:0.5;" x="403.2" xlink:href="#m536bc6780b" y="836.751765054"/>
     <use style="stroke:#000000;stroke-width:0.5;" x="440.4" xlink:href="#m536bc6780b" y="691.531433692"/>
     <use style="stroke:#000000;stroke-width:0.5;" x="477.6" xlink:href="#m536bc6780b" y="905.376455096"/>
     <use style="stroke:#000000;stroke-width:0.5;" x="514.8" xlink:href="#m536bc6780b" y="660.167013083"/>
     <use style="stroke:#000000;stroke-width:0.5;" x="552.0" xlink:href="#m536bc6780b" y="826.274939574"/>
     <use style="stroke:#000000;stroke-width:0.5;" x="589.2" xlink:href="#m536bc6780b" y="652.259798591"/>
     <use style="stroke:#000000;stroke-width:0.5;" x="626.4" xlink:href="#m536bc6780b" y="716.01823536"/>
     <use style="stroke:#000000;stroke-width:0.5;" x="663.6" xlink:href="#m536bc6780b" y="654.378036131"/>
     <use style="stroke:#000000;stroke-width:0.5;" x="700.8" xlink:href="#m536bc6780b" y="667.174521138"/>
     <use style="stroke:#000000;stroke-width:0.5;" x="738.0" xlink:href="#m536bc6780b" y="664.860539413"/>
     <use style="stroke:#000000;stroke-width:0.5;" x="775.2" xlink:href="#m536bc6780b" y="632.698324516"/>
     <use style="stroke:#000000;stroke-width:0.5;" x="812.4" xlink:href="#m536bc6780b" y="701.583551312"/>
     <use style="stroke:#000000;stroke-width:0.5;" x="849.6" xlink:href="#m536bc6780b" y="606.531403779"/>
     <use style="stroke:#000000;stroke-width:0.5;" x="886.8" xlink:href="#m536bc6780b" y="779.941843623"/>
     <use style="stroke:#000000;stroke-width:0.5;" x="924.0" xlink:href="#m536bc6780b" y="600.467503248"/>
     <use style="stroke:#000000;stroke-width:0.5;" x="961.2" xlink:href="#m536bc6780b" y="846.879756748"/>
     <use style="stroke:#000000;stroke-width:0.5;" x="998.4" xlink:href="#m536bc6780b" y="606.422842036"/>
     <use style="stroke:#000000;stroke-width:0.5;" x="1035.6" xlink:href="#m536bc6780b" y="1245.87762083"/>
     <use style="stroke:#000000;stroke-width:0.5;" x="1072.8" xlink:href="#m536bc6780b" y="620.169927432"/>
     <use style="stroke:#000000;stroke-width:0.5;" x="1110.0" xlink:href="#m536bc6780b" y="867.735553974"/>
     <use style="stroke:#000000;stroke-width:0.5;" x="1147.2" xlink:href="#m536bc6780b" y="656.760730154"/>
     <use style="stroke:#000000;stroke-width:0.5;" x="1184.4" xlink:href="#m536bc6780b" y="818.308540056"/>
     <use style="stroke:#000000;stroke-width:0.5;" x="1221.6" xlink:href="#m536bc6780b" y="735.528559567"/>
     <use style="stroke:#000000;stroke-width:0.5;" x="1258.8" xlink:href="#m536bc6780b" y="772.830844189"/>
    </g>
   </g>
   <g id="line2d_8">
    <path clip-path="url(#pa49e5d5be3)" d="M 217.2 885.842673 
L 254.4 1043.636936 
L 291.6 995.916856 
L 328.8 892.1336 
L 366 778.274416 
L 403.2 836.751765 
L 440.4 691.531434 
L 477.6 905.376455 
L 514.8 660.167013 
L 552 826.27494 
L 589.2 652.259799 
L 626.4 716.018235 
L 663.6 654.378036 
L 700.8 667.174521 
L 738 664.860539 
L 775.2 632.698325 
L 812.4 701.583551 
L 849.6 606.531404 
L 886.8 779.941844 
L 924 600.467503 
L 961.2 846.879757 
L 998.4 606.422842 
L 1035.6 1245.877621 
L 1072.8 620.169927 
L 1110 867.735554 
L 1147.2 656.76073 
L 1184.4 818.30854 
L 1221.6 735.52856 
L 1258.8 772.830844 
" style="fill:none;stroke:#000000;stroke-linecap:square;"/>
   </g>
   <g id="patch_3">
    <path d="M 180 144 
L 1296 144 
" style="fill:none;stroke:#000000;stroke-linecap:square;stroke-linejoin:miter;"/>
   </g>
   <g id="patch_4">
    <path d="M 1296 1296 
L 1296 144 
" style="fill:none;stroke:#000000;stroke-linecap:square;stroke-linejoin:miter;"/>
   </g>
   <g id="patch_5">
    <path d="M 180 1296 
L 1296 1296 
" style="fill:none;stroke:#000000;stroke-linecap:square;stroke-linejoin:miter;"/>
   </g>
   <g id="patch_6">
    <path d="M 180 1296 
L 180 144 
" style="fill:none;stroke:#000000;stroke-linecap:square;stroke-linejoin:miter;"/>
   </g>
   <g id="matplotlib.axis_1">
    <g id="xtick_1">
     <g id="line2d_9">
      <defs>
       <path d="M 0 0 
L 0 -4 
" id="m68d501142e" style="stroke:#000000;stroke-width:0.5;"/>
      </defs>
      <g>
       <use style="stroke:#000000;stroke-width:0.5;" x="180.0" xlink:href="#m68d501142e" y="1296.0"/>
      </g>
     </g>
     <g id="line2d_10">
      <defs>
       <path d="M 0 0 
L 0 4 
" id="mdb759524e9" style="stroke:#000000;stroke-width:0.5;"/>
      </defs>
      <g>
       <use style="stroke:#000000;stroke-width:0.5;" x="180.0" xlink:href="#mdb759524e9" y="144.0"/>
      </g>
     </g>
     <g id="text_1">
      <!-- 0 -->
      <defs>
       <path d="M 31.78125 66.40625 
Q 24.171875 66.40625 20.328125 58.90625 
Q 16.5 51.421875 16.5 36.375 
Q 16.5 21.390625 20.328125 13.890625 
Q 24.171875 6.390625 31.78125 6.390625 
Q 39.453125 6.390625 43.28125 13.890625 
Q 47.125 21.390625 47.125 36.375 
Q 47.125 51.421875 43.28125 58.90625 
Q 39.453125 66.40625 31.78125 66.40625 
M 31.78125 74.21875 
Q 44.046875 74.21875 50.515625 64.515625 
Q 56.984375 54.828125 56.984375 36.375 
Q 56.984375 17.96875 50.515625 8.265625 
Q 44.046875 -1.421875 31.78125 -1.421875 
Q 19.53125 -1.421875 13.0625 8.265625 
Q 6.59375 17.96875 6.59375 36.375 
Q 6.59375 54.828125 13.0625 64.515625 
Q 19.53125 74.21875 31.78125 74.21875 
" id="BitstreamVeraSans-Roman-30"/>
      </defs>
      <g transform="translate(170.45625 1322.7953125)scale(0.3 -0.3)">
       <use xlink:href="#BitstreamVeraSans-Roman-30"/>
      </g>
     </g>
    </g>
    <g id="xtick_2">
     <g id="line2d_11">
      <g>
       <use style="stroke:#000000;stroke-width:0.5;" x="366.0" xlink:href="#m68d501142e" y="1296.0"/>
      </g>
     </g>
     <g id="line2d_12">
      <g>
       <use style="stroke:#000000;stroke-width:0.5;" x="366.0" xlink:href="#mdb759524e9" y="144.0"/>
      </g>
     </g>
     <g id="text_2">
      <!-- 5 -->
      <defs>
       <path d="M 10.796875 72.90625 
L 49.515625 72.90625 
L 49.515625 64.59375 
L 19.828125 64.59375 
L 19.828125 46.734375 
Q 21.96875 47.46875 24.109375 47.828125 
Q 26.265625 48.1875 28.421875 48.1875 
Q 40.625 48.1875 47.75 41.5 
Q 54.890625 34.8125 54.890625 23.390625 
Q 54.890625 11.625 47.5625 5.09375 
Q 40.234375 -1.421875 26.90625 -1.421875 
Q 22.3125 -1.421875 17.546875 -0.640625 
Q 12.796875 0.140625 7.71875 1.703125 
L 7.71875 11.625 
Q 12.109375 9.234375 16.796875 8.0625 
Q 21.484375 6.890625 26.703125 6.890625 
Q 35.15625 6.890625 40.078125 11.328125 
Q 45.015625 15.765625 45.015625 23.390625 
Q 45.015625 31 40.078125 35.4375 
Q 35.15625 39.890625 26.703125 39.890625 
Q 22.75 39.890625 18.8125 39.015625 
Q 14.890625 38.140625 10.796875 36.28125 
z
" id="BitstreamVeraSans-Roman-35"/>
      </defs>
      <g transform="translate(356.45625 1322.7953125)scale(0.3 -0.3)">
       <use xlink:href="#BitstreamVeraSans-Roman-35"/>
      </g>
     </g>
    </g>
    <g id="xtick_3">
     <g id="line2d_13">
      <g>
       <use style="stroke:#000000;stroke-width:0.5;" x="552.0" xlink:href="#m68d501142e" y="1296.0"/>
      </g>
     </g>
     <g id="line2d_14">
      <g>
       <use style="stroke:#000000;stroke-width:0.5;" x="552.0" xlink:href="#mdb759524e9" y="144.0"/>
      </g>
     </g>
     <g id="text_3">
      <!-- 10 -->
      <defs>
       <path d="M 12.40625 8.296875 
L 28.515625 8.296875 
L 28.515625 63.921875 
L 10.984375 60.40625 
L 10.984375 69.390625 
L 28.421875 72.90625 
L 38.28125 72.90625 
L 38.28125 8.296875 
L 54.390625 8.296875 
L 54.390625 0 
L 12.40625 0 
z
" id="BitstreamVeraSans-Roman-31"/>
      </defs>
      <g transform="translate(532.9125 1322.7953125)scale(0.3 -0.3)">
       <use xlink:href="#BitstreamVeraSans-Roman-31"/>
       <use x="63.623046875" xlink:href="#BitstreamVeraSans-Roman-30"/>
      </g>
     </g>
    </g>
    <g id="xtick_4">
     <g id="line2d_15">
      <g>
       <use style="stroke:#000000;stroke-width:0.5;" x="738.0" xlink:href="#m68d501142e" y="1296.0"/>
      </g>
     </g>
     <g id="line2d_16">
      <g>
       <use style="stroke:#000000;stroke-width:0.5;" x="738.0" xlink:href="#mdb759524e9" y="144.0"/>
      </g>
     </g>
     <g id="text_4">
      <!-- 15 -->
      <g transform="translate(718.9125 1322.7953125)scale(0.3 -0.3)">
       <use xlink:href="#BitstreamVeraSans-Roman-31"/>
       <use x="63.623046875" xlink:href="#BitstreamVeraSans-Roman-35"/>
      </g>
     </g>
    </g>
    <g id="xtick_5">
     <g id="line2d_17">
      <g>
       <use style="stroke:#000000;stroke-width:0.5;" x="924.0" xlink:href="#m68d501142e" y="1296.0"/>
      </g>
     </g>
     <g id="line2d_18">
      <g>
       <use style="stroke:#000000;stroke-width:0.5;" x="924.0" xlink:href="#mdb759524e9" y="144.0"/>
      </g>
     </g>
     <g id="text_5">
      <!-- 20 -->
      <defs>
       <path d="M 19.1875 8.296875 
L 53.609375 8.296875 
L 53.609375 0 
L 7.328125 0 
L 7.328125 8.296875 
Q 12.9375 14.109375 22.625 23.890625 
Q 32.328125 33.6875 34.8125 36.53125 
Q 39.546875 41.84375 41.421875 45.53125 
Q 43.3125 49.21875 43.3125 52.78125 
Q 43.3125 58.59375 39.234375 62.25 
Q 35.15625 65.921875 28.609375 65.921875 
Q 23.96875 65.921875 18.8125 64.3125 
Q 13.671875 62.703125 7.8125 59.421875 
L 7.8125 69.390625 
Q 13.765625 71.78125 18.9375 73 
Q 24.125 74.21875 28.421875 74.21875 
Q 39.75 74.21875 46.484375 68.546875 
Q 53.21875 62.890625 53.21875 53.421875 
Q 53.21875 48.921875 51.53125 44.890625 
Q 49.859375 40.875 45.40625 35.40625 
Q 44.1875 33.984375 37.640625 27.21875 
Q 31.109375 20.453125 19.1875 8.296875 
" id="BitstreamVeraSans-Roman-32"/>
      </defs>
      <g transform="translate(904.9125 1322.7953125)scale(0.3 -0.3)">
       <use xlink:href="#BitstreamVeraSans-Roman-32"/>
       <use x="63.623046875" xlink:href="#BitstreamVeraSans-Roman-30"/>
      </g>
     </g>
    </g>
    <g id="xtick_6">
     <g id="line2d_19">
      <g>
       <use style="stroke:#000000;stroke-width:0.5;" x="1110.0" xlink:href="#m68d501142e" y="1296.0"/>
      </g>
     </g>
     <g id="line2d_20">
      <g>
       <use style="stroke:#000000;stroke-width:0.5;" x="1110.0" xlink:href="#mdb759524e9" y="144.0"/>
      </g>
     </g>
     <g id="text_6">
      <!-- 25 -->
      <g transform="translate(1090.9125 1322.7953125)scale(0.3 -0.3)">
       <use xlink:href="#BitstreamVeraSans-Roman-32"/>
       <use x="63.623046875" xlink:href="#BitstreamVeraSans-Roman-35"/>
      </g>
     </g>
    </g>
    <g id="xtick_7">
     <g id="line2d_21">
      <g>
       <use style="stroke:#000000;stroke-width:0.5;" x="1296.0" xlink:href="#m68d501142e" y="1296.0"/>
      </g>
     </g>
     <g id="line2d_22">
      <g>
       <use style="stroke:#000000;stroke-width:0.5;" x="1296.0" xlink:href="#mdb759524e9" y="144.0"/>
      </g>
     </g>
     <g id="text_7">
      <!-- 30 -->
      <defs>
       <path d="M 40.578125 39.3125 
Q 47.65625 37.796875 51.625 33 
Q 55.609375 28.21875 55.609375 21.1875 
Q 55.609375 10.40625 48.1875 4.484375 
Q 40.765625 -1.421875 27.09375 -1.421875 
Q 22.515625 -1.421875 17.65625 -0.515625 
Q 12.796875 0.390625 7.625 2.203125 
L 7.625 11.71875 
Q 11.71875 9.328125 16.59375 8.109375 
Q 21.484375 6.890625 26.8125 6.890625 
Q 36.078125 6.890625 40.9375 10.546875 
Q 45.796875 14.203125 45.796875 21.1875 
Q 45.796875 27.640625 41.28125 31.265625 
Q 36.765625 34.90625 28.71875 34.90625 
L 20.21875 34.90625 
L 20.21875 43.015625 
L 29.109375 43.015625 
Q 36.375 43.015625 40.234375 45.921875 
Q 44.09375 48.828125 44.09375 54.296875 
Q 44.09375 59.90625 40.109375 62.90625 
Q 36.140625 65.921875 28.71875 65.921875 
Q 24.65625 65.921875 20.015625 65.03125 
Q 15.375 64.15625 9.8125 62.3125 
L 9.8125 71.09375 
Q 15.4375 72.65625 20.34375 73.4375 
Q 25.25 74.21875 29.59375 74.21875 
Q 40.828125 74.21875 47.359375 69.109375 
Q 53.90625 64.015625 53.90625 55.328125 
Q 53.90625 49.265625 50.4375 45.09375 
Q 46.96875 40.921875 40.578125 39.3125 
" id="BitstreamVeraSans-Roman-33"/>
      </defs>
      <g transform="translate(1276.9125 1322.7953125)scale(0.3 -0.3)">
       <use xlink:href="#BitstreamVeraSans-Roman-33"/>
       <use x="63.623046875" xlink:href="#BitstreamVeraSans-Roman-30"/>
      </g>
     </g>
    </g>
    <g id="text_8">
     <!-- Sites n -->
     <defs>
      <path id="BitstreamVeraSans-Roman-20"/>
      <path d="M 54.890625 33.015625 
L 54.890625 0 
L 45.90625 0 
L 45.90625 32.71875 
Q 45.90625 40.484375 42.875 44.328125 
Q 39.84375 48.1875 33.796875 48.1875 
Q 26.515625 48.1875 22.3125 43.546875 
Q 18.109375 38.921875 18.109375 30.90625 
L 18.109375 0 
L 9.078125 0 
L 9.078125 54.6875 
L 18.109375 54.6875 
L 18.109375 46.1875 
Q 21.34375 51.125 25.703125 53.5625 
Q 30.078125 56 35.796875 56 
Q 45.21875 56 50.046875 50.171875 
Q 54.890625 44.34375 54.890625 33.015625 
" id="BitstreamVeraSans-Roman-6e"/>
      <path d="M 53.515625 70.515625 
L 53.515625 60.890625 
Q 47.90625 63.578125 42.921875 64.890625 
Q 37.9375 66.21875 33.296875 66.21875 
Q 25.25 66.21875 20.875 63.09375 
Q 16.5 59.96875 16.5 54.203125 
Q 16.5 49.359375 19.40625 46.890625 
Q 22.3125 44.4375 30.421875 42.921875 
L 36.375 41.703125 
Q 47.40625 39.59375 52.65625 34.296875 
Q 57.90625 29 57.90625 20.125 
Q 57.90625 9.515625 50.796875 4.046875 
Q 43.703125 -1.421875 29.984375 -1.421875 
Q 24.8125 -1.421875 18.96875 -0.25 
Q 13.140625 0.921875 6.890625 3.21875 
L 6.890625 13.375 
Q 12.890625 10.015625 18.65625 8.296875 
Q 24.421875 6.59375 29.984375 6.59375 
Q 38.421875 6.59375 43.015625 9.90625 
Q 47.609375 13.234375 47.609375 19.390625 
Q 47.609375 24.75 44.3125 27.78125 
Q 41.015625 30.8125 33.5 32.328125 
L 27.484375 33.5 
Q 16.453125 35.6875 11.515625 40.375 
Q 6.59375 45.0625 6.59375 53.421875 
Q 6.59375 63.09375 13.40625 68.65625 
Q 20.21875 74.21875 32.171875 74.21875 
Q 37.3125 74.21875 42.625 73.28125 
Q 47.953125 72.359375 53.515625 70.515625 
" id="BitstreamVeraSans-Roman-53"/>
      <path d="M 9.421875 54.6875 
L 18.40625 54.6875 
L 18.40625 0 
L 9.421875 0 
z
M 9.421875 75.984375 
L 18.40625 75.984375 
L 18.40625 64.59375 
L 9.421875 64.59375 
z
" id="BitstreamVeraSans-Roman-69"/>
      <path d="M 56.203125 29.59375 
L 56.203125 25.203125 
L 14.890625 25.203125 
Q 15.484375 15.921875 20.484375 11.0625 
Q 25.484375 6.203125 34.421875 6.203125 
Q 39.59375 6.203125 44.453125 7.46875 
Q 49.3125 8.734375 54.109375 11.28125 
L 54.109375 2.78125 
Q 49.265625 0.734375 44.1875 -0.34375 
Q 39.109375 -1.421875 33.890625 -1.421875 
Q 20.796875 -1.421875 13.15625 6.1875 
Q 5.515625 13.8125 5.515625 26.8125 
Q 5.515625 40.234375 12.765625 48.109375 
Q 20.015625 56 32.328125 56 
Q 43.359375 56 49.78125 48.890625 
Q 56.203125 41.796875 56.203125 29.59375 
M 47.21875 32.234375 
Q 47.125 39.59375 43.09375 43.984375 
Q 39.0625 48.390625 32.421875 48.390625 
Q 24.90625 48.390625 20.390625 44.140625 
Q 15.875 39.890625 15.1875 32.171875 
z
" id="BitstreamVeraSans-Roman-65"/>
      <path d="M 18.3125 70.21875 
L 18.3125 54.6875 
L 36.8125 54.6875 
L 36.8125 47.703125 
L 18.3125 47.703125 
L 18.3125 18.015625 
Q 18.3125 11.328125 20.140625 9.421875 
Q 21.96875 7.515625 27.59375 7.515625 
L 36.8125 7.515625 
L 36.8125 0 
L 27.59375 0 
Q 17.1875 0 13.234375 3.875 
Q 9.28125 7.765625 9.28125 18.015625 
L 9.28125 47.703125 
L 2.6875 47.703125 
L 2.6875 54.6875 
L 9.28125 54.6875 
L 9.28125 70.21875 
z
" id="BitstreamVeraSans-Roman-74"/>
      <path d="M 44.28125 53.078125 
L 44.28125 44.578125 
Q 40.484375 46.53125 36.375 47.5 
Q 32.28125 48.484375 27.875 48.484375 
Q 21.1875 48.484375 17.84375 46.4375 
Q 14.5 44.390625 14.5 40.28125 
Q 14.5 37.15625 16.890625 35.375 
Q 19.28125 33.59375 26.515625 31.984375 
L 29.59375 31.296875 
Q 39.15625 29.25 43.1875 25.515625 
Q 47.21875 21.78125 47.21875 15.09375 
Q 47.21875 7.46875 41.1875 3.015625 
Q 35.15625 -1.421875 24.609375 -1.421875 
Q 20.21875 -1.421875 15.453125 -0.5625 
Q 10.6875 0.296875 5.421875 2 
L 5.421875 11.28125 
Q 10.40625 8.6875 15.234375 7.390625 
Q 20.0625 6.109375 24.8125 6.109375 
Q 31.15625 6.109375 34.5625 8.28125 
Q 37.984375 10.453125 37.984375 14.40625 
Q 37.984375 18.0625 35.515625 20.015625 
Q 33.0625 21.96875 24.703125 23.78125 
L 21.578125 24.515625 
Q 13.234375 26.265625 9.515625 29.90625 
Q 5.8125 33.546875 5.8125 39.890625 
Q 5.8125 47.609375 11.28125 51.796875 
Q 16.75 56 26.8125 56 
Q 31.78125 56 36.171875 55.265625 
Q 40.578125 54.546875 44.28125 53.078125 
" id="BitstreamVeraSans-Roman-73"/>
     </defs>
     <g transform="translate(676.935 1361.38875)scale(0.36 -0.36)">
      <use xlink:href="#BitstreamVeraSans-Roman-53"/>
      <use x="63.4765625" xlink:href="#BitstreamVeraSans-Roman-69"/>
      <use x="91.259765625" xlink:href="#BitstreamVeraSans-Roman-74"/>
      <use x="130.46875" xlink:href="#BitstreamVeraSans-Roman-65"/>
      <use x="191.9921875" xlink:href="#BitstreamVeraSans-Roman-73"/>
      <use x="244.091796875" xlink:href="#BitstreamVeraSans-Roman-20"/>
      <use x="275.87890625" xlink:href="#BitstreamVeraSans-Roman-6e"/>
     </g>
    </g>
   </g>
   <g id="matplotlib.axis_2">
    <g id="ytick_1">
     <g id="line2d_23">
      <defs>
       <path d="M 0 0 
L 4 0 
" id="m8911ccbec7" style="stroke:#000000;stroke-width:0.5;"/>
      </defs>
      <g>
       <use style="stroke:#000000;stroke-width:0.5;" x="180.0" xlink:href="#m8911ccbec7" y="1296.0"/>
      </g>
     </g>
     <g id="line2d_24">
      <defs>
       <path d="M 0 0 
L -4 0 
" id="mb31e17706c" style="stroke:#000000;stroke-width:0.5;"/>
      </defs>
      <g>
       <use style="stroke:#000000;stroke-width:0.5;" x="1296.0" xlink:href="#mb31e17706c" y="1296.0"/>
      </g>
     </g>
     <g id="text_9">
      <!-- $\mathdefault{10^{-6}}$ -->
      <defs>
       <path d="M 33.015625 40.375 
Q 26.375 40.375 22.484375 35.828125 
Q 18.609375 31.296875 18.609375 23.390625 
Q 18.609375 15.53125 22.484375 10.953125 
Q 26.375 6.390625 33.015625 6.390625 
Q 39.65625 6.390625 43.53125 10.953125 
Q 47.40625 15.53125 47.40625 23.390625 
Q 47.40625 31.296875 43.53125 35.828125 
Q 39.65625 40.375 33.015625 40.375 
M 52.59375 71.296875 
L 52.59375 62.3125 
Q 48.875 64.0625 45.09375 64.984375 
Q 41.3125 65.921875 37.59375 65.921875 
Q 27.828125 65.921875 22.671875 59.328125 
Q 17.53125 52.734375 16.796875 39.40625 
Q 19.671875 43.65625 24.015625 45.921875 
Q 28.375 48.1875 33.59375 48.1875 
Q 44.578125 48.1875 50.953125 41.515625 
Q 57.328125 34.859375 57.328125 23.390625 
Q 57.328125 12.15625 50.6875 5.359375 
Q 44.046875 -1.421875 33.015625 -1.421875 
Q 20.359375 -1.421875 13.671875 8.265625 
Q 6.984375 17.96875 6.984375 36.375 
Q 6.984375 53.65625 15.1875 63.9375 
Q 23.390625 74.21875 37.203125 74.21875 
Q 40.921875 74.21875 44.703125 73.484375 
Q 48.484375 72.75 52.59375 71.296875 
" id="BitstreamVeraSans-Roman-36"/>
       <path d="M 4.890625 31.390625 
L 31.203125 31.390625 
L 31.203125 23.390625 
L 4.890625 23.390625 
z
" id="BitstreamVeraSans-Roman-2d"/>
      </defs>
      <g transform="translate(112.7 1305.0609375)scale(0.3 -0.3)">
       <use transform="translate(0.0 0.796875)" xlink:href="#BitstreamVeraSans-Roman-31"/>
       <use transform="translate(63.623046875 0.796875)" xlink:href="#BitstreamVeraSans-Roman-30"/>
       <use transform="translate(132.75859375 48.046875)scale(0.7)" xlink:href="#BitstreamVeraSans-Roman-2d"/>
       <use transform="translate(158.017382812 48.046875)scale(0.7)" xlink:href="#BitstreamVeraSans-Roman-36"/>
      </g>
     </g>
    </g>
    <g id="ytick_2">
     <g id="line2d_25">
      <g>
       <use style="stroke:#000000;stroke-width:0.5;" x="180.0" xlink:href="#m8911ccbec7" y="1168.0"/>
      </g>
     </g>
     <g id="line2d_26">
      <g>
       <use style="stroke:#000000;stroke-width:0.5;" x="1296.0" xlink:href="#mb31e17706c" y="1168.0"/>
      </g>
     </g>
     <g id="text_10">
      <!-- $\mathdefault{10^{-5}}$ -->
      <g transform="translate(112.7 1176.9109375)scale(0.3 -0.3)">
       <use transform="translate(0.0 0.715625)" xlink:href="#BitstreamVeraSans-Roman-31"/>
       <use transform="translate(63.623046875 0.715625)" xlink:href="#BitstreamVeraSans-Roman-30"/>
       <use transform="translate(132.75859375 47.965625)scale(0.7)" xlink:href="#BitstreamVeraSans-Roman-2d"/>
       <use transform="translate(158.017382812 47.965625)scale(0.7)" xlink:href="#BitstreamVeraSans-Roman-35"/>
      </g>
     </g>
    </g>
    <g id="ytick_3">
     <g id="line2d_27">
      <g>
       <use style="stroke:#000000;stroke-width:0.5;" x="180.0" xlink:href="#m8911ccbec7" y="1040.0"/>
      </g>
     </g>
     <g id="line2d_28">
      <g>
       <use style="stroke:#000000;stroke-width:0.5;" x="1296.0" xlink:href="#mb31e17706c" y="1040.0"/>
      </g>
     </g>
     <g id="text_11">
      <!-- $\mathdefault{10^{-4}}$ -->
      <defs>
       <path d="M 37.796875 64.3125 
L 12.890625 25.390625 
L 37.796875 25.390625 
z
M 35.203125 72.90625 
L 47.609375 72.90625 
L 47.609375 25.390625 
L 58.015625 25.390625 
L 58.015625 17.1875 
L 47.609375 17.1875 
L 47.609375 0 
L 37.796875 0 
L 37.796875 17.1875 
L 4.890625 17.1875 
L 4.890625 26.703125 
z
" id="BitstreamVeraSans-Roman-34"/>
      </defs>
      <g transform="translate(112.7 1048.9109375)scale(0.3 -0.3)">
       <use transform="translate(0.0 0.715625)" xlink:href="#BitstreamVeraSans-Roman-31"/>
       <use transform="translate(63.623046875 0.715625)" xlink:href="#BitstreamVeraSans-Roman-30"/>
       <use transform="translate(132.75859375 47.965625)scale(0.7)" xlink:href="#BitstreamVeraSans-Roman-2d"/>
       <use transform="translate(158.017382812 47.965625)scale(0.7)" xlink:href="#BitstreamVeraSans-Roman-34"/>
      </g>
     </g>
    </g>
    <g id="ytick_4">
     <g id="line2d_29">
      <g>
       <use style="stroke:#000000;stroke-width:0.5;" x="180.0" xlink:href="#m8911ccbec7" y="912.0"/>
      </g>
     </g>
     <g id="line2d_30">
      <g>
       <use style="stroke:#000000;stroke-width:0.5;" x="1296.0" xlink:href="#mb31e17706c" y="912.0"/>
      </g>
     </g>
     <g id="text_12">
      <!-- $\mathdefault{10^{-3}}$ -->
      <g transform="translate(112.7 921.0609375)scale(0.3 -0.3)">
       <use transform="translate(0.0 0.796875)" xlink:href="#BitstreamVeraSans-Roman-31"/>
       <use transform="translate(63.623046875 0.796875)" xlink:href="#BitstreamVeraSans-Roman-30"/>
       <use transform="translate(132.75859375 48.046875)scale(0.7)" xlink:href="#BitstreamVeraSans-Roman-2d"/>
       <use transform="translate(158.017382812 48.046875)scale(0.7)" xlink:href="#BitstreamVeraSans-Roman-33"/>
      </g>
     </g>
    </g>
    <g id="ytick_5">
     <g id="line2d_31">
      <g>
       <use style="stroke:#000000;stroke-width:0.5;" x="180.0" xlink:href="#m8911ccbec7" y="784.0"/>
      </g>
     </g>
     <g id="line2d_32">
      <g>
       <use style="stroke:#000000;stroke-width:0.5;" x="1296.0" xlink:href="#mb31e17706c" y="784.0"/>
      </g>
     </g>
     <g id="text_13">
      <!-- $\mathdefault{10^{-2}}$ -->
      <g transform="translate(112.7 793.0609375)scale(0.3 -0.3)">
       <use transform="translate(0.0 0.796875)" xlink:href="#BitstreamVeraSans-Roman-31"/>
       <use transform="translate(63.623046875 0.796875)" xlink:href="#BitstreamVeraSans-Roman-30"/>
       <use transform="translate(132.75859375 48.046875)scale(0.7)" xlink:href="#BitstreamVeraSans-Roman-2d"/>
       <use transform="translate(158.017382812 48.046875)scale(0.7)" xlink:href="#BitstreamVeraSans-Roman-32"/>
      </g>
     </g>
    </g>
    <g id="ytick_6">
     <g id="line2d_33">
      <g>
       <use style="stroke:#000000;stroke-width:0.5;" x="180.0" xlink:href="#m8911ccbec7" y="656.0"/>
      </g>
     </g>
     <g id="line2d_34">
      <g>
       <use style="stroke:#000000;stroke-width:0.5;" x="1296.0" xlink:href="#mb31e17706c" y="656.0"/>
      </g>
     </g>
     <g id="text_14">
      <!-- $\mathdefault{10^{-1}}$ -->
      <g transform="translate(112.7 664.9109375)scale(0.3 -0.3)">
       <use transform="translate(0.0 0.715625)" xlink:href="#BitstreamVeraSans-Roman-31"/>
       <use transform="translate(63.623046875 0.715625)" xlink:href="#BitstreamVeraSans-Roman-30"/>
       <use transform="translate(132.75859375 47.965625)scale(0.7)" xlink:href="#BitstreamVeraSans-Roman-2d"/>
       <use transform="translate(158.017382812 47.965625)scale(0.7)" xlink:href="#BitstreamVeraSans-Roman-31"/>
      </g>
     </g>
    </g>
    <g id="ytick_7">
     <g id="line2d_35">
      <g>
       <use style="stroke:#000000;stroke-width:0.5;" x="180.0" xlink:href="#m8911ccbec7" y="528.0"/>
      </g>
     </g>
     <g id="line2d_36">
      <g>
       <use style="stroke:#000000;stroke-width:0.5;" x="1296.0" xlink:href="#mb31e17706c" y="528.0"/>
      </g>
     </g>
     <g id="text_15">
      <!-- $\mathdefault{10^{0}}$ -->
      <g transform="translate(120.2 537.0609375)scale(0.3 -0.3)">
       <use transform="translate(0.0 0.796875)" xlink:href="#BitstreamVeraSans-Roman-31"/>
       <use transform="translate(63.623046875 0.796875)" xlink:href="#BitstreamVeraSans-Roman-30"/>
       <use transform="translate(132.75859375 48.046875)scale(0.7)" xlink:href="#BitstreamVeraSans-Roman-30"/>
      </g>
     </g>
    </g>
    <g id="ytick_8">
     <g id="line2d_37">
      <g>
       <use style="stroke:#000000;stroke-width:0.5;" x="180.0" xlink:href="#m8911ccbec7" y="400.0"/>
      </g>
     </g>
     <g id="line2d_38">
      <g>
       <use style="stroke:#000000;stroke-width:0.5;" x="1296.0" xlink:href="#mb31e17706c" y="400.0"/>
      </g>
     </g>
     <g id="text_16">
      <!-- $\mathdefault{10^{1}}$ -->
      <g transform="translate(120.2 408.9109375)scale(0.3 -0.3)">
       <use transform="translate(0.0 0.715625)" xlink:href="#BitstreamVeraSans-Roman-31"/>
       <use transform="translate(63.623046875 0.715625)" xlink:href="#BitstreamVeraSans-Roman-30"/>
       <use transform="translate(132.75859375 47.965625)scale(0.7)" xlink:href="#BitstreamVeraSans-Roman-31"/>
      </g>
     </g>
    </g>
    <g id="ytick_9">
     <g id="line2d_39">
      <g>
       <use style="stroke:#000000;stroke-width:0.5;" x="180.0" xlink:href="#m8911ccbec7" y="272.0"/>
      </g>
     </g>
     <g id="line2d_40">
      <g>
       <use style="stroke:#000000;stroke-width:0.5;" x="1296.0" xlink:href="#mb31e17706c" y="272.0"/>
      </g>
     </g>
     <g id="text_17">
      <!-- $\mathdefault{10^{2}}$ -->
      <g transform="translate(120.2 281.0609375)scale(0.3 -0.3)">
       <use transform="translate(0.0 0.796875)" xlink:href="#BitstreamVeraSans-Roman-31"/>
       <use transform="translate(63.623046875 0.796875)" xlink:href="#BitstreamVeraSans-Roman-30"/>
       <use transform="translate(132.75859375 48.046875)scale(0.7)" xlink:href="#BitstreamVeraSans-Roman-32"/>
      </g>
     </g>
    </g>
    <g id="ytick_10">
     <g id="line2d_41">
      <g>
       <use style="stroke:#000000;stroke-width:0.5;" x="180.0" xlink:href="#m8911ccbec7" y="144.0"/>
      </g>
     </g>
     <g id="line2d_42">
      <g>
       <use style="stroke:#000000;stroke-width:0.5;" x="1296.0" xlink:href="#mb31e17706c" y="144.0"/>
      </g>
     </g>
     <g id="text_18">
      <!-- $\mathdefault{10^{3}}$ -->
      <g transform="translate(120.2 153.0609375)scale(0.3 -0.3)">
       <use transform="translate(0.0 0.796875)" xlink:href="#BitstreamVeraSans-Roman-31"/>
       <use transform="translate(63.623046875 0.796875)" xlink:href="#BitstreamVeraSans-Roman-30"/>
       <use transform="translate(132.75859375 48.046875)scale(0.7)" xlink:href="#BitstreamVeraSans-Roman-33"/>
      </g>
     </g>
    </g>
    <g id="ytick_11">
     <g id="line2d_43">
      <defs>
       <path d="M 0 0 
L 2 0 
" id="mea1c80364f" style="stroke:#000000;stroke-width:0.5;"/>
      </defs>
      <g>
       <use style="stroke:#000000;stroke-width:0.5;" x="180.0" xlink:href="#mea1c80364f" y="1257.46816056"/>
      </g>
     </g>
     <g id="line2d_44">
      <defs>
       <path d="M 0 0 
L -2 0 
" id="m05b1aa8b0a" style="stroke:#000000;stroke-width:0.5;"/>
      </defs>
      <g>
       <use style="stroke:#000000;stroke-width:0.5;" x="1296.0" xlink:href="#m05b1aa8b0a" y="1257.46816056"/>
      </g>
     </g>
    </g>
    <g id="ytick_12">
     <g id="line2d_45">
      <g>
       <use style="stroke:#000000;stroke-width:0.5;" x="180.0" xlink:href="#mea1c80364f" y="1218.93632111"/>
      </g>
     </g>
     <g id="line2d_46">
      <g>
       <use style="stroke:#000000;stroke-width:0.5;" x="1296.0" xlink:href="#m05b1aa8b0a" y="1218.93632111"/>
      </g>
     </g>
    </g>
    <g id="ytick_13">
     <g id="line2d_47">
      <g>
       <use style="stroke:#000000;stroke-width:0.5;" x="180.0" xlink:href="#mea1c80364f" y="1196.39663995"/>
      </g>
     </g>
     <g id="line2d_48">
      <g>
       <use style="stroke:#000000;stroke-width:0.5;" x="1296.0" xlink:href="#m05b1aa8b0a" y="1196.39663995"/>
      </g>
     </g>
    </g>
    <g id="ytick_14">
     <g id="line2d_49">
      <g>
       <use style="stroke:#000000;stroke-width:0.5;" x="180.0" xlink:href="#mea1c80364f" y="1180.40448167"/>
      </g>
     </g>
     <g id="line2d_50">
      <g>
       <use style="stroke:#000000;stroke-width:0.5;" x="1296.0" xlink:href="#m05b1aa8b0a" y="1180.40448167"/>
      </g>
     </g>
    </g>
    <g id="ytick_15">
     <g id="line2d_51">
      <g>
       <use style="stroke:#000000;stroke-width:0.5;" x="180.0" xlink:href="#mea1c80364f" y="1129.46816056"/>
      </g>
     </g>
     <g id="line2d_52">
      <g>
       <use style="stroke:#000000;stroke-width:0.5;" x="1296.0" xlink:href="#m05b1aa8b0a" y="1129.46816056"/>
      </g>
     </g>
    </g>
    <g id="ytick_16">
     <g id="line2d_53">
      <g>
       <use style="stroke:#000000;stroke-width:0.5;" x="180.0" xlink:href="#mea1c80364f" y="1090.93632111"/>
      </g>
     </g>
     <g id="line2d_54">
      <g>
       <use style="stroke:#000000;stroke-width:0.5;" x="1296.0" xlink:href="#m05b1aa8b0a" y="1090.93632111"/>
      </g>
     </g>
    </g>
    <g id="ytick_17">
     <g id="line2d_55">
      <g>
       <use style="stroke:#000000;stroke-width:0.5;" x="180.0" xlink:href="#mea1c80364f" y="1068.39663995"/>
      </g>
     </g>
     <g id="line2d_56">
      <g>
       <use style="stroke:#000000;stroke-width:0.5;" x="1296.0" xlink:href="#m05b1aa8b0a" y="1068.39663995"/>
      </g>
     </g>
    </g>
    <g id="ytick_18">
     <g id="line2d_57">
      <g>
       <use style="stroke:#000000;stroke-width:0.5;" x="180.0" xlink:href="#mea1c80364f" y="1052.40448167"/>
      </g>
     </g>
     <g id="line2d_58">
      <g>
       <use style="stroke:#000000;stroke-width:0.5;" x="1296.0" xlink:href="#m05b1aa8b0a" y="1052.40448167"/>
      </g>
     </g>
    </g>
    <g id="ytick_19">
     <g id="line2d_59">
      <g>
       <use style="stroke:#000000;stroke-width:0.5;" x="180.0" xlink:href="#mea1c80364f" y="1001.46816056"/>
      </g>
     </g>
     <g id="line2d_60">
      <g>
       <use style="stroke:#000000;stroke-width:0.5;" x="1296.0" xlink:href="#m05b1aa8b0a" y="1001.46816056"/>
      </g>
     </g>
    </g>
    <g id="ytick_20">
     <g id="line2d_61">
      <g>
       <use style="stroke:#000000;stroke-width:0.5;" x="180.0" xlink:href="#mea1c80364f" y="962.93632111"/>
      </g>
     </g>
     <g id="line2d_62">
      <g>
       <use style="stroke:#000000;stroke-width:0.5;" x="1296.0" xlink:href="#m05b1aa8b0a" y="962.93632111"/>
      </g>
     </g>
    </g>
    <g id="ytick_21">
     <g id="line2d_63">
      <g>
       <use style="stroke:#000000;stroke-width:0.5;" x="180.0" xlink:href="#mea1c80364f" y="940.396639951"/>
      </g>
     </g>
     <g id="line2d_64">
      <g>
       <use style="stroke:#000000;stroke-width:0.5;" x="1296.0" xlink:href="#m05b1aa8b0a" y="940.396639951"/>
      </g>
     </g>
    </g>
    <g id="ytick_22">
     <g id="line2d_65">
      <g>
       <use style="stroke:#000000;stroke-width:0.5;" x="180.0" xlink:href="#mea1c80364f" y="924.404481665"/>
      </g>
     </g>
     <g id="line2d_66">
      <g>
       <use style="stroke:#000000;stroke-width:0.5;" x="1296.0" xlink:href="#m05b1aa8b0a" y="924.404481665"/>
      </g>
     </g>
    </g>
    <g id="ytick_23">
     <g id="line2d_67">
      <g>
       <use style="stroke:#000000;stroke-width:0.5;" x="180.0" xlink:href="#mea1c80364f" y="873.468160555"/>
      </g>
     </g>
     <g id="line2d_68">
      <g>
       <use style="stroke:#000000;stroke-width:0.5;" x="1296.0" xlink:href="#m05b1aa8b0a" y="873.468160555"/>
      </g>
     </g>
    </g>
    <g id="ytick_24">
     <g id="line2d_69">
      <g>
       <use style="stroke:#000000;stroke-width:0.5;" x="180.0" xlink:href="#mea1c80364f" y="834.93632111"/>
      </g>
     </g>
     <g id="line2d_70">
      <g>
       <use style="stroke:#000000;stroke-width:0.5;" x="1296.0" xlink:href="#m05b1aa8b0a" y="834.93632111"/>
      </g>
     </g>
    </g>
    <g id="ytick_25">
     <g id="line2d_71">
      <g>
       <use style="stroke:#000000;stroke-width:0.5;" x="180.0" xlink:href="#mea1c80364f" y="812.396639951"/>
      </g>
     </g>
     <g id="line2d_72">
      <g>
       <use style="stroke:#000000;stroke-width:0.5;" x="1296.0" xlink:href="#m05b1aa8b0a" y="812.396639951"/>
      </g>
     </g>
    </g>
    <g id="ytick_26">
     <g id="line2d_73">
      <g>
       <use style="stroke:#000000;stroke-width:0.5;" x="180.0" xlink:href="#mea1c80364f" y="796.404481665"/>
      </g>
     </g>
     <g id="line2d_74">
      <g>
       <use style="stroke:#000000;stroke-width:0.5;" x="1296.0" xlink:href="#m05b1aa8b0a" y="796.404481665"/>
      </g>
     </g>
    </g>
    <g id="ytick_27">
     <g id="line2d_75">
      <g>
       <use style="stroke:#000000;stroke-width:0.5;" x="180.0" xlink:href="#mea1c80364f" y="745.468160555"/>
      </g>
     </g>
     <g id="line2d_76">
      <g>
       <use style="stroke:#000000;stroke-width:0.5;" x="1296.0" xlink:href="#m05b1aa8b0a" y="745.468160555"/>
      </g>
     </g>
    </g>
    <g id="ytick_28">
     <g id="line2d_77">
      <g>
       <use style="stroke:#000000;stroke-width:0.5;" x="180.0" xlink:href="#mea1c80364f" y="706.93632111"/>
      </g>
     </g>
     <g id="line2d_78">
      <g>
       <use style="stroke:#000000;stroke-width:0.5;" x="1296.0" xlink:href="#m05b1aa8b0a" y="706.93632111"/>
      </g>
     </g>
    </g>
    <g id="ytick_29">
     <g id="line2d_79">
      <g>
       <use style="stroke:#000000;stroke-width:0.5;" x="180.0" xlink:href="#mea1c80364f" y="684.396639951"/>
      </g>
     </g>
     <g id="line2d_80">
      <g>
       <use style="stroke:#000000;stroke-width:0.5;" x="1296.0" xlink:href="#m05b1aa8b0a" y="684.396639951"/>
      </g>
     </g>
    </g>
    <g id="ytick_30">
     <g id="line2d_81">
      <g>
       <use style="stroke:#000000;stroke-width:0.5;" x="180.0" xlink:href="#mea1c80364f" y="668.404481665"/>
      </g>
     </g>
     <g id="line2d_82">
      <g>
       <use style="stroke:#000000;stroke-width:0.5;" x="1296.0" xlink:href="#m05b1aa8b0a" y="668.404481665"/>
      </g>
     </g>
    </g>
    <g id="ytick_31">
     <g id="line2d_83">
      <g>
       <use style="stroke:#000000;stroke-width:0.5;" x="180.0" xlink:href="#mea1c80364f" y="617.468160555"/>
      </g>
     </g>
     <g id="line2d_84">
      <g>
       <use style="stroke:#000000;stroke-width:0.5;" x="1296.0" xlink:href="#m05b1aa8b0a" y="617.468160555"/>
      </g>
     </g>
    </g>
    <g id="ytick_32">
     <g id="line2d_85">
      <g>
       <use style="stroke:#000000;stroke-width:0.5;" x="180.0" xlink:href="#mea1c80364f" y="578.93632111"/>
      </g>
     </g>
     <g id="line2d_86">
      <g>
       <use style="stroke:#000000;stroke-width:0.5;" x="1296.0" xlink:href="#m05b1aa8b0a" y="578.93632111"/>
      </g>
     </g>
    </g>
    <g id="ytick_33">
     <g id="line2d_87">
      <g>
       <use style="stroke:#000000;stroke-width:0.5;" x="180.0" xlink:href="#mea1c80364f" y="556.396639951"/>
      </g>
     </g>
     <g id="line2d_88">
      <g>
       <use style="stroke:#000000;stroke-width:0.5;" x="1296.0" xlink:href="#m05b1aa8b0a" y="556.396639951"/>
      </g>
     </g>
    </g>
    <g id="ytick_34">
     <g id="line2d_89">
      <g>
       <use style="stroke:#000000;stroke-width:0.5;" x="180.0" xlink:href="#mea1c80364f" y="540.404481665"/>
      </g>
     </g>
     <g id="line2d_90">
      <g>
       <use style="stroke:#000000;stroke-width:0.5;" x="1296.0" xlink:href="#m05b1aa8b0a" y="540.404481665"/>
      </g>
     </g>
    </g>
    <g id="ytick_35">
     <g id="line2d_91">
      <g>
       <use style="stroke:#000000;stroke-width:0.5;" x="180.0" xlink:href="#mea1c80364f" y="489.468160555"/>
      </g>
     </g>
     <g id="line2d_92">
      <g>
       <use style="stroke:#000000;stroke-width:0.5;" x="1296.0" xlink:href="#m05b1aa8b0a" y="489.468160555"/>
      </g>
     </g>
    </g>
    <g id="ytick_36">
     <g id="line2d_93">
      <g>
       <use style="stroke:#000000;stroke-width:0.5;" x="180.0" xlink:href="#mea1c80364f" y="450.93632111"/>
      </g>
     </g>
     <g id="line2d_94">
      <g>
       <use style="stroke:#000000;stroke-width:0.5;" x="1296.0" xlink:href="#m05b1aa8b0a" y="450.93632111"/>
      </g>
     </g>
    </g>
    <g id="ytick_37">
     <g id="line2d_95">
      <g>
       <use style="stroke:#000000;stroke-width:0.5;" x="180.0" xlink:href="#mea1c80364f" y="428.396639951"/>
      </g>
     </g>
     <g id="line2d_96">
      <g>
       <use style="stroke:#000000;stroke-width:0.5;" x="1296.0" xlink:href="#m05b1aa8b0a" y="428.396639951"/>
      </g>
     </g>
    </g>
    <g id="ytick_38">
     <g id="line2d_97">
      <g>
       <use style="stroke:#000000;stroke-width:0.5;" x="180.0" xlink:href="#mea1c80364f" y="412.404481665"/>
      </g>
     </g>
     <g id="line2d_98">
      <g>
       <use style="stroke:#000000;stroke-width:0.5;" x="1296.0" xlink:href="#m05b1aa8b0a" y="412.404481665"/>
      </g>
     </g>
    </g>
    <g id="ytick_39">
     <g id="line2d_99">
      <g>
       <use style="stroke:#000000;stroke-width:0.5;" x="180.0" xlink:href="#mea1c80364f" y="361.468160555"/>
      </g>
     </g>
     <g id="line2d_100">
      <g>
       <use style="stroke:#000000;stroke-width:0.5;" x="1296.0" xlink:href="#m05b1aa8b0a" y="361.468160555"/>
      </g>
     </g>
    </g>
    <g id="ytick_40">
     <g id="line2d_101">
      <g>
       <use style="stroke:#000000;stroke-width:0.5;" x="180.0" xlink:href="#mea1c80364f" y="322.93632111"/>
      </g>
     </g>
     <g id="line2d_102">
      <g>
       <use style="stroke:#000000;stroke-width:0.5;" x="1296.0" xlink:href="#m05b1aa8b0a" y="322.93632111"/>
      </g>
     </g>
    </g>
    <g id="ytick_41">
     <g id="line2d_103">
      <g>
       <use style="stroke:#000000;stroke-width:0.5;" x="180.0" xlink:href="#mea1c80364f" y="300.396639951"/>
      </g>
     </g>
     <g id="line2d_104">
      <g>
       <use style="stroke:#000000;stroke-width:0.5;" x="1296.0" xlink:href="#m05b1aa8b0a" y="300.396639951"/>
      </g>
     </g>
    </g>
    <g id="ytick_42">
     <g id="line2d_105">
      <g>
       <use style="stroke:#000000;stroke-width:0.5;" x="180.0" xlink:href="#mea1c80364f" y="284.404481665"/>
      </g>
     </g>
     <g id="line2d_106">
      <g>
       <use style="stroke:#000000;stroke-width:0.5;" x="1296.0" xlink:href="#m05b1aa8b0a" y="284.404481665"/>
      </g>
     </g>
    </g>
    <g id="ytick_43">
     <g id="line2d_107">
      <g>
       <use style="stroke:#000000;stroke-width:0.5;" x="180.0" xlink:href="#mea1c80364f" y="233.468160555"/>
      </g>
     </g>
     <g id="line2d_108">
      <g>
       <use style="stroke:#000000;stroke-width:0.5;" x="1296.0" xlink:href="#m05b1aa8b0a" y="233.468160555"/>
      </g>
     </g>
    </g>
    <g id="ytick_44">
     <g id="line2d_109">
      <g>
       <use style="stroke:#000000;stroke-width:0.5;" x="180.0" xlink:href="#mea1c80364f" y="194.93632111"/>
      </g>
     </g>
     <g id="line2d_110">
      <g>
       <use style="stroke:#000000;stroke-width:0.5;" x="1296.0" xlink:href="#m05b1aa8b0a" y="194.93632111"/>
      </g>
     </g>
    </g>
    <g id="ytick_45">
     <g id="line2d_111">
      <g>
       <use style="stroke:#000000;stroke-width:0.5;" x="180.0" xlink:href="#mea1c80364f" y="172.396639951"/>
      </g>
     </g>
     <g id="line2d_112">
      <g>
       <use style="stroke:#000000;stroke-width:0.5;" x="1296.0" xlink:href="#m05b1aa8b0a" y="172.396639951"/>
      </g>
     </g>
    </g>
    <g id="ytick_46">
     <g id="line2d_113">
      <g>
       <use style="stroke:#000000;stroke-width:0.5;" x="180.0" xlink:href="#mea1c80364f" y="156.404481665"/>
      </g>
     </g>
     <g id="line2d_114">
      <g>
       <use style="stroke:#000000;stroke-width:0.5;" x="1296.0" xlink:href="#m05b1aa8b0a" y="156.404481665"/>
      </g>
     </g>
    </g>
    <g id="text_19">
     <!-- $|\psi(Z)|^2$ -->
     <defs>
      <path d="M 4.984375 0 
L 4.984375 2.6875 
Q 4.984375 2.9375 5.171875 3.21875 
L 20.703125 20.40625 
Q 24.21875 24.21875 26.40625 26.796875 
Q 28.609375 29.390625 30.75 32.765625 
Q 32.90625 36.140625 34.15625 39.625 
Q 35.40625 43.109375 35.40625 47.015625 
Q 35.40625 51.125 33.890625 54.859375 
Q 32.375 58.59375 29.375 60.84375 
Q 26.375 63.09375 22.125 63.09375 
Q 17.78125 63.09375 14.3125 60.46875 
Q 10.84375 57.859375 9.421875 53.71875 
Q 9.8125 53.8125 10.5 53.8125 
Q 12.75 53.8125 14.328125 52.296875 
Q 15.921875 50.78125 15.921875 48.390625 
Q 15.921875 46.09375 14.328125 44.5 
Q 12.75 42.921875 10.5 42.921875 
Q 8.15625 42.921875 6.5625 44.546875 
Q 4.984375 46.1875 4.984375 48.390625 
Q 4.984375 52.15625 6.390625 55.4375 
Q 7.8125 58.734375 10.46875 61.296875 
Q 13.140625 63.875 16.484375 65.234375 
Q 19.828125 66.609375 23.578125 66.609375 
Q 29.296875 66.609375 34.21875 64.1875 
Q 39.15625 61.765625 42.03125 57.34375 
Q 44.921875 52.9375 44.921875 47.015625 
Q 44.921875 42.671875 43.015625 38.765625 
Q 41.109375 34.859375 38.125 31.65625 
Q 35.15625 28.46875 30.515625 24.40625 
Q 25.875 20.359375 24.421875 19 
L 13.09375 8.109375 
L 22.703125 8.109375 
Q 29.78125 8.109375 34.546875 8.21875 
Q 39.3125 8.34375 39.59375 8.59375 
Q 40.765625 9.859375 42 17.828125 
L 44.921875 17.828125 
L 42.09375 0 
z
" id="Cmr10-32"/>
      <path d="M 31 -24.8125 
Q 25.4375 -20.40625 21.40625 -14.71875 
Q 17.390625 -9.03125 14.8125 -2.578125 
Q 12.25 3.859375 10.984375 10.890625 
Q 9.71875 17.921875 9.71875 25 
Q 9.71875 32.171875 10.984375 39.203125 
Q 12.25 46.234375 14.859375 52.734375 
Q 17.484375 59.234375 21.53125 64.890625 
Q 25.59375 70.5625 31 74.8125 
Q 31 75 31.5 75 
L 32.421875 75 
Q 32.71875 75 32.953125 74.734375 
Q 33.203125 74.46875 33.203125 74.125 
Q 33.203125 73.6875 33.015625 73.484375 
Q 28.125 68.703125 24.875 63.234375 
Q 21.625 57.765625 19.640625 51.578125 
Q 17.671875 45.40625 16.796875 38.78125 
Q 15.921875 32.171875 15.921875 25 
Q 15.921875 -6.78125 32.90625 -23.296875 
Q 33.203125 -23.578125 33.203125 -24.125 
Q 33.203125 -24.359375 32.9375 -24.671875 
Q 32.671875 -25 32.421875 -25 
L 31.5 -25 
Q 31 -25 31 -24.8125 
" id="Cmr10-28"/>
      <path d="M 6.5 -25 
Q 5.609375 -25 5.609375 -24.125 
Q 5.609375 -23.6875 5.8125 -23.484375 
Q 22.90625 -6.78125 22.90625 25 
Q 22.90625 56.78125 6 73.296875 
Q 5.609375 73.53125 5.609375 74.125 
Q 5.609375 74.46875 5.875 74.734375 
Q 6.15625 75 6.5 75 
L 7.421875 75 
Q 7.71875 75 7.90625 74.8125 
Q 15.09375 69.140625 19.875 61.03125 
Q 24.65625 52.9375 26.875 43.75 
Q 29.109375 34.578125 29.109375 25 
Q 29.109375 17.921875 27.90625 11.0625 
Q 26.703125 4.203125 24.09375 -2.453125 
Q 21.484375 -9.125 17.484375 -14.765625 
Q 13.484375 -20.40625 7.90625 -24.8125 
Q 7.71875 -25 7.421875 -25 
z
" id="Cmr10-29"/>
      <path d="M 11.921875 -23.1875 
L 11.921875 73.1875 
Q 11.921875 73.96875 12.5 74.484375 
Q 13.09375 75 13.921875 75 
Q 14.65625 75 15.28125 74.484375 
Q 15.921875 73.96875 15.921875 73.1875 
L 15.921875 -23.1875 
Q 15.921875 -23.96875 15.28125 -24.484375 
Q 14.65625 -25 13.921875 -25 
Q 13.09375 -25 12.5 -24.484375 
Q 11.921875 -23.96875 11.921875 -23.1875 
" id="Cmsy10-6a"/>
      <path d="M 5.8125 0.78125 
Q 5.8125 2.25 6.5 3.078125 
L 61.53125 64.796875 
L 46.78125 64.796875 
Q 39.453125 64.796875 34.640625 63.0625 
Q 29.828125 61.328125 26.671875 57.296875 
Q 23.53125 53.265625 21.390625 46.296875 
Q 21.1875 45.40625 20.40625 45.40625 
L 19.484375 45.40625 
Q 18.5 45.40625 18.5 46.6875 
L 24.8125 67.390625 
Q 25 68.3125 25.78125 68.3125 
L 71.390625 68.3125 
Q 72.21875 68.3125 72.21875 67.484375 
Q 72.21875 66.015625 71.578125 65.375 
L 16.796875 3.8125 
L 31.984375 3.8125 
Q 40.828125 3.8125 45.875 5.984375 
Q 50.921875 8.15625 53.875 12.84375 
Q 56.84375 17.53125 59.625 26.21875 
Q 59.71875 26.5625 59.984375 26.828125 
Q 60.25 27.09375 60.59375 27.09375 
L 61.53125 27.09375 
Q 62.5 27.09375 62.5 25.78125 
L 54.59375 0.875 
Q 54.15625 0 53.609375 0 
L 6.6875 0 
Q 5.8125 0 5.8125 0.78125 
" id="Cmmi10-5a"/>
      <path d="M 23.78125 -19.484375 
L 28.515625 -0.875 
Q 24.171875 -0.875 20.09375 0.75 
Q 16.015625 2.390625 13.5 5.5625 
Q 10.984375 8.734375 10.984375 13.28125 
Q 10.984375 15.875 11.90625 19.1875 
Q 12.84375 22.515625 13.890625 25.296875 
Q 14.9375 28.078125 16.703125 32.625 
Q 18.015625 36.28125 18.015625 38.625 
Q 18.015625 41.609375 15.828125 41.609375 
Q 11.859375 41.609375 9.296875 37.53125 
Q 6.734375 33.453125 5.515625 28.421875 
Q 5.328125 27.78125 4.6875 27.78125 
L 3.515625 27.78125 
Q 2.6875 27.78125 2.6875 28.71875 
L 2.6875 29 
Q 4.296875 34.96875 7.609375 39.578125 
Q 10.9375 44.1875 16.015625 44.1875 
Q 19.578125 44.1875 22.046875 41.84375 
Q 24.515625 39.5 24.515625 35.890625 
Q 24.515625 34.03125 23.6875 31.984375 
Q 21.921875 27.4375 20.890625 24.75 
Q 19.875 22.078125 18.9375 18.671875 
Q 18.015625 15.28125 18.015625 12.59375 
Q 18.015625 7.71875 21.0625 5.03125 
Q 24.125 2.34375 29.109375 1.703125 
L 45.90625 68.796875 
Q 46.09375 69.390625 46.6875 69.390625 
L 47.90625 69.390625 
Q 48.6875 69.390625 48.6875 68.40625 
L 31.984375 1.515625 
L 33.109375 1.515625 
Q 37.3125 1.515625 41.96875 4 
Q 46.625 6.5 50.453125 10.546875 
Q 54.296875 14.59375 56.546875 19.25 
Q 58.796875 23.921875 58.796875 27.984375 
Q 58.796875 31 57.8125 32.6875 
Q 56.84375 34.375 55.28125 36.203125 
Q 53.71875 38.03125 53.71875 39.109375 
Q 53.71875 41.0625 55.328125 42.671875 
Q 56.9375 44.28125 58.890625 44.28125 
Q 61.28125 44.28125 62.328125 42.078125 
Q 63.375 39.890625 63.375 37.109375 
Q 63.375 34.1875 62.78125 31.25 
Q 62.203125 28.328125 61.1875 24.3125 
Q 58.890625 15.1875 51.609375 7.90625 
Q 49.125 5.421875 46.109375 3.34375 
Q 43.109375 1.265625 39.765625 0.0625 
Q 36.421875 -1.125 33.015625 -1.125 
L 31.390625 -1.125 
L 26.703125 -19.921875 
Q 26.515625 -20.515625 25.875 -20.515625 
L 24.703125 -20.515625 
Q 24.3125 -20.515625 24.046875 -20.1875 
Q 23.78125 -19.875 23.78125 -19.484375 
" id="Cmmi10-c3"/>
     </defs>
     <g transform="translate(26.36 711.0)scale(0.36 -0.36)">
      <use transform="translate(0.0 0.109375)" xlink:href="#Cmsy10-6a"/>
      <use transform="translate(27.685546875 0.109375)" xlink:href="#Cmmi10-c3"/>
      <use transform="translate(92.7734375 0.109375)" xlink:href="#Cmr10-28"/>
      <use transform="translate(131.591796875 0.109375)" xlink:href="#Cmmi10-5a"/>
      <use transform="translate(199.8046875 0.109375)" xlink:href="#Cmr10-29"/>
      <use transform="translate(238.623046875 0.109375)" xlink:href="#Cmsy10-6a"/>
      <use transform="translate(270.772734375 38.3734375)scale(0.7)" xlink:href="#Cmr10-32"/>
     </g>
    </g>
   </g>
   <g id="text_20">
    <!-- Intensity distribution -->
    <defs>
     <path d="M 30.609375 48.390625 
Q 23.390625 48.390625 19.1875 42.75 
Q 14.984375 37.109375 14.984375 27.296875 
Q 14.984375 17.484375 19.15625 11.84375 
Q 23.34375 6.203125 30.609375 6.203125 
Q 37.796875 6.203125 41.984375 11.859375 
Q 46.1875 17.53125 46.1875 27.296875 
Q 46.1875 37.015625 41.984375 42.703125 
Q 37.796875 48.390625 30.609375 48.390625 
M 30.609375 56 
Q 42.328125 56 49.015625 48.375 
Q 55.71875 40.765625 55.71875 27.296875 
Q 55.71875 13.875 49.015625 6.21875 
Q 42.328125 -1.421875 30.609375 -1.421875 
Q 18.84375 -1.421875 12.171875 6.21875 
Q 5.515625 13.875 5.515625 27.296875 
Q 5.515625 40.765625 12.171875 48.375 
Q 18.84375 56 30.609375 56 
" id="BitstreamVeraSans-Roman-6f"/>
     <path d="M 32.171875 -5.078125 
Q 28.375 -14.84375 24.75 -17.8125 
Q 21.140625 -20.796875 15.09375 -20.796875 
L 7.90625 -20.796875 
L 7.90625 -13.28125 
L 13.1875 -13.28125 
Q 16.890625 -13.28125 18.9375 -11.515625 
Q 21 -9.765625 23.484375 -3.21875 
L 25.09375 0.875 
L 2.984375 54.6875 
L 12.5 54.6875 
L 29.59375 11.921875 
L 46.6875 54.6875 
L 56.203125 54.6875 
z
" id="BitstreamVeraSans-Roman-79"/>
     <path d="M 45.40625 46.390625 
L 45.40625 75.984375 
L 54.390625 75.984375 
L 54.390625 0 
L 45.40625 0 
L 45.40625 8.203125 
Q 42.578125 3.328125 38.25 0.953125 
Q 33.9375 -1.421875 27.875 -1.421875 
Q 17.96875 -1.421875 11.734375 6.484375 
Q 5.515625 14.40625 5.515625 27.296875 
Q 5.515625 40.1875 11.734375 48.09375 
Q 17.96875 56 27.875 56 
Q 33.9375 56 38.25 53.625 
Q 42.578125 51.265625 45.40625 46.390625 
M 14.796875 27.296875 
Q 14.796875 17.390625 18.875 11.75 
Q 22.953125 6.109375 30.078125 6.109375 
Q 37.203125 6.109375 41.296875 11.75 
Q 45.40625 17.390625 45.40625 27.296875 
Q 45.40625 37.203125 41.296875 42.84375 
Q 37.203125 48.484375 30.078125 48.484375 
Q 22.953125 48.484375 18.875 42.84375 
Q 14.796875 37.203125 14.796875 27.296875 
" id="BitstreamVeraSans-Roman-64"/>
     <path d="M 8.5 21.578125 
L 8.5 54.6875 
L 17.484375 54.6875 
L 17.484375 21.921875 
Q 17.484375 14.15625 20.5 10.265625 
Q 23.53125 6.390625 29.59375 6.390625 
Q 36.859375 6.390625 41.078125 11.03125 
Q 45.3125 15.671875 45.3125 23.6875 
L 45.3125 54.6875 
L 54.296875 54.6875 
L 54.296875 0 
L 45.3125 0 
L 45.3125 8.40625 
Q 42.046875 3.421875 37.71875 1 
Q 33.40625 -1.421875 27.6875 -1.421875 
Q 18.265625 -1.421875 13.375 4.4375 
Q 8.5 10.296875 8.5 21.578125 
" id="BitstreamVeraSans-Roman-75"/>
     <path d="M 41.109375 46.296875 
Q 39.59375 47.171875 37.8125 47.578125 
Q 36.03125 48 33.890625 48 
Q 26.265625 48 22.1875 43.046875 
Q 18.109375 38.09375 18.109375 28.8125 
L 18.109375 0 
L 9.078125 0 
L 9.078125 54.6875 
L 18.109375 54.6875 
L 18.109375 46.1875 
Q 20.953125 51.171875 25.484375 53.578125 
Q 30.03125 56 36.53125 56 
Q 37.453125 56 38.578125 55.875 
Q 39.703125 55.765625 41.0625 55.515625 
z
" id="BitstreamVeraSans-Roman-72"/>
     <path d="M 9.8125 72.90625 
L 19.671875 72.90625 
L 19.671875 0 
L 9.8125 0 
z
" id="BitstreamVeraSans-Roman-49"/>
     <path d="M 48.6875 27.296875 
Q 48.6875 37.203125 44.609375 42.84375 
Q 40.53125 48.484375 33.40625 48.484375 
Q 26.265625 48.484375 22.1875 42.84375 
Q 18.109375 37.203125 18.109375 27.296875 
Q 18.109375 17.390625 22.1875 11.75 
Q 26.265625 6.109375 33.40625 6.109375 
Q 40.53125 6.109375 44.609375 11.75 
Q 48.6875 17.390625 48.6875 27.296875 
M 18.109375 46.390625 
Q 20.953125 51.265625 25.265625 53.625 
Q 29.59375 56 35.59375 56 
Q 45.5625 56 51.78125 48.09375 
Q 58.015625 40.1875 58.015625 27.296875 
Q 58.015625 14.40625 51.78125 6.484375 
Q 45.5625 -1.421875 35.59375 -1.421875 
Q 29.59375 -1.421875 25.265625 0.953125 
Q 20.953125 3.328125 18.109375 8.203125 
L 18.109375 0 
L 9.078125 0 
L 9.078125 75.984375 
L 18.109375 75.984375 
z
" id="BitstreamVeraSans-Roman-62"/>
    </defs>
    <g transform="translate(551.3596875 92.92)scale(0.36 -0.36)">
     <use xlink:href="#BitstreamVeraSans-Roman-49"/>
     <use x="29.4921875" xlink:href="#BitstreamVeraSans-Roman-6e"/>
     <use x="92.87109375" xlink:href="#BitstreamVeraSans-Roman-74"/>
     <use x="132.080078125" xlink:href="#BitstreamVeraSans-Roman-65"/>
     <use x="193.603515625" xlink:href="#BitstreamVeraSans-Roman-6e"/>
     <use x="256.982421875" xlink:href="#BitstreamVeraSans-Roman-73"/>
     <use x="309.08203125" xlink:href="#BitstreamVeraSans-Roman-69"/>
     <use x="336.865234375" xlink:href="#BitstreamVeraSans-Roman-74"/>
     <use x="376.07421875" xlink:href="#BitstreamVeraSans-Roman-79"/>
     <use x="435.25390625" xlink:href="#BitstreamVeraSans-Roman-20"/>
     <use x="467.041015625" xlink:href="#BitstreamVeraSans-Roman-64"/>
     <use x="530.517578125" xlink:href="#BitstreamVeraSans-Roman-69"/>
     <use x="558.30078125" xlink:href="#BitstreamVeraSans-Roman-73"/>
     <use x="610.400390625" xlink:href="#BitstreamVeraSans-Roman-74"/>
     <use x="649.609375" xlink:href="#BitstreamVeraSans-Roman-72"/>
     <use x="690.72265625" xlink:href="#BitstreamVeraSans-Roman-69"/>
     <use x="718.505859375" xlink:href="#BitstreamVeraSans-Roman-62"/>
     <use x="781.982421875" xlink:href="#BitstreamVeraSans-Roman-75"/>
     <use x="845.361328125" xlink:href="#BitstreamVeraSans-Roman-74"/>
     <use x="884.5703125" xlink:href="#BitstreamVeraSans-Roman-69"/>
     <use x="912.353515625" xlink:href="#BitstreamVeraSans-Roman-6f"/>
     <use x="973.53515625" xlink:href="#BitstreamVeraSans-Roman-6e"/>
    </g>
   </g>
   <g id="legend_1">
    <g id="patch_7">
     <path d="M 905.4 366.165 
L 1458.82125 366.165 
L 1458.82125 144 
L 905.4 144 
z
" style="fill:#ffffff;stroke:#000000;stroke-linejoin:miter;"/>
    </g>
    <g id="line2d_115"/>
    <g id="line2d_116">
     <g>
      <use style="fill:#0000ff;stroke:#0000ff;stroke-width:0.5;" x="930.6" xlink:href="#m0d1f5c01f6" y="173.154375"/>
      <use style="fill:#0000ff;stroke:#0000ff;stroke-width:0.5;" x="981.0" xlink:href="#m0d1f5c01f6" y="173.154375"/>
     </g>
    </g>
    <g id="text_21">
     <!-- Input power 5 lossless -->
     <defs>
      <path d="M 4.203125 54.6875 
L 13.1875 54.6875 
L 24.421875 12.015625 
L 35.59375 54.6875 
L 46.1875 54.6875 
L 57.421875 12.015625 
L 68.609375 54.6875 
L 77.59375 54.6875 
L 63.28125 0 
L 52.6875 0 
L 40.921875 44.828125 
L 29.109375 0 
L 18.5 0 
z
" id="BitstreamVeraSans-Roman-77"/>
      <path d="M 9.421875 75.984375 
L 18.40625 75.984375 
L 18.40625 0 
L 9.421875 0 
z
" id="BitstreamVeraSans-Roman-6c"/>
      <path d="M 18.109375 8.203125 
L 18.109375 -20.796875 
L 9.078125 -20.796875 
L 9.078125 54.6875 
L 18.109375 54.6875 
L 18.109375 46.390625 
Q 20.953125 51.265625 25.265625 53.625 
Q 29.59375 56 35.59375 56 
Q 45.5625 56 51.78125 48.09375 
Q 58.015625 40.1875 58.015625 27.296875 
Q 58.015625 14.40625 51.78125 6.484375 
Q 45.5625 -1.421875 35.59375 -1.421875 
Q 29.59375 -1.421875 25.265625 0.953125 
Q 20.953125 3.328125 18.109375 8.203125 
M 48.6875 27.296875 
Q 48.6875 37.203125 44.609375 42.84375 
Q 40.53125 48.484375 33.40625 48.484375 
Q 26.265625 48.484375 22.1875 42.84375 
Q 18.109375 37.203125 18.109375 27.296875 
Q 18.109375 17.390625 22.1875 11.75 
Q 26.265625 6.109375 33.40625 6.109375 
Q 40.53125 6.109375 44.609375 11.75 
Q 48.6875 17.390625 48.6875 27.296875 
" id="BitstreamVeraSans-Roman-70"/>
     </defs>
     <g transform="translate(1020.6 185.754375)scale(0.36 -0.36)">
      <use xlink:href="#BitstreamVeraSans-Roman-49"/>
      <use x="29.4921875" xlink:href="#BitstreamVeraSans-Roman-6e"/>
      <use x="92.87109375" xlink:href="#BitstreamVeraSans-Roman-70"/>
      <use x="156.34765625" xlink:href="#BitstreamVeraSans-Roman-75"/>
      <use x="219.7265625" xlink:href="#BitstreamVeraSans-Roman-74"/>
      <use x="258.935546875" xlink:href="#BitstreamVeraSans-Roman-20"/>
      <use x="290.72265625" xlink:href="#BitstreamVeraSans-Roman-70"/>
      <use x="354.19921875" xlink:href="#BitstreamVeraSans-Roman-6f"/>
      <use x="415.380859375" xlink:href="#BitstreamVeraSans-Roman-77"/>
      <use x="497.16796875" xlink:href="#BitstreamVeraSans-Roman-65"/>
      <use x="558.69140625" xlink:href="#BitstreamVeraSans-Roman-72"/>
      <use x="599.8046875" xlink:href="#BitstreamVeraSans-Roman-20"/>
      <use x="631.591796875" xlink:href="#BitstreamVeraSans-Roman-35"/>
      <use x="695.21484375" xlink:href="#BitstreamVeraSans-Roman-20"/>
      <use x="727.001953125" xlink:href="#BitstreamVeraSans-Roman-6c"/>
      <use x="754.78515625" xlink:href="#BitstreamVeraSans-Roman-6f"/>
      <use x="815.966796875" xlink:href="#BitstreamVeraSans-Roman-73"/>
      <use x="868.06640625" xlink:href="#BitstreamVeraSans-Roman-73"/>
      <use x="920.166015625" xlink:href="#BitstreamVeraSans-Roman-6c"/>
      <use x="947.94921875" xlink:href="#BitstreamVeraSans-Roman-65"/>
      <use x="1009.47265625" xlink:href="#BitstreamVeraSans-Roman-73"/>
      <use x="1061.57226562" xlink:href="#BitstreamVeraSans-Roman-73"/>
     </g>
    </g>
    <g id="line2d_117"/>
    <g id="line2d_118">
     <g>
      <use style="fill:#ff0000;stroke:#ff0000;stroke-width:0.5;" x="930.6" xlink:href="#mb0278b41f8" y="225.995625"/>
      <use style="fill:#ff0000;stroke:#ff0000;stroke-width:0.5;" x="981.0" xlink:href="#mb0278b41f8" y="225.995625"/>
     </g>
    </g>
    <g id="text_22">
     <!-- Input power 40 lossless -->
     <g transform="translate(1020.6 238.595625)scale(0.36 -0.36)">
      <use xlink:href="#BitstreamVeraSans-Roman-49"/>
      <use x="29.4921875" xlink:href="#BitstreamVeraSans-Roman-6e"/>
      <use x="92.87109375" xlink:href="#BitstreamVeraSans-Roman-70"/>
      <use x="156.34765625" xlink:href="#BitstreamVeraSans-Roman-75"/>
      <use x="219.7265625" xlink:href="#BitstreamVeraSans-Roman-74"/>
      <use x="258.935546875" xlink:href="#BitstreamVeraSans-Roman-20"/>
      <use x="290.72265625" xlink:href="#BitstreamVeraSans-Roman-70"/>
      <use x="354.19921875" xlink:href="#BitstreamVeraSans-Roman-6f"/>
      <use x="415.380859375" xlink:href="#BitstreamVeraSans-Roman-77"/>
      <use x="497.16796875" xlink:href="#BitstreamVeraSans-Roman-65"/>
      <use x="558.69140625" xlink:href="#BitstreamVeraSans-Roman-72"/>
      <use x="599.8046875" xlink:href="#BitstreamVeraSans-Roman-20"/>
      <use x="631.591796875" xlink:href="#BitstreamVeraSans-Roman-34"/>
      <use x="695.21484375" xlink:href="#BitstreamVeraSans-Roman-30"/>
      <use x="758.837890625" xlink:href="#BitstreamVeraSans-Roman-20"/>
      <use x="790.625" xlink:href="#BitstreamVeraSans-Roman-6c"/>
      <use x="818.408203125" xlink:href="#BitstreamVeraSans-Roman-6f"/>
      <use x="879.58984375" xlink:href="#BitstreamVeraSans-Roman-73"/>
      <use x="931.689453125" xlink:href="#BitstreamVeraSans-Roman-73"/>
      <use x="983.7890625" xlink:href="#BitstreamVeraSans-Roman-6c"/>
      <use x="1011.57226562" xlink:href="#BitstreamVeraSans-Roman-65"/>
      <use x="1073.09570312" xlink:href="#BitstreamVeraSans-Roman-73"/>
      <use x="1125.1953125" xlink:href="#BitstreamVeraSans-Roman-73"/>
     </g>
    </g>
    <g id="line2d_119"/>
    <g id="line2d_120">
     <g>
      <use style="fill:#008000;stroke:#008000;stroke-width:0.5;" x="930.6" xlink:href="#m21efa1339b" y="278.836875"/>
      <use style="fill:#008000;stroke:#008000;stroke-width:0.5;" x="981.0" xlink:href="#m21efa1339b" y="278.836875"/>
     </g>
    </g>
    <g id="text_23">
     <!-- Input power 40 odd -->
     <g transform="translate(1020.6 291.436875)scale(0.36 -0.36)">
      <use xlink:href="#BitstreamVeraSans-Roman-49"/>
      <use x="29.4921875" xlink:href="#BitstreamVeraSans-Roman-6e"/>
      <use x="92.87109375" xlink:href="#BitstreamVeraSans-Roman-70"/>
      <use x="156.34765625" xlink:href="#BitstreamVeraSans-Roman-75"/>
      <use x="219.7265625" xlink:href="#BitstreamVeraSans-Roman-74"/>
      <use x="258.935546875" xlink:href="#BitstreamVeraSans-Roman-20"/>
      <use x="290.72265625" xlink:href="#BitstreamVeraSans-Roman-70"/>
      <use x="354.19921875" xlink:href="#BitstreamVeraSans-Roman-6f"/>
      <use x="415.380859375" xlink:href="#BitstreamVeraSans-Roman-77"/>
      <use x="497.16796875" xlink:href="#BitstreamVeraSans-Roman-65"/>
      <use x="558.69140625" xlink:href="#BitstreamVeraSans-Roman-72"/>
      <use x="599.8046875" xlink:href="#BitstreamVeraSans-Roman-20"/>
      <use x="631.591796875" xlink:href="#BitstreamVeraSans-Roman-34"/>
      <use x="695.21484375" xlink:href="#BitstreamVeraSans-Roman-30"/>
      <use x="758.837890625" xlink:href="#BitstreamVeraSans-Roman-20"/>
      <use x="790.625" xlink:href="#BitstreamVeraSans-Roman-6f"/>
      <use x="851.806640625" xlink:href="#BitstreamVeraSans-Roman-64"/>
      <use x="915.283203125" xlink:href="#BitstreamVeraSans-Roman-64"/>
     </g>
    </g>
    <g id="line2d_121"/>
    <g id="line2d_122">
     <g>
      <use style="stroke:#000000;stroke-width:0.5;" x="930.6" xlink:href="#m536bc6780b" y="331.678125"/>
      <use style="stroke:#000000;stroke-width:0.5;" x="981.0" xlink:href="#m536bc6780b" y="331.678125"/>
     </g>
    </g>
    <g id="text_24">
     <!-- Input power 40 even -->
     <defs>
      <path d="M 2.984375 54.6875 
L 12.5 54.6875 
L 29.59375 8.796875 
L 46.6875 54.6875 
L 56.203125 54.6875 
L 35.6875 0 
L 23.484375 0 
z
" id="BitstreamVeraSans-Roman-76"/>
     </defs>
     <g transform="translate(1020.6 344.278125)scale(0.36 -0.36)">
      <use xlink:href="#BitstreamVeraSans-Roman-49"/>
      <use x="29.4921875" xlink:href="#BitstreamVeraSans-Roman-6e"/>
      <use x="92.87109375" xlink:href="#BitstreamVeraSans-Roman-70"/>
      <use x="156.34765625" xlink:href="#BitstreamVeraSans-Roman-75"/>
      <use x="219.7265625" xlink:href="#BitstreamVeraSans-Roman-74"/>
      <use x="258.935546875" xlink:href="#BitstreamVeraSans-Roman-20"/>
      <use x="290.72265625" xlink:href="#BitstreamVeraSans-Roman-70"/>
      <use x="354.19921875" xlink:href="#BitstreamVeraSans-Roman-6f"/>
      <use x="415.380859375" xlink:href="#BitstreamVeraSans-Roman-77"/>
      <use x="497.16796875" xlink:href="#BitstreamVeraSans-Roman-65"/>
      <use x="558.69140625" xlink:href="#BitstreamVeraSans-Roman-72"/>
      <use x="599.8046875" xlink:href="#BitstreamVeraSans-Roman-20"/>
      <use x="631.591796875" xlink:href="#BitstreamVeraSans-Roman-34"/>
      <use x="695.21484375" xlink:href="#BitstreamVeraSans-Roman-30"/>
      <use x="758.837890625" xlink:href="#BitstreamVeraSans-Roman-20"/>
      <use x="790.625" xlink:href="#BitstreamVeraSans-Roman-65"/>
      <use x="852.1484375" xlink:href="#BitstreamVeraSans-Roman-76"/>
      <use x="911.328125" xlink:href="#BitstreamVeraSans-Roman-65"/>
      <use x="972.8515625" xlink:href="#BitstreamVeraSans-Roman-6e"/>
     </g>
    </g>
   </g>
  </g>
 </g>
 <defs>
  <clipPath id="pa49e5d5be3">
   <rect height="1152.0" width="1116.0" x="180.0" y="144.0"/>
  </clipPath>
 </defs>
</svg>
