<?xml version="1.0" encoding="utf-8" standalone="no"?>
<!DOCTYPE svg PUBLIC "-//W3C//DTD SVG 1.1//EN"
  "http://www.w3.org/Graphics/SVG/1.1/DTD/svg11.dtd">
<!-- Created with matplotlib (http://matplotlib.org/) -->
<svg height="1440pt" version="1.1" viewBox="0 0 1440 1440" width="1440pt" xmlns="http://www.w3.org/2000/svg" xmlns:xlink="http://www.w3.org/1999/xlink">
 <defs>
  <style type="text/css">
*{stroke-linecap:butt;stroke-linejoin:round;stroke-miterlimit:100000;}
  </style>
 </defs>
 <g id="figure_1">
  <g id="patch_1">
   <path d="M 0 1440 
L 1440 1440 
L 1440 0 
L 0 0 
z
" style="fill:#ffffff;"/>
  </g>
  <g id="axes_1">
   <g id="patch_2">
    <path d="M 180 1296 
L 1296 1296 
L 1296 144 
L 180 144 
z
" style="fill:#ffffff;"/>
   </g>
   <g id="line2d_1">
    <path clip-path="url(#p16312007e1)" d="M 180 144.003291 
L 180.3348 144.161277 
L 180.7254 144.645075 
L 181.1718 145.592778 
L 181.7298 147.369196 
L 182.3994 150.367808 
L 183.1248 154.681407 
L 183.9618 161.03085 
L 184.9104 169.996063 
L 185.9706 182.225162 
L 187.1424 198.426547 
L 188.4258 219.355054 
L 189.8208 245.786795 
L 191.3832 279.762204 
L 193.113 322.388331 
L 195.1218 377.614352 
L 197.856 459.609284 
L 201.762 576.533619 
L 203.3802 618.390782 
L 204.6636 646.220293 
L 205.7238 664.649161 
L 206.6166 676.489672 
L 207.342 683.426121 
L 207.9558 687.330424 
L 208.4022 689.014122 
L 208.737 689.633015 
L 208.9602 689.738675 
L 209.1834 689.599266 
L 209.4624 689.081768 
L 209.853 687.721577 
L 210.2994 685.271706 
L 210.8574 680.898829 
L 211.527 673.803845 
L 212.364 662.277595 
L 213.3126 645.983836 
L 214.4844 621.803254 
L 215.991 585.611433 
L 218.1114 528.679503 
L 223.245 389.044833 
L 225.2538 341.360973 
L 226.9836 305.385335 
L 228.546 277.434371 
L 229.941 256.355978 
L 231.1686 240.945292 
L 232.2846 229.542732 
L 233.289 221.433859 
L 234.1818 215.954625 
L 234.963 212.502947 
L 235.5768 210.673306 
L 236.079 209.755179 
L 236.4696 209.401709 
L 236.8044 209.35007 
L 237.1392 209.53053 
L 237.5298 210.034482 
L 237.9762 210.997372 
L 238.5342 212.781294 
L 239.2038 215.772631 
L 239.985 220.433984 
L 240.822 226.82551 
L 241.7706 235.811306 
L 242.8308 248.034859 
L 244.0026 264.204994 
L 245.286 285.086236 
L 246.681 311.479904 
L 248.2434 345.478688 
L 249.9732 388.295666 
L 251.9262 442.482559 
L 254.3814 517.320695 
L 259.5708 677.537071 
L 261.0774 716.368868 
L 262.305 742.653619 
L 263.3094 759.761639 
L 264.1464 770.612712 
L 264.8718 777.33592 
L 265.4298 780.751214 
L 265.8762 782.365658 
L 266.211 782.921427 
L 266.4342 782.980336 
L 266.6574 782.790856 
L 266.9364 782.206637 
L 267.327 780.746551 
L 267.8292 777.78739 
L 268.443 772.566757 
L 269.1684 764.230663 
L 270.0054 751.907035 
L 271.0098 733.705806 
L 272.2374 707.220967 
L 273.8556 667.000623 
L 276.3666 598.110953 
L 280.3284 489.927139 
L 282.4488 438.336213 
L 284.2344 400.09506 
L 285.8526 370.113191 
L 287.3034 347.271003 
L 288.5868 330.371297 
L 289.7586 317.716655 
L 290.8188 308.584555 
L 291.7674 302.298205 
L 292.5486 298.465991 
L 293.2182 296.151744 
L 293.7762 294.909085 
L 294.2226 294.364458 
L 294.6132 294.215867 
L 294.948 294.332182 
L 295.3386 294.752158 
L 295.785 295.606881 
L 296.343 297.236999 
L 296.9568 299.750045 
L 297.6822 303.690208 
L 298.5192 309.538051 
L 299.4678 317.842369 
L 300.528 329.215104 
L 301.6998 344.322963 
L 302.9832 363.873231 
L 304.3782 388.589015 
L 305.9406 420.371545 
L 307.6704 460.245136 
L 309.6792 511.895311 
L 312.3576 587.009606 
L 316.4868 702.905575 
L 318.105 742.069057 
L 319.3884 768.125855 
L 320.4486 785.389893 
L 321.3414 796.476428 
L 322.0668 802.953258 
L 322.6806 806.571218 
L 323.127 808.101908 
L 323.4618 808.634391 
L 323.685 808.695069 
L 323.9082 808.520181 
L 324.1872 807.970864 
L 324.5778 806.587493 
L 325.08 803.767217 
L 325.6938 798.7629 
L 326.4192 790.722937 
L 327.2562 778.756966 
L 328.2606 760.950442 
L 329.4882 734.816266 
L 330.9948 697.651802 
L 333.171 637.885404 
L 338.3046 495.16518 
L 340.3692 444.858295 
L 342.1548 406.642355 
L 343.7172 377.715845 
L 345.168 354.85954 
L 346.4514 337.967801 
L 347.6232 325.332176 
L 348.6834 316.224144 
L 349.5762 310.282023 
L 350.3574 306.385893 
L 351.027 304.017894 
L 351.585 302.731106 
L 352.0314 302.151604 
L 352.422 301.972824 
L 352.7568 302.063522 
L 353.1474 302.453944 
L 353.5938 303.275385 
L 354.1518 304.864768 
L 354.7656 307.334367 
L 355.491 311.225526 
L 356.328 317.020988 
L 357.2766 325.273256 
L 358.3368 336.600556 
L 359.5086 351.68007 
L 360.792 371.236246 
L 362.187 396.019727 
L 363.7494 427.983713 
L 365.4792 468.238617 
L 367.4322 519.13141 
L 369.8874 589.299568 
L 375.0768 739.426976 
L 376.6392 777.223841 
L 377.8668 801.869733 
L 378.8712 817.944469 
L 379.7082 828.160194 
L 380.4336 834.499315 
L 380.9916 837.721045 
L 381.438 839.241255 
L 381.7728 839.759792 
L 381.996 839.809004 
L 382.2192 839.621374 
L 382.4982 839.054938 
L 382.8888 837.646747 
L 383.391 834.796125 
L 384.0048 829.762798 
L 384.7302 821.709044 
L 385.5672 809.767042 
L 386.5716 792.061263 
L 387.7992 766.173115 
L 389.3616 728.063017 
L 391.6494 666.105605 
L 396.3366 538.317773 
L 398.4012 488.529746 
L 400.1868 450.572393 
L 401.805 420.793659 
L 403.2558 398.078912 
L 404.5392 381.243879 
L 405.711 368.606487 
L 406.7712 359.454447 
L 407.7198 353.121084 
L 408.5568 348.997169 
L 409.2264 346.690346 
L 409.7844 345.443331 
L 410.2308 344.888301 
L 410.6214 344.72556 
L 410.9562 344.825997 
L 411.3468 345.223081 
L 411.7932 346.045891 
L 412.3512 347.627523 
L 412.965 350.07626 
L 413.6904 353.925725 
L 414.5274 359.649386 
L 415.476 367.788149 
L 416.5362 378.945555 
L 417.708 393.779826 
L 418.9914 412.990428 
L 420.3864 437.294593 
L 421.9488 468.573214 
L 423.6786 507.854627 
L 425.6874 558.812397 
L 428.31 631.52548 
L 432.774 755.753142 
L 434.3922 794.188836 
L 435.6756 819.599627 
L 436.68 835.531904 
L 437.5728 846.349332 
L 438.2982 852.623132 
L 438.8562 855.839659 
L 439.3026 857.379642 
L 439.6374 857.924819 
L 439.8606 857.996602 
L 440.0838 857.834867 
L 440.3628 857.304779 
L 440.7534 855.95328 
L 441.1998 853.546641 
L 441.7578 849.269236 
L 442.4274 842.334038 
L 443.2086 831.885983 
L 444.1572 816.062596 
L 445.2732 793.586796 
L 446.6682 760.74902 
L 448.5654 710.296796 
L 455.652 516.295941 
L 457.5492 472.900689 
L 459.2232 439.47587 
L 460.7298 413.618694 
L 462.1248 393.408943 
L 463.3524 378.673048 
L 464.4684 367.795352 
L 465.4728 360.078446 
L 466.3656 354.879357 
L 467.091 351.810918 
L 467.7048 350.026134 
L 468.207 349.120075 
L 468.6534 348.733792 
L 468.9882 348.703042 
L 469.323 348.894288 
L 469.7136 349.397968 
L 470.2158 350.489382 
L 470.7738 352.287272 
L 471.4434 355.25686 
L 472.2246 359.838812 
L 473.1174 366.544022 
L 474.1218 375.950565 
L 475.2378 388.698627 
L 476.4654 405.481935 
L 477.8046 427.032689 
L 479.2554 454.094076 
L 480.8736 488.633203 
L 482.6592 531.660675 
L 484.7796 588.441753 
L 487.8486 677.470911 
L 491.1408 771.313587 
L 492.8148 812.80249 
L 494.0982 839.488035 
L 495.1584 857.258716 
L 496.0512 868.776893 
L 496.7766 875.61733 
L 497.3904 879.558011 
L 497.8926 881.491894 
L 498.2274 882.129403 
L 498.5064 882.261387 
L 498.7296 882.105959 
L 499.0086 881.586567 
L 499.3992 880.256768 
L 499.8456 877.887061 
L 500.4036 873.678446 
L 501.0732 866.865918 
L 501.9102 855.80474 
L 502.8588 840.154952 
L 504.0306 816.879196 
L 505.4814 783.285044 
L 507.4902 731.082325 
L 513.6282 568.121545 
L 515.5812 523.654176 
L 517.311 489.139963 
L 518.8734 462.309086 
L 520.2684 442.031843 
L 521.5518 426.543551 
L 522.6678 415.592752 
L 523.6722 407.765407 
L 524.565 402.434612 
L 525.3462 399.033073 
L 526.0158 397.058852 
L 526.5738 396.078815 
L 527.0202 395.730629 
L 527.355 395.723857 
L 527.6898 395.93515 
L 528.0804 396.45725 
L 528.5826 397.564477 
L 529.1406 399.369531 
L 529.8102 402.333181 
L 530.5914 406.887992 
L 531.4842 413.535173 
L 532.4886 422.841316 
L 533.6046 435.433031 
L 534.8322 451.987952 
L 536.1714 473.219146 
L 537.6222 499.847078 
L 539.2404 533.789636 
L 541.0818 577.406807 
L 543.2022 633.168202 
L 546.4386 725.061836 
L 549.4518 808.575931 
L 551.1258 849.012671 
L 552.4092 874.985135 
L 553.4694 892.233876 
L 554.3622 903.356724 
L 555.0876 909.901109 
L 555.7014 913.604884 
L 556.1478 915.215007 
L 556.4826 915.81655 
L 556.7616 915.919319 
L 556.9848 915.740578 
L 557.2638 915.191609 
L 557.6544 913.818505 
L 558.1566 911.028345 
L 558.7704 906.086578 
L 559.4958 898.156014 
L 560.3328 886.360892 
L 561.3372 868.814732 
L 562.5648 843.063088 
L 564.0714 806.427841 
L 566.2476 747.448131 
L 571.5486 601.824948 
L 573.6132 552.201524 
L 575.3988 514.454913 
L 577.017 484.874058 
L 578.4678 462.316298 
L 579.7512 445.589984 
L 580.923 433.019167 
L 581.9832 423.895933 
L 582.9318 417.560515 
L 583.7688 413.41165 
L 584.4384 411.068708 
L 584.9964 409.780414 
L 585.4986 409.137763 
L 585.8892 408.976613 
L 586.224 409.074407 
L 586.6146 409.463739 
L 587.061 410.271557 
L 587.619 411.825323 
L 588.2328 414.231868 
L 588.9582 418.016256 
L 589.7952 423.645129 
L 590.7438 431.652482 
L 591.804 442.635668 
L 592.9758 457.248716 
L 594.2592 476.190835 
L 595.6542 500.185896 
L 597.2166 531.120992 
L 598.9464 570.067592 
L 600.8994 619.300086 
L 603.3546 687.211405 
L 608.7114 837.452629 
L 610.2738 874.010713 
L 611.5014 897.86743 
L 612.5058 913.455628 
L 613.3428 923.392445 
L 614.0682 929.590156 
L 614.6262 932.768587 
L 615.0726 934.295453 
L 615.4074 934.842916 
L 615.6306 934.922678 
L 615.8538 934.774492 
L 616.1328 934.269672 
L 616.5234 932.970182 
L 616.9698 930.648481 
L 617.5278 926.518289 
L 618.1974 919.823704 
L 619.0344 908.940073 
L 619.983 893.521281 
L 621.1548 870.556048 
L 622.6056 837.353965 
L 624.6144 785.650167 
L 630.9756 618.139792 
L 632.9286 574.273966 
L 634.6584 540.267048 
L 636.2208 513.854142 
L 637.6158 493.907981 
L 638.8992 478.683805 
L 640.0152 467.9283 
L 641.0196 460.247827 
L 641.9124 455.023764 
L 642.6936 451.696795 
L 643.3632 449.772316 
L 643.8654 448.891706 
L 644.3118 448.514309 
L 644.6466 448.481764 
L 644.9814 448.663982 
L 645.372 449.148009 
L 645.8742 450.199767 
L 646.4322 451.934687 
L 647.1018 454.802578 
L 647.883 459.230116 
L 648.7758 465.712192 
L 649.7802 474.809141 
L 650.8962 487.142165 
L 652.1238 503.385584 
L 653.463 524.253201 
L 654.9138 550.473333 
L 656.532 583.968692 
L 658.3176 625.752417 
L 660.3822 679.497083 
L 663.228 760.019646 
L 667.0224 866.79776 
L 668.6964 907.685927 
L 669.9798 934.074662 
L 671.04 951.724469 
L 671.9328 963.231198 
L 672.714 970.556311 
L 673.3278 974.423922 
L 673.83 976.319529 
L 674.1648 976.941638 
L 674.4438 977.0666 
L 674.667 976.90915 
L 674.946 976.391462 
L 675.3366 975.071342 
L 675.783 972.721954 
L 676.341 968.55031 
L 677.0106 961.79484 
L 677.8476 950.816198 
L 678.7962 935.262135 
L 679.968 912.087184 
L 681.4188 878.560273 
L 683.3718 827.808365 
L 690.012 651.108082 
L 691.965 607.053621 
L 693.6948 572.916255 
L 695.2572 546.389072 
L 696.6522 526.329205 
L 697.9356 510.982341 
L 699.0516 500.101709 
L 700.056 492.29166 
L 700.9488 486.937757 
L 701.73 483.485273 
L 702.3996 481.444089 
L 702.9576 480.391624 
L 703.404 479.974542 
L 703.7388 479.909688 
L 704.0736 480.057395 
L 704.4642 480.498354 
L 704.9106 481.356444 
L 705.4686 482.95992 
L 706.1382 485.661757 
L 706.9194 489.883927 
L 707.7564 495.682318 
L 708.705 503.840201 
L 709.7652 514.938434 
L 710.937 529.61184 
L 712.2204 548.537172 
L 713.6712 573.436804 
L 715.2336 604.248597 
L 716.9634 642.871705 
L 718.9722 692.936358 
L 721.5948 764.441709 
L 726.282 893.144885 
L 727.9002 931.031084 
L 729.1836 956.164072 
L 730.2438 972.792803 
L 731.1366 983.473627 
L 731.862 989.728095 
L 732.4758 993.243108 
L 732.9222 994.751737 
L 733.257 995.298113 
L 733.4802 995.382874 
L 733.7034 995.244076 
L 733.9824 994.756893 
L 734.373 993.492446 
L 734.8194 991.224303 
L 735.3774 987.178762 
L 736.047 980.606966 
L 736.8282 970.696019 
L 737.7768 955.676216 
L 738.8928 934.329466 
L 740.2878 903.116273 
L 742.1292 856.564613 
L 749.718 658.902325 
L 751.5594 619.314267 
L 753.2334 587.921962 
L 754.74 563.703005 
L 756.0792 545.52292 
L 757.3068 531.697879 
L 758.4228 521.525633 
L 759.4272 514.34248 
L 760.2642 509.793348 
L 760.9896 506.91195 
L 761.6034 505.245545 
L 762.1056 504.409121 
L 762.552 504.06417 
L 762.8868 504.051721 
L 763.2216 504.250396 
L 763.6122 504.749016 
L 764.1144 505.812245 
L 764.6724 507.550303 
L 765.342 510.408657 
L 766.1232 514.806858 
L 767.016 521.231684 
L 768.0204 530.23456 
L 769.1364 542.427282 
L 770.364 558.47474 
L 771.7032 579.082048 
L 773.154 604.970852 
L 774.7722 638.046223 
L 776.5578 679.324091 
L 778.6224 732.470087 
L 781.4124 810.676211 
L 785.4858 924.616283 
L 787.1598 965.048221 
L 788.4432 991.112203 
L 789.5034 1008.540846 
L 790.3962 1019.913313 
L 791.1774 1027.171711 
L 791.7912 1031.026055 
L 792.2934 1032.939227 
L 792.684 1033.647452 
L 792.963 1033.734575 
L 793.1862 1033.553403 
L 793.4652 1033.014531 
L 793.8558 1031.681082 
L 794.358 1028.987557 
L 794.9718 1024.236404 
L 795.6972 1016.636558 
L 796.5342 1005.364916 
L 797.5386 988.639484 
L 798.7662 964.147079 
L 800.2728 929.364943 
L 802.449 873.424779 
L 807.8616 732.410601 
L 809.9262 685.401401 
L 811.7118 649.628801 
L 813.33 621.585263 
L 814.7808 600.196592 
L 816.0642 584.338681 
L 817.236 572.425091 
L 818.2962 563.785319 
L 819.2448 557.793251 
L 820.0818 553.877543 
L 820.7514 551.674093 
L 821.3094 550.470139 
L 821.8116 549.878614 
L 822.2022 549.741002 
L 822.537 549.847676 
L 822.9276 550.23419 
L 823.374 551.021412 
L 823.932 552.523369 
L 824.5458 554.839473 
L 825.2712 558.47179 
L 826.1082 563.864348 
L 827.0568 571.525044 
L 828.117 582.021659 
L 829.2888 595.975291 
L 830.5722 614.049195 
L 831.9672 636.929224 
L 833.5296 666.409174 
L 835.2594 703.506294 
L 837.2124 750.393844 
L 839.6676 815.119763 
L 845.3034 966.079509 
L 846.8658 1000.751031 
L 848.0934 1023.320649 
L 849.0978 1038.025519 
L 849.9348 1047.359947 
L 850.6602 1053.14001 
L 851.2182 1056.064183 
L 851.6646 1057.429183 
L 851.9994 1057.878956 
L 852.2226 1057.904606 
L 852.4458 1057.71091 
L 852.7248 1057.160976 
L 853.1154 1055.819474 
L 853.6176 1053.125717 
L 854.2314 1048.384594 
L 854.9568 1040.802503 
L 855.7938 1029.546346 
L 856.7982 1012.813637 
L 858.0258 988.248379 
L 859.5324 953.252139 
L 861.6528 898.243352 
L 867.4002 746.507516 
L 869.4648 699.147642 
L 871.2504 663.147432 
L 872.8686 634.937826 
L 874.3194 613.420914 
L 875.6028 597.459117 
L 876.7746 585.454586 
L 877.8348 576.733469 
L 878.7834 570.668099 
L 879.6204 566.686647 
L 880.3458 564.278831 
L 880.9038 563.086919 
L 881.3502 562.547235 
L 881.7408 562.376947 
L 882.0756 562.455337 
L 882.4662 562.808547 
L 882.9126 563.557338 
L 883.4706 565.010782 
L 884.0844 567.273069 
L 884.8098 570.841497 
L 885.6468 576.160605 
L 886.5954 583.739642 
L 887.6556 594.149242 
L 888.8274 608.015855 
L 890.1108 626.012124 
L 891.5058 648.839605 
L 893.0124 677.196789 
L 894.6864 712.980989 
L 896.5836 758.467843 
L 898.8714 818.966204 
L 905.7906 1006.354778 
L 907.1856 1036.102452 
L 908.3574 1056.564727 
L 909.306 1069.556767 
L 910.0872 1077.608388 
L 910.7568 1082.495475 
L 911.3148 1085.102867 
L 911.7612 1086.215401 
L 912.0402 1086.469279 
L 912.2634 1086.427951 
L 912.5424 1086.071595 
L 912.8772 1085.199499 
L 913.3236 1083.290297 
L 913.8816 1079.726723 
L 914.5512 1073.779517 
L 915.3324 1064.655236 
L 916.281 1050.662003 
L 917.397 1030.598235 
L 918.7362 1002.313578 
L 920.5218 959.511191 
L 923.9256 871.105322 
L 926.9388 795.481349 
L 929.0592 747.746771 
L 930.8448 712.303902 
L 932.463 684.419065 
L 933.9138 663.066803 
L 935.253 646.53511 
L 936.4248 634.631096 
L 937.485 625.951386 
L 938.4336 619.885068 
L 939.2706 615.874007 
L 939.996 613.419246 
L 940.6098 612.084849 
L 941.112 611.500183 
L 941.5026 611.361207 
L 941.8374 611.462059 
L 942.228 611.836371 
L 942.6744 612.602541 
L 943.2324 614.067581 
L 943.8462 616.329575 
L 944.5716 619.879912 
L 945.4086 625.154001 
L 946.3572 632.650254 
L 947.4174 642.92651 
L 948.5892 656.594126 
L 949.8726 674.307905 
L 951.2676 696.748298 
L 952.83 725.689795 
L 954.5598 762.159258 
L 956.5128 808.347991 
L 958.9122 870.825966 
L 965.1618 1036.700971 
L 966.6126 1067.955369 
L 967.7844 1088.904092 
L 968.7888 1103.173243 
L 969.6258 1112.151157 
L 970.2954 1117.292111 
L 970.8534 1120.1353 
L 971.2998 1121.447414 
L 971.6346 1121.86495 
L 971.8578 1121.872791 
L 972.081 1121.664308 
L 972.4158 1120.947067 
L 972.8064 1119.500548 
L 973.3086 1116.688038 
L 973.9224 1111.82796 
L 974.6478 1104.143929 
L 975.4848 1092.823021 
L 976.4892 1076.085891 
L 977.7168 1051.615752 
L 979.2234 1016.863721 
L 981.3996 960.878789 
L 987.0354 813.552048 
L 989.1 766.474556 
L 990.8856 730.592065 
L 992.5038 702.38237 
L 993.9546 680.776362 
L 995.2938 664.028508 
L 996.4656 651.942122 
L 997.5258 643.098674 
L 998.4744 636.884594 
L 999.3114 632.740976 
L 1000.0368 630.169098 
L 1000.6506 628.733723 
L 1001.1528 628.065055 
L 1001.5434 627.859852 
L 1001.8782 627.903305 
L 1002.2688 628.209909 
L 1002.7152 628.897721 
L 1003.2174 630.101524 
L 1003.8312 632.190651 
L 1004.5566 635.534542 
L 1005.3936 640.567886 
L 1006.3422 647.788673 
L 1007.4024 657.754929 
L 1008.5742 671.079281 
L 1009.8576 688.419635 
L 1011.2526 710.462607 
L 1012.7592 737.893196 
L 1014.4332 772.561784 
L 1016.3304 816.701525 
L 1018.6182 875.535445 
L 1025.928 1068.405612 
L 1027.323 1096.804064 
L 1028.439 1115.310988 
L 1029.3876 1127.600092 
L 1030.1688 1135.11629 
L 1030.8384 1139.582412 
L 1031.3406 1141.699822 
L 1031.7312 1142.606687 
L 1032.0102 1142.856271 
L 1032.2334 1142.81701 
L 1032.5124 1142.469958 
L 1032.8472 1141.618595 
L 1033.2936 1139.752582 
L 1033.8516 1136.26636 
L 1034.5212 1130.442912 
L 1035.3024 1121.499573 
L 1036.251 1107.767722 
L 1037.367 1088.050901 
L 1038.7062 1060.207976 
L 1040.4918 1017.981981 
L 1043.6724 936.231299 
L 1046.9088 855.249791 
L 1049.0292 807.597049 
L 1050.8706 771.05599 
L 1052.4888 743.153281 
L 1053.9396 721.71121 
L 1055.2788 705.033985 
L 1056.5064 692.43674 
L 1057.5666 683.65971 
L 1058.5152 677.474555 
L 1059.3522 673.333594 
L 1060.0776 670.747236 
L 1060.6914 669.287721 
L 1061.1936 668.591335 
L 1061.5842 668.359678 
L 1061.919 668.377079 
L 1062.3096 668.649382 
L 1062.756 669.292882 
L 1063.2582 670.440382 
L 1063.872 672.451522 
L 1064.5974 675.690423 
L 1065.4344 680.585699 
L 1066.3272 687.170534 
L 1067.3316 696.2524 
L 1068.4476 708.407467 
L 1069.6752 724.261229 
L 1071.0144 744.475871 
L 1072.521 770.766348 
L 1074.1392 803.013588 
L 1075.9806 844.382131 
L 1078.101 897.298628 
L 1081.0584 977.318646 
L 1084.7412 1076.094243 
L 1086.471 1116.500817 
L 1087.8102 1142.812527 
L 1088.8704 1159.703319 
L 1089.7632 1170.81608 
L 1090.5444 1177.999803 
L 1091.1582 1181.896146 
L 1091.6604 1183.908371 
L 1092.051 1184.732639 
L 1092.33 1184.922818 
L 1092.5532 1184.83579 
L 1092.8322 1184.428722 
L 1093.167 1183.504884 
L 1093.6134 1181.541425 
L 1094.1714 1177.931997 
L 1094.841 1171.958427 
L 1095.6222 1162.836371 
L 1096.5708 1148.881556 
L 1097.6868 1128.892933 
L 1099.026 1100.709102 
L 1100.8116 1058.003448 
L 1103.9922 975.338167 
L 1107.2286 893.367551 
L 1109.4048 843.838867 
L 1111.2462 806.824772 
L 1112.8644 778.487016 
L 1114.371 755.858564 
L 1115.7102 738.897321 
L 1116.9378 726.015822 
L 1118.0538 716.550455 
L 1119.0582 709.877037 
L 1119.8952 705.659476 
L 1120.6206 702.996085 
L 1121.2344 701.463464 
L 1121.7366 700.701771 
L 1122.183 700.396916 
L 1122.5178 700.398241 
L 1122.9084 700.648932 
L 1123.3548 701.263936 
L 1123.857 702.374479 
L 1124.4708 704.333319 
L 1125.1962 707.50013 
L 1126.0332 712.298077 
L 1126.926 718.761892 
L 1127.9304 727.68552 
L 1129.0464 739.635835 
L 1130.274 755.226628 
L 1131.6132 775.10513 
L 1133.1198 800.949182 
L 1134.738 832.626639 
L 1136.5794 873.219687 
L 1138.6998 925.061513 
L 1141.7688 1006.273964 
L 1145.2842 1098.096805 
L 1147.014 1137.507343 
L 1148.3532 1163.190593 
L 1149.4692 1180.46266 
L 1150.362 1191.16018 
L 1151.1432 1198.041261 
L 1151.757 1201.742528 
L 1152.2592 1203.624184 
L 1152.6498 1204.365274 
L 1152.9288 1204.505935 
L 1153.152 1204.385225 
L 1153.431 1203.943443 
L 1153.8216 1202.784785 
L 1154.268 1200.696907 
L 1154.826 1196.963056 
L 1155.4956 1190.885418 
L 1156.2768 1181.702695 
L 1157.2254 1167.757435 
L 1158.3414 1147.885988 
L 1159.7364 1118.727507 
L 1161.5778 1075.018162 
L 1165.149 983.369847 
L 1168.1064 910.327798 
L 1170.2268 863.318188 
L 1172.0682 827.336129 
L 1173.6864 799.88961 
L 1175.1372 778.811414 
L 1176.4764 762.422952 
L 1177.704 750.045494 
L 1178.7642 741.421052 
L 1179.7128 735.341794 
L 1180.5498 731.269541 
L 1181.2752 728.723627 
L 1181.889 727.284318 
L 1182.3912 726.594847 
L 1182.7818 726.362561 
L 1183.1166 726.375234 
L 1183.5072 726.637127 
L 1183.9536 727.262282 
L 1184.4558 728.380928 
L 1185.0696 730.345028 
L 1185.795 733.511721 
L 1186.632 738.301514 
L 1187.5248 744.748011 
L 1188.5292 753.643021 
L 1189.6452 765.552819 
L 1190.8728 781.092979 
L 1192.212 800.916592 
L 1193.7186 826.712599 
L 1195.3368 858.37615 
L 1197.1782 899.038303 
L 1199.2986 951.139206 
L 1202.1444 1027.146683 
L 1206.2178 1135.581376 
L 1207.8918 1174.269674 
L 1209.231 1200.420832 
L 1210.347 1218.058411 
L 1211.2398 1229.03673 
L 1212.021 1236.158894 
L 1212.6906 1240.326586 
L 1213.1928 1242.248198 
L 1213.5834 1243.021116 
L 1213.8624 1243.185449 
L 1214.0856 1243.084476 
L 1214.3646 1242.66862 
L 1214.6994 1241.747209 
L 1215.1458 1239.809516 
L 1215.7038 1236.269199 
L 1216.3734 1230.433142 
L 1217.1546 1221.545897 
L 1218.1032 1207.979157 
L 1219.2192 1188.578178 
L 1220.5584 1161.254922 
L 1222.344 1119.88074 
L 1225.4688 1041.191435 
L 1228.761 960.206965 
L 1230.9372 912.033446 
L 1232.7786 875.970821 
L 1234.4526 847.435356 
L 1235.9592 825.451702 
L 1237.2984 808.967717 
L 1238.526 796.445404 
L 1239.642 787.242365 
L 1240.6464 780.753284 
L 1241.4834 776.652158 
L 1242.2088 774.06248 
L 1242.8226 772.572577 
L 1243.3248 771.832464 
L 1243.7712 771.536707 
L 1244.1618 771.557601 
L 1244.5524 771.839552 
L 1244.9988 772.481396 
L 1245.501 773.610799 
L 1246.1148 775.576376 
L 1246.8402 778.727986 
L 1247.6772 783.477168 
L 1248.6258 790.295159 
L 1249.686 799.709643 
L 1250.8578 812.299378 
L 1252.1412 828.685152 
L 1253.5362 849.514076 
L 1255.0428 875.43146 
L 1256.7168 908.185391 
L 1258.614 949.894317 
L 1260.846 1004.127725 
L 1264.5846 1101.55825 
L 1267.263 1168.599124 
L 1268.937 1205.160338 
L 1270.2204 1228.704261 
L 1271.2806 1244.455703 
L 1272.1734 1254.749933 
L 1272.9546 1261.337043 
L 1273.5684 1264.848266 
L 1274.0706 1266.601868 
L 1274.4612 1267.260476 
L 1274.7402 1267.35132 
L 1274.9634 1267.196153 
L 1275.2424 1266.71795 
L 1275.633 1265.520449 
L 1276.1352 1263.08509 
L 1276.749 1258.767591 
L 1277.4744 1251.829399 
L 1278.3114 1241.489569 
L 1279.3158 1226.062794 
L 1280.4876 1204.437851 
L 1281.9384 1173.31773 
L 1283.8914 1126.256296 
L 1291.1454 946.786649 
L 1293.0984 906.161086 
L 1294.8282 874.615489 
L 1295.9442 856.654028 
L 1295.9442 856.654028 
" style="fill:none;stroke:#0000ff;stroke-linecap:square;stroke-width:5.0;"/>
   </g>
   <g id="patch_3">
    <path d="M 180 144 
L 1296 144 
" style="fill:none;stroke:#000000;stroke-linecap:square;stroke-linejoin:miter;"/>
   </g>
   <g id="patch_4">
    <path d="M 1296 1296 
L 1296 144 
" style="fill:none;stroke:#000000;stroke-linecap:square;stroke-linejoin:miter;"/>
   </g>
   <g id="patch_5">
    <path d="M 180 1296 
L 1296 1296 
" style="fill:none;stroke:#000000;stroke-linecap:square;stroke-linejoin:miter;"/>
   </g>
   <g id="patch_6">
    <path d="M 180 1296 
L 180 144 
" style="fill:none;stroke:#000000;stroke-linecap:square;stroke-linejoin:miter;"/>
   </g>
   <g id="matplotlib.axis_1">
    <g id="xtick_1">
     <g id="line2d_2">
      <defs>
       <path d="M 0 0 
L 0 -4 
" id="m28449f6374" style="stroke:#000000;stroke-width:0.5;"/>
      </defs>
      <g>
       <use style="stroke:#000000;stroke-width:0.5;" x="180.0" xlink:href="#m28449f6374" y="1296.0"/>
      </g>
     </g>
     <g id="line2d_3">
      <defs>
       <path d="M 0 0 
L 0 4 
" id="ma39794e5e2" style="stroke:#000000;stroke-width:0.5;"/>
      </defs>
      <g>
       <use style="stroke:#000000;stroke-width:0.5;" x="180.0" xlink:href="#ma39794e5e2" y="144.0"/>
      </g>
     </g>
     <g id="text_1">
      <!-- 0 -->
      <defs>
       <path d="M 31.78125 66.40625 
Q 24.171875 66.40625 20.328125 58.90625 
Q 16.5 51.421875 16.5 36.375 
Q 16.5 21.390625 20.328125 13.890625 
Q 24.171875 6.390625 31.78125 6.390625 
Q 39.453125 6.390625 43.28125 13.890625 
Q 47.125 21.390625 47.125 36.375 
Q 47.125 51.421875 43.28125 58.90625 
Q 39.453125 66.40625 31.78125 66.40625 
M 31.78125 74.21875 
Q 44.046875 74.21875 50.515625 64.515625 
Q 56.984375 54.828125 56.984375 36.375 
Q 56.984375 17.96875 50.515625 8.265625 
Q 44.046875 -1.421875 31.78125 -1.421875 
Q 19.53125 -1.421875 13.0625 8.265625 
Q 6.59375 17.96875 6.59375 36.375 
Q 6.59375 54.828125 13.0625 64.515625 
Q 19.53125 74.21875 31.78125 74.21875 
" id="BitstreamVeraSans-Roman-30"/>
      </defs>
      <g transform="translate(170.45625 1322.7953125)scale(0.3 -0.3)">
       <use xlink:href="#BitstreamVeraSans-Roman-30"/>
      </g>
     </g>
    </g>
    <g id="xtick_2">
     <g id="line2d_4">
      <g>
       <use style="stroke:#000000;stroke-width:0.5;" x="459.0" xlink:href="#m28449f6374" y="1296.0"/>
      </g>
     </g>
     <g id="line2d_5">
      <g>
       <use style="stroke:#000000;stroke-width:0.5;" x="459.0" xlink:href="#ma39794e5e2" y="144.0"/>
      </g>
     </g>
     <g id="text_2">
      <!-- 5 -->
      <defs>
       <path d="M 10.796875 72.90625 
L 49.515625 72.90625 
L 49.515625 64.59375 
L 19.828125 64.59375 
L 19.828125 46.734375 
Q 21.96875 47.46875 24.109375 47.828125 
Q 26.265625 48.1875 28.421875 48.1875 
Q 40.625 48.1875 47.75 41.5 
Q 54.890625 34.8125 54.890625 23.390625 
Q 54.890625 11.625 47.5625 5.09375 
Q 40.234375 -1.421875 26.90625 -1.421875 
Q 22.3125 -1.421875 17.546875 -0.640625 
Q 12.796875 0.140625 7.71875 1.703125 
L 7.71875 11.625 
Q 12.109375 9.234375 16.796875 8.0625 
Q 21.484375 6.890625 26.703125 6.890625 
Q 35.15625 6.890625 40.078125 11.328125 
Q 45.015625 15.765625 45.015625 23.390625 
Q 45.015625 31 40.078125 35.4375 
Q 35.15625 39.890625 26.703125 39.890625 
Q 22.75 39.890625 18.8125 39.015625 
Q 14.890625 38.140625 10.796875 36.28125 
z
" id="BitstreamVeraSans-Roman-35"/>
      </defs>
      <g transform="translate(449.45625 1322.7953125)scale(0.3 -0.3)">
       <use xlink:href="#BitstreamVeraSans-Roman-35"/>
      </g>
     </g>
    </g>
    <g id="xtick_3">
     <g id="line2d_6">
      <g>
       <use style="stroke:#000000;stroke-width:0.5;" x="738.0" xlink:href="#m28449f6374" y="1296.0"/>
      </g>
     </g>
     <g id="line2d_7">
      <g>
       <use style="stroke:#000000;stroke-width:0.5;" x="738.0" xlink:href="#ma39794e5e2" y="144.0"/>
      </g>
     </g>
     <g id="text_3">
      <!-- 10 -->
      <defs>
       <path d="M 12.40625 8.296875 
L 28.515625 8.296875 
L 28.515625 63.921875 
L 10.984375 60.40625 
L 10.984375 69.390625 
L 28.421875 72.90625 
L 38.28125 72.90625 
L 38.28125 8.296875 
L 54.390625 8.296875 
L 54.390625 0 
L 12.40625 0 
z
" id="BitstreamVeraSans-Roman-31"/>
      </defs>
      <g transform="translate(718.9125 1322.7953125)scale(0.3 -0.3)">
       <use xlink:href="#BitstreamVeraSans-Roman-31"/>
       <use x="63.623046875" xlink:href="#BitstreamVeraSans-Roman-30"/>
      </g>
     </g>
    </g>
    <g id="xtick_4">
     <g id="line2d_8">
      <g>
       <use style="stroke:#000000;stroke-width:0.5;" x="1017.0" xlink:href="#m28449f6374" y="1296.0"/>
      </g>
     </g>
     <g id="line2d_9">
      <g>
       <use style="stroke:#000000;stroke-width:0.5;" x="1017.0" xlink:href="#ma39794e5e2" y="144.0"/>
      </g>
     </g>
     <g id="text_4">
      <!-- 15 -->
      <g transform="translate(997.9125 1322.7953125)scale(0.3 -0.3)">
       <use xlink:href="#BitstreamVeraSans-Roman-31"/>
       <use x="63.623046875" xlink:href="#BitstreamVeraSans-Roman-35"/>
      </g>
     </g>
    </g>
    <g id="xtick_5">
     <g id="line2d_10">
      <g>
       <use style="stroke:#000000;stroke-width:0.5;" x="1296.0" xlink:href="#m28449f6374" y="1296.0"/>
      </g>
     </g>
     <g id="line2d_11">
      <g>
       <use style="stroke:#000000;stroke-width:0.5;" x="1296.0" xlink:href="#ma39794e5e2" y="144.0"/>
      </g>
     </g>
     <g id="text_5">
      <!-- 20 -->
      <defs>
       <path d="M 19.1875 8.296875 
L 53.609375 8.296875 
L 53.609375 0 
L 7.328125 0 
L 7.328125 8.296875 
Q 12.9375 14.109375 22.625 23.890625 
Q 32.328125 33.6875 34.8125 36.53125 
Q 39.546875 41.84375 41.421875 45.53125 
Q 43.3125 49.21875 43.3125 52.78125 
Q 43.3125 58.59375 39.234375 62.25 
Q 35.15625 65.921875 28.609375 65.921875 
Q 23.96875 65.921875 18.8125 64.3125 
Q 13.671875 62.703125 7.8125 59.421875 
L 7.8125 69.390625 
Q 13.765625 71.78125 18.9375 73 
Q 24.125 74.21875 28.421875 74.21875 
Q 39.75 74.21875 46.484375 68.546875 
Q 53.21875 62.890625 53.21875 53.421875 
Q 53.21875 48.921875 51.53125 44.890625 
Q 49.859375 40.875 45.40625 35.40625 
Q 44.1875 33.984375 37.640625 27.21875 
Q 31.109375 20.453125 19.1875 8.296875 
" id="BitstreamVeraSans-Roman-32"/>
      </defs>
      <g transform="translate(1276.9125 1322.7953125)scale(0.3 -0.3)">
       <use xlink:href="#BitstreamVeraSans-Roman-32"/>
       <use x="63.623046875" xlink:href="#BitstreamVeraSans-Roman-30"/>
      </g>
     </g>
    </g>
    <g id="text_6">
     <!-- Distance -->
     <defs>
      <path d="M 54.890625 33.015625 
L 54.890625 0 
L 45.90625 0 
L 45.90625 32.71875 
Q 45.90625 40.484375 42.875 44.328125 
Q 39.84375 48.1875 33.796875 48.1875 
Q 26.515625 48.1875 22.3125 43.546875 
Q 18.109375 38.921875 18.109375 30.90625 
L 18.109375 0 
L 9.078125 0 
L 9.078125 54.6875 
L 18.109375 54.6875 
L 18.109375 46.1875 
Q 21.34375 51.125 25.703125 53.5625 
Q 30.078125 56 35.796875 56 
Q 45.21875 56 50.046875 50.171875 
Q 54.890625 44.34375 54.890625 33.015625 
" id="BitstreamVeraSans-Roman-6e"/>
      <path d="M 19.671875 64.796875 
L 19.671875 8.109375 
L 31.59375 8.109375 
Q 46.6875 8.109375 53.6875 14.9375 
Q 60.6875 21.78125 60.6875 36.53125 
Q 60.6875 51.171875 53.6875 57.984375 
Q 46.6875 64.796875 31.59375 64.796875 
z
M 9.8125 72.90625 
L 30.078125 72.90625 
Q 51.265625 72.90625 61.171875 64.09375 
Q 71.09375 55.28125 71.09375 36.53125 
Q 71.09375 17.671875 61.125 8.828125 
Q 51.171875 0 30.078125 0 
L 9.8125 0 
z
" id="BitstreamVeraSans-Roman-44"/>
      <path d="M 9.421875 54.6875 
L 18.40625 54.6875 
L 18.40625 0 
L 9.421875 0 
z
M 9.421875 75.984375 
L 18.40625 75.984375 
L 18.40625 64.59375 
L 9.421875 64.59375 
z
" id="BitstreamVeraSans-Roman-69"/>
      <path d="M 56.203125 29.59375 
L 56.203125 25.203125 
L 14.890625 25.203125 
Q 15.484375 15.921875 20.484375 11.0625 
Q 25.484375 6.203125 34.421875 6.203125 
Q 39.59375 6.203125 44.453125 7.46875 
Q 49.3125 8.734375 54.109375 11.28125 
L 54.109375 2.78125 
Q 49.265625 0.734375 44.1875 -0.34375 
Q 39.109375 -1.421875 33.890625 -1.421875 
Q 20.796875 -1.421875 13.15625 6.1875 
Q 5.515625 13.8125 5.515625 26.8125 
Q 5.515625 40.234375 12.765625 48.109375 
Q 20.015625 56 32.328125 56 
Q 43.359375 56 49.78125 48.890625 
Q 56.203125 41.796875 56.203125 29.59375 
M 47.21875 32.234375 
Q 47.125 39.59375 43.09375 43.984375 
Q 39.0625 48.390625 32.421875 48.390625 
Q 24.90625 48.390625 20.390625 44.140625 
Q 15.875 39.890625 15.1875 32.171875 
z
" id="BitstreamVeraSans-Roman-65"/>
      <path d="M 18.3125 70.21875 
L 18.3125 54.6875 
L 36.8125 54.6875 
L 36.8125 47.703125 
L 18.3125 47.703125 
L 18.3125 18.015625 
Q 18.3125 11.328125 20.140625 9.421875 
Q 21.96875 7.515625 27.59375 7.515625 
L 36.8125 7.515625 
L 36.8125 0 
L 27.59375 0 
Q 17.1875 0 13.234375 3.875 
Q 9.28125 7.765625 9.28125 18.015625 
L 9.28125 47.703125 
L 2.6875 47.703125 
L 2.6875 54.6875 
L 9.28125 54.6875 
L 9.28125 70.21875 
z
" id="BitstreamVeraSans-Roman-74"/>
      <path d="M 34.28125 27.484375 
Q 23.390625 27.484375 19.1875 25 
Q 14.984375 22.515625 14.984375 16.5 
Q 14.984375 11.71875 18.140625 8.90625 
Q 21.296875 6.109375 26.703125 6.109375 
Q 34.1875 6.109375 38.703125 11.40625 
Q 43.21875 16.703125 43.21875 25.484375 
L 43.21875 27.484375 
z
M 52.203125 31.203125 
L 52.203125 0 
L 43.21875 0 
L 43.21875 8.296875 
Q 40.140625 3.328125 35.546875 0.953125 
Q 30.953125 -1.421875 24.3125 -1.421875 
Q 15.921875 -1.421875 10.953125 3.296875 
Q 6 8.015625 6 15.921875 
Q 6 25.140625 12.171875 29.828125 
Q 18.359375 34.515625 30.609375 34.515625 
L 43.21875 34.515625 
L 43.21875 35.40625 
Q 43.21875 41.609375 39.140625 45 
Q 35.0625 48.390625 27.6875 48.390625 
Q 23 48.390625 18.546875 47.265625 
Q 14.109375 46.140625 10.015625 43.890625 
L 10.015625 52.203125 
Q 14.9375 54.109375 19.578125 55.046875 
Q 24.21875 56 28.609375 56 
Q 40.484375 56 46.34375 49.84375 
Q 52.203125 43.703125 52.203125 31.203125 
" id="BitstreamVeraSans-Roman-61"/>
      <path d="M 44.28125 53.078125 
L 44.28125 44.578125 
Q 40.484375 46.53125 36.375 47.5 
Q 32.28125 48.484375 27.875 48.484375 
Q 21.1875 48.484375 17.84375 46.4375 
Q 14.5 44.390625 14.5 40.28125 
Q 14.5 37.15625 16.890625 35.375 
Q 19.28125 33.59375 26.515625 31.984375 
L 29.59375 31.296875 
Q 39.15625 29.25 43.1875 25.515625 
Q 47.21875 21.78125 47.21875 15.09375 
Q 47.21875 7.46875 41.1875 3.015625 
Q 35.15625 -1.421875 24.609375 -1.421875 
Q 20.21875 -1.421875 15.453125 -0.5625 
Q 10.6875 0.296875 5.421875 2 
L 5.421875 11.28125 
Q 10.40625 8.6875 15.234375 7.390625 
Q 20.0625 6.109375 24.8125 6.109375 
Q 31.15625 6.109375 34.5625 8.28125 
Q 37.984375 10.453125 37.984375 14.40625 
Q 37.984375 18.0625 35.515625 20.015625 
Q 33.0625 21.96875 24.703125 23.78125 
L 21.578125 24.515625 
Q 13.234375 26.265625 9.515625 29.90625 
Q 5.8125 33.546875 5.8125 39.890625 
Q 5.8125 47.609375 11.28125 51.796875 
Q 16.75 56 26.8125 56 
Q 31.78125 56 36.171875 55.265625 
Q 40.578125 54.546875 44.28125 53.078125 
" id="BitstreamVeraSans-Roman-73"/>
      <path d="M 48.78125 52.59375 
L 48.78125 44.1875 
Q 44.96875 46.296875 41.140625 47.34375 
Q 37.3125 48.390625 33.40625 48.390625 
Q 24.65625 48.390625 19.8125 42.84375 
Q 14.984375 37.3125 14.984375 27.296875 
Q 14.984375 17.28125 19.8125 11.734375 
Q 24.65625 6.203125 33.40625 6.203125 
Q 37.3125 6.203125 41.140625 7.25 
Q 44.96875 8.296875 48.78125 10.40625 
L 48.78125 2.09375 
Q 45.015625 0.34375 40.984375 -0.53125 
Q 36.96875 -1.421875 32.421875 -1.421875 
Q 20.0625 -1.421875 12.78125 6.34375 
Q 5.515625 14.109375 5.515625 27.296875 
Q 5.515625 40.671875 12.859375 48.328125 
Q 20.21875 56 33.015625 56 
Q 37.15625 56 41.109375 55.140625 
Q 45.0625 54.296875 48.78125 52.59375 
" id="BitstreamVeraSans-Roman-63"/>
     </defs>
     <g transform="translate(659.295 1361.38875)scale(0.36 -0.36)">
      <use xlink:href="#BitstreamVeraSans-Roman-44"/>
      <use x="77.001953125" xlink:href="#BitstreamVeraSans-Roman-69"/>
      <use x="104.78515625" xlink:href="#BitstreamVeraSans-Roman-73"/>
      <use x="156.884765625" xlink:href="#BitstreamVeraSans-Roman-74"/>
      <use x="196.09375" xlink:href="#BitstreamVeraSans-Roman-61"/>
      <use x="257.373046875" xlink:href="#BitstreamVeraSans-Roman-6e"/>
      <use x="320.751953125" xlink:href="#BitstreamVeraSans-Roman-63"/>
      <use x="375.732421875" xlink:href="#BitstreamVeraSans-Roman-65"/>
     </g>
    </g>
   </g>
   <g id="matplotlib.axis_2">
    <g id="ytick_1">
     <g id="line2d_12">
      <defs>
       <path d="M 0 0 
L 4 0 
" id="m7867447c93" style="stroke:#000000;stroke-width:0.5;"/>
      </defs>
      <g>
       <use style="stroke:#000000;stroke-width:0.5;" x="180.0" xlink:href="#m7867447c93" y="1296.0"/>
      </g>
     </g>
     <g id="line2d_13">
      <defs>
       <path d="M 0 0 
L -4 0 
" id="m6a0145bdb9" style="stroke:#000000;stroke-width:0.5;"/>
      </defs>
      <g>
       <use style="stroke:#000000;stroke-width:0.5;" x="1296.0" xlink:href="#m6a0145bdb9" y="1296.0"/>
      </g>
     </g>
     <g id="text_7">
      <!-- 0.65 -->
      <defs>
       <path d="M 33.015625 40.375 
Q 26.375 40.375 22.484375 35.828125 
Q 18.609375 31.296875 18.609375 23.390625 
Q 18.609375 15.53125 22.484375 10.953125 
Q 26.375 6.390625 33.015625 6.390625 
Q 39.65625 6.390625 43.53125 10.953125 
Q 47.40625 15.53125 47.40625 23.390625 
Q 47.40625 31.296875 43.53125 35.828125 
Q 39.65625 40.375 33.015625 40.375 
M 52.59375 71.296875 
L 52.59375 62.3125 
Q 48.875 64.0625 45.09375 64.984375 
Q 41.3125 65.921875 37.59375 65.921875 
Q 27.828125 65.921875 22.671875 59.328125 
Q 17.53125 52.734375 16.796875 39.40625 
Q 19.671875 43.65625 24.015625 45.921875 
Q 28.375 48.1875 33.59375 48.1875 
Q 44.578125 48.1875 50.953125 41.515625 
Q 57.328125 34.859375 57.328125 23.390625 
Q 57.328125 12.15625 50.6875 5.359375 
Q 44.046875 -1.421875 33.015625 -1.421875 
Q 20.359375 -1.421875 13.671875 8.265625 
Q 6.984375 17.96875 6.984375 36.375 
Q 6.984375 53.65625 15.1875 63.9375 
Q 23.390625 74.21875 37.203125 74.21875 
Q 40.921875 74.21875 44.703125 73.484375 
Q 48.484375 72.75 52.59375 71.296875 
" id="BitstreamVeraSans-Roman-36"/>
       <path d="M 10.6875 12.40625 
L 21 12.40625 
L 21 0 
L 10.6875 0 
z
" id="BitstreamVeraSans-Roman-2e"/>
      </defs>
      <g transform="translate(109.203125 1304.278125)scale(0.3 -0.3)">
       <use xlink:href="#BitstreamVeraSans-Roman-30"/>
       <use x="63.623046875" xlink:href="#BitstreamVeraSans-Roman-2e"/>
       <use x="95.41015625" xlink:href="#BitstreamVeraSans-Roman-36"/>
       <use x="159.033203125" xlink:href="#BitstreamVeraSans-Roman-35"/>
      </g>
     </g>
    </g>
    <g id="ytick_2">
     <g id="line2d_14">
      <g>
       <use style="stroke:#000000;stroke-width:0.5;" x="180.0" xlink:href="#m7867447c93" y="1131.42857143"/>
      </g>
     </g>
     <g id="line2d_15">
      <g>
       <use style="stroke:#000000;stroke-width:0.5;" x="1296.0" xlink:href="#m6a0145bdb9" y="1131.42857143"/>
      </g>
     </g>
     <g id="text_8">
      <!-- 0.70 -->
      <defs>
       <path d="M 8.203125 72.90625 
L 55.078125 72.90625 
L 55.078125 68.703125 
L 28.609375 0 
L 18.3125 0 
L 43.21875 64.59375 
L 8.203125 64.59375 
z
" id="BitstreamVeraSans-Roman-37"/>
      </defs>
      <g transform="translate(109.203125 1139.70669643)scale(0.3 -0.3)">
       <use xlink:href="#BitstreamVeraSans-Roman-30"/>
       <use x="63.623046875" xlink:href="#BitstreamVeraSans-Roman-2e"/>
       <use x="95.41015625" xlink:href="#BitstreamVeraSans-Roman-37"/>
       <use x="159.033203125" xlink:href="#BitstreamVeraSans-Roman-30"/>
      </g>
     </g>
    </g>
    <g id="ytick_3">
     <g id="line2d_16">
      <g>
       <use style="stroke:#000000;stroke-width:0.5;" x="180.0" xlink:href="#m7867447c93" y="966.857142857"/>
      </g>
     </g>
     <g id="line2d_17">
      <g>
       <use style="stroke:#000000;stroke-width:0.5;" x="1296.0" xlink:href="#m6a0145bdb9" y="966.857142857"/>
      </g>
     </g>
     <g id="text_9">
      <!-- 0.75 -->
      <g transform="translate(109.203125 975.135267857)scale(0.3 -0.3)">
       <use xlink:href="#BitstreamVeraSans-Roman-30"/>
       <use x="63.623046875" xlink:href="#BitstreamVeraSans-Roman-2e"/>
       <use x="95.41015625" xlink:href="#BitstreamVeraSans-Roman-37"/>
       <use x="159.033203125" xlink:href="#BitstreamVeraSans-Roman-35"/>
      </g>
     </g>
    </g>
    <g id="ytick_4">
     <g id="line2d_18">
      <g>
       <use style="stroke:#000000;stroke-width:0.5;" x="180.0" xlink:href="#m7867447c93" y="802.285714286"/>
      </g>
     </g>
     <g id="line2d_19">
      <g>
       <use style="stroke:#000000;stroke-width:0.5;" x="1296.0" xlink:href="#m6a0145bdb9" y="802.285714286"/>
      </g>
     </g>
     <g id="text_10">
      <!-- 0.80 -->
      <defs>
       <path d="M 31.78125 34.625 
Q 24.75 34.625 20.71875 30.859375 
Q 16.703125 27.09375 16.703125 20.515625 
Q 16.703125 13.921875 20.71875 10.15625 
Q 24.75 6.390625 31.78125 6.390625 
Q 38.8125 6.390625 42.859375 10.171875 
Q 46.921875 13.96875 46.921875 20.515625 
Q 46.921875 27.09375 42.890625 30.859375 
Q 38.875 34.625 31.78125 34.625 
M 21.921875 38.8125 
Q 15.578125 40.375 12.03125 44.71875 
Q 8.5 49.078125 8.5 55.328125 
Q 8.5 64.0625 14.71875 69.140625 
Q 20.953125 74.21875 31.78125 74.21875 
Q 42.671875 74.21875 48.875 69.140625 
Q 55.078125 64.0625 55.078125 55.328125 
Q 55.078125 49.078125 51.53125 44.71875 
Q 48 40.375 41.703125 38.8125 
Q 48.828125 37.15625 52.796875 32.3125 
Q 56.78125 27.484375 56.78125 20.515625 
Q 56.78125 9.90625 50.3125 4.234375 
Q 43.84375 -1.421875 31.78125 -1.421875 
Q 19.734375 -1.421875 13.25 4.234375 
Q 6.78125 9.90625 6.78125 20.515625 
Q 6.78125 27.484375 10.78125 32.3125 
Q 14.796875 37.15625 21.921875 38.8125 
M 18.3125 54.390625 
Q 18.3125 48.734375 21.84375 45.5625 
Q 25.390625 42.390625 31.78125 42.390625 
Q 38.140625 42.390625 41.71875 45.5625 
Q 45.3125 48.734375 45.3125 54.390625 
Q 45.3125 60.0625 41.71875 63.234375 
Q 38.140625 66.40625 31.78125 66.40625 
Q 25.390625 66.40625 21.84375 63.234375 
Q 18.3125 60.0625 18.3125 54.390625 
" id="BitstreamVeraSans-Roman-38"/>
      </defs>
      <g transform="translate(109.203125 810.563839286)scale(0.3 -0.3)">
       <use xlink:href="#BitstreamVeraSans-Roman-30"/>
       <use x="63.623046875" xlink:href="#BitstreamVeraSans-Roman-2e"/>
       <use x="95.41015625" xlink:href="#BitstreamVeraSans-Roman-38"/>
       <use x="159.033203125" xlink:href="#BitstreamVeraSans-Roman-30"/>
      </g>
     </g>
    </g>
    <g id="ytick_5">
     <g id="line2d_20">
      <g>
       <use style="stroke:#000000;stroke-width:0.5;" x="180.0" xlink:href="#m7867447c93" y="637.714285714"/>
      </g>
     </g>
     <g id="line2d_21">
      <g>
       <use style="stroke:#000000;stroke-width:0.5;" x="1296.0" xlink:href="#m6a0145bdb9" y="637.714285714"/>
      </g>
     </g>
     <g id="text_11">
      <!-- 0.85 -->
      <g transform="translate(109.203125 645.992410714)scale(0.3 -0.3)">
       <use xlink:href="#BitstreamVeraSans-Roman-30"/>
       <use x="63.623046875" xlink:href="#BitstreamVeraSans-Roman-2e"/>
       <use x="95.41015625" xlink:href="#BitstreamVeraSans-Roman-38"/>
       <use x="159.033203125" xlink:href="#BitstreamVeraSans-Roman-35"/>
      </g>
     </g>
    </g>
    <g id="ytick_6">
     <g id="line2d_22">
      <g>
       <use style="stroke:#000000;stroke-width:0.5;" x="180.0" xlink:href="#m7867447c93" y="473.142857143"/>
      </g>
     </g>
     <g id="line2d_23">
      <g>
       <use style="stroke:#000000;stroke-width:0.5;" x="1296.0" xlink:href="#m6a0145bdb9" y="473.142857143"/>
      </g>
     </g>
     <g id="text_12">
      <!-- 0.90 -->
      <defs>
       <path d="M 10.984375 1.515625 
L 10.984375 10.5 
Q 14.703125 8.734375 18.5 7.8125 
Q 22.3125 6.890625 25.984375 6.890625 
Q 35.75 6.890625 40.890625 13.453125 
Q 46.046875 20.015625 46.78125 33.40625 
Q 43.953125 29.203125 39.59375 26.953125 
Q 35.25 24.703125 29.984375 24.703125 
Q 19.046875 24.703125 12.671875 31.3125 
Q 6.296875 37.9375 6.296875 49.421875 
Q 6.296875 60.640625 12.9375 67.421875 
Q 19.578125 74.21875 30.609375 74.21875 
Q 43.265625 74.21875 49.921875 64.515625 
Q 56.59375 54.828125 56.59375 36.375 
Q 56.59375 19.140625 48.40625 8.859375 
Q 40.234375 -1.421875 26.421875 -1.421875 
Q 22.703125 -1.421875 18.890625 -0.6875 
Q 15.09375 0.046875 10.984375 1.515625 
M 30.609375 32.421875 
Q 37.25 32.421875 41.125 36.953125 
Q 45.015625 41.5 45.015625 49.421875 
Q 45.015625 57.28125 41.125 61.84375 
Q 37.25 66.40625 30.609375 66.40625 
Q 23.96875 66.40625 20.09375 61.84375 
Q 16.21875 57.28125 16.21875 49.421875 
Q 16.21875 41.5 20.09375 36.953125 
Q 23.96875 32.421875 30.609375 32.421875 
" id="BitstreamVeraSans-Roman-39"/>
      </defs>
      <g transform="translate(109.203125 481.420982143)scale(0.3 -0.3)">
       <use xlink:href="#BitstreamVeraSans-Roman-30"/>
       <use x="63.623046875" xlink:href="#BitstreamVeraSans-Roman-2e"/>
       <use x="95.41015625" xlink:href="#BitstreamVeraSans-Roman-39"/>
       <use x="159.033203125" xlink:href="#BitstreamVeraSans-Roman-30"/>
      </g>
     </g>
    </g>
    <g id="ytick_7">
     <g id="line2d_24">
      <g>
       <use style="stroke:#000000;stroke-width:0.5;" x="180.0" xlink:href="#m7867447c93" y="308.571428571"/>
      </g>
     </g>
     <g id="line2d_25">
      <g>
       <use style="stroke:#000000;stroke-width:0.5;" x="1296.0" xlink:href="#m6a0145bdb9" y="308.571428571"/>
      </g>
     </g>
     <g id="text_13">
      <!-- 0.95 -->
      <g transform="translate(109.203125 316.849553571)scale(0.3 -0.3)">
       <use xlink:href="#BitstreamVeraSans-Roman-30"/>
       <use x="63.623046875" xlink:href="#BitstreamVeraSans-Roman-2e"/>
       <use x="95.41015625" xlink:href="#BitstreamVeraSans-Roman-39"/>
       <use x="159.033203125" xlink:href="#BitstreamVeraSans-Roman-35"/>
      </g>
     </g>
    </g>
    <g id="ytick_8">
     <g id="line2d_26">
      <g>
       <use style="stroke:#000000;stroke-width:0.5;" x="180.0" xlink:href="#m7867447c93" y="144.0"/>
      </g>
     </g>
     <g id="line2d_27">
      <g>
       <use style="stroke:#000000;stroke-width:0.5;" x="1296.0" xlink:href="#m6a0145bdb9" y="144.0"/>
      </g>
     </g>
     <g id="text_14">
      <!-- 1.00 -->
      <g transform="translate(109.203125 152.278125)scale(0.3 -0.3)">
       <use xlink:href="#BitstreamVeraSans-Roman-31"/>
       <use x="63.623046875" xlink:href="#BitstreamVeraSans-Roman-2e"/>
       <use x="95.41015625" xlink:href="#BitstreamVeraSans-Roman-30"/>
       <use x="159.033203125" xlink:href="#BitstreamVeraSans-Roman-30"/>
      </g>
     </g>
    </g>
    <g id="text_15">
     <!-- Intensity -->
     <defs>
      <path d="M 9.8125 72.90625 
L 19.671875 72.90625 
L 19.671875 0 
L 9.8125 0 
z
" id="BitstreamVeraSans-Roman-49"/>
      <path d="M 32.171875 -5.078125 
Q 28.375 -14.84375 24.75 -17.8125 
Q 21.140625 -20.796875 15.09375 -20.796875 
L 7.90625 -20.796875 
L 7.90625 -13.28125 
L 13.1875 -13.28125 
Q 16.890625 -13.28125 18.9375 -11.515625 
Q 21 -9.765625 23.484375 -3.21875 
L 25.09375 0.875 
L 2.984375 54.6875 
L 12.5 54.6875 
L 29.59375 11.921875 
L 46.6875 54.6875 
L 56.203125 54.6875 
z
" id="BitstreamVeraSans-Roman-79"/>
     </defs>
     <g transform="translate(96.71625 798.345)rotate(-90.0)scale(0.36 -0.36)">
      <use xlink:href="#BitstreamVeraSans-Roman-49"/>
      <use x="29.4921875" xlink:href="#BitstreamVeraSans-Roman-6e"/>
      <use x="92.87109375" xlink:href="#BitstreamVeraSans-Roman-74"/>
      <use x="132.080078125" xlink:href="#BitstreamVeraSans-Roman-65"/>
      <use x="193.603515625" xlink:href="#BitstreamVeraSans-Roman-6e"/>
      <use x="256.982421875" xlink:href="#BitstreamVeraSans-Roman-73"/>
      <use x="309.08203125" xlink:href="#BitstreamVeraSans-Roman-69"/>
      <use x="336.865234375" xlink:href="#BitstreamVeraSans-Roman-74"/>
      <use x="376.07421875" xlink:href="#BitstreamVeraSans-Roman-79"/>
     </g>
    </g>
   </g>
   <g id="text_16">
    <!-- Large input power  -->
    <defs>
     <path id="BitstreamVeraSans-Roman-20"/>
     <path d="M 9.8125 72.90625 
L 19.671875 72.90625 
L 19.671875 8.296875 
L 55.171875 8.296875 
L 55.171875 0 
L 9.8125 0 
z
" id="BitstreamVeraSans-Roman-4c"/>
     <path d="M 30.609375 48.390625 
Q 23.390625 48.390625 19.1875 42.75 
Q 14.984375 37.109375 14.984375 27.296875 
Q 14.984375 17.484375 19.15625 11.84375 
Q 23.34375 6.203125 30.609375 6.203125 
Q 37.796875 6.203125 41.984375 11.859375 
Q 46.1875 17.53125 46.1875 27.296875 
Q 46.1875 37.015625 41.984375 42.703125 
Q 37.796875 48.390625 30.609375 48.390625 
M 30.609375 56 
Q 42.328125 56 49.015625 48.375 
Q 55.71875 40.765625 55.71875 27.296875 
Q 55.71875 13.875 49.015625 6.21875 
Q 42.328125 -1.421875 30.609375 -1.421875 
Q 18.84375 -1.421875 12.171875 6.21875 
Q 5.515625 13.875 5.515625 27.296875 
Q 5.515625 40.765625 12.171875 48.375 
Q 18.84375 56 30.609375 56 
" id="BitstreamVeraSans-Roman-6f"/>
     <path d="M 4.203125 54.6875 
L 13.1875 54.6875 
L 24.421875 12.015625 
L 35.59375 54.6875 
L 46.1875 54.6875 
L 57.421875 12.015625 
L 68.609375 54.6875 
L 77.59375 54.6875 
L 63.28125 0 
L 52.6875 0 
L 40.921875 44.828125 
L 29.109375 0 
L 18.5 0 
z
" id="BitstreamVeraSans-Roman-77"/>
     <path d="M 45.40625 27.984375 
Q 45.40625 37.75 41.375 43.109375 
Q 37.359375 48.484375 30.078125 48.484375 
Q 22.859375 48.484375 18.828125 43.109375 
Q 14.796875 37.75 14.796875 27.984375 
Q 14.796875 18.265625 18.828125 12.890625 
Q 22.859375 7.515625 30.078125 7.515625 
Q 37.359375 7.515625 41.375 12.890625 
Q 45.40625 18.265625 45.40625 27.984375 
M 54.390625 6.78125 
Q 54.390625 -7.171875 48.1875 -13.984375 
Q 42 -20.796875 29.203125 -20.796875 
Q 24.46875 -20.796875 20.265625 -20.09375 
Q 16.0625 -19.390625 12.109375 -17.921875 
L 12.109375 -9.1875 
Q 16.0625 -11.328125 19.921875 -12.34375 
Q 23.78125 -13.375 27.78125 -13.375 
Q 36.625 -13.375 41.015625 -8.765625 
Q 45.40625 -4.15625 45.40625 5.171875 
L 45.40625 9.625 
Q 42.625 4.78125 38.28125 2.390625 
Q 33.9375 0 27.875 0 
Q 17.828125 0 11.671875 7.65625 
Q 5.515625 15.328125 5.515625 27.984375 
Q 5.515625 40.671875 11.671875 48.328125 
Q 17.828125 56 27.875 56 
Q 33.9375 56 38.28125 53.609375 
Q 42.625 51.21875 45.40625 46.390625 
L 45.40625 54.6875 
L 54.390625 54.6875 
z
" id="BitstreamVeraSans-Roman-67"/>
     <path d="M 8.5 21.578125 
L 8.5 54.6875 
L 17.484375 54.6875 
L 17.484375 21.921875 
Q 17.484375 14.15625 20.5 10.265625 
Q 23.53125 6.390625 29.59375 6.390625 
Q 36.859375 6.390625 41.078125 11.03125 
Q 45.3125 15.671875 45.3125 23.6875 
L 45.3125 54.6875 
L 54.296875 54.6875 
L 54.296875 0 
L 45.3125 0 
L 45.3125 8.40625 
Q 42.046875 3.421875 37.71875 1 
Q 33.40625 -1.421875 27.6875 -1.421875 
Q 18.265625 -1.421875 13.375 4.4375 
Q 8.5 10.296875 8.5 21.578125 
" id="BitstreamVeraSans-Roman-75"/>
     <path d="M 41.109375 46.296875 
Q 39.59375 47.171875 37.8125 47.578125 
Q 36.03125 48 33.890625 48 
Q 26.265625 48 22.1875 43.046875 
Q 18.109375 38.09375 18.109375 28.8125 
L 18.109375 0 
L 9.078125 0 
L 9.078125 54.6875 
L 18.109375 54.6875 
L 18.109375 46.1875 
Q 20.953125 51.171875 25.484375 53.578125 
Q 30.03125 56 36.53125 56 
Q 37.453125 56 38.578125 55.875 
Q 39.703125 55.765625 41.0625 55.515625 
z
" id="BitstreamVeraSans-Roman-72"/>
     <path d="M 18.109375 8.203125 
L 18.109375 -20.796875 
L 9.078125 -20.796875 
L 9.078125 54.6875 
L 18.109375 54.6875 
L 18.109375 46.390625 
Q 20.953125 51.265625 25.265625 53.625 
Q 29.59375 56 35.59375 56 
Q 45.5625 56 51.78125 48.09375 
Q 58.015625 40.1875 58.015625 27.296875 
Q 58.015625 14.40625 51.78125 6.484375 
Q 45.5625 -1.421875 35.59375 -1.421875 
Q 29.59375 -1.421875 25.265625 0.953125 
Q 20.953125 3.328125 18.109375 8.203125 
M 48.6875 27.296875 
Q 48.6875 37.203125 44.609375 42.84375 
Q 40.53125 48.484375 33.40625 48.484375 
Q 26.265625 48.484375 22.1875 42.84375 
Q 18.109375 37.203125 18.109375 27.296875 
Q 18.109375 17.390625 22.1875 11.75 
Q 26.265625 6.109375 33.40625 6.109375 
Q 40.53125 6.109375 44.609375 11.75 
Q 48.6875 17.390625 48.6875 27.296875 
" id="BitstreamVeraSans-Roman-70"/>
    </defs>
    <g transform="translate(567.9421875 91.769125)scale(0.36 -0.36)">
     <use xlink:href="#BitstreamVeraSans-Roman-4c"/>
     <use x="55.712890625" xlink:href="#BitstreamVeraSans-Roman-61"/>
     <use x="116.9921875" xlink:href="#BitstreamVeraSans-Roman-72"/>
     <use x="158.08984375" xlink:href="#BitstreamVeraSans-Roman-67"/>
     <use x="221.56640625" xlink:href="#BitstreamVeraSans-Roman-65"/>
     <use x="283.08984375" xlink:href="#BitstreamVeraSans-Roman-20"/>
     <use x="314.876953125" xlink:href="#BitstreamVeraSans-Roman-69"/>
     <use x="342.66015625" xlink:href="#BitstreamVeraSans-Roman-6e"/>
     <use x="406.0390625" xlink:href="#BitstreamVeraSans-Roman-70"/>
     <use x="469.515625" xlink:href="#BitstreamVeraSans-Roman-75"/>
     <use x="532.89453125" xlink:href="#BitstreamVeraSans-Roman-74"/>
     <use x="572.103515625" xlink:href="#BitstreamVeraSans-Roman-20"/>
     <use x="603.890625" xlink:href="#BitstreamVeraSans-Roman-70"/>
     <use x="667.3671875" xlink:href="#BitstreamVeraSans-Roman-6f"/>
     <use x="728.548828125" xlink:href="#BitstreamVeraSans-Roman-77"/>
     <use x="810.3359375" xlink:href="#BitstreamVeraSans-Roman-65"/>
     <use x="871.859375" xlink:href="#BitstreamVeraSans-Roman-72"/>
     <use x="912.97265625" xlink:href="#BitstreamVeraSans-Roman-20"/>
    </g>
    <!--  $|a_{1,1}(d)|^2$ -->
    <defs>
     <path d="M 4.984375 0 
L 4.984375 2.6875 
Q 4.984375 2.9375 5.171875 3.21875 
L 20.703125 20.40625 
Q 24.21875 24.21875 26.40625 26.796875 
Q 28.609375 29.390625 30.75 32.765625 
Q 32.90625 36.140625 34.15625 39.625 
Q 35.40625 43.109375 35.40625 47.015625 
Q 35.40625 51.125 33.890625 54.859375 
Q 32.375 58.59375 29.375 60.84375 
Q 26.375 63.09375 22.125 63.09375 
Q 17.78125 63.09375 14.3125 60.46875 
Q 10.84375 57.859375 9.421875 53.71875 
Q 9.8125 53.8125 10.5 53.8125 
Q 12.75 53.8125 14.328125 52.296875 
Q 15.921875 50.78125 15.921875 48.390625 
Q 15.921875 46.09375 14.328125 44.5 
Q 12.75 42.921875 10.5 42.921875 
Q 8.15625 42.921875 6.5625 44.546875 
Q 4.984375 46.1875 4.984375 48.390625 
Q 4.984375 52.15625 6.390625 55.4375 
Q 7.8125 58.734375 10.46875 61.296875 
Q 13.140625 63.875 16.484375 65.234375 
Q 19.828125 66.609375 23.578125 66.609375 
Q 29.296875 66.609375 34.21875 64.1875 
Q 39.15625 61.765625 42.03125 57.34375 
Q 44.921875 52.9375 44.921875 47.015625 
Q 44.921875 42.671875 43.015625 38.765625 
Q 41.109375 34.859375 38.125 31.65625 
Q 35.15625 28.46875 30.515625 24.40625 
Q 25.875 20.359375 24.421875 19 
L 13.09375 8.109375 
L 22.703125 8.109375 
Q 29.78125 8.109375 34.546875 8.21875 
Q 39.3125 8.34375 39.59375 8.59375 
Q 40.765625 9.859375 42 17.828125 
L 44.921875 17.828125 
L 42.09375 0 
z
" id="Cmr10-32"/>
     <path d="M 9.28125 0 
L 9.28125 3.515625 
Q 21.78125 3.515625 21.78125 6.6875 
L 21.78125 59.1875 
Q 16.609375 56.6875 8.6875 56.6875 
L 8.6875 60.203125 
Q 20.953125 60.203125 27.203125 66.609375 
L 28.609375 66.609375 
Q 28.953125 66.609375 29.265625 66.328125 
Q 29.59375 66.0625 29.59375 65.71875 
L 29.59375 6.6875 
Q 29.59375 3.515625 42.09375 3.515625 
L 42.09375 0 
z
" id="Cmr10-31"/>
     <path d="M 31 -24.8125 
Q 25.4375 -20.40625 21.40625 -14.71875 
Q 17.390625 -9.03125 14.8125 -2.578125 
Q 12.25 3.859375 10.984375 10.890625 
Q 9.71875 17.921875 9.71875 25 
Q 9.71875 32.171875 10.984375 39.203125 
Q 12.25 46.234375 14.859375 52.734375 
Q 17.484375 59.234375 21.53125 64.890625 
Q 25.59375 70.5625 31 74.8125 
Q 31 75 31.5 75 
L 32.421875 75 
Q 32.71875 75 32.953125 74.734375 
Q 33.203125 74.46875 33.203125 74.125 
Q 33.203125 73.6875 33.015625 73.484375 
Q 28.125 68.703125 24.875 63.234375 
Q 21.625 57.765625 19.640625 51.578125 
Q 17.671875 45.40625 16.796875 38.78125 
Q 15.921875 32.171875 15.921875 25 
Q 15.921875 -6.78125 32.90625 -23.296875 
Q 33.203125 -23.578125 33.203125 -24.125 
Q 33.203125 -24.359375 32.9375 -24.671875 
Q 32.671875 -25 32.421875 -25 
L 31.5 -25 
Q 31 -25 31 -24.8125 
" id="Cmr10-28"/>
     <path d="M 6.5 -25 
Q 5.609375 -25 5.609375 -24.125 
Q 5.609375 -23.6875 5.8125 -23.484375 
Q 22.90625 -6.78125 22.90625 25 
Q 22.90625 56.78125 6 73.296875 
Q 5.609375 73.53125 5.609375 74.125 
Q 5.609375 74.46875 5.875 74.734375 
Q 6.15625 75 6.5 75 
L 7.421875 75 
Q 7.71875 75 7.90625 74.8125 
Q 15.09375 69.140625 19.875 61.03125 
Q 24.65625 52.9375 26.875 43.75 
Q 29.109375 34.578125 29.109375 25 
Q 29.109375 17.921875 27.90625 11.0625 
Q 26.703125 4.203125 24.09375 -2.453125 
Q 21.484375 -9.125 17.484375 -14.765625 
Q 13.484375 -20.40625 7.90625 -24.8125 
Q 7.71875 -25 7.421875 -25 
z
" id="Cmr10-29"/>
     <path d="M 17.390625 -1.125 
Q 11.078125 -1.125 7.4375 3.640625 
Q 3.8125 8.40625 3.8125 14.890625 
Q 3.8125 21.296875 7.125 28.171875 
Q 10.453125 35.0625 16.09375 39.625 
Q 21.734375 44.1875 28.21875 44.1875 
Q 31.203125 44.1875 33.546875 42.578125 
Q 35.890625 40.96875 37.203125 38.1875 
Q 38.328125 42.1875 41.609375 42.1875 
Q 42.875 42.1875 43.71875 41.421875 
Q 44.578125 40.671875 44.578125 39.40625 
Q 44.578125 39.109375 44.546875 38.953125 
Q 44.53125 38.8125 44.484375 38.625 
L 37.5 10.6875 
Q 36.8125 7.71875 36.8125 5.8125 
Q 36.8125 1.515625 39.703125 1.515625 
Q 42.828125 1.515625 44.453125 5.484375 
Q 46.09375 9.46875 47.21875 14.703125 
Q 47.40625 15.28125 48 15.28125 
L 49.21875 15.28125 
Q 49.609375 15.28125 49.84375 14.9375 
Q 50.09375 14.59375 50.09375 14.3125 
Q 48.34375 7.328125 46.265625 3.09375 
Q 44.1875 -1.125 39.5 -1.125 
Q 36.140625 -1.125 33.546875 0.84375 
Q 30.953125 2.828125 30.328125 6.109375 
Q 23.875 -1.125 17.390625 -1.125 
M 17.484375 1.515625 
Q 21.09375 1.515625 24.484375 4.21875 
Q 27.875 6.9375 30.328125 10.59375 
Q 30.421875 10.6875 30.421875 10.890625 
L 35.796875 32.625 
L 35.890625 32.90625 
Q 35.296875 36.46875 33.3125 39.03125 
Q 31.34375 41.609375 27.984375 41.609375 
Q 24.609375 41.609375 21.703125 38.84375 
Q 18.796875 36.078125 16.796875 32.328125 
Q 14.84375 28.328125 13.0625 21.34375 
Q 11.28125 14.359375 11.28125 10.5 
Q 11.28125 7.03125 12.765625 4.265625 
Q 14.265625 1.515625 17.484375 1.515625 
" id="Cmmi10-61"/>
     <path d="M 11.921875 -23.1875 
L 11.921875 73.1875 
Q 11.921875 73.96875 12.5 74.484375 
Q 13.09375 75 13.921875 75 
Q 14.65625 75 15.28125 74.484375 
Q 15.921875 73.96875 15.921875 73.1875 
L 15.921875 -23.1875 
Q 15.921875 -23.96875 15.28125 -24.484375 
Q 14.65625 -25 13.921875 -25 
Q 13.09375 -25 12.5 -24.484375 
Q 11.921875 -23.96875 11.921875 -23.1875 
" id="Cmsy10-6a"/>
     <path d="M 17.390625 -1.125 
Q 11.078125 -1.125 7.4375 3.640625 
Q 3.8125 8.40625 3.8125 14.890625 
Q 3.8125 21.296875 7.125 28.171875 
Q 10.453125 35.0625 16.09375 39.625 
Q 21.734375 44.1875 28.21875 44.1875 
Q 31.15625 44.1875 33.515625 42.546875 
Q 35.890625 40.921875 37.203125 38.1875 
L 42.828125 60.5 
Q 43.21875 62.203125 43.3125 63.1875 
Q 43.3125 64.796875 36.8125 64.796875 
Q 35.796875 64.796875 35.796875 66.109375 
Q 35.84375 66.359375 36.015625 66.984375 
Q 36.1875 67.625 36.453125 67.96875 
Q 36.71875 68.3125 37.203125 68.3125 
L 50.6875 69.390625 
Q 51.90625 69.390625 51.90625 68.109375 
L 37.5 10.59375 
Q 36.8125 8.9375 36.8125 5.8125 
Q 36.8125 1.515625 39.703125 1.515625 
Q 42.828125 1.515625 44.453125 5.484375 
Q 46.09375 9.46875 47.21875 14.703125 
Q 47.40625 15.28125 48 15.28125 
L 49.21875 15.28125 
Q 49.609375 15.28125 49.84375 14.9375 
Q 50.09375 14.59375 50.09375 14.3125 
Q 48.34375 7.328125 46.265625 3.09375 
Q 44.1875 -1.125 39.5 -1.125 
Q 36.140625 -1.125 33.546875 0.84375 
Q 30.953125 2.828125 30.328125 6.109375 
Q 23.875 -1.125 17.390625 -1.125 
M 17.484375 1.515625 
Q 21.09375 1.515625 24.484375 4.21875 
Q 27.875 6.9375 30.328125 10.59375 
Q 30.421875 10.6875 30.421875 10.984375 
L 35.890625 33.015625 
Q 35.296875 36.53125 33.296875 39.0625 
Q 31.296875 41.609375 27.984375 41.609375 
Q 24.609375 41.609375 21.703125 38.84375 
Q 18.796875 36.078125 16.796875 32.328125 
Q 14.84375 28.328125 13.0625 21.34375 
Q 11.28125 14.359375 11.28125 10.5 
Q 11.28125 7.03125 12.765625 4.265625 
Q 14.265625 1.515625 17.484375 1.515625 
" id="Cmmi10-64"/>
     <path d="M 9.90625 -18.015625 
Q 9.90625 -17.578125 10.296875 -17.1875 
Q 13.921875 -13.71875 15.921875 -9.171875 
Q 17.921875 -4.640625 17.921875 0.390625 
L 17.921875 1.609375 
Q 16.3125 0 13.921875 0 
Q 11.625 0 10.015625 1.609375 
Q 8.40625 3.21875 8.40625 5.515625 
Q 8.40625 7.859375 10.015625 9.421875 
Q 11.625 10.984375 13.921875 10.984375 
Q 17.484375 10.984375 19 7.6875 
Q 20.515625 4.390625 20.515625 0.390625 
Q 20.515625 -5.171875 18.28125 -10.171875 
Q 16.0625 -15.1875 12.015625 -19.1875 
Q 11.625 -19.390625 11.375 -19.390625 
Q 10.890625 -19.390625 10.390625 -18.9375 
Q 9.90625 -18.5 9.90625 -18.015625 
" id="Cmmi10-3b"/>
    </defs>
    <g transform="translate(661.68 135.976)scale(0.36 -0.36)">
     <use transform="translate(0.0 0.109375)" xlink:href="#BitstreamVeraSans-Roman-20"/>
     <use transform="translate(31.787109375 0.109375)" xlink:href="#Cmsy10-6a"/>
     <use transform="translate(59.47265625 0.109375)" xlink:href="#Cmmi10-61"/>
     <use transform="translate(112.255859375 -16.896875)scale(0.7)" xlink:href="#Cmr10-31"/>
     <use transform="translate(147.255859375 -16.896875)scale(0.7)" xlink:href="#Cmmi10-3b"/>
     <use transform="translate(178.926757812 -16.896875)scale(0.7)" xlink:href="#Cmr10-31"/>
     <use transform="translate(220.304101562 0.109375)" xlink:href="#Cmr10-28"/>
     <use transform="translate(259.122460938 0.109375)" xlink:href="#Cmmi10-64"/>
     <use transform="translate(311.124414063 0.109375)" xlink:href="#Cmr10-29"/>
     <use transform="translate(349.942773438 0.109375)" xlink:href="#Cmsy10-6a"/>
     <use transform="translate(382.092460938 38.3734375)scale(0.7)" xlink:href="#Cmr10-32"/>
    </g>
   </g>
  </g>
 </g>
 <defs>
  <clipPath id="p16312007e1">
   <rect height="1152.0" width="1116.0" x="180.0" y="144.0"/>
  </clipPath>
 </defs>
</svg>
