<?xml version="1.0" encoding="UTF-8" standalone="no"?>
<!-- Created with matplotlib (http://matplotlib.org/) -->

<svg
   xmlns:dc="http://purl.org/dc/elements/1.1/"
   xmlns:cc="http://creativecommons.org/ns#"
   xmlns:rdf="http://www.w3.org/1999/02/22-rdf-syntax-ns#"
   xmlns:svg="http://www.w3.org/2000/svg"
   xmlns="http://www.w3.org/2000/svg"
   xmlns:xlink="http://www.w3.org/1999/xlink"
   xmlns:sodipodi="http://sodipodi.sourceforge.net/DTD/sodipodi-0.dtd"
   xmlns:inkscape="http://www.inkscape.org/namespaces/inkscape"
   height="1440pt"
   version="1.1"
   viewBox="0 0 1440 1440"
   width="1440pt"
   id="svg2"
   inkscape:version="0.91 r13725"
   sodipodi:docname="haldane_lattice.svg">
  <metadata
     id="metadata418">
    <rdf:RDF>
      <cc:Work
         rdf:about="">
        <dc:format>image/svg+xml</dc:format>
        <dc:type
           rdf:resource="http://purl.org/dc/dcmitype/StillImage" />
        <dc:title></dc:title>
      </cc:Work>
    </rdf:RDF>
  </metadata>
  <sodipodi:namedview
     pagecolor="#ffffff"
     bordercolor="#666666"
     borderopacity="1"
     objecttolerance="10"
     gridtolerance="10"
     guidetolerance="10"
     inkscape:pageopacity="0"
     inkscape:pageshadow="2"
     inkscape:window-width="1855"
     inkscape:window-height="1176"
     id="namedview416"
     showgrid="false"
     inkscape:zoom="0.58781078"
     inkscape:cx="900"
     inkscape:cy="900"
     inkscape:window-x="65"
     inkscape:window-y="24"
     inkscape:window-maximized="1"
     inkscape:current-layer="svg2" />
  <defs
     id="defs4">
    <style
       type="text/css"
       id="style6">
*{stroke-linecap:butt;stroke-linejoin:round;stroke-miterlimit:100000;}
  </style>
  </defs>
  <g
     id="figure_1">
    <g
       id="patch_1">
      <path
         d="M 0 1440  L 1440 1440  L 1440 0  L 0 0  z "
         style="fill:#ffffff;"
         id="path10" />
    </g>
    <g
       id="axes_1">
      <g
         id="patch_2">
        <path
           d="M 180 1278  L 1296 1278  L 1296 162  L 180 162  z "
           style="fill:#ffffff;"
           id="path14" />
      </g>
      <g
         id="LineCollection_1">
        <path
           clip-path="url(#p520e529eaa)"
           d="M 738 1013.466676  L 992.148332 573.266662  "
           style="fill:none;stroke:#666666;stroke-width:1.2;"
           id="path17" />
        <path
           clip-path="url(#p520e529eaa)"
           d="M 738 1013.466676  L 992.148332 866.733338  "
           style="fill:none;stroke:#666666;stroke-width:1.2;"
           id="path19" />
        <path
           clip-path="url(#p520e529eaa)"
           d="M 738 426.533324  L 992.148332 866.733338  "
           style="fill:none;stroke:#666666;stroke-width:1.2;"
           id="path21" />
        <path
           clip-path="url(#p520e529eaa)"
           d="M 738 426.533324  L 483.851668 573.266662  "
           style="fill:none;stroke:#666666;stroke-width:1.2;"
           id="path23" />
        <path
           clip-path="url(#p520e529eaa)"
           d="M 992.148332 573.266662  L 738 426.533324  "
           style="fill:none;stroke:#666666;stroke-width:1.2;"
           id="path25" />
        <path
           clip-path="url(#p520e529eaa)"
           d="M 992.148332 573.266662  L 483.851668 573.266662  "
           style="fill:none;stroke:#666666;stroke-width:1.2;"
           id="path27" />
        <path
           clip-path="url(#p520e529eaa)"
           d="M 992.148332 866.733338  L 992.148332 573.266662  "
           style="fill:none;stroke:#666666;stroke-width:1.2;"
           id="path29" />
        <path
           clip-path="url(#p520e529eaa)"
           d="M 992.148332 866.733338  L 483.851668 866.733338  "
           style="fill:none;stroke:#666666;stroke-width:1.2;"
           id="path31" />
        <path
           clip-path="url(#p520e529eaa)"
           d="M 483.851668 573.266662  L 738 1013.466676  "
           style="fill:none;stroke:#666666;stroke-width:1.2;"
           id="path33" />
        <path
           clip-path="url(#p520e529eaa)"
           d="M 483.851668 573.266662  L 483.851668 866.733338  "
           style="fill:none;stroke:#666666;stroke-width:1.2;"
           id="path35" />
        <path
           clip-path="url(#p520e529eaa)"
           d="M 483.851668 866.733338  L 738 1013.466676  "
           style="fill:none;stroke:#666666;stroke-width:1.2;"
           id="path37" />
        <path
           clip-path="url(#p520e529eaa)"
           d="M 483.851668 866.733338  L 738 426.533324  "
           style="fill:none;stroke:#666666;stroke-width:1.2;"
           id="path39" />
      </g>
      <g
         id="CircleCollection_1">
        <defs
           id="defs42">
          <path
             d="M 0 23.187999  C 6.149529 23.187999 12.048018 20.744766 16.396392 16.396392  C 20.744766 12.048018 23.187999 6.149529 23.187999 0  C 23.187999 -6.149529 20.744766 -12.048018 16.396392 -16.396392  C 12.048018 -20.744766 6.149529 -23.187999 0 -23.187999  C -6.149529 -23.187999 -12.048018 -20.744766 -16.396392 -16.396392  C -20.744766 -12.048018 -23.187999 -6.149529 -23.187999 0  C -23.187999 6.149529 -20.744766 12.048018 -16.396392 16.396392  C -12.048018 20.744766 -6.149529 23.187999 0 23.187999  z "
             id="C0_0_613a3a3d3c" />
        </defs>
        <g
           clip-path="url(#p520e529eaa)"
           id="g45">
          <use
             style="fill:#377ec8;fill-opacity:0.97;stroke:#000000;stroke-opacity:0.97;stroke-width:0.22000000000000003;"
             x="738.0"
             xlink:href="#C0_0_613a3a3d3c"
             y="1013.46667627"
             id="use47" />
        </g>
        <g
           clip-path="url(#p520e529eaa)"
           id="g49">
          <use
             style="fill:#ff7f00;fill-opacity:0.97;stroke:#000000;stroke-opacity:0.97;stroke-width:0.22000000000000003;"
             x="738.0"
             xlink:href="#C0_0_613a3a3d3c"
             y="426.533323725"
             id="use51" />
        </g>
        <g
           clip-path="url(#p520e529eaa)"
           id="g53">
          <use
             style="fill:#377ec8;fill-opacity:0.97;stroke:#000000;stroke-opacity:0.97;stroke-width:0.22000000000000003;"
             x="992.148331781"
             xlink:href="#C0_0_613a3a3d3c"
             y="573.266661863"
             id="use55" />
        </g>
        <g
           clip-path="url(#p520e529eaa)"
           id="g57">
          <use
             style="fill:#ff7f00;fill-opacity:0.97;stroke:#000000;stroke-opacity:0.97;stroke-width:0.22000000000000003;"
             x="992.148331781"
             xlink:href="#C0_0_613a3a3d3c"
             y="866.733338137"
             id="use59" />
        </g>
        <g
           clip-path="url(#p520e529eaa)"
           id="g61">
          <use
             style="fill:#377ec8;fill-opacity:0.97;stroke:#000000;stroke-opacity:0.97;stroke-width:0.22000000000000003;"
             x="483.851668219"
             xlink:href="#C0_0_613a3a3d3c"
             y="573.266661863"
             id="use63" />
        </g>
        <g
           clip-path="url(#p520e529eaa)"
           id="g65">
          <use
             style="fill:#ff7f00;fill-opacity:0.97;stroke:#000000;stroke-opacity:0.97;stroke-width:0.22000000000000003;"
             x="483.851668219"
             xlink:href="#C0_0_613a3a3d3c"
             y="866.733338137"
             id="use67" />
        </g>
        <g
           clip-path="url(#p520e529eaa)"
           id="g69">
          <use
             style="fill:#377ec8;fill-opacity:0.97;stroke:#000000;stroke-opacity:0.97;stroke-width:0.22000000000000003;"
             x="1074.8149966"
             xlink:href="#C0_0_613a3a3d3c"
             y="428.59999458"
             id="use71" />
        </g>
        <g
           clip-path="url(#p520e529eaa)"
           id="g73">
          <use
             style="fill:#ff7f00;fill-opacity:0.97;stroke:#000000;stroke-opacity:0.97;stroke-width:0.22000000000000003;"
             x="1074.8149966"
             xlink:href="#C0_0_613a3a3d3c"
             y="511.266659399"
             id="use75" />
        </g>
      </g>
      <g
         id="patch_3">
        <path
           clip-path="url(#p520e529eaa)"
           d="M 779.333333 573.266667  L 758.666667 583.6  L 758.666667 574.3  L 738 574.3  L 738 572.233333  L 758.666667 572.233333  L 758.666667 562.933333  z "
           style="stroke:#000000;stroke-linejoin:miter;stroke-width:2.0;"
           id="path78" />
      </g>
      <g
         id="patch_4">
        <path
           clip-path="url(#p520e529eaa)"
           d="M 696.666667 866.733333  L 717.333333 856.4  L 717.333333 865.7  L 738 865.7  L 738 867.766667  L 717.333333 867.766667  L 717.333333 877.066667  z "
           style="stroke:#000000;stroke-linejoin:miter;stroke-width:2.0;"
           id="path81" />
      </g>
      <g
         id="patch_5">
        <path
           d="M 324.666667 1278  L 1151.333333 1278  "
           style="fill:none;stroke:#000000;stroke-linecap:square;stroke-linejoin:miter;"
           id="path84" />
      </g>
      <g
         id="patch_6">
        <path
           d="M 180 1133.333333  L 180 306.666667  "
           style="fill:none;stroke:#000000;stroke-linecap:square;stroke-linejoin:miter;"
           id="path87" />
      </g>
      <g
         id="matplotlib.axis_1">
        <g
           id="xtick_1">
          <g
             id="line2d_1">
            <defs
               id="defs92">
              <path
                 d="M 0 0  L 0 -4  "
                 id="mf11c243ced"
                 style="stroke:#000000;stroke-width:0.5;" />
            </defs>
            <g
               id="g95">
              <use
                 style="stroke:#000000;stroke-width:0.5;"
                 x="324.666666667"
                 xlink:href="#mf11c243ced"
                 y="1278.0"
                 id="use97" />
            </g>
          </g>
          <g
             id="text_1">
            <!-- −0.2 -->
            <defs
               id="defs100">
              <path
                 d="M 19.1875 8.296875  L 53.609375 8.296875  L 53.609375 0  L 7.328125 0  L 7.328125 8.296875  Q 12.9375 14.109375 22.625 23.890625  Q 32.328125 33.6875 34.8125 36.53125  Q 39.546875 41.84375 41.421875 45.53125  Q 43.3125 49.21875 43.3125 52.78125  Q 43.3125 58.59375 39.234375 62.25  Q 35.15625 65.921875 28.609375 65.921875  Q 23.96875 65.921875 18.8125 64.3125  Q 13.671875 62.703125 7.8125 59.421875  L 7.8125 69.390625  Q 13.765625 71.78125 18.9375 73  Q 24.125 74.21875 28.421875 74.21875  Q 39.75 74.21875 46.484375 68.546875  Q 53.21875 62.890625 53.21875 53.421875  Q 53.21875 48.921875 51.53125 44.890625  Q 49.859375 40.875 45.40625 35.40625  Q 44.1875 33.984375 37.640625 27.21875  Q 31.109375 20.453125 19.1875 8.296875  "
                 id="BitstreamVeraSans-Roman-32" />
              <path
                 d="M 10.59375 35.5  L 73.1875 35.5  L 73.1875 27.203125  L 10.59375 27.203125  z "
                 id="BitstreamVeraSans-Roman-2212" />
              <path
                 d="M 31.78125 66.40625  Q 24.171875 66.40625 20.328125 58.90625  Q 16.5 51.421875 16.5 36.375  Q 16.5 21.390625 20.328125 13.890625  Q 24.171875 6.390625 31.78125 6.390625  Q 39.453125 6.390625 43.28125 13.890625  Q 47.125 21.390625 47.125 36.375  Q 47.125 51.421875 43.28125 58.90625  Q 39.453125 66.40625 31.78125 66.40625  M 31.78125 74.21875  Q 44.046875 74.21875 50.515625 64.515625  Q 56.984375 54.828125 56.984375 36.375  Q 56.984375 17.96875 50.515625 8.265625  Q 44.046875 -1.421875 31.78125 -1.421875  Q 19.53125 -1.421875 13.0625 8.265625  Q 6.59375 17.96875 6.59375 36.375  Q 6.59375 54.828125 13.0625 64.515625  Q 19.53125 74.21875 31.78125 74.21875  "
                 id="BitstreamVeraSans-Roman-30" />
              <path
                 d="M 10.6875 12.40625  L 21 12.40625  L 21 0  L 10.6875 0  z "
                 id="BitstreamVeraSans-Roman-2e" />
            </defs>
            <g
               transform="translate(310.096979167 1291.118125)scale(0.12 -0.12)"
               id="g106">
              <use
                 xlink:href="#BitstreamVeraSans-Roman-2212"
                 id="use108" />
              <use
                 x="83.7890625"
                 xlink:href="#BitstreamVeraSans-Roman-30"
                 id="use110" />
              <use
                 x="147.412109375"
                 xlink:href="#BitstreamVeraSans-Roman-2e"
                 id="use112" />
              <use
                 x="179.19921875"
                 xlink:href="#BitstreamVeraSans-Roman-32"
                 id="use114" />
            </g>
          </g>
        </g>
        <g
           id="xtick_2">
          <g
             id="line2d_2">
            <g
               id="g118">
              <use
                 style="stroke:#000000;stroke-width:0.5;"
                 x="531.333333333"
                 xlink:href="#mf11c243ced"
                 y="1278.0"
                 id="use120" />
            </g>
          </g>
          <g
             id="text_2">
            <!-- −0.1 -->
            <defs
               id="defs123">
              <path
                 d="M 12.40625 8.296875  L 28.515625 8.296875  L 28.515625 63.921875  L 10.984375 60.40625  L 10.984375 69.390625  L 28.421875 72.90625  L 38.28125 72.90625  L 38.28125 8.296875  L 54.390625 8.296875  L 54.390625 0  L 12.40625 0  z "
                 id="BitstreamVeraSans-Roman-31" />
            </defs>
            <g
               transform="translate(516.763645833 1291.118125)scale(0.12 -0.12)"
               id="g126">
              <use
                 xlink:href="#BitstreamVeraSans-Roman-2212"
                 id="use128" />
              <use
                 x="83.7890625"
                 xlink:href="#BitstreamVeraSans-Roman-30"
                 id="use130" />
              <use
                 x="147.412109375"
                 xlink:href="#BitstreamVeraSans-Roman-2e"
                 id="use132" />
              <use
                 x="179.19921875"
                 xlink:href="#BitstreamVeraSans-Roman-31"
                 id="use134" />
            </g>
          </g>
        </g>
        <g
           id="xtick_3">
          <g
             id="line2d_3">
            <g
               id="g138">
              <use
                 style="stroke:#000000;stroke-width:0.5;"
                 x="738.0"
                 xlink:href="#mf11c243ced"
                 y="1278.0"
                 id="use140" />
            </g>
          </g>
          <g
             id="text_3">
            <!-- 0.0 -->
            <g
               transform="translate(728.458125 1291.118125)scale(0.12 -0.12)"
               id="g143">
              <use
                 xlink:href="#BitstreamVeraSans-Roman-30"
                 id="use145" />
              <use
                 x="63.623046875"
                 xlink:href="#BitstreamVeraSans-Roman-2e"
                 id="use147" />
              <use
                 x="95.41015625"
                 xlink:href="#BitstreamVeraSans-Roman-30"
                 id="use149" />
            </g>
          </g>
        </g>
        <g
           id="xtick_4">
          <g
             id="line2d_4">
            <g
               id="g153">
              <use
                 style="stroke:#000000;stroke-width:0.5;"
                 x="944.666666667"
                 xlink:href="#mf11c243ced"
                 y="1278.0"
                 id="use155" />
            </g>
          </g>
          <g
             id="text_4">
            <!-- 0.1 -->
            <g
               transform="translate(935.124791667 1291.118125)scale(0.12 -0.12)"
               id="g158">
              <use
                 xlink:href="#BitstreamVeraSans-Roman-30"
                 id="use160" />
              <use
                 x="63.623046875"
                 xlink:href="#BitstreamVeraSans-Roman-2e"
                 id="use162" />
              <use
                 x="95.41015625"
                 xlink:href="#BitstreamVeraSans-Roman-31"
                 id="use164" />
            </g>
          </g>
        </g>
        <g
           id="xtick_5">
          <g
             id="line2d_5">
            <g
               id="g168">
              <use
                 style="stroke:#000000;stroke-width:0.5;"
                 x="1151.33333333"
                 xlink:href="#mf11c243ced"
                 y="1278.0"
                 id="use170" />
            </g>
          </g>
          <g
             id="text_5">
            <!-- 0.2 -->
            <g
               transform="translate(1141.79145833 1291.118125)scale(0.12 -0.12)"
               id="g173">
              <use
                 xlink:href="#BitstreamVeraSans-Roman-30"
                 id="use175" />
              <use
                 x="63.623046875"
                 xlink:href="#BitstreamVeraSans-Roman-2e"
                 id="use177" />
              <use
                 x="95.41015625"
                 xlink:href="#BitstreamVeraSans-Roman-32"
                 id="use179" />
            </g>
          </g>
        </g>
        <g
           id="text_6">
          <!-- x (nm) -->
          <defs
             id="defs182">
            <path
               d="M 52 44.1875  Q 55.375 50.25 60.0625 53.125  Q 64.75 56 71.09375 56  Q 79.640625 56 84.28125 50.015625  Q 88.921875 44.046875 88.921875 33.015625  L 88.921875 0  L 79.890625 0  L 79.890625 32.71875  Q 79.890625 40.578125 77.09375 44.375  Q 74.3125 48.1875 68.609375 48.1875  Q 61.625 48.1875 57.5625 43.546875  Q 53.515625 38.921875 53.515625 30.90625  L 53.515625 0  L 44.484375 0  L 44.484375 32.71875  Q 44.484375 40.625 41.703125 44.40625  Q 38.921875 48.1875 33.109375 48.1875  Q 26.21875 48.1875 22.15625 43.53125  Q 18.109375 38.875 18.109375 30.90625  L 18.109375 0  L 9.078125 0  L 9.078125 54.6875  L 18.109375 54.6875  L 18.109375 46.1875  Q 21.1875 51.21875 25.484375 53.609375  Q 29.78125 56 35.6875 56  Q 41.65625 56 45.828125 52.96875  Q 50 49.953125 52 44.1875  "
               id="BitstreamVeraSans-Roman-6d" />
            <path
               d="M 54.890625 54.6875  L 35.109375 28.078125  L 55.90625 0  L 45.3125 0  L 29.390625 21.484375  L 13.484375 0  L 2.875 0  L 24.125 28.609375  L 4.6875 54.6875  L 15.28125 54.6875  L 29.78125 35.203125  L 44.28125 54.6875  z "
               id="BitstreamVeraSans-Roman-78" />
            <path
               d="M 31 75.875  Q 24.46875 64.65625 21.28125 53.65625  Q 18.109375 42.671875 18.109375 31.390625  Q 18.109375 20.125 21.3125 9.0625  Q 24.515625 -2 31 -13.1875  L 23.1875 -13.1875  Q 15.875 -1.703125 12.234375 9.375  Q 8.59375 20.453125 8.59375 31.390625  Q 8.59375 42.28125 12.203125 53.3125  Q 15.828125 64.359375 23.1875 75.875  z "
               id="BitstreamVeraSans-Roman-28" />
            <path
               id="BitstreamVeraSans-Roman-20" />
            <path
               d="M 54.890625 33.015625  L 54.890625 0  L 45.90625 0  L 45.90625 32.71875  Q 45.90625 40.484375 42.875 44.328125  Q 39.84375 48.1875 33.796875 48.1875  Q 26.515625 48.1875 22.3125 43.546875  Q 18.109375 38.921875 18.109375 30.90625  L 18.109375 0  L 9.078125 0  L 9.078125 54.6875  L 18.109375 54.6875  L 18.109375 46.1875  Q 21.34375 51.125 25.703125 53.5625  Q 30.078125 56 35.796875 56  Q 45.21875 56 50.046875 50.171875  Q 54.890625 44.34375 54.890625 33.015625  "
               id="BitstreamVeraSans-Roman-6e" />
            <path
               d="M 8.015625 75.875  L 15.828125 75.875  Q 23.140625 64.359375 26.78125 53.3125  Q 30.421875 42.28125 30.421875 31.390625  Q 30.421875 20.453125 26.78125 9.375  Q 23.140625 -1.703125 15.828125 -13.1875  L 8.015625 -13.1875  Q 14.5 -2 17.703125 9.0625  Q 20.90625 20.125 20.90625 31.390625  Q 20.90625 42.671875 17.703125 53.65625  Q 14.5 64.65625 8.015625 75.875  "
               id="BitstreamVeraSans-Roman-29" />
          </defs>
          <g
             transform="translate(718.213125 1307.731875)scale(0.12 -0.12)"
             id="g190">
            <use
               xlink:href="#BitstreamVeraSans-Roman-78"
               id="use192" />
            <use
               x="59.1796875"
               xlink:href="#BitstreamVeraSans-Roman-20"
               id="use194" />
            <use
               x="90.966796875"
               xlink:href="#BitstreamVeraSans-Roman-28"
               id="use196" />
            <use
               x="129.98046875"
               xlink:href="#BitstreamVeraSans-Roman-6e"
               id="use198" />
            <use
               x="193.359375"
               xlink:href="#BitstreamVeraSans-Roman-6d"
               id="use200" />
            <use
               x="290.771484375"
               xlink:href="#BitstreamVeraSans-Roman-29"
               id="use202" />
          </g>
        </g>
      </g>
      <g
         id="matplotlib.axis_2">
        <g
           id="ytick_1">
          <g
             id="line2d_6">
            <defs
               id="defs207">
              <path
                 d="M 0 0  L 4 0  "
                 id="m3784dcb535"
                 style="stroke:#000000;stroke-width:0.5;" />
            </defs>
            <g
               id="g210">
              <use
                 style="stroke:#000000;stroke-width:0.5;"
                 x="180.0"
                 xlink:href="#m3784dcb535"
                 y="1133.33333333"
                 id="use212" />
            </g>
          </g>
          <g
             id="text_7">
            <!-- −0.2 -->
            <g
               transform="translate(146.860625 1136.64458333)scale(0.12 -0.12)"
               id="g215">
              <use
                 xlink:href="#BitstreamVeraSans-Roman-2212"
                 id="use217" />
              <use
                 x="83.7890625"
                 xlink:href="#BitstreamVeraSans-Roman-30"
                 id="use219" />
              <use
                 x="147.412109375"
                 xlink:href="#BitstreamVeraSans-Roman-2e"
                 id="use221" />
              <use
                 x="179.19921875"
                 xlink:href="#BitstreamVeraSans-Roman-32"
                 id="use223" />
            </g>
          </g>
        </g>
        <g
           id="ytick_2">
          <g
             id="line2d_7">
            <g
               id="g227">
              <use
                 style="stroke:#000000;stroke-width:0.5;"
                 x="180.0"
                 xlink:href="#m3784dcb535"
                 y="926.666666667"
                 id="use229" />
            </g>
          </g>
          <g
             id="text_8">
            <!-- −0.1 -->
            <g
               transform="translate(146.860625 929.977916667)scale(0.12 -0.12)"
               id="g232">
              <use
                 xlink:href="#BitstreamVeraSans-Roman-2212"
                 id="use234" />
              <use
                 x="83.7890625"
                 xlink:href="#BitstreamVeraSans-Roman-30"
                 id="use236" />
              <use
                 x="147.412109375"
                 xlink:href="#BitstreamVeraSans-Roman-2e"
                 id="use238" />
              <use
                 x="179.19921875"
                 xlink:href="#BitstreamVeraSans-Roman-31"
                 id="use240" />
            </g>
          </g>
        </g>
        <g
           id="ytick_3">
          <g
             id="line2d_8">
            <g
               id="g244">
              <use
                 style="stroke:#000000;stroke-width:0.5;"
                 x="180.0"
                 xlink:href="#m3784dcb535"
                 y="720.0"
                 id="use246" />
            </g>
          </g>
          <g
             id="text_9">
            <!-- 0.0 -->
            <g
               transform="translate(156.91625 723.31125)scale(0.12 -0.12)"
               id="g249">
              <use
                 xlink:href="#BitstreamVeraSans-Roman-30"
                 id="use251" />
              <use
                 x="63.623046875"
                 xlink:href="#BitstreamVeraSans-Roman-2e"
                 id="use253" />
              <use
                 x="95.41015625"
                 xlink:href="#BitstreamVeraSans-Roman-30"
                 id="use255" />
            </g>
          </g>
        </g>
        <g
           id="ytick_4">
          <g
             id="line2d_9">
            <g
               id="g259">
              <use
                 style="stroke:#000000;stroke-width:0.5;"
                 x="180.0"
                 xlink:href="#m3784dcb535"
                 y="513.333333333"
                 id="use261" />
            </g>
          </g>
          <g
             id="text_10">
            <!-- 0.1 -->
            <g
               transform="translate(156.91625 516.644583333)scale(0.12 -0.12)"
               id="g264">
              <use
                 xlink:href="#BitstreamVeraSans-Roman-30"
                 id="use266" />
              <use
                 x="63.623046875"
                 xlink:href="#BitstreamVeraSans-Roman-2e"
                 id="use268" />
              <use
                 x="95.41015625"
                 xlink:href="#BitstreamVeraSans-Roman-31"
                 id="use270" />
            </g>
          </g>
        </g>
        <g
           id="ytick_5">
          <g
             id="line2d_10">
            <g
               id="g274">
              <use
                 style="stroke:#000000;stroke-width:0.5;"
                 x="180.0"
                 xlink:href="#m3784dcb535"
                 y="306.666666667"
                 id="use276" />
            </g>
          </g>
          <g
             id="text_11">
            <!-- 0.2 -->
            <g
               transform="translate(156.91625 309.977916667)scale(0.12 -0.12)"
               id="g279">
              <use
                 xlink:href="#BitstreamVeraSans-Roman-30"
                 id="use281" />
              <use
                 x="63.623046875"
                 xlink:href="#BitstreamVeraSans-Roman-2e"
                 id="use283" />
              <use
                 x="95.41015625"
                 xlink:href="#BitstreamVeraSans-Roman-32"
                 id="use285" />
            </g>
          </g>
        </g>
        <g
           id="text_12">
          <!-- y (nm) -->
          <defs
             id="defs288">
            <path
               d="M 32.171875 -5.078125  Q 28.375 -14.84375 24.75 -17.8125  Q 21.140625 -20.796875 15.09375 -20.796875  L 7.90625 -20.796875  L 7.90625 -13.28125  L 13.1875 -13.28125  Q 16.890625 -13.28125 18.9375 -11.515625  Q 21 -9.765625 23.484375 -3.21875  L 25.09375 0.875  L 2.984375 54.6875  L 12.5 54.6875  L 29.59375 11.921875  L 46.6875 54.6875  L 56.203125 54.6875  z "
               id="BitstreamVeraSans-Roman-79" />
          </defs>
          <g
             transform="translate(139.365 739.786875)rotate(-90.0)scale(0.12 -0.12)"
             id="g291">
            <use
               xlink:href="#BitstreamVeraSans-Roman-79"
               id="use293" />
            <use
               x="59.1796875"
               xlink:href="#BitstreamVeraSans-Roman-20"
               id="use295" />
            <use
               x="90.966796875"
               xlink:href="#BitstreamVeraSans-Roman-28"
               id="use297" />
            <use
               x="129.98046875"
               xlink:href="#BitstreamVeraSans-Roman-6e"
               id="use299" />
            <use
               x="193.359375"
               xlink:href="#BitstreamVeraSans-Roman-6d"
               id="use301" />
            <use
               x="290.771484375"
               xlink:href="#BitstreamVeraSans-Roman-29"
               id="use303" />
          </g>
        </g>
      </g>
      <g
         id="text_13">
        <!-- $\phi$ -->
        <defs
           id="defs306">
          <path
             d="M 19.390625 -19.484375  L 23.875 -1.421875  Q 18.796875 -1.421875 14.40625 0.953125  Q 10.015625 3.328125 7.34375 7.5625  Q 4.6875 11.8125 4.6875 16.796875  Q 4.6875 22.21875 7.375 27.140625  Q 10.0625 32.078125 14.71875 36.109375  Q 19.390625 40.140625 24.75 42.3125  Q 30.125 44.484375 35.40625 44.484375  L 41.40625 68.796875  Q 41.609375 69.390625 42.1875 69.390625  L 43.40625 69.390625  Q 43.796875 69.390625 44.03125 69.046875  Q 44.28125 68.703125 44.28125 68.40625  L 38.28125 44.484375  Q 42.046875 44.484375 45.5625 43.109375  Q 49.078125 41.75 51.78125 39.28125  Q 54.5 36.8125 56 33.46875  Q 57.515625 30.125 57.515625 26.3125  Q 57.515625 20.90625 54.828125 15.96875  Q 52.15625 11.03125 47.609375 7.078125  Q 43.0625 3.125 37.46875 0.84375  Q 31.890625 -1.421875 26.8125 -1.421875  L 22.21875 -19.921875  Q 22.015625 -20.515625 21.390625 -20.515625  L 20.21875 -20.515625  Q 19.828125 -20.515625 19.609375 -20.140625  Q 19.390625 -19.78125 19.390625 -19.484375  M 24.515625 1.21875  L 34.71875 41.890625  Q 32.171875 41.890625 29.390625 40.859375  Q 26.609375 39.84375 24.140625 38.28125  Q 21.6875 36.71875 19.671875 34.71875  Q 17.234375 32.28125 15.375 28.953125  Q 13.53125 25.640625 12.578125 21.953125  Q 11.625 18.265625 11.625 14.703125  Q 11.625 10.9375 13.234375 7.859375  Q 14.84375 4.78125 17.765625 3  Q 20.703125 1.21875 24.515625 1.21875  M 27.484375 1.21875  Q 31.25 1.21875 35.5 3.359375  Q 39.75 5.515625 42.484375 8.40625  Q 46.234375 12.109375 48.40625 17.5  Q 50.59375 22.90625 50.59375 28.421875  Q 50.59375 32.125 48.96875 35.21875  Q 47.359375 38.328125 44.421875 40.109375  Q 41.5 41.890625 37.703125 41.890625  z "
             id="Cmmi10-c1" />
        </defs>
        <g
           transform="translate(738.0 637.333333333)scale(0.36 -0.36)"
           id="g309">
          <use
             transform="translate(0.0 0.609375)"
             xlink:href="#Cmmi10-c1"
             id="use311" />
        </g>
      </g>
      <g
         id="text_14">
        <!-- $t_2 e^{i\phi}$ -->
        <defs
           id="defs314">
          <path
             d="M 6.203125 8.109375  Q 6.203125 9.578125 6.5 10.890625  L 13.71875 39.59375  L 3.21875 39.59375  Q 2.203125 39.59375 2.203125 40.921875  Q 2.59375 43.109375 3.515625 43.109375  L 14.59375 43.109375  L 18.609375 59.421875  Q 19 60.75 20.171875 61.671875  Q 21.34375 62.59375 22.796875 62.59375  Q 24.078125 62.59375 24.921875 61.828125  Q 25.78125 61.078125 25.78125 59.8125  Q 25.78125 59.515625 25.75 59.34375  Q 25.734375 59.1875 25.6875 58.984375  L 21.6875 43.109375  L 31.984375 43.109375  Q 33.015625 43.109375 33.015625 41.796875  Q 32.953125 41.546875 32.8125 40.953125  Q 32.671875 40.375 32.421875 39.984375  Q 32.171875 39.59375 31.6875 39.59375  L 20.796875 39.59375  L 13.625 10.6875  Q 12.890625 7.859375 12.890625 5.8125  Q 12.890625 1.515625 15.828125 1.515625  Q 20.21875 1.515625 23.609375 5.640625  Q 27 9.765625 28.8125 14.703125  Q 29.203125 15.28125 29.59375 15.28125  L 30.8125 15.28125  Q 31.203125 15.28125 31.4375 15.015625  Q 31.6875 14.75 31.6875 14.40625  Q 31.6875 14.203125 31.59375 14.109375  Q 29.390625 8.0625 25.1875 3.46875  Q 21 -1.125 15.578125 -1.125  Q 11.625 -1.125 8.90625 1.453125  Q 6.203125 4.046875 6.203125 8.109375  "
             id="Cmmi10-74" />
          <path
             d="M 4.984375 0  L 4.984375 2.6875  Q 4.984375 2.9375 5.171875 3.21875  L 20.703125 20.40625  Q 24.21875 24.21875 26.40625 26.796875  Q 28.609375 29.390625 30.75 32.765625  Q 32.90625 36.140625 34.15625 39.625  Q 35.40625 43.109375 35.40625 47.015625  Q 35.40625 51.125 33.890625 54.859375  Q 32.375 58.59375 29.375 60.84375  Q 26.375 63.09375 22.125 63.09375  Q 17.78125 63.09375 14.3125 60.46875  Q 10.84375 57.859375 9.421875 53.71875  Q 9.8125 53.8125 10.5 53.8125  Q 12.75 53.8125 14.328125 52.296875  Q 15.921875 50.78125 15.921875 48.390625  Q 15.921875 46.09375 14.328125 44.5  Q 12.75 42.921875 10.5 42.921875  Q 8.15625 42.921875 6.5625 44.546875  Q 4.984375 46.1875 4.984375 48.390625  Q 4.984375 52.15625 6.390625 55.4375  Q 7.8125 58.734375 10.46875 61.296875  Q 13.140625 63.875 16.484375 65.234375  Q 19.828125 66.609375 23.578125 66.609375  Q 29.296875 66.609375 34.21875 64.1875  Q 39.15625 61.765625 42.03125 57.34375  Q 44.921875 52.9375 44.921875 47.015625  Q 44.921875 42.671875 43.015625 38.765625  Q 41.109375 34.859375 38.125 31.65625  Q 35.15625 28.46875 30.515625 24.40625  Q 25.875 20.359375 24.421875 19  L 13.09375 8.109375  L 22.703125 8.109375  Q 29.78125 8.109375 34.546875 8.21875  Q 39.3125 8.34375 39.59375 8.59375  Q 40.765625 9.859375 42 17.828125  L 44.921875 17.828125  L 42.09375 0  z "
             id="Cmr10-32" />
          <path
             d="M 20.125 -1.125  Q 15.328125 -1.125 11.734375 1.359375  Q 8.15625 3.859375 6.265625 8.078125  Q 4.390625 12.3125 4.390625 17  Q 4.390625 24.125 7.984375 30.390625  Q 11.578125 36.671875 17.71875 40.421875  Q 23.875 44.1875 30.90625 44.1875  Q 35.203125 44.1875 38.40625 41.96875  Q 41.609375 39.75 41.609375 35.59375  Q 41.609375 29.828125 37.015625 27.015625  Q 32.421875 24.21875 26.65625 23.5625  Q 20.90625 22.90625 13.921875 22.90625  L 13.625 22.90625  Q 12.015625 16.9375 12.015625 12.703125  Q 12.015625 8.25 14.0625 4.875  Q 16.109375 1.515625 20.3125 1.515625  Q 26.265625 1.515625 31.75 4.25  Q 37.25 6.984375 40.71875 11.8125  Q 41.015625 12.109375 41.5 12.109375  Q 42 12.109375 42.5 11.546875  Q 43.015625 10.984375 43.015625 10.5  Q 43.015625 10.109375 42.828125 9.90625  Q 39.15625 4.78125 32.953125 1.828125  Q 26.765625 -1.125 20.125 -1.125  M 14.203125 25.484375  Q 20.015625 25.484375 24.953125 26.015625  Q 29.890625 26.5625 33.890625 28.734375  Q 37.890625 30.90625 37.890625 35.5  Q 37.890625 37.359375 36.859375 38.75  Q 35.84375 40.140625 34.203125 40.875  Q 32.5625 41.609375 30.8125 41.609375  Q 26.5625 41.609375 23.171875 39.3125  Q 19.78125 37.015625 17.578125 33.328125  Q 15.375 29.640625 14.203125 25.484375  "
             id="Cmmi10-65" />
          <path
             d="M 7.8125 7.171875  Q 7.8125 9.03125 8.59375 11.078125  L 16.703125 32.625  Q 18.015625 36.28125 18.015625 38.625  Q 18.015625 41.609375 15.828125 41.609375  Q 11.859375 41.609375 9.296875 37.53125  Q 6.734375 33.453125 5.515625 28.421875  Q 5.328125 27.78125 4.6875 27.78125  L 3.515625 27.78125  Q 2.6875 27.78125 2.6875 28.71875  L 2.6875 29  Q 4.296875 34.96875 7.609375 39.578125  Q 10.9375 44.1875 16.015625 44.1875  Q 19.578125 44.1875 22.046875 41.84375  Q 24.515625 39.5 24.515625 35.890625  Q 24.515625 34.03125 23.6875 31.984375  L 15.578125 10.5  Q 14.203125 7.171875 14.203125 4.5  Q 14.203125 1.515625 16.5 1.515625  Q 20.40625 1.515625 23.015625 5.6875  Q 25.640625 9.859375 26.703125 14.703125  Q 26.90625 15.28125 27.484375 15.28125  L 28.71875 15.28125  Q 29.109375 15.28125 29.34375 15.015625  Q 29.59375 14.75 29.59375 14.40625  Q 29.59375 14.3125 29.5 14.109375  Q 28.125 8.453125 24.734375 3.65625  Q 21.34375 -1.125 16.3125 -1.125  Q 12.796875 -1.125 10.296875 1.296875  Q 7.8125 3.71875 7.8125 7.171875  M 19.09375 60.59375  Q 19.09375 62.703125 20.84375 64.40625  Q 22.609375 66.109375 24.703125 66.109375  Q 26.421875 66.109375 27.515625 65.0625  Q 28.609375 64.015625 28.609375 62.40625  Q 28.609375 60.15625 26.828125 58.46875  Q 25.046875 56.78125 22.90625 56.78125  Q 21.296875 56.78125 20.1875 57.875  Q 19.09375 58.984375 19.09375 60.59375  "
             id="Cmmi10-69" />
        </defs>
        <g
           transform="translate(738.0 844.0)scale(0.36 -0.36)"
           id="g320">
          <use
             transform="translate(0.0 0.16249999999999432)"
             xlink:href="#Cmmi10-74"
             id="use322" />
          <use
             transform="translate(36.083984375 -16.84375)scale(0.7)"
             xlink:href="#Cmr10-32"
             id="use324" />
          <use
             transform="translate(77.461328125 0.16249999999999432)"
             xlink:href="#Cmmi10-65"
             id="use326" />
          <use
             transform="translate(130.248984375 38.426562499999996)scale(0.7)"
             xlink:href="#Cmmi10-69"
             id="use328" />
          <use
             transform="translate(154.34566406249996 38.426562499999996)scale(0.7)"
             xlink:href="#Cmmi10-c1"
             id="use330" />
        </g>
      </g>
      <g
         id="text_15">
        <!-- $t_1$ -->
        <defs
           id="defs333">
          <path
             d="M 9.28125 0  L 9.28125 3.515625  Q 21.78125 3.515625 21.78125 6.6875  L 21.78125 59.1875  Q 16.609375 56.6875 8.6875 56.6875  L 8.6875 60.203125  Q 20.953125 60.203125 27.203125 66.609375  L 28.609375 66.609375  Q 28.953125 66.609375 29.265625 66.328125  Q 29.59375 66.0625 29.59375 65.71875  L 29.59375 6.6875  Q 29.59375 3.515625 42.09375 3.515625  L 42.09375 0  z "
             id="Cmr10-31" />
        </defs>
        <g
           transform="translate(593.333333333 467.866666667)scale(0.36 -0.36)"
           id="g336">
          <use
             transform="translate(0.0 0.40625)"
             xlink:href="#Cmmi10-74"
             id="use338" />
          <use
             transform="translate(36.083984375 -16.599999999999994)scale(0.7)"
             xlink:href="#Cmr10-31"
             id="use340" />
        </g>
      </g>
      <g
         id="text_16">
        <!-- $t_2 e^{i\phi}$ -->
        <g
           transform="translate(696.666666667 554.666666667)scale(0.36 -0.36)"
           id="g343">
          <use
             transform="translate(0.0 0.16249999999999432)"
             xlink:href="#Cmmi10-74"
             id="use345" />
          <use
             transform="translate(36.083984375 -16.84375)scale(0.7)"
             xlink:href="#Cmr10-32"
             id="use347" />
          <use
             transform="translate(77.461328125 0.16249999999999432)"
             xlink:href="#Cmmi10-65"
             id="use349" />
          <use
             transform="translate(130.248984375 38.426562499999996)scale(0.7)"
             xlink:href="#Cmmi10-69"
             id="use351" />
          <use
             transform="translate(154.34566406249996 38.426562499999996)scale(0.7)"
             xlink:href="#Cmmi10-c1"
             id="use353" />
        </g>
      </g>
      <g
         id="text_17">
        <!-- A -->
        <defs
           id="defs356">
          <path
             d="M 36.8125 72.90625  L 48 72.90625  L 61.53125 0  L 51.21875 0  L 48.1875 18.703125  L 15.375 18.703125  L 5.078125 0  L -5.328125 0  z M 40.375 63.1875  L 19.921875 26.90625  L 46.6875 26.90625  z "
             id="BitstreamVeraSans-Oblique-41" />
        </defs>
        <g
           transform="translate(1116.14833333 438.933333333)scale(0.36 -0.36)"
           id="g359">
          <use
             xlink:href="#BitstreamVeraSans-Oblique-41"
             id="use361" />
        </g>
      </g>
      <g
         id="text_18">
        <!-- B -->
        <defs
           id="defs364">
          <path
             d="M 16.890625 72.90625  L 42.09375 72.90625  Q 52.34375 72.90625 57.421875 69.09375  Q 62.5 65.28125 62.5 57.625  Q 62.5 50.59375 58.125 45.484375  Q 53.765625 40.375 46.6875 39.3125  Q 52.734375 37.9375 55.765625 34.078125  Q 58.796875 30.21875 58.796875 23.78125  Q 58.796875 12.796875 50.65625 6.390625  Q 42.53125 0 28.421875 0  L 2.6875 0  z M 19.28125 34.8125  L 14.109375 8.109375  L 29.984375 8.109375  Q 38.921875 8.109375 43.75 12.203125  Q 48.578125 16.3125 48.578125 23.78125  Q 48.578125 29.546875 45.375 32.171875  Q 42.1875 34.8125 35.109375 34.8125  z M 25.09375 64.796875  L 20.796875 42.828125  L 35.5 42.828125  Q 43.359375 42.828125 47.78125 46.234375  Q 52.203125 49.65625 52.203125 55.71875  Q 52.203125 60.453125 49.21875 62.625  Q 46.234375 64.796875 39.703125 64.796875  z "
             id="BitstreamVeraSans-Oblique-42" />
        </defs>
        <g
           transform="translate(1116.14833333 521.6)scale(0.36 -0.36)"
           id="g367">
          <use
             xlink:href="#BitstreamVeraSans-Oblique-42"
             id="use369" />
        </g>
      </g>
      <g
         id="text_19">
        <!-- -M -->
        <defs
           id="defs372">
          <path
             d="M 6.109375 31.390625  L 32.421875 31.390625  L 30.90625 23.390625  L 4.5 23.390625  z "
             id="BitstreamVeraSans-Oblique-2d" />
          <path
             d="M 16.890625 72.90625  L 31.6875 72.90625  L 40.1875 23.78125  L 68.40625 72.90625  L 83.59375 72.90625  L 69.390625 0  L 59.8125 0  L 72.21875 63.921875  L 43.609375 14.015625  L 33.984375 14.015625  L 24.703125 64.109375  L 12.3125 0  L 2.6875 0  z "
             id="BitstreamVeraSans-Oblique-4d" />
        </defs>
        <g
           transform="translate(719.4 436.866666667)scale(0.24 -0.24)"
           id="g376">
          <use
             xlink:href="#BitstreamVeraSans-Oblique-2d"
             id="use378" />
          <use
             x="36.083984375"
             xlink:href="#BitstreamVeraSans-Oblique-4d"
             id="use380" />
        </g>
      </g>
      <g
         id="text_20">
        <!-- M -->
        <g
           transform="translate(725.6 1023.8)scale(0.24 -0.24)"
           id="g383">
          <use
             xlink:href="#BitstreamVeraSans-Oblique-4d"
             id="use385" />
        </g>
      </g>
      <g
         id="text_21">
        <!-- M -->
        <g
           transform="translate(979.748333333 585.666666667)scale(0.24 -0.24)"
           id="g388">
          <use
             xlink:href="#BitstreamVeraSans-Oblique-4d"
             id="use390" />
        </g>
      </g>
      <g
         id="text_22">
        <!-- M -->
        <g
           transform="translate(467.318333333 585.666666667)scale(0.24 -0.24)"
           id="g393">
          <use
             xlink:href="#BitstreamVeraSans-Oblique-4d"
             id="use395" />
        </g>
      </g>
      <g
         id="text_23">
        <!-- -M -->
        <g
           transform="translate(975.615 879.133333333)scale(0.24 -0.24)"
           id="g398">
          <use
             xlink:href="#BitstreamVeraSans-Oblique-2d"
             id="use400" />
          <use
             x="36.083984375"
             xlink:href="#BitstreamVeraSans-Oblique-4d"
             id="use402" />
        </g>
      </g>
      <g
         id="text_24">
        <!-- -M -->
        <g
           transform="translate(467.318333333 879.133333333)scale(0.24 -0.24)"
           id="g405">
          <use
             xlink:href="#BitstreamVeraSans-Oblique-2d"
             id="use407" />
          <use
             x="36.083984375"
             xlink:href="#BitstreamVeraSans-Oblique-4d"
             id="use409" />
        </g>
      </g>
    </g>
  </g>
  <defs
     id="defs411">
    <clipPath
       id="p520e529eaa">
      <rect
         height="1116.0"
         width="1116.0"
         x="180.0"
         y="162.0"
         id="rect414" />
    </clipPath>
  </defs>
  <rect
     style="fill:#ffffff;fill-opacity:1;stroke:#010000;stroke-width:0;stroke-linecap:butt;stroke-linejoin:round;stroke-miterlimit:4.69999981;stroke-dasharray:none;stroke-dashoffset:0;stroke-opacity:0.85098039"
     id="rect4546"
     width="91.185799"
     height="884.63837"
     x="133.37625"
     y="292.69202" />
  <rect
     style="fill:#ffffff;fill-opacity:1;stroke:#010000;stroke-width:0;stroke-linecap:butt;stroke-linejoin:round;stroke-miterlimit:4.69999981;stroke-dasharray:none;stroke-dashoffset:0;stroke-opacity:0.85098039"
     id="rect4548"
     width="903.6922"
     height="83.019913"
     x="279.00134"
     y="1244.0186" />
</svg>
