<?xml version="1.0" encoding="UTF-8" standalone="no"?>
<!-- Created with matplotlib (http://matplotlib.org/) -->

<svg
   xmlns:dc="http://purl.org/dc/elements/1.1/"
   xmlns:cc="http://creativecommons.org/ns#"
   xmlns:rdf="http://www.w3.org/1999/02/22-rdf-syntax-ns#"
   xmlns:svg="http://www.w3.org/2000/svg"
   xmlns="http://www.w3.org/2000/svg"
   xmlns:xlink="http://www.w3.org/1999/xlink"
   xmlns:sodipodi="http://sodipodi.sourceforge.net/DTD/sodipodi-0.dtd"
   xmlns:inkscape="http://www.inkscape.org/namespaces/inkscape"
   height="1440pt"
   version="1.1"
   viewBox="0 0 1440 1440"
   width="1440pt"
   id="svg2"
   inkscape:version="0.91 r13725"
   sodipodi:docname="avg_M_FT.svg">
  <metadata
     id="metadata610">
    <rdf:RDF>
      <cc:Work
         rdf:about="">
        <dc:format>image/svg+xml</dc:format>
        <dc:type
           rdf:resource="http://purl.org/dc/dcmitype/StillImage" />
        <dc:title></dc:title>
      </cc:Work>
    </rdf:RDF>
  </metadata>
  <sodipodi:namedview
     pagecolor="#ffffff"
     bordercolor="#666666"
     borderopacity="1"
     objecttolerance="10"
     gridtolerance="10"
     guidetolerance="10"
     inkscape:pageopacity="0"
     inkscape:pageshadow="2"
     inkscape:window-width="1855"
     inkscape:window-height="1176"
     id="namedview608"
     showgrid="false"
     inkscape:zoom="0.84"
     inkscape:cx="900"
     inkscape:cy="900"
     inkscape:window-x="65"
     inkscape:window-y="24"
     inkscape:window-maximized="1"
     inkscape:current-layer="svg2" />
  <defs
     id="defs4">
    <style
       type="text/css"
       id="style6">
*{stroke-linecap:butt;stroke-linejoin:round;stroke-miterlimit:100000;}
  </style>
  </defs>
  <g
     id="figure_1">
    <g
       id="patch_1">
      <path
         d="M 0 1440  L 1440 1440  L 1440 0  L 0 0  z "
         style="fill:#ffffff;"
         id="path10" />
    </g>
    <g
       id="axes_1">
      <g
         id="patch_2">
        <path
           d="M 180 1296  L 1296 1296  L 1296 144  L 180 144  z "
           style="fill:#ffffff;"
           id="path14" />
      </g>
      <g
         id="line2d_1">
        <path
           clip-path="url(#pc7fd279546)"
           d="M 180 145.294077  L 187.489933 147.677658  L 194.979866 150.385232  L 202.469799 149.968551  L 209.959732 148.43899  L 217.449664 147.471383  L 224.939597 147.668744  L 232.42953 149.308289  L 239.919463 151.684976  L 247.409396 153.642521  L 254.899329 154.822934  L 262.389262 155.209531  L 269.879195 154.789046  L 284.85906 152.744614  L 292.348993 152.080754  L 299.838926 152.040886  L 307.328859 152.881273  L 314.818792 155.487787  L 322.308725 161.413911  L 329.798658 171.053834  L 337.288591 181.948147  L 344.778523 190.623193  L 352.268456 194.102889  L 359.758389 191.107963  L 367.248322 187.308822  L 374.738255 193.28023  L 382.228188 217.74991  L 389.718121 266.835161  L 397.208054 334.758125  L 404.697987 404.667274  L 412.187919 464.095193  L 419.677852 509.951675  L 427.167785 544.125948  L 434.657718 569.706585  L 442.147651 589.540024  L 449.637584 605.876835  L 457.127517 620.348814  L 479.597315 661.437691  L 487.087248 675.620805  L 494.577181 690.199077  L 502.067114 705.129238  L 532.026846 765.830778  L 539.516779 780.203323  L 547.006711 793.734752  L 554.496644 806.174814  L 561.986577 817.306672  L 569.47651 826.953527  L 576.966443 834.981605  L 584.456376 841.302914  L 591.946309 845.878614  L 599.436242 848.721548  L 606.926174 849.895695  L 614.416107 849.511167  L 621.90604 847.714998  L 629.395973 844.679281  L 636.885906 840.58879  L 644.375839 835.629928  L 651.865772 829.982125  L 659.355705 823.812053  L 666.845638 817.270403  L 681.825503 803.589333  L 696.805369 789.808205  L 704.295302 783.085709  L 711.785235 776.558666  L 719.275168 770.275215  L 726.765101 764.273134  L 734.255034 758.580738  L 741.744966 753.21778  L 749.234899 748.196396  L 756.724832 743.522133  L 764.214765 739.195058  L 771.704698 735.21092  L 779.194631 731.562287  L 786.684564 728.239558  L 794.174497 725.23172  L 801.66443 722.526695  L 809.154362 720.111195  L 816.644295 717.970023  L 824.134228 716.08493  L 831.624161 714.433214  L 839.114094 712.986458  L 846.604027 711.70984  L 861.583893 709.499041  L 884.053691 706.364924  L 899.033557 704.008627  L 928.993289 698.974563  L 936.483221 697.973889  L 943.973154 697.242002  L 951.463087 696.868255  L 958.95302 696.935079  L 966.442953 697.511805  L 973.932886 698.649737  L 981.422819 700.378865  L 988.912752 702.706433  L 996.402685 705.617287  L 1003.892617 709.075757  L 1011.38255 713.028676  L 1018.872483 717.409087  L 1026.362416 722.140223  L 1033.852349 727.13941  L 1048.832215 737.602685  L 1063.812081 748.142969  L 1071.302013 753.257944  L 1078.791946 758.185672  L 1086.281879 762.87364  L 1093.771812 767.277909  L 1101.261745 771.363001  L 1108.751678 775.101548  L 1116.241611 778.473772  L 1123.731544 781.466846  L 1131.221477 784.074206  L 1138.711409 786.294839  L 1146.201342 788.132597  L 1153.691275 789.595555  L 1161.181208 790.69544  L 1168.671141 791.447128  L 1176.161074 791.868221  L 1183.651007 791.978694  L 1191.14094 791.800598  L 1198.630872 791.357811  L 1206.120805 790.675824  L 1213.610738 789.781532  L 1221.100671 788.703033  L 1228.590604 787.469412  L 1243.57047 784.65662  L 1288.510067 775.618301  L 1296 774.321524  L 1303.489933 773.150147  L 1310.979866 772.123736  L 1318.469799 771.259117  L 1325.959732 770.570219  L 1333.449664 770.067998  L 1340.939597 769.760436  L 1348.42953 769.652626  L 1355.919463 769.746933  L 1363.409396 770.043226  L 1370.899329 770.539175  L 1378.389262 771.230598  L 1385.879195 772.111838  L 1393.369128 773.176168  L 1400.85906 774.416184  L 1408.348993 775.824199  L 1415.838926 777.392602  L 1423.328859 779.114186  L 1430.818792 780.98242  L 1441 783.762695  L 1441 783.762695  "
           style="fill:none;stroke:#ff7f50;stroke-linecap:square;stroke-width:5.0;"
           id="path17" />
      </g>
      <g
         id="line2d_2">
        <path
           clip-path="url(#pc7fd279546)"
           d="M 180 145.870182  L 187.489933 148.51549  L 194.979866 149.233104  L 202.469799 149.08654  L 209.959732 149.321066  L 217.449664 149.276494  L 224.939597 149.54568  L 232.42953 150.947789  L 247.409396 155.191295  L 254.899329 157.073002  L 262.389262 158.619623  L 284.85906 162.331104  L 292.348993 163.932752  L 299.838926 166.41283  L 307.328859 170.436953  L 314.818792 176.212087  L 322.308725 182.663856  L 329.798658 187.39163  L 337.288591 188.435152  L 344.778523 186.014038  L 352.268456 183.44092  L 359.758389 189.918369  L 367.248322 215.987004  L 374.738255 261.211551  L 389.718121 369.329052  L 397.208054 417.649492  L 404.697987 456.575635  L 412.187919 485.411721  L 419.677852 505.983879  L 427.167785 520.720214  L 434.657718 531.697975  L 442.147651 540.517616  L 464.61745 564.13103  L 472.107383 572.823783  L 479.597315 582.228887  L 487.087248 592.322886  L 494.577181 603.029527  L 502.067114 614.250731  L 509.557047 625.871417  L 532.026846 661.490926  L 539.516779 672.886246  L 547.006711 683.635836  L 554.496644 693.51801  L 561.986577 702.349268  L 569.47651 709.989302  L 576.966443 716.340412  L 584.456376 721.345289  L 591.946309 724.985362  L 599.436242 727.279822  L 606.926174 728.284087  L 614.416107 728.086363  L 621.90604 726.801658  L 629.395973 724.563675  L 636.885906 721.515785  L 644.375839 717.802504  L 651.865772 713.562606  L 659.355705 708.924405  L 666.845638 704.003192  L 681.825503 693.703922  L 696.805369 683.319717  L 704.295302 678.249344  L 711.785235 673.321993  L 719.275168 668.572978  L 726.765101 664.029489  L 734.255034 659.71113  L 741.744966 655.630479  L 749.234899 651.793729  L 756.724832 648.201455  L 764.214765 644.849514  L 771.704698 641.730078  L 779.194631 638.832742  L 786.684564 636.145615  L 794.174497 633.656289  L 801.66443 631.352538  L 809.154362 629.222619  L 816.644295 627.255104  L 824.134228 625.438236  L 831.624161 623.758937  L 846.604027 620.748143  L 861.583893 618.062905  L 899.033557 611.757926  L 914.013423 609.470311  L 921.503356 608.541282  L 928.993289 607.857076  L 936.483221 607.505125  L 943.973154 607.574541  L 951.463087 608.149358  L 958.95302 609.30205  L 966.442953 611.087987  L 973.932886 613.541391  L 981.422819 616.673101  L 988.912752 620.470204  L 996.402685 624.897398  L 1003.892617 629.899718  L 1011.38255 635.40621  L 1018.872483 641.334069  L 1026.362416 647.592857  L 1041.342282 660.726558  L 1056.322148 674.069197  L 1063.812081 680.607685  L 1071.302013 686.959585  L 1078.791946 693.062246  L 1086.281879 698.862224  L 1093.771812 704.315287  L 1101.261745 709.386154  L 1108.751678 714.04802  L 1116.241611 718.281931  L 1123.731544 722.076071  L 1131.221477 725.425005  L 1138.711409 728.328925  L 1146.201342 730.792929  L 1153.691275 732.826353  L 1161.181208 734.442186  L 1168.671141 735.65656  L 1176.161074 736.488323  L 1183.651007 736.958693  L 1191.14094 737.090961  L 1198.630872 736.910259  L 1206.120805 736.443349  L 1213.610738 735.718427  L 1221.100671 734.764934  L 1228.590604 733.613347  L 1236.080537 732.294952  L 1251.060403 729.285375  L 1296 719.536979  L 1303.489933 718.11218  L 1310.979866 716.810511  L 1318.469799 715.65138  L 1325.959732 714.651398  L 1333.449664 713.824278  L 1340.939597 713.180817  L 1348.42953 712.728944  L 1355.919463 712.473853  L 1363.409396 712.4182  L 1370.899329 712.56236  L 1378.389262 712.90474  L 1385.879195 713.442128  L 1393.369128 714.170062  L 1400.85906 715.083213  L 1408.348993 716.17576  L 1415.838926 717.441748  L 1423.328859 718.875413  L 1430.818792 720.471473  L 1441 722.910984  L 1441 722.910984  "
           style="fill:none;stroke:#008000;stroke-dasharray:3.000000,5.000000,1.000000,5.000000;stroke-dashoffset:0.0;stroke-width:5.0;"
           id="path20" />
      </g>
      <g
         id="line2d_3">
        <path
           clip-path="url(#pc7fd279546)"
           d="M 180 145.909715  L 187.489933 147.457722  L 194.979866 147.074216  L 202.469799 147.457234  L 209.959732 148.796416  L 224.939597 150.664067  L 232.42953 152.434889  L 239.919463 154.830779  L 247.409396 157.817922  L 254.899329 161.040163  L 262.389262 163.774442  L 269.879195 166.252457  L 277.369128 169.464931  L 292.348993 177.805121  L 307.328859 185.307356  L 314.818792 189.53717  L 322.308725 193.218606  L 329.798658 193.852806  L 337.288591 189.348001  L 344.778523 180.379096  L 352.268456 174.54265  L 359.758389 187.881546  L 367.248322 227.531078  L 382.228188 335.369734  L 389.718121 382.985978  L 397.208054 422.40809  L 404.697987 453.929904  L 412.187919 478.228603  L 419.677852 496.01728  L 427.167785 508.286858  L 434.657718 516.394645  L 442.147651 521.86753  L 457.127517 530.257909  L 464.61745 534.992945  L 472.107383 540.6663  L 479.597315 547.318493  L 487.087248 554.7865  L 494.577181 562.797229  L 509.557047 579.235431  L 517.04698 587.137072  L 524.536913 594.578346  L 532.026846 601.459892  L 539.516779 607.746902  L 547.006711 613.458735  L 554.496644 618.656902  L 561.986577 623.432825  L 569.47651 627.895595  L 584.456376 636.333688  L 599.436242 644.757558  L 606.926174 649.121543  L 614.416107 653.621679  L 629.395973 663.010579  L 651.865772 677.655634  L 666.845638 687.340701  L 674.33557 692.041565  L 681.825503 696.603727  L 689.315436 701.000731  L 696.805369 705.211826  L 704.295302 709.221634  L 711.785235 713.019479  L 719.275168 716.598493  L 726.765101 719.954653  L 734.255034 723.085829  L 741.744966 725.99094  L 749.234899 728.669259  L 756.724832 731.119947  L 764.214765 733.341847  L 771.704698 735.333636  L 779.194631 737.094377  L 786.684564 738.624542  L 794.174497 739.927528  L 801.66443 741.011597  L 809.154362 741.892106  L 816.644295 742.593764  L 831.624161 743.61677  L 846.604027 744.514593  L 854.09396 745.097823  L 861.583893 745.877719  L 869.073826 746.932199  L 876.563758 748.330533  L 884.053691 750.128629  L 891.543624 752.365905  L 899.033557 755.064092  L 906.52349 758.227886  L 914.013423 761.84704  L 921.503356 765.899239  L 928.993289 770.35314  L 936.483221 775.171056  L 943.973154 780.310992  L 951.463087 785.727969  L 958.95302 791.374745  L 973.932886 803.159302  L 1003.892617 827.222073  L 1011.38255 833.026761  L 1018.872483 838.64208  L 1026.362416 844.019588  L 1033.852349 849.114684  L 1041.342282 853.887458  L 1048.832215 858.303383  L 1056.322148 862.333806  L 1063.812081 865.956212  L 1071.302013 869.154255  L 1078.791946 871.917574  L 1086.281879 874.241432  L 1093.771812 876.126227  L 1101.261745 877.57693  L 1108.751678 878.602494  L 1116.241611 879.215271  L 1123.731544 879.430459  L 1131.221477 879.2656  L 1138.711409 878.740129  L 1146.201342 877.874977  L 1153.691275 876.692239  L 1161.181208 875.214896  L 1168.671141 873.466595  L 1176.161074 871.471489  L 1183.651007 869.254121  L 1191.14094 866.839354  L 1198.630872 864.252331  L 1206.120805 861.518465  L 1221.100671 855.713114  L 1243.57047 846.552327  L 1258.550336 840.448634  L 1273.530201 834.585337  L 1281.020134 831.803114  L 1288.510067 829.149093  L 1296 826.642145  L 1303.489933 824.298636  L 1310.979866 822.13211  L 1318.469799 820.153029  L 1325.959732 818.368591  L 1333.449664 816.78265  L 1340.939597 815.395731  L 1348.42953 814.205138  L 1355.919463 813.205164  L 1363.409396 812.387372  L 1370.899329 811.74095  L 1378.389262 811.253109  L 1385.879195 810.909511  L 1393.369128 810.694707  L 1408.348993 810.586761  L 1423.328859 810.799616  L 1441 811.299755  L 1441 811.299755  "
           style="fill:none;stroke:#0000ff;stroke-dasharray:6.000000,6.000000;stroke-dashoffset:0.0;stroke-width:5.0;"
           id="path23" />
      </g>
      <g
         id="line2d_4">
        <path
           clip-path="url(#pc7fd279546)"
           d="M 180 145.608986  L 187.489933 147.739918  L 194.979866 149.462682  L 202.469799 149.152341  L 209.959732 149.497158  L 217.449664 151.842204  L 224.939597 155.99502  L 239.919463 166.026567  L 247.409396 169.492523  L 254.899329 170.539712  L 262.389262 169.200106  L 269.879195 167.308958  L 277.369128 168.138889  L 284.85906 173.715876  L 292.348993 182.619188  L 299.838926 191.873614  L 307.328859 199.823478  L 314.818792 205.865859  L 322.308725 209.025078  L 329.798658 208.19651  L 337.288591 203.89469  L 344.778523 199.741882  L 352.268456 203.077226  L 359.758389 220.647211  L 367.248322 250.062138  L 374.738255 282.947333  L 382.228188 313.91435  L 389.718121 341.044912  L 397.208054 363.199904  L 404.697987 379.305644  L 412.187919 388.806857  L 419.677852 391.956692  L 427.167785 389.86137  L 434.657718 384.304498  L 442.147651 377.391893  L 449.637584 371.16167  L 457.127517 367.271308  L 464.61745 366.79216  L 472.107383 370.124181  L 479.597315 377.052098  L 487.087248 386.928605  L 494.577181 398.911679  L 502.067114 412.167789  L 517.04698 439.848853  L 524.536913 453.357673  L 532.026846 466.262879  L 539.516779 478.401148  L 547.006711 489.67968  L 554.496644 500.062578  L 561.986577 509.560225  L 569.47651 518.217403  L 576.966443 526.099528  L 584.456376 533.279118  L 591.946309 539.825236  L 599.436242 545.797421  L 606.926174 551.243988  L 614.416107 556.20337  L 621.90604 560.706832  L 629.395973 564.78125  L 636.885906 568.451294  L 644.375839 571.740895  L 651.865772 574.674164  L 659.355705 577.276  L 666.845638 579.57253  L 674.33557 581.591453  L 681.825503 583.362287  L 689.315436 584.916516  L 696.805369 586.287602  L 711.785235 588.62324  L 749.234899 593.859739  L 756.724832 595.097711  L 764.214765 596.471169  L 771.704698 598.000722  L 779.194631 599.699927  L 786.684564 601.57487  L 794.174497 603.62449  L 801.66443 605.841822  L 809.154362 608.216251  L 816.644295 610.736657  L 824.134228 613.395112  L 831.624161 616.19056  L 839.114094 619.131699  L 846.604027 622.238324  L 854.09396 625.540575  L 861.583893 629.075961  L 869.073826 632.884573  L 876.563758 637.00337  L 884.053691 641.460673  L 891.543624 646.271943  L 899.033557 651.437545  L 906.52349 656.942736  L 914.013423 662.759563  L 921.503356 668.850048  L 928.993289 675.169889  L 943.973154 688.30901  L 988.912752 728.569583  L 996.402685 734.983204  L 1003.892617 741.206084  L 1011.38255 747.196005  L 1018.872483 752.910039  L 1026.362416 758.305543  L 1033.852349 763.34147  L 1041.342282 767.979826  L 1048.832215 772.187098  L 1056.322148 775.93547  L 1063.812081 779.203688  L 1071.302013 781.977492  L 1078.791946 784.249608  L 1086.281879 786.019355  L 1093.771812 787.291979  L 1101.261745 788.077824  L 1108.751678 788.391466  L 1116.241611 788.250893  L 1123.731544 787.676779  L 1131.221477 786.691884  L 1138.711409 785.320576  L 1146.201342 783.588465  L 1153.691275 781.522129  L 1161.181208 779.148915  L 1168.671141 776.496784  L 1176.161074 773.594206  L 1183.651007 770.470061  L 1191.14094 767.153566  L 1198.630872 763.674188  L 1213.610738 756.345419  L 1236.080537 744.871992  L 1251.060403 737.243534  L 1266.040268 729.892591  L 1273.530201 726.386376  L 1281.020134 723.024976  L 1288.510067 719.830152  L 1296 716.821563  L 1303.489933 714.016504  L 1310.979866 711.429679  L 1318.469799 709.073013  L 1325.959732 706.955511  L 1333.449664 705.083165  L 1340.939597 703.45892  L 1348.42953 702.082692  L 1355.919463 700.951431  L 1363.409396 700.059238  L 1370.899329 699.397521  L 1378.389262 698.955194  L 1385.879195 698.718912  L 1393.369128 698.67335  L 1400.85906 698.801518  L 1408.348993 699.085106  L 1415.838926 699.504873  L 1430.818792 700.673712  L 1441 701.659095  L 1441 701.659095  "
           style="fill:none;stroke:#00bfbf;stroke-dasharray:1.000000,3.000000;stroke-dashoffset:0.0;stroke-width:5.0;"
           id="path26" />
      </g>
      <g
         id="line2d_5">
        <path
           clip-path="url(#pc7fd279546)"
           d="M 180 298.338735  L 1441 298.338735  L 1441 298.338735  "
           style="fill:none;stroke:#000000;stroke-dasharray:6.000000,6.000000;stroke-dashoffset:0.0;stroke-width:3.0;"
           id="path29" />
      </g>
      <g
         id="patch_3">
        <path
           d="M 180 144  L 1296 144  "
           style="fill:none;stroke:#000000;stroke-linecap:square;stroke-linejoin:miter;"
           id="path32" />
      </g>
      <g
         id="patch_4">
        <path
           d="M 1296 1296  L 1296 144  "
           style="fill:none;stroke:#000000;stroke-linecap:square;stroke-linejoin:miter;"
           id="path35" />
      </g>
      <g
         id="patch_5">
        <path
           d="M 180 1296  L 1296 1296  "
           style="fill:none;stroke:#000000;stroke-linecap:square;stroke-linejoin:miter;"
           id="path38" />
      </g>
      <g
         id="patch_6">
        <path
           d="M 180 1296  L 180 144  "
           style="fill:none;stroke:#000000;stroke-linecap:square;stroke-linejoin:miter;"
           id="path41" />
      </g>
      <g
         id="matplotlib.axis_1">
        <g
           id="xtick_1">
          <g
             id="line2d_6">
            <defs
               id="defs46">
              <path
                 d="M 0 0  L 0 -4  "
                 id="ma7cc8ecf63"
                 style="stroke:#000000;stroke-width:0.5;" />
            </defs>
            <g
               id="g49">
              <use
                 style="stroke:#000000;stroke-width:0.5;"
                 x="322.308724832"
                 xlink:href="#ma7cc8ecf63"
                 y="1296.0"
                 id="use51" />
            </g>
          </g>
          <g
             id="line2d_7">
            <defs
               id="defs54">
              <path
                 d="M 0 0  L 0 4  "
                 id="mce1a8a1ff4"
                 style="stroke:#000000;stroke-width:0.5;" />
            </defs>
            <g
               id="g57">
              <use
                 style="stroke:#000000;stroke-width:0.5;"
                 x="322.308724832"
                 xlink:href="#mce1a8a1ff4"
                 y="144.0"
                 id="use59" />
            </g>
          </g>
          <g
             id="text_1">
            <!-- 20 -->
            <defs
               id="defs62">
              <path
                 d="M 19.1875 8.296875  L 53.609375 8.296875  L 53.609375 0  L 7.328125 0  L 7.328125 8.296875  Q 12.9375 14.109375 22.625 23.890625  Q 32.328125 33.6875 34.8125 36.53125  Q 39.546875 41.84375 41.421875 45.53125  Q 43.3125 49.21875 43.3125 52.78125  Q 43.3125 58.59375 39.234375 62.25  Q 35.15625 65.921875 28.609375 65.921875  Q 23.96875 65.921875 18.8125 64.3125  Q 13.671875 62.703125 7.8125 59.421875  L 7.8125 69.390625  Q 13.765625 71.78125 18.9375 73  Q 24.125 74.21875 28.421875 74.21875  Q 39.75 74.21875 46.484375 68.546875  Q 53.21875 62.890625 53.21875 53.421875  Q 53.21875 48.921875 51.53125 44.890625  Q 49.859375 40.875 45.40625 35.40625  Q 44.1875 33.984375 37.640625 27.21875  Q 31.109375 20.453125 19.1875 8.296875  "
                 id="BitstreamVeraSans-Roman-32" />
              <path
                 d="M 31.78125 66.40625  Q 24.171875 66.40625 20.328125 58.90625  Q 16.5 51.421875 16.5 36.375  Q 16.5 21.390625 20.328125 13.890625  Q 24.171875 6.390625 31.78125 6.390625  Q 39.453125 6.390625 43.28125 13.890625  Q 47.125 21.390625 47.125 36.375  Q 47.125 51.421875 43.28125 58.90625  Q 39.453125 66.40625 31.78125 66.40625  M 31.78125 74.21875  Q 44.046875 74.21875 50.515625 64.515625  Q 56.984375 54.828125 56.984375 36.375  Q 56.984375 17.96875 50.515625 8.265625  Q 44.046875 -1.421875 31.78125 -1.421875  Q 19.53125 -1.421875 13.0625 8.265625  Q 6.59375 17.96875 6.59375 36.375  Q 6.59375 54.828125 13.0625 64.515625  Q 19.53125 74.21875 31.78125 74.21875  "
                 id="BitstreamVeraSans-Roman-30" />
            </defs>
            <g
               transform="translate(303.221224832 1322.7953125)scale(0.3 -0.3)"
               id="g66">
              <use
                 xlink:href="#BitstreamVeraSans-Roman-32"
                 id="use68" />
              <use
                 x="63.623046875"
                 xlink:href="#BitstreamVeraSans-Roman-30"
                 id="use70" />
            </g>
          </g>
        </g>
        <g
           id="xtick_2">
          <g
             id="line2d_8">
            <g
               id="g74">
              <use
                 style="stroke:#000000;stroke-width:0.5;"
                 x="472.10738255"
                 xlink:href="#ma7cc8ecf63"
                 y="1296.0"
                 id="use76" />
            </g>
          </g>
          <g
             id="line2d_9">
            <g
               id="g79">
              <use
                 style="stroke:#000000;stroke-width:0.5;"
                 x="472.10738255"
                 xlink:href="#mce1a8a1ff4"
                 y="144.0"
                 id="use81" />
            </g>
          </g>
          <g
             id="text_2">
            <!-- 40 -->
            <defs
               id="defs84">
              <path
                 d="M 37.796875 64.3125  L 12.890625 25.390625  L 37.796875 25.390625  z M 35.203125 72.90625  L 47.609375 72.90625  L 47.609375 25.390625  L 58.015625 25.390625  L 58.015625 17.1875  L 47.609375 17.1875  L 47.609375 0  L 37.796875 0  L 37.796875 17.1875  L 4.890625 17.1875  L 4.890625 26.703125  z "
                 id="BitstreamVeraSans-Roman-34" />
            </defs>
            <g
               transform="translate(453.01988255 1322.7953125)scale(0.3 -0.3)"
               id="g87">
              <use
                 xlink:href="#BitstreamVeraSans-Roman-34"
                 id="use89" />
              <use
                 x="63.623046875"
                 xlink:href="#BitstreamVeraSans-Roman-30"
                 id="use91" />
            </g>
          </g>
        </g>
        <g
           id="xtick_3">
          <g
             id="line2d_10">
            <g
               id="g95">
              <use
                 style="stroke:#000000;stroke-width:0.5;"
                 x="621.906040268"
                 xlink:href="#ma7cc8ecf63"
                 y="1296.0"
                 id="use97" />
            </g>
          </g>
          <g
             id="line2d_11">
            <g
               id="g100">
              <use
                 style="stroke:#000000;stroke-width:0.5;"
                 x="621.906040268"
                 xlink:href="#mce1a8a1ff4"
                 y="144.0"
                 id="use102" />
            </g>
          </g>
          <g
             id="text_3">
            <!-- 60 -->
            <defs
               id="defs105">
              <path
                 d="M 33.015625 40.375  Q 26.375 40.375 22.484375 35.828125  Q 18.609375 31.296875 18.609375 23.390625  Q 18.609375 15.53125 22.484375 10.953125  Q 26.375 6.390625 33.015625 6.390625  Q 39.65625 6.390625 43.53125 10.953125  Q 47.40625 15.53125 47.40625 23.390625  Q 47.40625 31.296875 43.53125 35.828125  Q 39.65625 40.375 33.015625 40.375  M 52.59375 71.296875  L 52.59375 62.3125  Q 48.875 64.0625 45.09375 64.984375  Q 41.3125 65.921875 37.59375 65.921875  Q 27.828125 65.921875 22.671875 59.328125  Q 17.53125 52.734375 16.796875 39.40625  Q 19.671875 43.65625 24.015625 45.921875  Q 28.375 48.1875 33.59375 48.1875  Q 44.578125 48.1875 50.953125 41.515625  Q 57.328125 34.859375 57.328125 23.390625  Q 57.328125 12.15625 50.6875 5.359375  Q 44.046875 -1.421875 33.015625 -1.421875  Q 20.359375 -1.421875 13.671875 8.265625  Q 6.984375 17.96875 6.984375 36.375  Q 6.984375 53.65625 15.1875 63.9375  Q 23.390625 74.21875 37.203125 74.21875  Q 40.921875 74.21875 44.703125 73.484375  Q 48.484375 72.75 52.59375 71.296875  "
                 id="BitstreamVeraSans-Roman-36" />
            </defs>
            <g
               transform="translate(602.818540268 1322.7953125)scale(0.3 -0.3)"
               id="g108">
              <use
                 xlink:href="#BitstreamVeraSans-Roman-36"
                 id="use110" />
              <use
                 x="63.623046875"
                 xlink:href="#BitstreamVeraSans-Roman-30"
                 id="use112" />
            </g>
          </g>
        </g>
        <g
           id="xtick_4">
          <g
             id="line2d_12">
            <g
               id="g116">
              <use
                 style="stroke:#000000;stroke-width:0.5;"
                 x="771.704697987"
                 xlink:href="#ma7cc8ecf63"
                 y="1296.0"
                 id="use118" />
            </g>
          </g>
          <g
             id="line2d_13">
            <g
               id="g121">
              <use
                 style="stroke:#000000;stroke-width:0.5;"
                 x="771.704697987"
                 xlink:href="#mce1a8a1ff4"
                 y="144.0"
                 id="use123" />
            </g>
          </g>
          <g
             id="text_4">
            <!-- 80 -->
            <defs
               id="defs126">
              <path
                 d="M 31.78125 34.625  Q 24.75 34.625 20.71875 30.859375  Q 16.703125 27.09375 16.703125 20.515625  Q 16.703125 13.921875 20.71875 10.15625  Q 24.75 6.390625 31.78125 6.390625  Q 38.8125 6.390625 42.859375 10.171875  Q 46.921875 13.96875 46.921875 20.515625  Q 46.921875 27.09375 42.890625 30.859375  Q 38.875 34.625 31.78125 34.625  M 21.921875 38.8125  Q 15.578125 40.375 12.03125 44.71875  Q 8.5 49.078125 8.5 55.328125  Q 8.5 64.0625 14.71875 69.140625  Q 20.953125 74.21875 31.78125 74.21875  Q 42.671875 74.21875 48.875 69.140625  Q 55.078125 64.0625 55.078125 55.328125  Q 55.078125 49.078125 51.53125 44.71875  Q 48 40.375 41.703125 38.8125  Q 48.828125 37.15625 52.796875 32.3125  Q 56.78125 27.484375 56.78125 20.515625  Q 56.78125 9.90625 50.3125 4.234375  Q 43.84375 -1.421875 31.78125 -1.421875  Q 19.734375 -1.421875 13.25 4.234375  Q 6.78125 9.90625 6.78125 20.515625  Q 6.78125 27.484375 10.78125 32.3125  Q 14.796875 37.15625 21.921875 38.8125  M 18.3125 54.390625  Q 18.3125 48.734375 21.84375 45.5625  Q 25.390625 42.390625 31.78125 42.390625  Q 38.140625 42.390625 41.71875 45.5625  Q 45.3125 48.734375 45.3125 54.390625  Q 45.3125 60.0625 41.71875 63.234375  Q 38.140625 66.40625 31.78125 66.40625  Q 25.390625 66.40625 21.84375 63.234375  Q 18.3125 60.0625 18.3125 54.390625  "
                 id="BitstreamVeraSans-Roman-38" />
            </defs>
            <g
               transform="translate(752.617197987 1322.7953125)scale(0.3 -0.3)"
               id="g129">
              <use
                 xlink:href="#BitstreamVeraSans-Roman-38"
                 id="use131" />
              <use
                 x="63.623046875"
                 xlink:href="#BitstreamVeraSans-Roman-30"
                 id="use133" />
            </g>
          </g>
        </g>
        <g
           id="xtick_5">
          <g
             id="line2d_14">
            <g
               id="g137">
              <use
                 style="stroke:#000000;stroke-width:0.5;"
                 x="921.503355705"
                 xlink:href="#ma7cc8ecf63"
                 y="1296.0"
                 id="use139" />
            </g>
          </g>
          <g
             id="line2d_15">
            <g
               id="g142">
              <use
                 style="stroke:#000000;stroke-width:0.5;"
                 x="921.503355705"
                 xlink:href="#mce1a8a1ff4"
                 y="144.0"
                 id="use144" />
            </g>
          </g>
          <g
             id="text_5">
            <!-- 100 -->
            <defs
               id="defs147">
              <path
                 d="M 12.40625 8.296875  L 28.515625 8.296875  L 28.515625 63.921875  L 10.984375 60.40625  L 10.984375 69.390625  L 28.421875 72.90625  L 38.28125 72.90625  L 38.28125 8.296875  L 54.390625 8.296875  L 54.390625 0  L 12.40625 0  z "
                 id="BitstreamVeraSans-Roman-31" />
            </defs>
            <g
               transform="translate(892.872105705 1322.7953125)scale(0.3 -0.3)"
               id="g150">
              <use
                 xlink:href="#BitstreamVeraSans-Roman-31"
                 id="use152" />
              <use
                 x="63.623046875"
                 xlink:href="#BitstreamVeraSans-Roman-30"
                 id="use154" />
              <use
                 x="127.24609375"
                 xlink:href="#BitstreamVeraSans-Roman-30"
                 id="use156" />
            </g>
          </g>
        </g>
        <g
           id="xtick_6">
          <g
             id="line2d_16">
            <g
               id="g160">
              <use
                 style="stroke:#000000;stroke-width:0.5;"
                 x="1071.30201342"
                 xlink:href="#ma7cc8ecf63"
                 y="1296.0"
                 id="use162" />
            </g>
          </g>
          <g
             id="line2d_17">
            <g
               id="g165">
              <use
                 style="stroke:#000000;stroke-width:0.5;"
                 x="1071.30201342"
                 xlink:href="#mce1a8a1ff4"
                 y="144.0"
                 id="use167" />
            </g>
          </g>
          <g
             id="text_6">
            <!-- 120 -->
            <g
               transform="translate(1042.67076342 1322.7953125)scale(0.3 -0.3)"
               id="g170">
              <use
                 xlink:href="#BitstreamVeraSans-Roman-31"
                 id="use172" />
              <use
                 x="63.623046875"
                 xlink:href="#BitstreamVeraSans-Roman-32"
                 id="use174" />
              <use
                 x="127.24609375"
                 xlink:href="#BitstreamVeraSans-Roman-30"
                 id="use176" />
            </g>
          </g>
        </g>
        <g
           id="xtick_7">
          <g
             id="line2d_18">
            <g
               id="g180">
              <use
                 style="stroke:#000000;stroke-width:0.5;"
                 x="1221.10067114"
                 xlink:href="#ma7cc8ecf63"
                 y="1296.0"
                 id="use182" />
            </g>
          </g>
          <g
             id="line2d_19">
            <g
               id="g185">
              <use
                 style="stroke:#000000;stroke-width:0.5;"
                 x="1221.10067114"
                 xlink:href="#mce1a8a1ff4"
                 y="144.0"
                 id="use187" />
            </g>
          </g>
          <g
             id="text_7">
            <!-- 140 -->
            <g
               transform="translate(1192.46942114 1322.7953125)scale(0.3 -0.3)"
               id="g190">
              <use
                 xlink:href="#BitstreamVeraSans-Roman-31"
                 id="use192" />
              <use
                 x="63.623046875"
                 xlink:href="#BitstreamVeraSans-Roman-34"
                 id="use194" />
              <use
                 x="127.24609375"
                 xlink:href="#BitstreamVeraSans-Roman-30"
                 id="use196" />
            </g>
          </g>
        </g>
        <g
           id="text_8">
          <!-- Input power -->
          <defs
             id="defs199">
            <path
               id="BitstreamVeraSans-Roman-20" />
            <path
               d="M 54.890625 33.015625  L 54.890625 0  L 45.90625 0  L 45.90625 32.71875  Q 45.90625 40.484375 42.875 44.328125  Q 39.84375 48.1875 33.796875 48.1875  Q 26.515625 48.1875 22.3125 43.546875  Q 18.109375 38.921875 18.109375 30.90625  L 18.109375 0  L 9.078125 0  L 9.078125 54.6875  L 18.109375 54.6875  L 18.109375 46.1875  Q 21.34375 51.125 25.703125 53.5625  Q 30.078125 56 35.796875 56  Q 45.21875 56 50.046875 50.171875  Q 54.890625 44.34375 54.890625 33.015625  "
               id="BitstreamVeraSans-Roman-6e" />
            <path
               d="M 30.609375 48.390625  Q 23.390625 48.390625 19.1875 42.75  Q 14.984375 37.109375 14.984375 27.296875  Q 14.984375 17.484375 19.15625 11.84375  Q 23.34375 6.203125 30.609375 6.203125  Q 37.796875 6.203125 41.984375 11.859375  Q 46.1875 17.53125 46.1875 27.296875  Q 46.1875 37.015625 41.984375 42.703125  Q 37.796875 48.390625 30.609375 48.390625  M 30.609375 56  Q 42.328125 56 49.015625 48.375  Q 55.71875 40.765625 55.71875 27.296875  Q 55.71875 13.875 49.015625 6.21875  Q 42.328125 -1.421875 30.609375 -1.421875  Q 18.84375 -1.421875 12.171875 6.21875  Q 5.515625 13.875 5.515625 27.296875  Q 5.515625 40.765625 12.171875 48.375  Q 18.84375 56 30.609375 56  "
               id="BitstreamVeraSans-Roman-6f" />
            <path
               d="M 9.8125 72.90625  L 19.671875 72.90625  L 19.671875 0  L 9.8125 0  z "
               id="BitstreamVeraSans-Roman-49" />
            <path
               d="M 56.203125 29.59375  L 56.203125 25.203125  L 14.890625 25.203125  Q 15.484375 15.921875 20.484375 11.0625  Q 25.484375 6.203125 34.421875 6.203125  Q 39.59375 6.203125 44.453125 7.46875  Q 49.3125 8.734375 54.109375 11.28125  L 54.109375 2.78125  Q 49.265625 0.734375 44.1875 -0.34375  Q 39.109375 -1.421875 33.890625 -1.421875  Q 20.796875 -1.421875 13.15625 6.1875  Q 5.515625 13.8125 5.515625 26.8125  Q 5.515625 40.234375 12.765625 48.109375  Q 20.015625 56 32.328125 56  Q 43.359375 56 49.78125 48.890625  Q 56.203125 41.796875 56.203125 29.59375  M 47.21875 32.234375  Q 47.125 39.59375 43.09375 43.984375  Q 39.0625 48.390625 32.421875 48.390625  Q 24.90625 48.390625 20.390625 44.140625  Q 15.875 39.890625 15.1875 32.171875  z "
               id="BitstreamVeraSans-Roman-65" />
            <path
               d="M 4.203125 54.6875  L 13.1875 54.6875  L 24.421875 12.015625  L 35.59375 54.6875  L 46.1875 54.6875  L 57.421875 12.015625  L 68.609375 54.6875  L 77.59375 54.6875  L 63.28125 0  L 52.6875 0  L 40.921875 44.828125  L 29.109375 0  L 18.5 0  z "
               id="BitstreamVeraSans-Roman-77" />
            <path
               d="M 18.3125 70.21875  L 18.3125 54.6875  L 36.8125 54.6875  L 36.8125 47.703125  L 18.3125 47.703125  L 18.3125 18.015625  Q 18.3125 11.328125 20.140625 9.421875  Q 21.96875 7.515625 27.59375 7.515625  L 36.8125 7.515625  L 36.8125 0  L 27.59375 0  Q 17.1875 0 13.234375 3.875  Q 9.28125 7.765625 9.28125 18.015625  L 9.28125 47.703125  L 2.6875 47.703125  L 2.6875 54.6875  L 9.28125 54.6875  L 9.28125 70.21875  z "
               id="BitstreamVeraSans-Roman-74" />
            <path
               d="M 8.5 21.578125  L 8.5 54.6875  L 17.484375 54.6875  L 17.484375 21.921875  Q 17.484375 14.15625 20.5 10.265625  Q 23.53125 6.390625 29.59375 6.390625  Q 36.859375 6.390625 41.078125 11.03125  Q 45.3125 15.671875 45.3125 23.6875  L 45.3125 54.6875  L 54.296875 54.6875  L 54.296875 0  L 45.3125 0  L 45.3125 8.40625  Q 42.046875 3.421875 37.71875 1  Q 33.40625 -1.421875 27.6875 -1.421875  Q 18.265625 -1.421875 13.375 4.4375  Q 8.5 10.296875 8.5 21.578125  "
               id="BitstreamVeraSans-Roman-75" />
            <path
               d="M 41.109375 46.296875  Q 39.59375 47.171875 37.8125 47.578125  Q 36.03125 48 33.890625 48  Q 26.265625 48 22.1875 43.046875  Q 18.109375 38.09375 18.109375 28.8125  L 18.109375 0  L 9.078125 0  L 9.078125 54.6875  L 18.109375 54.6875  L 18.109375 46.1875  Q 20.953125 51.171875 25.484375 53.578125  Q 30.03125 56 36.53125 56  Q 37.453125 56 38.578125 55.875  Q 39.703125 55.765625 41.0625 55.515625  z "
               id="BitstreamVeraSans-Roman-72" />
            <path
               d="M 18.109375 8.203125  L 18.109375 -20.796875  L 9.078125 -20.796875  L 9.078125 54.6875  L 18.109375 54.6875  L 18.109375 46.390625  Q 20.953125 51.265625 25.265625 53.625  Q 29.59375 56 35.59375 56  Q 45.5625 56 51.78125 48.09375  Q 58.015625 40.1875 58.015625 27.296875  Q 58.015625 14.40625 51.78125 6.484375  Q 45.5625 -1.421875 35.59375 -1.421875  Q 29.59375 -1.421875 25.265625 0.953125  Q 20.953125 3.328125 18.109375 8.203125  M 48.6875 27.296875  Q 48.6875 37.203125 44.609375 42.84375  Q 40.53125 48.484375 33.40625 48.484375  Q 26.265625 48.484375 22.1875 42.84375  Q 18.109375 37.203125 18.109375 27.296875  Q 18.109375 17.390625 22.1875 11.75  Q 26.265625 6.109375 33.40625 6.109375  Q 40.53125 6.109375 44.609375 11.75  Q 48.6875 17.390625 48.6875 27.296875  "
               id="BitstreamVeraSans-Roman-70" />
          </defs>
          <g
             transform="translate(630.03375 1361.38875)scale(0.36 -0.36)"
             id="g211">
            <use
               xlink:href="#BitstreamVeraSans-Roman-49"
               id="use213" />
            <use
               x="29.4921875"
               xlink:href="#BitstreamVeraSans-Roman-6e"
               id="use215" />
            <use
               x="92.87109375"
               xlink:href="#BitstreamVeraSans-Roman-70"
               id="use217" />
            <use
               x="156.34765625"
               xlink:href="#BitstreamVeraSans-Roman-75"
               id="use219" />
            <use
               x="219.7265625"
               xlink:href="#BitstreamVeraSans-Roman-74"
               id="use221" />
            <use
               x="258.935546875"
               xlink:href="#BitstreamVeraSans-Roman-20"
               id="use223" />
            <use
               x="290.72265625"
               xlink:href="#BitstreamVeraSans-Roman-70"
               id="use225" />
            <use
               x="354.19921875"
               xlink:href="#BitstreamVeraSans-Roman-6f"
               id="use227" />
            <use
               x="415.380859375"
               xlink:href="#BitstreamVeraSans-Roman-77"
               id="use229" />
            <use
               x="497.16796875"
               xlink:href="#BitstreamVeraSans-Roman-65"
               id="use231" />
            <use
               x="558.69140625"
               xlink:href="#BitstreamVeraSans-Roman-72"
               id="use233" />
          </g>
        </g>
      </g>
      <g
         id="matplotlib.axis_2">
        <g
           id="ytick_1">
          <g
             id="line2d_20">
            <defs
               id="defs238">
              <path
                 d="M 0 0  L 4 0  "
                 id="m0d3085ea07"
                 style="stroke:#000000;stroke-width:0.5;" />
            </defs>
            <g
               id="g241">
              <use
                 style="stroke:#000000;stroke-width:0.5;"
                 x="180.0"
                 xlink:href="#m0d3085ea07"
                 y="1296.0"
                 id="use243" />
            </g>
          </g>
          <g
             id="line2d_21">
            <defs
               id="defs246">
              <path
                 d="M 0 0  L -4 0  "
                 id="me85f049d96"
                 style="stroke:#000000;stroke-width:0.5;" />
            </defs>
            <g
               id="g249">
              <use
                 style="stroke:#000000;stroke-width:0.5;"
                 x="1296.0"
                 xlink:href="#me85f049d96"
                 y="1296.0"
                 id="use251" />
            </g>
          </g>
          <g
             id="text_9">
            <!-- 0.0 -->
            <defs
               id="defs254">
              <path
                 d="M 10.6875 12.40625  L 21 12.40625  L 21 0  L 10.6875 0  z "
                 id="BitstreamVeraSans-Roman-2e" />
            </defs>
            <g
               transform="translate(128.290625 1304.278125)scale(0.3 -0.3)"
               id="g257">
              <use
                 xlink:href="#BitstreamVeraSans-Roman-30"
                 id="use259" />
              <use
                 x="63.623046875"
                 xlink:href="#BitstreamVeraSans-Roman-2e"
                 id="use261" />
              <use
                 x="95.41015625"
                 xlink:href="#BitstreamVeraSans-Roman-30"
                 id="use263" />
            </g>
          </g>
        </g>
        <g
           id="ytick_2">
          <g
             id="line2d_22">
            <g
               id="g267">
              <use
                 style="stroke:#000000;stroke-width:0.5;"
                 x="180.0"
                 xlink:href="#m0d3085ea07"
                 y="1152.0"
                 id="use269" />
            </g>
          </g>
          <g
             id="line2d_23">
            <g
               id="g272">
              <use
                 style="stroke:#000000;stroke-width:0.5;"
                 x="1296.0"
                 xlink:href="#me85f049d96"
                 y="1152.0"
                 id="use274" />
            </g>
          </g>
          <g
             id="text_10">
            <!-- 0.5 -->
            <defs
               id="defs277">
              <path
                 d="M 10.796875 72.90625  L 49.515625 72.90625  L 49.515625 64.59375  L 19.828125 64.59375  L 19.828125 46.734375  Q 21.96875 47.46875 24.109375 47.828125  Q 26.265625 48.1875 28.421875 48.1875  Q 40.625 48.1875 47.75 41.5  Q 54.890625 34.8125 54.890625 23.390625  Q 54.890625 11.625 47.5625 5.09375  Q 40.234375 -1.421875 26.90625 -1.421875  Q 22.3125 -1.421875 17.546875 -0.640625  Q 12.796875 0.140625 7.71875 1.703125  L 7.71875 11.625  Q 12.109375 9.234375 16.796875 8.0625  Q 21.484375 6.890625 26.703125 6.890625  Q 35.15625 6.890625 40.078125 11.328125  Q 45.015625 15.765625 45.015625 23.390625  Q 45.015625 31 40.078125 35.4375  Q 35.15625 39.890625 26.703125 39.890625  Q 22.75 39.890625 18.8125 39.015625  Q 14.890625 38.140625 10.796875 36.28125  z "
                 id="BitstreamVeraSans-Roman-35" />
            </defs>
            <g
               transform="translate(128.290625 1160.278125)scale(0.3 -0.3)"
               id="g280">
              <use
                 xlink:href="#BitstreamVeraSans-Roman-30"
                 id="use282" />
              <use
                 x="63.623046875"
                 xlink:href="#BitstreamVeraSans-Roman-2e"
                 id="use284" />
              <use
                 x="95.41015625"
                 xlink:href="#BitstreamVeraSans-Roman-35"
                 id="use286" />
            </g>
          </g>
        </g>
        <g
           id="ytick_3">
          <g
             id="line2d_24">
            <g
               id="g290">
              <use
                 style="stroke:#000000;stroke-width:0.5;"
                 x="180.0"
                 xlink:href="#m0d3085ea07"
                 y="1008.0"
                 id="use292" />
            </g>
          </g>
          <g
             id="line2d_25">
            <g
               id="g295">
              <use
                 style="stroke:#000000;stroke-width:0.5;"
                 x="1296.0"
                 xlink:href="#me85f049d96"
                 y="1008.0"
                 id="use297" />
            </g>
          </g>
          <g
             id="text_11">
            <!-- 1.0 -->
            <g
               transform="translate(128.290625 1016.278125)scale(0.3 -0.3)"
               id="g300">
              <use
                 xlink:href="#BitstreamVeraSans-Roman-31"
                 id="use302" />
              <use
                 x="63.623046875"
                 xlink:href="#BitstreamVeraSans-Roman-2e"
                 id="use304" />
              <use
                 x="95.41015625"
                 xlink:href="#BitstreamVeraSans-Roman-30"
                 id="use306" />
            </g>
          </g>
        </g>
        <g
           id="ytick_4">
          <g
             id="line2d_26">
            <g
               id="g310">
              <use
                 style="stroke:#000000;stroke-width:0.5;"
                 x="180.0"
                 xlink:href="#m0d3085ea07"
                 y="864.0"
                 id="use312" />
            </g>
          </g>
          <g
             id="line2d_27">
            <g
               id="g315">
              <use
                 style="stroke:#000000;stroke-width:0.5;"
                 x="1296.0"
                 xlink:href="#me85f049d96"
                 y="864.0"
                 id="use317" />
            </g>
          </g>
          <g
             id="text_12">
            <!-- 1.5 -->
            <g
               transform="translate(128.290625 872.278125)scale(0.3 -0.3)"
               id="g320">
              <use
                 xlink:href="#BitstreamVeraSans-Roman-31"
                 id="use322" />
              <use
                 x="63.623046875"
                 xlink:href="#BitstreamVeraSans-Roman-2e"
                 id="use324" />
              <use
                 x="95.41015625"
                 xlink:href="#BitstreamVeraSans-Roman-35"
                 id="use326" />
            </g>
          </g>
        </g>
        <g
           id="ytick_5">
          <g
             id="line2d_28">
            <g
               id="g330">
              <use
                 style="stroke:#000000;stroke-width:0.5;"
                 x="180.0"
                 xlink:href="#m0d3085ea07"
                 y="720.0"
                 id="use332" />
            </g>
          </g>
          <g
             id="line2d_29">
            <g
               id="g335">
              <use
                 style="stroke:#000000;stroke-width:0.5;"
                 x="1296.0"
                 xlink:href="#me85f049d96"
                 y="720.0"
                 id="use337" />
            </g>
          </g>
          <g
             id="text_13">
            <!-- 2.0 -->
            <g
               transform="translate(128.290625 728.278125)scale(0.3 -0.3)"
               id="g340">
              <use
                 xlink:href="#BitstreamVeraSans-Roman-32"
                 id="use342" />
              <use
                 x="63.623046875"
                 xlink:href="#BitstreamVeraSans-Roman-2e"
                 id="use344" />
              <use
                 x="95.41015625"
                 xlink:href="#BitstreamVeraSans-Roman-30"
                 id="use346" />
            </g>
          </g>
        </g>
        <g
           id="ytick_6">
          <g
             id="line2d_30">
            <g
               id="g350">
              <use
                 style="stroke:#000000;stroke-width:0.5;"
                 x="180.0"
                 xlink:href="#m0d3085ea07"
                 y="576.0"
                 id="use352" />
            </g>
          </g>
          <g
             id="line2d_31">
            <g
               id="g355">
              <use
                 style="stroke:#000000;stroke-width:0.5;"
                 x="1296.0"
                 xlink:href="#me85f049d96"
                 y="576.0"
                 id="use357" />
            </g>
          </g>
          <g
             id="text_14">
            <!-- 2.5 -->
            <g
               transform="translate(128.290625 584.278125)scale(0.3 -0.3)"
               id="g360">
              <use
                 xlink:href="#BitstreamVeraSans-Roman-32"
                 id="use362" />
              <use
                 x="63.623046875"
                 xlink:href="#BitstreamVeraSans-Roman-2e"
                 id="use364" />
              <use
                 x="95.41015625"
                 xlink:href="#BitstreamVeraSans-Roman-35"
                 id="use366" />
            </g>
          </g>
        </g>
        <g
           id="ytick_7">
          <g
             id="line2d_32">
            <g
               id="g370">
              <use
                 style="stroke:#000000;stroke-width:0.5;"
                 x="180.0"
                 xlink:href="#m0d3085ea07"
                 y="432.0"
                 id="use372" />
            </g>
          </g>
          <g
             id="line2d_33">
            <g
               id="g375">
              <use
                 style="stroke:#000000;stroke-width:0.5;"
                 x="1296.0"
                 xlink:href="#me85f049d96"
                 y="432.0"
                 id="use377" />
            </g>
          </g>
          <g
             id="text_15">
            <!-- 3.0 -->
            <defs
               id="defs380">
              <path
                 d="M 40.578125 39.3125  Q 47.65625 37.796875 51.625 33  Q 55.609375 28.21875 55.609375 21.1875  Q 55.609375 10.40625 48.1875 4.484375  Q 40.765625 -1.421875 27.09375 -1.421875  Q 22.515625 -1.421875 17.65625 -0.515625  Q 12.796875 0.390625 7.625 2.203125  L 7.625 11.71875  Q 11.71875 9.328125 16.59375 8.109375  Q 21.484375 6.890625 26.8125 6.890625  Q 36.078125 6.890625 40.9375 10.546875  Q 45.796875 14.203125 45.796875 21.1875  Q 45.796875 27.640625 41.28125 31.265625  Q 36.765625 34.90625 28.71875 34.90625  L 20.21875 34.90625  L 20.21875 43.015625  L 29.109375 43.015625  Q 36.375 43.015625 40.234375 45.921875  Q 44.09375 48.828125 44.09375 54.296875  Q 44.09375 59.90625 40.109375 62.90625  Q 36.140625 65.921875 28.71875 65.921875  Q 24.65625 65.921875 20.015625 65.03125  Q 15.375 64.15625 9.8125 62.3125  L 9.8125 71.09375  Q 15.4375 72.65625 20.34375 73.4375  Q 25.25 74.21875 29.59375 74.21875  Q 40.828125 74.21875 47.359375 69.109375  Q 53.90625 64.015625 53.90625 55.328125  Q 53.90625 49.265625 50.4375 45.09375  Q 46.96875 40.921875 40.578125 39.3125  "
                 id="BitstreamVeraSans-Roman-33" />
            </defs>
            <g
               transform="translate(128.290625 440.278125)scale(0.3 -0.3)"
               id="g383">
              <use
                 xlink:href="#BitstreamVeraSans-Roman-33"
                 id="use385" />
              <use
                 x="63.623046875"
                 xlink:href="#BitstreamVeraSans-Roman-2e"
                 id="use387" />
              <use
                 x="95.41015625"
                 xlink:href="#BitstreamVeraSans-Roman-30"
                 id="use389" />
            </g>
          </g>
        </g>
        <g
           id="ytick_8">
          <g
             id="line2d_34">
            <g
               id="g393">
              <use
                 style="stroke:#000000;stroke-width:0.5;"
                 x="180.0"
                 xlink:href="#m0d3085ea07"
                 y="288.0"
                 id="use395" />
            </g>
          </g>
          <g
             id="line2d_35">
            <g
               id="g398">
              <use
                 style="stroke:#000000;stroke-width:0.5;"
                 x="1296.0"
                 xlink:href="#me85f049d96"
                 y="288.0"
                 id="use400" />
            </g>
          </g>
          <g
             id="text_16">
            <!-- 3.5 -->
            <g
               transform="translate(128.290625 296.278125)scale(0.3 -0.3)"
               id="g403">
              <use
                 xlink:href="#BitstreamVeraSans-Roman-33"
                 id="use405" />
              <use
                 x="63.623046875"
                 xlink:href="#BitstreamVeraSans-Roman-2e"
                 id="use407" />
              <use
                 x="95.41015625"
                 xlink:href="#BitstreamVeraSans-Roman-35"
                 id="use409" />
            </g>
          </g>
        </g>
        <g
           id="ytick_9">
          <g
             id="line2d_36">
            <g
               id="g413">
              <use
                 style="stroke:#000000;stroke-width:0.5;"
                 x="180.0"
                 xlink:href="#m0d3085ea07"
                 y="144.0"
                 id="use415" />
            </g>
          </g>
          <g
             id="line2d_37">
            <g
               id="g418">
              <use
                 style="stroke:#000000;stroke-width:0.5;"
                 x="1296.0"
                 xlink:href="#me85f049d96"
                 y="144.0"
                 id="use420" />
            </g>
          </g>
          <g
             id="text_17">
            <!-- 4.0 -->
            <g
               transform="translate(128.290625 152.278125)scale(0.3 -0.3)"
               id="g423">
              <use
                 xlink:href="#BitstreamVeraSans-Roman-34"
                 id="use425" />
              <use
                 x="63.623046875"
                 xlink:href="#BitstreamVeraSans-Roman-2e"
                 id="use427" />
              <use
                 x="95.41015625"
                 xlink:href="#BitstreamVeraSans-Roman-30"
                 id="use429" />
            </g>
          </g>
        </g>
        <g
           id="text_18">
          <!-- $&lt;m_A&gt;-&lt;m_B&gt;$ -->
          <defs
             id="defs432">
            <path
               d="M 10.203125 23  Q 9.375 23 8.828125 23.625  Q 8.296875 24.265625 8.296875 25  Q 8.296875 25.734375 8.828125 26.359375  Q 9.375 27 10.203125 27  L 67.578125 27  Q 68.359375 27 68.875 26.359375  Q 69.390625 25.734375 69.390625 25  Q 69.390625 24.265625 68.875 23.625  Q 68.359375 23 67.578125 23  z "
               id="Cmsy10-a1" />
            <path
               d="M 7.71875 1.703125  Q 7.71875 2.296875 7.8125 2.59375  L 15.28125 32.421875  Q 16.015625 35.203125 16.015625 37.3125  Q 16.015625 41.609375 13.09375 41.609375  Q 9.96875 41.609375 8.453125 37.859375  Q 6.9375 34.125 5.515625 28.421875  Q 5.515625 28.125 5.21875 27.953125  Q 4.9375 27.78125 4.6875 27.78125  L 3.515625 27.78125  Q 3.171875 27.78125 2.921875 28.140625  Q 2.6875 28.515625 2.6875 28.8125  Q 3.765625 33.15625 4.765625 36.171875  Q 5.765625 39.203125 7.890625 41.6875  Q 10.015625 44.1875 13.1875 44.1875  Q 16.9375 44.1875 19.8125 41.8125  Q 22.703125 39.453125 22.703125 35.796875  Q 25.6875 39.703125 29.6875 41.9375  Q 33.6875 44.1875 38.1875 44.1875  Q 42.921875 44.1875 46.359375 41.765625  Q 49.8125 39.359375 49.8125 34.90625  Q 52.875 39.265625 57 41.71875  Q 61.140625 44.1875 66.015625 44.1875  Q 71.1875 44.1875 74.328125 41.375  Q 77.484375 38.578125 77.484375 33.40625  Q 77.484375 29.296875 75.65625 23.484375  Q 73.828125 17.671875 71.09375 10.5  Q 69.671875 7.03125 69.671875 4.5  Q 69.671875 1.515625 72.015625 1.515625  Q 75.921875 1.515625 78.515625 5.703125  Q 81.109375 9.90625 82.171875 14.703125  Q 82.46875 15.28125 83.015625 15.28125  L 84.1875 15.28125  Q 84.578125 15.28125 84.84375 15.015625  Q 85.109375 14.75 85.109375 14.40625  Q 85.109375 14.3125 85.015625 14.109375  Q 83.640625 8.453125 80.25 3.65625  Q 76.859375 -1.125 71.78125 -1.125  Q 68.265625 -1.125 65.765625 1.296875  Q 63.28125 3.71875 63.28125 7.171875  Q 63.28125 8.9375 64.109375 11.078125  Q 66.9375 18.609375 68.8125 24.515625  Q 70.703125 30.421875 70.703125 34.90625  Q 70.703125 37.703125 69.578125 39.65625  Q 68.453125 41.609375 65.828125 41.609375  Q 60.359375 41.609375 56.34375 38.25  Q 52.34375 34.90625 49.421875 29.390625  Q 49.21875 28.421875 49.125 27.875  L 42.671875 2.203125  Q 42.328125 0.828125 41.125 -0.140625  Q 39.9375 -1.125 38.484375 -1.125  Q 37.3125 -1.125 36.40625 -0.34375  Q 35.5 0.4375 35.5 1.703125  Q 35.5 2.296875 35.59375 2.59375  L 42 28.078125  Q 43.015625 32.171875 43.015625 34.90625  Q 43.015625 37.703125 41.859375 39.65625  Q 40.71875 41.609375 37.984375 41.609375  Q 34.328125 41.609375 31.25 39.984375  Q 28.171875 38.375 25.875 35.71875  Q 23.578125 33.0625 21.6875 29.390625  L 14.890625 2.203125  Q 14.546875 0.828125 13.34375 -0.140625  Q 12.15625 -1.125 10.6875 -1.125  Q 9.46875 -1.125 8.59375 -0.34375  Q 7.71875 0.4375 7.71875 1.703125  "
               id="Cmmi10-6d" />
            <path
               d="M 4.984375 0  Q 4 0 4 1.3125  Q 4.046875 1.5625 4.1875 2.140625  Q 4.34375 2.734375 4.578125 3.125  Q 4.828125 3.515625 5.328125 3.515625  Q 8.15625 3.515625 10.25 3.65625  Q 12.359375 3.8125 13.8125 4.203125  Q 14.984375 4.640625 15.71875 6.890625  L 29.390625 61.8125  Q 29.59375 62.796875 29.59375 63.1875  Q 29.59375 64.265625 28.421875 64.40625  Q 26.515625 64.796875 21.1875 64.796875  Q 20.21875 64.796875 20.21875 66.109375  Q 20.265625 66.359375 20.40625 66.96875  Q 20.5625 67.578125 20.828125 67.9375  Q 21.09375 68.3125 21.484375 68.3125  L 57.328125 68.3125  Q 60.59375 68.3125 63.796875 67.5  Q 67 66.703125 69.703125 64.9375  Q 72.40625 63.1875 74 60.5625  Q 75.59375 57.953125 75.59375 54.5  Q 75.59375 50.734375 73.65625 47.5  Q 71.734375 44.28125 68.671875 41.890625  Q 65.625 39.5 62.078125 37.953125  Q 58.546875 36.421875 54.6875 35.6875  Q 57.421875 35.6875 60.21875 34.609375  Q 63.03125 33.546875 65.234375 31.6875  Q 67.4375 29.828125 68.78125 27.234375  Q 70.125 24.65625 70.125 21.6875  Q 70.125 15.671875 65.921875 10.6875  Q 61.71875 5.71875 55.34375 2.859375  Q 48.96875 0 43.015625 0  z M 23.390625 4.296875  Q 23.390625 3.515625 26.8125 3.515625  L 41.109375 3.515625  Q 46 3.515625 50.484375 6.21875  Q 54.984375 8.9375 57.6875 13.421875  Q 60.40625 17.921875 60.40625 22.796875  Q 60.40625 25.78125 59.15625 28.4375  Q 57.90625 31.109375 55.5625 32.640625  Q 53.21875 34.1875 50.203125 34.1875  L 30.71875 34.1875  L 23.78125 6.5  Q 23.390625 5.125 23.390625 4.296875  M 31.390625 36.8125  L 46.578125 36.8125  Q 51.375 36.8125 55.890625 39.25  Q 60.40625 41.703125 63.25 45.890625  Q 66.109375 50.09375 66.109375 54.78125  Q 66.109375 59.125 63.390625 61.953125  Q 60.6875 64.796875 56.390625 64.796875  L 42.671875 64.796875  Q 39.984375 64.796875 39.0625 64.296875  Q 38.140625 63.8125 37.5 61.375  z "
               id="Cmmi10-42" />
            <path
               d="M 4.5 0  Q 3.515625 0 3.515625 1.3125  Q 3.90625 3.515625 4.78125 3.515625  Q 8.84375 3.515625 11.796875 5.125  Q 14.75 6.734375 16.890625 10.109375  Q 17.09375 10.296875 17.09375 10.296875  L 52.78125 70.515625  Q 53.5625 71.578125 54.6875 71.578125  L 56 71.578125  Q 56.296875 71.578125 56.59375 71.453125  Q 56.890625 71.34375 57.109375 71.0625  Q 57.328125 70.796875 57.328125 70.515625  L 63.375 5.90625  Q 63.375 5.46875 63.8125 4.59375  Q 64.796875 3.515625 71.296875 3.515625  Q 72.3125 3.515625 72.3125 2.203125  Q 71.96875 0.875 71.75 0.4375  Q 71.53125 0 70.609375 0  L 45.609375 0  Q 44.671875 0 44.671875 1.3125  Q 45.21875 3.515625 46 3.515625  Q 53.90625 3.515625 54.390625 6.203125  L 52.875 22.703125  L 28.21875 22.703125  L 20.21875 9.28125  Q 19.484375 8.203125 19.484375 6.78125  Q 19.484375 5.03125 21.171875 4.265625  Q 22.859375 3.515625 24.90625 3.515625  Q 25.875 3.515625 25.875 2.203125  Q 25.53125 0.78125 25.328125 0.390625  Q 25.140625 0 24.21875 0  z M 30.171875 26.21875  L 52.484375 26.21875  L 49.515625 58.59375  z "
               id="Cmmi10-41" />
            <path
               d="M 8.296875 -2  Q 8.296875 -0.734375 9.625 -0.09375  L 62.703125 25  L 9.28125 50.296875  Q 8.296875 50.59375 8.296875 52  Q 8.296875 52.6875 8.859375 53.34375  Q 9.421875 54 10.296875 54  Q 10.5 54 11.078125 53.8125  L 68.5 26.703125  Q 69.390625 26.265625 69.390625 25  Q 69.390625 23.6875 68.21875 23.1875  L 11.078125 -3.8125  Q 10.5 -4 10.296875 -4  Q 9.421875 -4 8.859375 -3.34375  Q 8.296875 -2.6875 8.296875 -2  "
               id="Cmmi10-3e" />
            <path
               d="M 9.28125 23.296875  Q 8.296875 23.734375 8.296875 25  Q 8.296875 26.265625 9.625 26.90625  L 66.703125 53.8125  Q 67.09375 54 67.390625 54  Q 68.265625 54 68.828125 53.390625  Q 69.390625 52.78125 69.390625 52  Q 69.390625 50.78125 68.21875 50.09375  L 14.984375 25  L 68.5 -0.296875  Q 69.390625 -0.59375 69.390625 -2  Q 69.390625 -2.78125 68.828125 -3.390625  Q 68.265625 -4 67.390625 -4  Q 67.09375 -4 66.703125 -3.8125  z "
               id="Cmmi10-3c" />
          </defs>
          <g
             transform="translate(80.80375 874.44)rotate(-90.0)scale(0.36 -0.36)"
             id="g440">
            <use
               transform="translate(17.55859375 0.0)"
               xlink:href="#Cmmi10-3c"
               id="use442" />
            <use
               transform="translate(112.802734375 0.0)"
               xlink:href="#Cmmi10-6d"
               id="use444" />
            <use
               transform="translate(200.595703125 -17.00625)scale(0.7)"
               xlink:href="#Cmmi10-41"
               id="use446" />
            <use
               transform="translate(277.031640625 0.0)"
               xlink:href="#Cmmi10-3e"
               id="use448" />
            <use
               transform="translate(389.834375 0.0)"
               xlink:href="#Cmsy10-a1"
               id="use450" />
            <use
               transform="translate(502.637109375 0.0)"
               xlink:href="#Cmmi10-3c"
               id="use452" />
            <use
               transform="translate(597.88125 0.0)"
               xlink:href="#Cmmi10-6d"
               id="use454" />
            <use
               transform="translate(685.67421875 -17.00625)scale(0.7)"
               xlink:href="#Cmmi10-42"
               id="use456" />
            <use
               transform="translate(762.65703125 0.0)"
               xlink:href="#Cmmi10-3e"
               id="use458" />
          </g>
        </g>
      </g>
      <g
         id="legend_1">
        <g
           id="patch_7">
          <path
             d="M 961.2 505.86  L 1222.7 505.86  L 1222.7 351.36  L 961.2 351.36  z "
             style="fill:#ffffff;"
             id="path462" />
        </g>
        <g
           id="line2d_38">
          <path
             d="M 978.7 371.61  L 1013.7 371.61  "
             style="fill:none;stroke:#ff7f50;stroke-linecap:square;stroke-width:5.0;"
             id="path465" />
        </g>
        <g
           id="line2d_39" />
        <g
           id="text_19">
          <!-- $\leqslant 1$ hop away -->
          <defs
             id="defs469">
            <path
               d="M 62.09375 6.703125  L 5.59375 34.203125  L 5.59375 35.203125  L 62.09375 62.5  L 62.09375 56.203125  L 18.90625 34.703125  L 62.09375 13.203125  z M 62.09375 -13.703125  L 5.59375 13.796875  L 5.59375 20.40625  L 62.09375 -7.09375  z "
               id="STIXGeneral-Regular-2a7d" />
            <path
               d="M 9.28125 0  L 9.28125 3.515625  Q 21.78125 3.515625 21.78125 6.6875  L 21.78125 59.1875  Q 16.609375 56.6875 8.6875 56.6875  L 8.6875 60.203125  Q 20.953125 60.203125 27.203125 66.609375  L 28.609375 66.609375  Q 28.953125 66.609375 29.265625 66.328125  Q 29.59375 66.0625 29.59375 65.71875  L 29.59375 6.6875  Q 29.59375 3.515625 42.09375 3.515625  L 42.09375 0  z "
               id="Cmr10-31" />
            <path
               d="M 34.28125 27.484375  Q 23.390625 27.484375 19.1875 25  Q 14.984375 22.515625 14.984375 16.5  Q 14.984375 11.71875 18.140625 8.90625  Q 21.296875 6.109375 26.703125 6.109375  Q 34.1875 6.109375 38.703125 11.40625  Q 43.21875 16.703125 43.21875 25.484375  L 43.21875 27.484375  z M 52.203125 31.203125  L 52.203125 0  L 43.21875 0  L 43.21875 8.296875  Q 40.140625 3.328125 35.546875 0.953125  Q 30.953125 -1.421875 24.3125 -1.421875  Q 15.921875 -1.421875 10.953125 3.296875  Q 6 8.015625 6 15.921875  Q 6 25.140625 12.171875 29.828125  Q 18.359375 34.515625 30.609375 34.515625  L 43.21875 34.515625  L 43.21875 35.40625  Q 43.21875 41.609375 39.140625 45  Q 35.0625 48.390625 27.6875 48.390625  Q 23 48.390625 18.546875 47.265625  Q 14.109375 46.140625 10.015625 43.890625  L 10.015625 52.203125  Q 14.9375 54.109375 19.578125 55.046875  Q 24.21875 56 28.609375 56  Q 40.484375 56 46.34375 49.84375  Q 52.203125 43.703125 52.203125 31.203125  "
               id="BitstreamVeraSans-Roman-61" />
            <path
               d="M 54.890625 33.015625  L 54.890625 0  L 45.90625 0  L 45.90625 32.71875  Q 45.90625 40.484375 42.875 44.328125  Q 39.84375 48.1875 33.796875 48.1875  Q 26.515625 48.1875 22.3125 43.546875  Q 18.109375 38.921875 18.109375 30.90625  L 18.109375 0  L 9.078125 0  L 9.078125 75.984375  L 18.109375 75.984375  L 18.109375 46.1875  Q 21.34375 51.125 25.703125 53.5625  Q 30.078125 56 35.796875 56  Q 45.21875 56 50.046875 50.171875  Q 54.890625 44.34375 54.890625 33.015625  "
               id="BitstreamVeraSans-Roman-68" />
            <path
               d="M 32.171875 -5.078125  Q 28.375 -14.84375 24.75 -17.8125  Q 21.140625 -20.796875 15.09375 -20.796875  L 7.90625 -20.796875  L 7.90625 -13.28125  L 13.1875 -13.28125  Q 16.890625 -13.28125 18.9375 -11.515625  Q 21 -9.765625 23.484375 -3.21875  L 25.09375 0.875  L 2.984375 54.6875  L 12.5 54.6875  L 29.59375 11.921875  L 46.6875 54.6875  L 56.203125 54.6875  z "
               id="BitstreamVeraSans-Roman-79" />
          </defs>
          <g
             transform="translate(1041.2 380.36)scale(0.25 -0.25)"
             id="g476">
            <use
               transform="translate(0.0 0.015625)"
               xlink:href="#STIXGeneral-Regular-2a7d"
               id="use478" />
            <use
               transform="translate(68.4999847412 0.015625)"
               xlink:href="#Cmr10-31"
               id="use480" />
            <use
               transform="translate(118.499984741 0.015625)"
               xlink:href="#BitstreamVeraSans-Roman-20"
               id="use482" />
            <use
               transform="translate(150.287094116 0.015625)"
               xlink:href="#BitstreamVeraSans-Roman-68"
               id="use484" />
            <use
               transform="translate(213.666000366 0.015625)"
               xlink:href="#BitstreamVeraSans-Roman-6f"
               id="use486" />
            <use
               transform="translate(274.847640991 0.015625)"
               xlink:href="#BitstreamVeraSans-Roman-70"
               id="use488" />
            <use
               transform="translate(338.324203491 0.015625)"
               xlink:href="#BitstreamVeraSans-Roman-20"
               id="use490" />
            <use
               transform="translate(370.111312866 0.015625)"
               xlink:href="#BitstreamVeraSans-Roman-61"
               id="use492" />
            <use
               transform="translate(431.390609741 0.015625)"
               xlink:href="#BitstreamVeraSans-Roman-77"
               id="use494" />
            <use
               transform="translate(513.177719116 0.015625)"
               xlink:href="#BitstreamVeraSans-Roman-61"
               id="use496" />
            <use
               transform="translate(574.457015991 0.015625)"
               xlink:href="#BitstreamVeraSans-Roman-79"
               id="use498" />
          </g>
        </g>
        <g
           id="line2d_40">
          <path
             d="M 978.7 408.36  L 1013.7 408.36  "
             style="fill:none;stroke:#008000;stroke-dasharray:3.000000,5.000000,1.000000,5.000000;stroke-dashoffset:0.0;stroke-width:5.0;"
             id="path501" />
        </g>
        <g
           id="line2d_41" />
        <g
           id="text_20">
          <!-- $\leqslant 2$ hops away -->
          <defs
             id="defs505">
            <path
               d="M 4.984375 0  L 4.984375 2.6875  Q 4.984375 2.9375 5.171875 3.21875  L 20.703125 20.40625  Q 24.21875 24.21875 26.40625 26.796875  Q 28.609375 29.390625 30.75 32.765625  Q 32.90625 36.140625 34.15625 39.625  Q 35.40625 43.109375 35.40625 47.015625  Q 35.40625 51.125 33.890625 54.859375  Q 32.375 58.59375 29.375 60.84375  Q 26.375 63.09375 22.125 63.09375  Q 17.78125 63.09375 14.3125 60.46875  Q 10.84375 57.859375 9.421875 53.71875  Q 9.8125 53.8125 10.5 53.8125  Q 12.75 53.8125 14.328125 52.296875  Q 15.921875 50.78125 15.921875 48.390625  Q 15.921875 46.09375 14.328125 44.5  Q 12.75 42.921875 10.5 42.921875  Q 8.15625 42.921875 6.5625 44.546875  Q 4.984375 46.1875 4.984375 48.390625  Q 4.984375 52.15625 6.390625 55.4375  Q 7.8125 58.734375 10.46875 61.296875  Q 13.140625 63.875 16.484375 65.234375  Q 19.828125 66.609375 23.578125 66.609375  Q 29.296875 66.609375 34.21875 64.1875  Q 39.15625 61.765625 42.03125 57.34375  Q 44.921875 52.9375 44.921875 47.015625  Q 44.921875 42.671875 43.015625 38.765625  Q 41.109375 34.859375 38.125 31.65625  Q 35.15625 28.46875 30.515625 24.40625  Q 25.875 20.359375 24.421875 19  L 13.09375 8.109375  L 22.703125 8.109375  Q 29.78125 8.109375 34.546875 8.21875  Q 39.3125 8.34375 39.59375 8.59375  Q 40.765625 9.859375 42 17.828125  L 44.921875 17.828125  L 42.09375 0  z "
               id="Cmr10-32" />
            <path
               d="M 44.28125 53.078125  L 44.28125 44.578125  Q 40.484375 46.53125 36.375 47.5  Q 32.28125 48.484375 27.875 48.484375  Q 21.1875 48.484375 17.84375 46.4375  Q 14.5 44.390625 14.5 40.28125  Q 14.5 37.15625 16.890625 35.375  Q 19.28125 33.59375 26.515625 31.984375  L 29.59375 31.296875  Q 39.15625 29.25 43.1875 25.515625  Q 47.21875 21.78125 47.21875 15.09375  Q 47.21875 7.46875 41.1875 3.015625  Q 35.15625 -1.421875 24.609375 -1.421875  Q 20.21875 -1.421875 15.453125 -0.5625  Q 10.6875 0.296875 5.421875 2  L 5.421875 11.28125  Q 10.40625 8.6875 15.234375 7.390625  Q 20.0625 6.109375 24.8125 6.109375  Q 31.15625 6.109375 34.5625 8.28125  Q 37.984375 10.453125 37.984375 14.40625  Q 37.984375 18.0625 35.515625 20.015625  Q 33.0625 21.96875 24.703125 23.78125  L 21.578125 24.515625  Q 13.234375 26.265625 9.515625 29.90625  Q 5.8125 33.546875 5.8125 39.890625  Q 5.8125 47.609375 11.28125 51.796875  Q 16.75 56 26.8125 56  Q 31.78125 56 36.171875 55.265625  Q 40.578125 54.546875 44.28125 53.078125  "
               id="BitstreamVeraSans-Roman-73" />
          </defs>
          <g
             transform="translate(1041.2 417.11)scale(0.25 -0.25)"
             id="g509">
            <use
               transform="translate(0.0 0.015625)"
               xlink:href="#STIXGeneral-Regular-2a7d"
               id="use511" />
            <use
               transform="translate(68.4999847412 0.015625)"
               xlink:href="#Cmr10-32"
               id="use513" />
            <use
               transform="translate(118.499984741 0.015625)"
               xlink:href="#BitstreamVeraSans-Roman-20"
               id="use515" />
            <use
               transform="translate(150.287094116 0.015625)"
               xlink:href="#BitstreamVeraSans-Roman-68"
               id="use517" />
            <use
               transform="translate(213.666000366 0.015625)"
               xlink:href="#BitstreamVeraSans-Roman-6f"
               id="use519" />
            <use
               transform="translate(274.847640991 0.015625)"
               xlink:href="#BitstreamVeraSans-Roman-70"
               id="use521" />
            <use
               transform="translate(338.324203491 0.015625)"
               xlink:href="#BitstreamVeraSans-Roman-73"
               id="use523" />
            <use
               transform="translate(390.423812866 0.015625)"
               xlink:href="#BitstreamVeraSans-Roman-20"
               id="use525" />
            <use
               transform="translate(422.210922241 0.015625)"
               xlink:href="#BitstreamVeraSans-Roman-61"
               id="use527" />
            <use
               transform="translate(483.490219116 0.015625)"
               xlink:href="#BitstreamVeraSans-Roman-77"
               id="use529" />
            <use
               transform="translate(565.277328491 0.015625)"
               xlink:href="#BitstreamVeraSans-Roman-61"
               id="use531" />
            <use
               transform="translate(626.556625366 0.015625)"
               xlink:href="#BitstreamVeraSans-Roman-79"
               id="use533" />
          </g>
        </g>
        <g
           id="line2d_42">
          <path
             d="M 978.7 445.11  L 1013.7 445.11  "
             style="fill:none;stroke:#0000ff;stroke-dasharray:6.000000,6.000000;stroke-dashoffset:0.0;stroke-width:5.0;"
             id="path536" />
        </g>
        <g
           id="line2d_43" />
        <g
           id="text_21">
          <!-- $\leqslant 3$ hops away -->
          <defs
             id="defs540">
            <path
               d="M 9.515625 7.71875  Q 11.859375 4.296875 15.8125 2.640625  Q 19.78125 0.984375 24.3125 0.984375  Q 30.125 0.984375 32.5625 5.9375  Q 35.015625 10.890625 35.015625 17.1875  Q 35.015625 20.015625 34.5 22.84375  Q 33.984375 25.6875 32.765625 28.125  Q 31.546875 30.5625 29.421875 32.03125  Q 27.296875 33.5 24.21875 33.5  L 17.578125 33.5  Q 16.703125 33.5 16.703125 34.421875  L 16.703125 35.296875  Q 16.703125 36.078125 17.578125 36.078125  L 23.09375 36.53125  Q 26.609375 36.53125 28.921875 39.15625  Q 31.25 41.796875 32.328125 45.578125  Q 33.40625 49.359375 33.40625 52.78125  Q 33.40625 57.5625 31.15625 60.640625  Q 28.90625 63.71875 24.3125 63.71875  Q 20.515625 63.71875 17.046875 62.28125  Q 13.578125 60.84375 11.53125 57.90625  Q 11.71875 57.953125 11.859375 57.984375  Q 12.015625 58.015625 12.203125 58.015625  Q 14.453125 58.015625 15.96875 56.453125  Q 17.484375 54.890625 17.484375 52.6875  Q 17.484375 50.53125 15.96875 48.96875  Q 14.453125 47.40625 12.203125 47.40625  Q 10.015625 47.40625 8.453125 48.96875  Q 6.890625 50.53125 6.890625 52.6875  Q 6.890625 56.984375 9.46875 60.15625  Q 12.0625 63.328125 16.140625 64.96875  Q 20.21875 66.609375 24.3125 66.609375  Q 27.34375 66.609375 30.703125 65.703125  Q 34.078125 64.796875 36.8125 63.109375  Q 39.546875 61.421875 41.28125 58.78125  Q 43.015625 56.15625 43.015625 52.78125  Q 43.015625 48.578125 41.140625 45.015625  Q 39.265625 41.453125 35.984375 38.859375  Q 32.71875 36.28125 28.8125 35.015625  Q 33.15625 34.1875 37.0625 31.734375  Q 40.96875 29.296875 43.328125 25.484375  Q 45.703125 21.6875 45.703125 17.28125  Q 45.703125 11.765625 42.671875 7.296875  Q 39.65625 2.828125 34.71875 0.3125  Q 29.78125 -2.203125 24.3125 -2.203125  Q 19.625 -2.203125 14.90625 -0.40625  Q 10.203125 1.375 7.203125 4.9375  Q 4.203125 8.5 4.203125 13.484375  Q 4.203125 15.96875 5.859375 17.625  Q 7.515625 19.28125 10.015625 19.28125  Q 11.625 19.28125 12.96875 18.53125  Q 14.3125 17.78125 15.0625 16.40625  Q 15.828125 15.046875 15.828125 13.484375  Q 15.828125 11.03125 14.109375 9.375  Q 12.40625 7.71875 10.015625 7.71875  z "
               id="Cmr10-33" />
          </defs>
          <g
             transform="translate(1041.2 453.86)scale(0.25 -0.25)"
             id="g543">
            <use
               transform="translate(0.0 0.015625)"
               xlink:href="#STIXGeneral-Regular-2a7d"
               id="use545" />
            <use
               transform="translate(68.4999847412 0.015625)"
               xlink:href="#Cmr10-33"
               id="use547" />
            <use
               transform="translate(118.499984741 0.015625)"
               xlink:href="#BitstreamVeraSans-Roman-20"
               id="use549" />
            <use
               transform="translate(150.287094116 0.015625)"
               xlink:href="#BitstreamVeraSans-Roman-68"
               id="use551" />
            <use
               transform="translate(213.666000366 0.015625)"
               xlink:href="#BitstreamVeraSans-Roman-6f"
               id="use553" />
            <use
               transform="translate(274.847640991 0.015625)"
               xlink:href="#BitstreamVeraSans-Roman-70"
               id="use555" />
            <use
               transform="translate(338.324203491 0.015625)"
               xlink:href="#BitstreamVeraSans-Roman-73"
               id="use557" />
            <use
               transform="translate(390.423812866 0.015625)"
               xlink:href="#BitstreamVeraSans-Roman-20"
               id="use559" />
            <use
               transform="translate(422.210922241 0.015625)"
               xlink:href="#BitstreamVeraSans-Roman-61"
               id="use561" />
            <use
               transform="translate(483.490219116 0.015625)"
               xlink:href="#BitstreamVeraSans-Roman-77"
               id="use563" />
            <use
               transform="translate(565.277328491 0.015625)"
               xlink:href="#BitstreamVeraSans-Roman-61"
               id="use565" />
            <use
               transform="translate(626.556625366 0.015625)"
               xlink:href="#BitstreamVeraSans-Roman-79"
               id="use567" />
          </g>
        </g>
        <g
           id="line2d_44">
          <path
             d="M 978.7 481.86  L 1013.7 481.86  "
             style="fill:none;stroke:#00bfbf;stroke-dasharray:1.000000,3.000000;stroke-dashoffset:0.0;stroke-width:5.0;"
             id="path570" />
        </g>
        <g
           id="line2d_45" />
        <g
           id="text_22">
          <!-- $\leqslant 4$ hops away -->
          <defs
             id="defs574">
            <path
               d="M 2.78125 16.5  L 2.78125 20.015625  L 33.6875 66.109375  Q 34.03125 66.609375 34.71875 66.609375  L 36.1875 66.609375  Q 37.3125 66.609375 37.3125 65.484375  L 37.3125 20.015625  L 47.125 20.015625  L 47.125 16.5  L 37.3125 16.5  L 37.3125 6.6875  Q 37.3125 4.640625 40.234375 4.078125  Q 43.171875 3.515625 47.015625 3.515625  L 47.015625 0  L 19.484375 0  L 19.484375 3.515625  Q 23.34375 3.515625 26.265625 4.078125  Q 29.203125 4.640625 29.203125 6.6875  L 29.203125 16.5  z M 6.109375 20.015625  L 29.78125 20.015625  L 29.78125 55.421875  z "
               id="Cmr10-34" />
          </defs>
          <g
             transform="translate(1041.2 490.61)scale(0.25 -0.25)"
             id="g577">
            <use
               transform="translate(0.0 0.015625)"
               xlink:href="#STIXGeneral-Regular-2a7d"
               id="use579" />
            <use
               transform="translate(68.4999847412 0.015625)"
               xlink:href="#Cmr10-34"
               id="use581" />
            <use
               transform="translate(118.499984741 0.015625)"
               xlink:href="#BitstreamVeraSans-Roman-20"
               id="use583" />
            <use
               transform="translate(150.287094116 0.015625)"
               xlink:href="#BitstreamVeraSans-Roman-68"
               id="use585" />
            <use
               transform="translate(213.666000366 0.015625)"
               xlink:href="#BitstreamVeraSans-Roman-6f"
               id="use587" />
            <use
               transform="translate(274.847640991 0.015625)"
               xlink:href="#BitstreamVeraSans-Roman-70"
               id="use589" />
            <use
               transform="translate(338.324203491 0.015625)"
               xlink:href="#BitstreamVeraSans-Roman-73"
               id="use591" />
            <use
               transform="translate(390.423812866 0.015625)"
               xlink:href="#BitstreamVeraSans-Roman-20"
               id="use593" />
            <use
               transform="translate(422.210922241 0.015625)"
               xlink:href="#BitstreamVeraSans-Roman-61"
               id="use595" />
            <use
               transform="translate(483.490219116 0.015625)"
               xlink:href="#BitstreamVeraSans-Roman-77"
               id="use597" />
            <use
               transform="translate(565.277328491 0.015625)"
               xlink:href="#BitstreamVeraSans-Roman-61"
               id="use599" />
            <use
               transform="translate(626.556625366 0.015625)"
               xlink:href="#BitstreamVeraSans-Roman-79"
               id="use601" />
          </g>
        </g>
      </g>
    </g>
  </g>
  <defs
     id="defs603">
    <clipPath
       id="pc7fd279546">
      <rect
         height="1152.0"
         width="1116.0"
         x="180.0"
         y="144.0"
         id="rect606" />
    </clipPath>
  </defs>
  <text
     xml:space="preserve"
     style="font-style:normal;font-weight:normal;font-size:32px;line-height:125%;font-family:sans-serif;letter-spacing:0px;word-spacing:0px;fill:#000000;fill-opacity:1;stroke:none;stroke-width:1px;stroke-linecap:butt;stroke-linejoin:miter;stroke-miterlimit:100000;stroke-opacity:1"
     x="966.24774"
     y="348.99054"
     id="text4738"
     sodipodi:linespacing="125%"><tspan
       sodipodi:role="line"
       id="tspan4740"
       style="stroke-linecap:butt;stroke-linejoin:round;stroke-miterlimit:100000"
       x="966.24774"
       y="348.99054">Averaged over sites:</tspan></text>
</svg>
